  0
SECTION
  2
BLOCKS
  0
ENDSEC
  0
SECTION
  2
ENTITIES
  0
LINE
  8
0
 10
14.9905
 20
-78.583
 11
24.7214
 21
-76.0845
  0
LINE
  8
0
 10
24.7214
 20
-76.0845
 11
34.0623
 21
-72.3862
  0
LINE
  8
0
 10
34.0623
 20
-72.3862
 11
42.8661
 21
-67.5462
  0
LINE
  8
0
 10
42.8661
 20
-67.5462
 11
50.9939
 21
-61.6411
  0
LINE
  8
0
 10
50.9939
 20
-61.6411
 11
58.3175
 21
-54.7638
  0
LINE
  8
0
 10
58.3175
 20
-54.7638
 11
64.7214
 21
-47.0228
  0
LINE
  8
0
 10
64.7214
 20
-47.0228
 11
70.1045
 21
-38.5403
  0
LINE
  8
0
 10
70.1045
 20
-38.5403
 11
74.3821
 21
-29.45
  0
LINE
  8
0
 10
74.3821
 20
-29.45
 11
77.4866
 21
-19.8952
  0
LINE
  8
0
 10
77.4866
 20
-19.8952
 11
79.3692
 21
-10.0267
  0
LINE
  8
0
 10
79.3692
 20
-10.0267
 11
80
 21
0
  0
LINE
  8
0
 10
80
 20
0
 11
79.3692
 21
10.0267
  0
LINE
  8
0
 10
79.3692
 20
10.0267
 11
77.4866
 21
19.8952
  0
LINE
  8
0
 10
77.4866
 20
19.8952
 11
74.3821
 21
29.45
  0
LINE
  8
0
 10
74.3821
 20
29.45
 11
70.1045
 21
38.5403
  0
LINE
  8
0
 10
70.1045
 20
38.5403
 11
64.7214
 21
47.0228
  0
LINE
  8
0
 10
64.7214
 20
47.0228
 11
58.3175
 21
54.7638
  0
LINE
  8
0
 10
58.3175
 20
54.7638
 11
50.9939
 21
61.6411
  0
LINE
  8
0
 10
50.9939
 20
61.6411
 11
42.8661
 21
67.5462
  0
LINE
  8
0
 10
42.8661
 20
67.5462
 11
34.0623
 21
72.3862
  0
LINE
  8
0
 10
34.0623
 20
72.3862
 11
24.7214
 21
76.0845
  0
LINE
  8
0
 10
24.7214
 20
76.0845
 11
14.9905
 21
78.583
  0
LINE
  8
0
 10
14.9905
 20
78.583
 11
5.02324
 21
79.8421
  0
LINE
  8
0
 10
5.02324
 20
79.8421
 11
-5.02324
 21
79.8421
  0
LINE
  8
0
 10
-5.02324
 20
79.8421
 11
-14.9905
 21
78.583
  0
LINE
  8
0
 10
-14.9905
 20
78.583
 11
-24.7214
 21
76.0845
  0
LINE
  8
0
 10
-24.7214
 20
76.0845
 11
-34.0623
 21
72.3862
  0
LINE
  8
0
 10
-34.0623
 20
72.3862
 11
-42.8661
 21
67.5462
  0
LINE
  8
0
 10
-42.8661
 20
67.5462
 11
-50.9939
 21
61.6411
  0
LINE
  8
0
 10
-50.9939
 20
61.6411
 11
-58.3175
 21
54.7638
  0
LINE
  8
0
 10
-58.3175
 20
54.7638
 11
-64.7214
 21
47.0228
  0
LINE
  8
0
 10
-64.7214
 20
47.0228
 11
-70.1045
 21
38.5403
  0
LINE
  8
0
 10
-70.1045
 20
38.5403
 11
-74.3821
 21
29.45
  0
LINE
  8
0
 10
-74.3821
 20
29.45
 11
-77.4866
 21
19.8952
  0
LINE
  8
0
 10
-77.4866
 20
19.8952
 11
-79.3692
 21
10.0267
  0
LINE
  8
0
 10
-79.3692
 20
10.0267
 11
-80
 21
0
  0
LINE
  8
0
 10
-80
 20
0
 11
-79.3692
 21
-10.0267
  0
LINE
  8
0
 10
-79.3692
 20
-10.0267
 11
-77.4866
 21
-19.8952
  0
LINE
  8
0
 10
-77.4866
 20
-19.8952
 11
-74.3821
 21
-29.45
  0
LINE
  8
0
 10
-74.3821
 20
-29.45
 11
-70.1045
 21
-38.5403
  0
LINE
  8
0
 10
-70.1045
 20
-38.5403
 11
-64.7214
 21
-47.0228
  0
LINE
  8
0
 10
-64.7214
 20
-47.0228
 11
-58.3175
 21
-54.7638
  0
LINE
  8
0
 10
-58.3175
 20
-54.7638
 11
-50.9939
 21
-61.6411
  0
LINE
  8
0
 10
-50.9939
 20
-61.6411
 11
-42.8661
 21
-67.5462
  0
LINE
  8
0
 10
-42.8661
 20
-67.5462
 11
-34.0623
 21
-72.3862
  0
LINE
  8
0
 10
-34.0623
 20
-72.3862
 11
-24.7214
 21
-76.0845
  0
LINE
  8
0
 10
-24.7214
 20
-76.0845
 11
-14.9905
 21
-78.583
  0
LINE
  8
0
 10
-14.9905
 20
-78.583
 11
-5.02324
 21
-79.8421
  0
LINE
  8
0
 10
-5.02324
 20
-79.8421
 11
5.02324
 21
-79.8421
  0
LINE
  8
0
 10
5.02324
 20
-79.8421
 11
14.9905
 21
-78.583
  0
LINE
  8
0
 10
-0.17894
 20
-2.84438
 11
-0.534027
 21
-2.79951
  0
LINE
  8
0
 10
-0.534027
 20
-2.79951
 11
-0.880692
 21
-2.71051
  0
LINE
  8
0
 10
-0.880692
 20
-2.71051
 11
-1.21347
 21
-2.57875
  0
LINE
  8
0
 10
-1.21347
 20
-2.57875
 11
-1.5271
 21
-2.40633
  0
LINE
  8
0
 10
-1.5271
 20
-2.40633
 11
-1.81665
 21
-2.19595
  0
LINE
  8
0
 10
-1.81665
 20
-2.19595
 11
-2.07756
 21
-1.95096
  0
LINE
  8
0
 10
-2.07756
 20
-1.95096
 11
-2.30569
 21
-1.67519
  0
LINE
  8
0
 10
-2.30569
 20
-1.67519
 11
-2.49747
 21
-1.37299
  0
LINE
  8
0
 10
-2.49747
 20
-1.37299
 11
-2.64986
 21
-1.04915
  0
LINE
  8
0
 10
-2.64986
 20
-1.04915
 11
-2.76045
 21
-0.708755
  0
LINE
  8
0
 10
-2.76045
 20
-0.708755
 11
-2.82751
 21
-0.357193
  0
LINE
  8
0
 10
-2.82751
 20
-0.357193
 11
-2.84999
 21
0
  0
LINE
  8
0
 10
-2.84999
 20
0
 11
-2.82751
 21
0.357193
  0
LINE
  8
0
 10
-2.82751
 20
0.357193
 11
-2.76045
 21
0.708755
  0
LINE
  8
0
 10
-2.76045
 20
0.708755
 11
-2.64986
 21
1.04915
  0
LINE
  8
0
 10
-2.64986
 20
1.04915
 11
-2.49747
 21
1.37299
  0
LINE
  8
0
 10
-2.49747
 20
1.37299
 11
-2.30569
 21
1.67519
  0
LINE
  8
0
 10
-2.30569
 20
1.67519
 11
-2.07756
 21
1.95096
  0
LINE
  8
0
 10
-2.07756
 20
1.95096
 11
-1.81665
 21
2.19595
  0
LINE
  8
0
 10
-1.81665
 20
2.19595
 11
-1.5271
 21
2.40633
  0
LINE
  8
0
 10
-1.5271
 20
2.40633
 11
-1.21347
 21
2.57875
  0
LINE
  8
0
 10
-1.21347
 20
2.57875
 11
-0.880692
 21
2.71051
  0
LINE
  8
0
 10
-0.880692
 20
2.71051
 11
-0.534027
 21
2.79951
  0
LINE
  8
0
 10
-0.534027
 20
2.79951
 11
-0.17894
 21
2.84438
  0
LINE
  8
0
 10
-0.17894
 20
2.84438
 11
0.17894
 21
2.84438
  0
LINE
  8
0
 10
0.17894
 20
2.84438
 11
0.534027
 21
2.79951
  0
LINE
  8
0
 10
0.534027
 20
2.79951
 11
0.880692
 21
2.71051
  0
LINE
  8
0
 10
0.880692
 20
2.71051
 11
1.21347
 21
2.57875
  0
LINE
  8
0
 10
1.21347
 20
2.57875
 11
1.45
 21
2.44872
  0
LINE
  8
0
 10
1.45
 20
2.44872
 11
1.45
 21
-2.44872
  0
LINE
  8
0
 10
1.45
 20
-2.44872
 11
1.21347
 21
-2.57875
  0
LINE
  8
0
 10
1.21347
 20
-2.57875
 11
0.880692
 21
-2.71051
  0
LINE
  8
0
 10
0.880692
 20
-2.71051
 11
0.534027
 21
-2.79951
  0
LINE
  8
0
 10
0.534027
 20
-2.79951
 11
0.17894
 21
-2.84438
  0
LINE
  8
0
 10
0.17894
 20
-2.84438
 11
-0.17894
 21
-2.84438
  0
ENDSEC
  0
SECTION
  2
OBJECTS
  0
DICTIONARY
  0
ENDSEC
  0
EOF
