<?xml version="1.0" standalone="no"?>
<!DOCTYPE svg PUBLIC "-//W3C//DTD SVG 1.1//EN" "http://www.w3.org/Graphics/SVG/1.1/DTD/svg11.dtd">
<svg width="160mm" height="160mm" viewBox="-80 -80 160 160" xmlns="http://www.w3.org/2000/svg" version="1.1">
<title>OpenSCAD Model</title>
<path d="
M 14.9905,78.583 L 24.7214,76.0845 L 34.0623,72.3862 L 42.8661,67.5462 L 50.9939,61.6411 L 58.3175,54.7638
 L 64.7214,47.0228 L 70.1045,38.5403 L 74.3821,29.45 L 77.4866,19.8952 L 79.3692,10.0267 L 80,-0
 L 79.3692,-10.0267 L 77.4866,-19.8952 L 74.3821,-29.45 L 70.1045,-38.5403 L 64.7214,-47.0228 L 58.3175,-54.7638
 L 50.9939,-61.6411 L 42.8661,-67.5462 L 34.0623,-72.3862 L 24.7214,-76.0845 L 14.9905,-78.583 L 5.02324,-79.8421
 L -5.02324,-79.8421 L -14.9905,-78.583 L -24.7214,-76.0845 L -34.0623,-72.3862 L -42.8661,-67.5462 L -50.9939,-61.6411
 L -58.3175,-54.7638 L -64.7214,-47.0228 L -70.1045,-38.5403 L -74.3821,-29.45 L -77.4866,-19.8952 L -79.3692,-10.0267
 L -80,-0 L -79.3692,10.0267 L -77.4866,19.8952 L -74.3821,29.45 L -70.1045,38.5403 L -64.7214,47.0228
 L -58.3175,54.7638 L -50.9939,61.6411 L -42.8661,67.5462 L -34.0623,72.3862 L -24.7214,76.0845 L -14.9905,78.583
 L -5.02324,79.8421 L 5.02324,79.8421 z
M -0.17894,2.84438 L -0.534027,2.79951 L -0.880692,2.71051 L -1.21347,2.57875 L -1.5271,2.40633 L -1.81665,2.19595
 L -2.07756,1.95096 L -2.30569,1.67519 L -2.49747,1.37299 L -2.64986,1.04915 L -2.76045,0.708755 L -2.82751,0.357193
 L -2.84999,-0 L -2.82751,-0.357193 L -2.76045,-0.708755 L -2.64986,-1.04915 L -2.49747,-1.37299 L -2.30569,-1.67519
 L -2.07756,-1.95096 L -1.81665,-2.19595 L -1.5271,-2.40633 L -1.21347,-2.57875 L -0.880692,-2.71051 L -0.534027,-2.79951
 L -0.17894,-2.84438 L 0.17894,-2.84438 L 0.534027,-2.79951 L 0.880692,-2.71051 L 1.21347,-2.57875 L 1.45,-2.44872
 L 1.45,2.44872 L 1.21347,2.57875 L 0.880692,2.71051 L 0.534027,2.79951 L 0.17894,2.84438 z
" stroke="black" fill="lightgray" stroke-width="0.5"/>
</svg>
