  0
SECTION
  2
BLOCKS
  0
ENDSEC
  0
SECTION
  2
ENTITIES
  0
LINE
  8
0
 10
222
 20
144.5
 11
178
 21
144.5
  0
LINE
  8
0
 10
178
 20
144.5
 11
178
 21
49.5
  0
LINE
  8
0
 10
178
 20
49.5
 11
222
 21
49.5
  0
LINE
  8
0
 10
222
 20
49.5
 11
222
 21
144.5
  0
LINE
  8
0
 10
172
 20
144.5
 11
128
 21
144.5
  0
LINE
  8
0
 10
128
 20
144.5
 11
128
 21
49.5
  0
LINE
  8
0
 10
128
 20
49.5
 11
172
 21
49.5
  0
LINE
  8
0
 10
172
 20
49.5
 11
172
 21
144.5
  0
LINE
  8
0
 10
124
 20
144.5
 11
76
 21
144.5
  0
LINE
  8
0
 10
76
 20
144.5
 11
76
 21
49.5
  0
LINE
  8
0
 10
76
 20
49.5
 11
124
 21
49.5
  0
LINE
  8
0
 10
124
 20
49.5
 11
124
 21
144.5
  0
LINE
  8
0
 10
74
 20
144.5
 11
26
 21
144.5
  0
LINE
  8
0
 10
26
 20
144.5
 11
26
 21
49.5
  0
LINE
  8
0
 10
26
 20
49.5
 11
74
 21
49.5
  0
LINE
  8
0
 10
74
 20
49.5
 11
74
 21
144.5
  0
LINE
  8
0
 10
24
 20
74
 11
-24
 21
74
  0
LINE
  8
0
 10
-24
 20
74
 11
-24
 21
26
  0
LINE
  8
0
 10
-24
 20
26
 11
24
 21
26
  0
LINE
  8
0
 10
24
 20
26
 11
24
 21
74
  0
LINE
  8
0
 10
-15
 20
35
 11
-15
 21
65
  0
LINE
  8
0
 10
-15
 20
65
 11
15
 21
65
  0
LINE
  8
0
 10
15
 20
65
 11
15
 21
35
  0
LINE
  8
0
 10
15
 20
35
 11
-15
 21
35
  0
LINE
  8
0
 10
-17.5502
 20
49.2016
 11
-17.6499
 21
49.2142
  0
LINE
  8
0
 10
-17.6499
 20
49.2142
 11
-17.7472
 21
49.2392
  0
LINE
  8
0
 10
-17.7472
 20
49.2392
 11
-17.8406
 21
49.2762
  0
LINE
  8
0
 10
-17.8406
 20
49.2762
 11
-17.9286
 21
49.3245
  0
LINE
  8
0
 10
-17.9286
 20
49.3245
 11
-18.0099
 21
49.3836
  0
LINE
  8
0
 10
-18.0099
 20
49.3836
 11
-18.0832
 21
49.4524
  0
LINE
  8
0
 10
-18.0832
 20
49.4524
 11
-18.1472
 21
49.5298
  0
LINE
  8
0
 10
-18.1472
 20
49.5298
 11
-18.201
 21
49.6146
  0
LINE
  8
0
 10
-18.201
 20
49.6146
 11
-18.2438
 21
49.7055
  0
LINE
  8
0
 10
-18.2438
 20
49.7055
 11
-18.2749
 21
49.8011
  0
LINE
  8
0
 10
-18.2749
 20
49.8011
 11
-18.2937
 21
49.8997
  0
LINE
  8
0
 10
-18.2937
 20
49.8997
 11
-18.3
 21
50
  0
LINE
  8
0
 10
-18.3
 20
50
 11
-18.2937
 21
50.1003
  0
LINE
  8
0
 10
-18.2937
 20
50.1003
 11
-18.2749
 21
50.1989
  0
LINE
  8
0
 10
-18.2749
 20
50.1989
 11
-18.2438
 21
50.2945
  0
LINE
  8
0
 10
-18.2438
 20
50.2945
 11
-18.201
 21
50.3854
  0
LINE
  8
0
 10
-18.201
 20
50.3854
 11
-18.1472
 21
50.4702
  0
LINE
  8
0
 10
-18.1472
 20
50.4702
 11
-18.0832
 21
50.5476
  0
LINE
  8
0
 10
-18.0832
 20
50.5476
 11
-18.0099
 21
50.6164
  0
LINE
  8
0
 10
-18.0099
 20
50.6164
 11
-17.9286
 21
50.6755
  0
LINE
  8
0
 10
-17.9286
 20
50.6755
 11
-17.8406
 21
50.7238
  0
LINE
  8
0
 10
-17.8406
 20
50.7238
 11
-17.7472
 21
50.7608
  0
LINE
  8
0
 10
-17.7472
 20
50.7608
 11
-17.6499
 21
50.7858
  0
LINE
  8
0
 10
-17.6499
 20
50.7858
 11
-17.5502
 21
50.7984
  0
LINE
  8
0
 10
-17.5502
 20
50.7984
 11
-17.4498
 21
50.7984
  0
LINE
  8
0
 10
-17.4498
 20
50.7984
 11
-17.3501
 21
50.7858
  0
LINE
  8
0
 10
-17.3501
 20
50.7858
 11
-17.2528
 21
50.7608
  0
LINE
  8
0
 10
-17.2528
 20
50.7608
 11
-17.1594
 21
50.7238
  0
LINE
  8
0
 10
-17.1594
 20
50.7238
 11
-17.0713
 21
50.6755
  0
LINE
  8
0
 10
-17.0713
 20
50.6755
 11
-16.9901
 21
50.6164
  0
LINE
  8
0
 10
-16.9901
 20
50.6164
 11
-16.9168
 21
50.5476
  0
LINE
  8
0
 10
-16.9168
 20
50.5476
 11
-16.8528
 21
50.4702
  0
LINE
  8
0
 10
-16.8528
 20
50.4702
 11
-16.799
 21
50.3854
  0
LINE
  8
0
 10
-16.799
 20
50.3854
 11
-16.7562
 21
50.2945
  0
LINE
  8
0
 10
-16.7562
 20
50.2945
 11
-16.7251
 21
50.1989
  0
LINE
  8
0
 10
-16.7251
 20
50.1989
 11
-16.7063
 21
50.1003
  0
LINE
  8
0
 10
-16.7063
 20
50.1003
 11
-16.7
 21
50
  0
LINE
  8
0
 10
-16.7
 20
50
 11
-16.7063
 21
49.8997
  0
LINE
  8
0
 10
-16.7063
 20
49.8997
 11
-16.7251
 21
49.8011
  0
LINE
  8
0
 10
-16.7251
 20
49.8011
 11
-16.7562
 21
49.7055
  0
LINE
  8
0
 10
-16.7562
 20
49.7055
 11
-16.799
 21
49.6146
  0
LINE
  8
0
 10
-16.799
 20
49.6146
 11
-16.8528
 21
49.5298
  0
LINE
  8
0
 10
-16.8528
 20
49.5298
 11
-16.9168
 21
49.4524
  0
LINE
  8
0
 10
-16.9168
 20
49.4524
 11
-16.9901
 21
49.3836
  0
LINE
  8
0
 10
-16.9901
 20
49.3836
 11
-17.0713
 21
49.3245
  0
LINE
  8
0
 10
-17.0713
 20
49.3245
 11
-17.1594
 21
49.2762
  0
LINE
  8
0
 10
-17.1594
 20
49.2762
 11
-17.2528
 21
49.2392
  0
LINE
  8
0
 10
-17.2528
 20
49.2392
 11
-17.3501
 21
49.2142
  0
LINE
  8
0
 10
-17.3501
 20
49.2142
 11
-17.4498
 21
49.2016
  0
LINE
  8
0
 10
-17.4498
 20
49.2016
 11
-17.5502
 21
49.2016
  0
LINE
  8
0
 10
17.4498
 20
49.2016
 11
17.3501
 21
49.2142
  0
LINE
  8
0
 10
17.3501
 20
49.2142
 11
17.2528
 21
49.2392
  0
LINE
  8
0
 10
17.2528
 20
49.2392
 11
17.1594
 21
49.2762
  0
LINE
  8
0
 10
17.1594
 20
49.2762
 11
17.0713
 21
49.3245
  0
LINE
  8
0
 10
17.0713
 20
49.3245
 11
16.9901
 21
49.3836
  0
LINE
  8
0
 10
16.9901
 20
49.3836
 11
16.9168
 21
49.4524
  0
LINE
  8
0
 10
16.9168
 20
49.4524
 11
16.8528
 21
49.5298
  0
LINE
  8
0
 10
16.8528
 20
49.5298
 11
16.799
 21
49.6146
  0
LINE
  8
0
 10
16.799
 20
49.6146
 11
16.7562
 21
49.7055
  0
LINE
  8
0
 10
16.7562
 20
49.7055
 11
16.7251
 21
49.8011
  0
LINE
  8
0
 10
16.7251
 20
49.8011
 11
16.7063
 21
49.8997
  0
LINE
  8
0
 10
16.7063
 20
49.8997
 11
16.7
 21
50
  0
LINE
  8
0
 10
16.7
 20
50
 11
16.7063
 21
50.1003
  0
LINE
  8
0
 10
16.7063
 20
50.1003
 11
16.7251
 21
50.1989
  0
LINE
  8
0
 10
16.7251
 20
50.1989
 11
16.7562
 21
50.2945
  0
LINE
  8
0
 10
16.7562
 20
50.2945
 11
16.799
 21
50.3854
  0
LINE
  8
0
 10
16.799
 20
50.3854
 11
16.8528
 21
50.4702
  0
LINE
  8
0
 10
16.8528
 20
50.4702
 11
16.9168
 21
50.5476
  0
LINE
  8
0
 10
16.9168
 20
50.5476
 11
16.9901
 21
50.6164
  0
LINE
  8
0
 10
16.9901
 20
50.6164
 11
17.0713
 21
50.6755
  0
LINE
  8
0
 10
17.0713
 20
50.6755
 11
17.1594
 21
50.7238
  0
LINE
  8
0
 10
17.1594
 20
50.7238
 11
17.2528
 21
50.7608
  0
LINE
  8
0
 10
17.2528
 20
50.7608
 11
17.3501
 21
50.7858
  0
LINE
  8
0
 10
17.3501
 20
50.7858
 11
17.4498
 21
50.7984
  0
LINE
  8
0
 10
17.4498
 20
50.7984
 11
17.5502
 21
50.7984
  0
LINE
  8
0
 10
17.5502
 20
50.7984
 11
17.6499
 21
50.7858
  0
LINE
  8
0
 10
17.6499
 20
50.7858
 11
17.7472
 21
50.7608
  0
LINE
  8
0
 10
17.7472
 20
50.7608
 11
17.8406
 21
50.7238
  0
LINE
  8
0
 10
17.8406
 20
50.7238
 11
17.9286
 21
50.6755
  0
LINE
  8
0
 10
17.9286
 20
50.6755
 11
18.0099
 21
50.6164
  0
LINE
  8
0
 10
18.0099
 20
50.6164
 11
18.0832
 21
50.5476
  0
LINE
  8
0
 10
18.0832
 20
50.5476
 11
18.1472
 21
50.4702
  0
LINE
  8
0
 10
18.1472
 20
50.4702
 11
18.201
 21
50.3854
  0
LINE
  8
0
 10
18.201
 20
50.3854
 11
18.2438
 21
50.2945
  0
LINE
  8
0
 10
18.2438
 20
50.2945
 11
18.2749
 21
50.1989
  0
LINE
  8
0
 10
18.2749
 20
50.1989
 11
18.2937
 21
50.1003
  0
LINE
  8
0
 10
18.2937
 20
50.1003
 11
18.3
 21
50
  0
LINE
  8
0
 10
18.3
 20
50
 11
18.2937
 21
49.8997
  0
LINE
  8
0
 10
18.2937
 20
49.8997
 11
18.2749
 21
49.8011
  0
LINE
  8
0
 10
18.2749
 20
49.8011
 11
18.2438
 21
49.7055
  0
LINE
  8
0
 10
18.2438
 20
49.7055
 11
18.201
 21
49.6146
  0
LINE
  8
0
 10
18.201
 20
49.6146
 11
18.1472
 21
49.5298
  0
LINE
  8
0
 10
18.1472
 20
49.5298
 11
18.0832
 21
49.4524
  0
LINE
  8
0
 10
18.0832
 20
49.4524
 11
18.0099
 21
49.3836
  0
LINE
  8
0
 10
18.0099
 20
49.3836
 11
17.9286
 21
49.3245
  0
LINE
  8
0
 10
17.9286
 20
49.3245
 11
17.8406
 21
49.2762
  0
LINE
  8
0
 10
17.8406
 20
49.2762
 11
17.7472
 21
49.2392
  0
LINE
  8
0
 10
17.7472
 20
49.2392
 11
17.6499
 21
49.2142
  0
LINE
  8
0
 10
17.6499
 20
49.2142
 11
17.5502
 21
49.2016
  0
LINE
  8
0
 10
17.5502
 20
49.2016
 11
17.4498
 21
49.2016
  0
LINE
  8
0
 10
274
 20
74
 11
226
 21
74
  0
LINE
  8
0
 10
226
 20
74
 11
226
 21
26
  0
LINE
  8
0
 10
226
 20
26
 11
274
 21
26
  0
LINE
  8
0
 10
274
 20
26
 11
274
 21
74
  0
LINE
  8
0
 10
236.25
 20
36.25
 11
236.25
 21
63.75
  0
LINE
  8
0
 10
236.25
 20
63.75
 11
263.75
 21
63.75
  0
LINE
  8
0
 10
263.75
 20
63.75
 11
263.75
 21
36.25
  0
LINE
  8
0
 10
263.75
 20
36.25
 11
236.25
 21
36.25
  0
LINE
  8
0
 10
74
 20
47.5
 11
26
 21
47.5
  0
LINE
  8
0
 10
26
 20
47.5
 11
26
 21
-47.5
  0
LINE
  8
0
 10
26
 20
-47.5
 11
74
 21
-47.5
  0
LINE
  8
0
 10
74
 20
-47.5
 11
74
 21
47.5
  0
LINE
  8
0
 10
124
 20
47.5
 11
76
 21
47.5
  0
LINE
  8
0
 10
76
 20
47.5
 11
76
 21
-47.5
  0
LINE
  8
0
 10
76
 20
-47.5
 11
124
 21
-47.5
  0
LINE
  8
0
 10
124
 20
-47.5
 11
124
 21
47.5
  0
LINE
  8
0
 10
172
 20
47.5
 11
128
 21
47.5
  0
LINE
  8
0
 10
128
 20
47.5
 11
128
 21
-47.5
  0
LINE
  8
0
 10
128
 20
-47.5
 11
172
 21
-47.5
  0
LINE
  8
0
 10
172
 20
-47.5
 11
172
 21
47.5
  0
LINE
  8
0
 10
222
 20
47.5
 11
178
 21
47.5
  0
LINE
  8
0
 10
178
 20
47.5
 11
178
 21
-47.5
  0
LINE
  8
0
 10
178
 20
-47.5
 11
222
 21
-47.5
  0
LINE
  8
0
 10
222
 20
-47.5
 11
222
 21
47.5
  0
LINE
  8
0
 10
24
 20
24
 11
-24
 21
24
  0
LINE
  8
0
 10
-24
 20
24
 11
-24
 21
-24
  0
LINE
  8
0
 10
-24
 20
-24
 11
24
 21
-24
  0
LINE
  8
0
 10
24
 20
-24
 11
24
 21
24
  0
LINE
  8
0
 10
-15
 20
-15
 11
-15
 21
15
  0
LINE
  8
0
 10
-15
 20
15
 11
15
 21
15
  0
LINE
  8
0
 10
15
 20
15
 11
15
 21
-15
  0
LINE
  8
0
 10
15
 20
-15
 11
-15
 21
-15
  0
LINE
  8
0
 10
-17.5502
 20
-0.798416
 11
-17.6499
 21
-0.785828
  0
LINE
  8
0
 10
-17.6499
 20
-0.785828
 11
-17.7472
 21
-0.760834
  0
LINE
  8
0
 10
-17.7472
 20
-0.760834
 11
-17.8406
 21
-0.723846
  0
LINE
  8
0
 10
-17.8406
 20
-0.723846
 11
-17.9286
 21
-0.675461
  0
LINE
  8
0
 10
-17.9286
 20
-0.675461
 11
-18.0099
 21
-0.616409
  0
LINE
  8
0
 10
-18.0099
 20
-0.616409
 11
-18.0832
 21
-0.547623
  0
LINE
  8
0
 10
-18.0832
 20
-0.547623
 11
-18.1472
 21
-0.470215
  0
LINE
  8
0
 10
-18.1472
 20
-0.470215
 11
-18.201
 21
-0.385391
  0
LINE
  8
0
 10
-18.201
 20
-0.385391
 11
-18.2438
 21
-0.294495
  0
LINE
  8
0
 10
-18.2438
 20
-0.294495
 11
-18.2749
 21
-0.198944
  0
LINE
  8
0
 10
-18.2749
 20
-0.198944
 11
-18.2937
 21
-0.100266
  0
LINE
  8
0
 10
-18.2937
 20
-0.100266
 11
-18.3
 21
0
  0
LINE
  8
0
 10
-18.3
 20
0
 11
-18.2937
 21
0.100266
  0
LINE
  8
0
 10
-18.2937
 20
0.100266
 11
-18.2749
 21
0.198944
  0
LINE
  8
0
 10
-18.2749
 20
0.198944
 11
-18.2438
 21
0.294495
  0
LINE
  8
0
 10
-18.2438
 20
0.294495
 11
-18.201
 21
0.385391
  0
LINE
  8
0
 10
-18.201
 20
0.385391
 11
-18.1472
 21
0.470215
  0
LINE
  8
0
 10
-18.1472
 20
0.470215
 11
-18.0832
 21
0.547623
  0
LINE
  8
0
 10
-18.0832
 20
0.547623
 11
-18.0099
 21
0.616409
  0
LINE
  8
0
 10
-18.0099
 20
0.616409
 11
-17.9286
 21
0.675461
  0
LINE
  8
0
 10
-17.9286
 20
0.675461
 11
-17.8406
 21
0.723846
  0
LINE
  8
0
 10
-17.8406
 20
0.723846
 11
-17.7472
 21
0.760834
  0
LINE
  8
0
 10
-17.7472
 20
0.760834
 11
-17.6499
 21
0.785828
  0
LINE
  8
0
 10
-17.6499
 20
0.785828
 11
-17.5502
 21
0.798416
  0
LINE
  8
0
 10
-17.5502
 20
0.798416
 11
-17.4498
 21
0.798416
  0
LINE
  8
0
 10
-17.4498
 20
0.798416
 11
-17.3501
 21
0.785828
  0
LINE
  8
0
 10
-17.3501
 20
0.785828
 11
-17.2528
 21
0.760834
  0
LINE
  8
0
 10
-17.2528
 20
0.760834
 11
-17.1594
 21
0.723846
  0
LINE
  8
0
 10
-17.1594
 20
0.723846
 11
-17.0713
 21
0.675461
  0
LINE
  8
0
 10
-17.0713
 20
0.675461
 11
-16.9901
 21
0.616409
  0
LINE
  8
0
 10
-16.9901
 20
0.616409
 11
-16.9168
 21
0.547623
  0
LINE
  8
0
 10
-16.9168
 20
0.547623
 11
-16.8528
 21
0.470215
  0
LINE
  8
0
 10
-16.8528
 20
0.470215
 11
-16.799
 21
0.385391
  0
LINE
  8
0
 10
-16.799
 20
0.385391
 11
-16.7562
 21
0.294495
  0
LINE
  8
0
 10
-16.7562
 20
0.294495
 11
-16.7251
 21
0.198944
  0
LINE
  8
0
 10
-16.7251
 20
0.198944
 11
-16.7063
 21
0.100266
  0
LINE
  8
0
 10
-16.7063
 20
0.100266
 11
-16.7
 21
0
  0
LINE
  8
0
 10
-16.7
 20
0
 11
-16.7063
 21
-0.100266
  0
LINE
  8
0
 10
-16.7063
 20
-0.100266
 11
-16.7251
 21
-0.198944
  0
LINE
  8
0
 10
-16.7251
 20
-0.198944
 11
-16.7562
 21
-0.294495
  0
LINE
  8
0
 10
-16.7562
 20
-0.294495
 11
-16.799
 21
-0.385391
  0
LINE
  8
0
 10
-16.799
 20
-0.385391
 11
-16.8528
 21
-0.470215
  0
LINE
  8
0
 10
-16.8528
 20
-0.470215
 11
-16.9168
 21
-0.547623
  0
LINE
  8
0
 10
-16.9168
 20
-0.547623
 11
-16.9901
 21
-0.616409
  0
LINE
  8
0
 10
-16.9901
 20
-0.616409
 11
-17.0713
 21
-0.675461
  0
LINE
  8
0
 10
-17.0713
 20
-0.675461
 11
-17.1594
 21
-0.723846
  0
LINE
  8
0
 10
-17.1594
 20
-0.723846
 11
-17.2528
 21
-0.760834
  0
LINE
  8
0
 10
-17.2528
 20
-0.760834
 11
-17.3501
 21
-0.785828
  0
LINE
  8
0
 10
-17.3501
 20
-0.785828
 11
-17.4498
 21
-0.798416
  0
LINE
  8
0
 10
-17.4498
 20
-0.798416
 11
-17.5502
 21
-0.798416
  0
LINE
  8
0
 10
17.4498
 20
-0.798416
 11
17.3501
 21
-0.785828
  0
LINE
  8
0
 10
17.3501
 20
-0.785828
 11
17.2528
 21
-0.760834
  0
LINE
  8
0
 10
17.2528
 20
-0.760834
 11
17.1594
 21
-0.723846
  0
LINE
  8
0
 10
17.1594
 20
-0.723846
 11
17.0713
 21
-0.675461
  0
LINE
  8
0
 10
17.0713
 20
-0.675461
 11
16.9901
 21
-0.616409
  0
LINE
  8
0
 10
16.9901
 20
-0.616409
 11
16.9168
 21
-0.547623
  0
LINE
  8
0
 10
16.9168
 20
-0.547623
 11
16.8528
 21
-0.470215
  0
LINE
  8
0
 10
16.8528
 20
-0.470215
 11
16.799
 21
-0.385391
  0
LINE
  8
0
 10
16.799
 20
-0.385391
 11
16.7562
 21
-0.294495
  0
LINE
  8
0
 10
16.7562
 20
-0.294495
 11
16.7251
 21
-0.198944
  0
LINE
  8
0
 10
16.7251
 20
-0.198944
 11
16.7063
 21
-0.100266
  0
LINE
  8
0
 10
16.7063
 20
-0.100266
 11
16.7
 21
0
  0
LINE
  8
0
 10
16.7
 20
0
 11
16.7063
 21
0.100266
  0
LINE
  8
0
 10
16.7063
 20
0.100266
 11
16.7251
 21
0.198944
  0
LINE
  8
0
 10
16.7251
 20
0.198944
 11
16.7562
 21
0.294495
  0
LINE
  8
0
 10
16.7562
 20
0.294495
 11
16.799
 21
0.385391
  0
LINE
  8
0
 10
16.799
 20
0.385391
 11
16.8528
 21
0.470215
  0
LINE
  8
0
 10
16.8528
 20
0.470215
 11
16.9168
 21
0.547623
  0
LINE
  8
0
 10
16.9168
 20
0.547623
 11
16.9901
 21
0.616409
  0
LINE
  8
0
 10
16.9901
 20
0.616409
 11
17.0713
 21
0.675461
  0
LINE
  8
0
 10
17.0713
 20
0.675461
 11
17.1594
 21
0.723846
  0
LINE
  8
0
 10
17.1594
 20
0.723846
 11
17.2528
 21
0.760834
  0
LINE
  8
0
 10
17.2528
 20
0.760834
 11
17.3501
 21
0.785828
  0
LINE
  8
0
 10
17.3501
 20
0.785828
 11
17.4498
 21
0.798416
  0
LINE
  8
0
 10
17.4498
 20
0.798416
 11
17.5502
 21
0.798416
  0
LINE
  8
0
 10
17.5502
 20
0.798416
 11
17.6499
 21
0.785828
  0
LINE
  8
0
 10
17.6499
 20
0.785828
 11
17.7472
 21
0.760834
  0
LINE
  8
0
 10
17.7472
 20
0.760834
 11
17.8406
 21
0.723846
  0
LINE
  8
0
 10
17.8406
 20
0.723846
 11
17.9286
 21
0.675461
  0
LINE
  8
0
 10
17.9286
 20
0.675461
 11
18.0099
 21
0.616409
  0
LINE
  8
0
 10
18.0099
 20
0.616409
 11
18.0832
 21
0.547623
  0
LINE
  8
0
 10
18.0832
 20
0.547623
 11
18.1472
 21
0.470215
  0
LINE
  8
0
 10
18.1472
 20
0.470215
 11
18.201
 21
0.385391
  0
LINE
  8
0
 10
18.201
 20
0.385391
 11
18.2438
 21
0.294495
  0
LINE
  8
0
 10
18.2438
 20
0.294495
 11
18.2749
 21
0.198944
  0
LINE
  8
0
 10
18.2749
 20
0.198944
 11
18.2937
 21
0.100266
  0
LINE
  8
0
 10
18.2937
 20
0.100266
 11
18.3
 21
0
  0
LINE
  8
0
 10
18.3
 20
0
 11
18.2937
 21
-0.100266
  0
LINE
  8
0
 10
18.2937
 20
-0.100266
 11
18.2749
 21
-0.198944
  0
LINE
  8
0
 10
18.2749
 20
-0.198944
 11
18.2438
 21
-0.294495
  0
LINE
  8
0
 10
18.2438
 20
-0.294495
 11
18.201
 21
-0.385391
  0
LINE
  8
0
 10
18.201
 20
-0.385391
 11
18.1472
 21
-0.470215
  0
LINE
  8
0
 10
18.1472
 20
-0.470215
 11
18.0832
 21
-0.547623
  0
LINE
  8
0
 10
18.0832
 20
-0.547623
 11
18.0099
 21
-0.616409
  0
LINE
  8
0
 10
18.0099
 20
-0.616409
 11
17.9286
 21
-0.675461
  0
LINE
  8
0
 10
17.9286
 20
-0.675461
 11
17.8406
 21
-0.723846
  0
LINE
  8
0
 10
17.8406
 20
-0.723846
 11
17.7472
 21
-0.760834
  0
LINE
  8
0
 10
17.7472
 20
-0.760834
 11
17.6499
 21
-0.785828
  0
LINE
  8
0
 10
17.6499
 20
-0.785828
 11
17.5502
 21
-0.798416
  0
LINE
  8
0
 10
17.5502
 20
-0.798416
 11
17.4498
 21
-0.798416
  0
LINE
  8
0
 10
274
 20
24
 11
226
 21
24
  0
LINE
  8
0
 10
226
 20
24
 11
226
 21
-24
  0
LINE
  8
0
 10
226
 20
-24
 11
274
 21
-24
  0
LINE
  8
0
 10
274
 20
-24
 11
274
 21
24
  0
LINE
  8
0
 10
236.25
 20
-13.75
 11
236.25
 21
13.75
  0
LINE
  8
0
 10
236.25
 20
13.75
 11
263.75
 21
13.75
  0
LINE
  8
0
 10
263.75
 20
13.75
 11
263.75
 21
-13.75
  0
LINE
  8
0
 10
263.75
 20
-13.75
 11
236.25
 21
-13.75
  0
ENDSEC
  0
SECTION
  2
OBJECTS
  0
DICTIONARY
  0
ENDSEC
  0
EOF
