  0
SECTION
  2
BLOCKS
  0
ENDSEC
  0
SECTION
  2
ENTITIES
  0
LINE
  8
0
 10
330
 20
338.5
 11
262
 21
338.5
  0
LINE
  8
0
 10
262
 20
338.5
 11
262
 21
243.5
  0
LINE
  8
0
 10
262
 20
243.5
 11
330
 21
243.5
  0
LINE
  8
0
 10
330
 20
243.5
 11
330
 21
338.5
  0
LINE
  8
0
 10
256
 20
338.5
 11
188
 21
338.5
  0
LINE
  8
0
 10
188
 20
338.5
 11
188
 21
243.5
  0
LINE
  8
0
 10
188
 20
243.5
 11
256
 21
243.5
  0
LINE
  8
0
 10
256
 20
243.5
 11
256
 21
338.5
  0
LINE
  8
0
 10
184
 20
338.5
 11
112
 21
338.5
  0
LINE
  8
0
 10
112
 20
338.5
 11
112
 21
243.5
  0
LINE
  8
0
 10
112
 20
243.5
 11
184
 21
243.5
  0
LINE
  8
0
 10
184
 20
243.5
 11
184
 21
338.5
  0
LINE
  8
0
 10
110
 20
338.5
 11
38
 21
338.5
  0
LINE
  8
0
 10
38
 20
338.5
 11
38
 21
243.5
  0
LINE
  8
0
 10
38
 20
243.5
 11
110
 21
243.5
  0
LINE
  8
0
 10
110
 20
243.5
 11
110
 21
338.5
  0
LINE
  8
0
 10
36
 20
258
 11
-36
 21
258
  0
LINE
  8
0
 10
-36
 20
258
 11
-36
 21
186
  0
LINE
  8
0
 10
-36
 20
186
 11
36
 21
186
  0
LINE
  8
0
 10
36
 20
186
 11
36
 21
258
  0
LINE
  8
0
 10
-15
 20
207
 11
-15
 21
237
  0
LINE
  8
0
 10
-15
 20
237
 11
15
 21
237
  0
LINE
  8
0
 10
15
 20
237
 11
15
 21
207
  0
LINE
  8
0
 10
15
 20
207
 11
-15
 21
207
  0
LINE
  8
0
 10
17.4498
 20
221.202
 11
17.3501
 21
221.214
  0
LINE
  8
0
 10
17.3501
 20
221.214
 11
17.2528
 21
221.239
  0
LINE
  8
0
 10
17.2528
 20
221.239
 11
17.1594
 21
221.276
  0
LINE
  8
0
 10
17.1594
 20
221.276
 11
17.0713
 21
221.325
  0
LINE
  8
0
 10
17.0713
 20
221.325
 11
16.9901
 21
221.384
  0
LINE
  8
0
 10
16.9901
 20
221.384
 11
16.9168
 21
221.452
  0
LINE
  8
0
 10
16.9168
 20
221.452
 11
16.8528
 21
221.53
  0
LINE
  8
0
 10
16.8528
 20
221.53
 11
16.799
 21
221.615
  0
LINE
  8
0
 10
16.799
 20
221.615
 11
16.7562
 21
221.706
  0
LINE
  8
0
 10
16.7562
 20
221.706
 11
16.7251
 21
221.801
  0
LINE
  8
0
 10
16.7251
 20
221.801
 11
16.7063
 21
221.9
  0
LINE
  8
0
 10
16.7063
 20
221.9
 11
16.7
 21
222
  0
LINE
  8
0
 10
16.7
 20
222
 11
16.7063
 21
222.1
  0
LINE
  8
0
 10
16.7063
 20
222.1
 11
16.7251
 21
222.199
  0
LINE
  8
0
 10
16.7251
 20
222.199
 11
16.7562
 21
222.294
  0
LINE
  8
0
 10
16.7562
 20
222.294
 11
16.799
 21
222.385
  0
LINE
  8
0
 10
16.799
 20
222.385
 11
16.8528
 21
222.47
  0
LINE
  8
0
 10
16.8528
 20
222.47
 11
16.9168
 21
222.548
  0
LINE
  8
0
 10
16.9168
 20
222.548
 11
16.9901
 21
222.616
  0
LINE
  8
0
 10
16.9901
 20
222.616
 11
17.0713
 21
222.675
  0
LINE
  8
0
 10
17.0713
 20
222.675
 11
17.1594
 21
222.724
  0
LINE
  8
0
 10
17.1594
 20
222.724
 11
17.2528
 21
222.761
  0
LINE
  8
0
 10
17.2528
 20
222.761
 11
17.3501
 21
222.786
  0
LINE
  8
0
 10
17.3501
 20
222.786
 11
17.4498
 21
222.798
  0
LINE
  8
0
 10
17.4498
 20
222.798
 11
17.5502
 21
222.798
  0
LINE
  8
0
 10
17.5502
 20
222.798
 11
17.6499
 21
222.786
  0
LINE
  8
0
 10
17.6499
 20
222.786
 11
17.7472
 21
222.761
  0
LINE
  8
0
 10
17.7472
 20
222.761
 11
17.8406
 21
222.724
  0
LINE
  8
0
 10
17.8406
 20
222.724
 11
17.9286
 21
222.675
  0
LINE
  8
0
 10
17.9286
 20
222.675
 11
18.0099
 21
222.616
  0
LINE
  8
0
 10
18.0099
 20
222.616
 11
18.0832
 21
222.548
  0
LINE
  8
0
 10
18.0832
 20
222.548
 11
18.1472
 21
222.47
  0
LINE
  8
0
 10
18.1472
 20
222.47
 11
18.201
 21
222.385
  0
LINE
  8
0
 10
18.201
 20
222.385
 11
18.2438
 21
222.294
  0
LINE
  8
0
 10
18.2438
 20
222.294
 11
18.2749
 21
222.199
  0
LINE
  8
0
 10
18.2749
 20
222.199
 11
18.2937
 21
222.1
  0
LINE
  8
0
 10
18.2937
 20
222.1
 11
18.3
 21
222
  0
LINE
  8
0
 10
18.3
 20
222
 11
18.2937
 21
221.9
  0
LINE
  8
0
 10
18.2937
 20
221.9
 11
18.2749
 21
221.801
  0
LINE
  8
0
 10
18.2749
 20
221.801
 11
18.2438
 21
221.706
  0
LINE
  8
0
 10
18.2438
 20
221.706
 11
18.201
 21
221.615
  0
LINE
  8
0
 10
18.201
 20
221.615
 11
18.1472
 21
221.53
  0
LINE
  8
0
 10
18.1472
 20
221.53
 11
18.0832
 21
221.452
  0
LINE
  8
0
 10
18.0832
 20
221.452
 11
18.0099
 21
221.384
  0
LINE
  8
0
 10
18.0099
 20
221.384
 11
17.9286
 21
221.325
  0
LINE
  8
0
 10
17.9286
 20
221.325
 11
17.8406
 21
221.276
  0
LINE
  8
0
 10
17.8406
 20
221.276
 11
17.7472
 21
221.239
  0
LINE
  8
0
 10
17.7472
 20
221.239
 11
17.6499
 21
221.214
  0
LINE
  8
0
 10
17.6499
 20
221.214
 11
17.5502
 21
221.202
  0
LINE
  8
0
 10
17.5502
 20
221.202
 11
17.4498
 21
221.202
  0
LINE
  8
0
 10
-17.5502
 20
221.202
 11
-17.6499
 21
221.214
  0
LINE
  8
0
 10
-17.6499
 20
221.214
 11
-17.7472
 21
221.239
  0
LINE
  8
0
 10
-17.7472
 20
221.239
 11
-17.8406
 21
221.276
  0
LINE
  8
0
 10
-17.8406
 20
221.276
 11
-17.9286
 21
221.325
  0
LINE
  8
0
 10
-17.9286
 20
221.325
 11
-18.0099
 21
221.384
  0
LINE
  8
0
 10
-18.0099
 20
221.384
 11
-18.0832
 21
221.452
  0
LINE
  8
0
 10
-18.0832
 20
221.452
 11
-18.1472
 21
221.53
  0
LINE
  8
0
 10
-18.1472
 20
221.53
 11
-18.201
 21
221.615
  0
LINE
  8
0
 10
-18.201
 20
221.615
 11
-18.2438
 21
221.706
  0
LINE
  8
0
 10
-18.2438
 20
221.706
 11
-18.2749
 21
221.801
  0
LINE
  8
0
 10
-18.2749
 20
221.801
 11
-18.2937
 21
221.9
  0
LINE
  8
0
 10
-18.2937
 20
221.9
 11
-18.3
 21
222
  0
LINE
  8
0
 10
-18.3
 20
222
 11
-18.2937
 21
222.1
  0
LINE
  8
0
 10
-18.2937
 20
222.1
 11
-18.2749
 21
222.199
  0
LINE
  8
0
 10
-18.2749
 20
222.199
 11
-18.2438
 21
222.294
  0
LINE
  8
0
 10
-18.2438
 20
222.294
 11
-18.201
 21
222.385
  0
LINE
  8
0
 10
-18.201
 20
222.385
 11
-18.1472
 21
222.47
  0
LINE
  8
0
 10
-18.1472
 20
222.47
 11
-18.0832
 21
222.548
  0
LINE
  8
0
 10
-18.0832
 20
222.548
 11
-18.0099
 21
222.616
  0
LINE
  8
0
 10
-18.0099
 20
222.616
 11
-17.9286
 21
222.675
  0
LINE
  8
0
 10
-17.9286
 20
222.675
 11
-17.8406
 21
222.724
  0
LINE
  8
0
 10
-17.8406
 20
222.724
 11
-17.7472
 21
222.761
  0
LINE
  8
0
 10
-17.7472
 20
222.761
 11
-17.6499
 21
222.786
  0
LINE
  8
0
 10
-17.6499
 20
222.786
 11
-17.5502
 21
222.798
  0
LINE
  8
0
 10
-17.5502
 20
222.798
 11
-17.4498
 21
222.798
  0
LINE
  8
0
 10
-17.4498
 20
222.798
 11
-17.3501
 21
222.786
  0
LINE
  8
0
 10
-17.3501
 20
222.786
 11
-17.2528
 21
222.761
  0
LINE
  8
0
 10
-17.2528
 20
222.761
 11
-17.1594
 21
222.724
  0
LINE
  8
0
 10
-17.1594
 20
222.724
 11
-17.0713
 21
222.675
  0
LINE
  8
0
 10
-17.0713
 20
222.675
 11
-16.9901
 21
222.616
  0
LINE
  8
0
 10
-16.9901
 20
222.616
 11
-16.9168
 21
222.548
  0
LINE
  8
0
 10
-16.9168
 20
222.548
 11
-16.8528
 21
222.47
  0
LINE
  8
0
 10
-16.8528
 20
222.47
 11
-16.799
 21
222.385
  0
LINE
  8
0
 10
-16.799
 20
222.385
 11
-16.7562
 21
222.294
  0
LINE
  8
0
 10
-16.7562
 20
222.294
 11
-16.7251
 21
222.199
  0
LINE
  8
0
 10
-16.7251
 20
222.199
 11
-16.7063
 21
222.1
  0
LINE
  8
0
 10
-16.7063
 20
222.1
 11
-16.7
 21
222
  0
LINE
  8
0
 10
-16.7
 20
222
 11
-16.7063
 21
221.9
  0
LINE
  8
0
 10
-16.7063
 20
221.9
 11
-16.7251
 21
221.801
  0
LINE
  8
0
 10
-16.7251
 20
221.801
 11
-16.7562
 21
221.706
  0
LINE
  8
0
 10
-16.7562
 20
221.706
 11
-16.799
 21
221.615
  0
LINE
  8
0
 10
-16.799
 20
221.615
 11
-16.8528
 21
221.53
  0
LINE
  8
0
 10
-16.8528
 20
221.53
 11
-16.9168
 21
221.452
  0
LINE
  8
0
 10
-16.9168
 20
221.452
 11
-16.9901
 21
221.384
  0
LINE
  8
0
 10
-16.9901
 20
221.384
 11
-17.0713
 21
221.325
  0
LINE
  8
0
 10
-17.0713
 20
221.325
 11
-17.1594
 21
221.276
  0
LINE
  8
0
 10
-17.1594
 20
221.276
 11
-17.2528
 21
221.239
  0
LINE
  8
0
 10
-17.2528
 20
221.239
 11
-17.3501
 21
221.214
  0
LINE
  8
0
 10
-17.3501
 20
221.214
 11
-17.4498
 21
221.202
  0
LINE
  8
0
 10
-17.4498
 20
221.202
 11
-17.5502
 21
221.202
  0
LINE
  8
0
 10
406
 20
258
 11
334
 21
258
  0
LINE
  8
0
 10
334
 20
258
 11
334
 21
186
  0
LINE
  8
0
 10
334
 20
186
 11
406
 21
186
  0
LINE
  8
0
 10
406
 20
186
 11
406
 21
258
  0
LINE
  8
0
 10
341.75
 20
193.75
 11
341.75
 21
250.25
  0
LINE
  8
0
 10
341.75
 20
250.25
 11
398.25
 21
250.25
  0
LINE
  8
0
 10
398.25
 20
250.25
 11
398.25
 21
193.75
  0
LINE
  8
0
 10
398.25
 20
193.75
 11
341.75
 21
193.75
  0
LINE
  8
0
 10
330
 20
241.5
 11
262
 21
241.5
  0
LINE
  8
0
 10
262
 20
241.5
 11
262
 21
146.5
  0
LINE
  8
0
 10
262
 20
146.5
 11
330
 21
146.5
  0
LINE
  8
0
 10
330
 20
146.5
 11
330
 21
241.5
  0
LINE
  8
0
 10
256
 20
241.5
 11
188
 21
241.5
  0
LINE
  8
0
 10
188
 20
241.5
 11
188
 21
146.5
  0
LINE
  8
0
 10
188
 20
146.5
 11
256
 21
146.5
  0
LINE
  8
0
 10
256
 20
146.5
 11
256
 21
241.5
  0
LINE
  8
0
 10
184
 20
241.5
 11
112
 21
241.5
  0
LINE
  8
0
 10
112
 20
241.5
 11
112
 21
146.5
  0
LINE
  8
0
 10
112
 20
146.5
 11
184
 21
146.5
  0
LINE
  8
0
 10
184
 20
146.5
 11
184
 21
241.5
  0
LINE
  8
0
 10
110
 20
241.5
 11
38
 21
241.5
  0
LINE
  8
0
 10
38
 20
241.5
 11
38
 21
146.5
  0
LINE
  8
0
 10
38
 20
146.5
 11
110
 21
146.5
  0
LINE
  8
0
 10
110
 20
146.5
 11
110
 21
241.5
  0
LINE
  8
0
 10
406
 20
184
 11
334
 21
184
  0
LINE
  8
0
 10
334
 20
184
 11
334
 21
112
  0
LINE
  8
0
 10
334
 20
112
 11
406
 21
112
  0
LINE
  8
0
 10
406
 20
112
 11
406
 21
184
  0
LINE
  8
0
 10
341.75
 20
119.75
 11
341.75
 21
176.25
  0
LINE
  8
0
 10
341.75
 20
176.25
 11
398.25
 21
176.25
  0
LINE
  8
0
 10
398.25
 20
176.25
 11
398.25
 21
119.75
  0
LINE
  8
0
 10
398.25
 20
119.75
 11
341.75
 21
119.75
  0
LINE
  8
0
 10
36
 20
184
 11
-36
 21
184
  0
LINE
  8
0
 10
-36
 20
184
 11
-36
 21
112
  0
LINE
  8
0
 10
-36
 20
112
 11
36
 21
112
  0
LINE
  8
0
 10
36
 20
112
 11
36
 21
184
  0
LINE
  8
0
 10
-15
 20
133
 11
-15
 21
163
  0
LINE
  8
0
 10
-15
 20
163
 11
15
 21
163
  0
LINE
  8
0
 10
15
 20
163
 11
15
 21
133
  0
LINE
  8
0
 10
15
 20
133
 11
-15
 21
133
  0
LINE
  8
0
 10
17.4498
 20
147.202
 11
17.3501
 21
147.214
  0
LINE
  8
0
 10
17.3501
 20
147.214
 11
17.2528
 21
147.239
  0
LINE
  8
0
 10
17.2528
 20
147.239
 11
17.1594
 21
147.276
  0
LINE
  8
0
 10
17.1594
 20
147.276
 11
17.0713
 21
147.325
  0
LINE
  8
0
 10
17.0713
 20
147.325
 11
16.9901
 21
147.384
  0
LINE
  8
0
 10
16.9901
 20
147.384
 11
16.9168
 21
147.452
  0
LINE
  8
0
 10
16.9168
 20
147.452
 11
16.8528
 21
147.53
  0
LINE
  8
0
 10
16.8528
 20
147.53
 11
16.799
 21
147.615
  0
LINE
  8
0
 10
16.799
 20
147.615
 11
16.7562
 21
147.706
  0
LINE
  8
0
 10
16.7562
 20
147.706
 11
16.7251
 21
147.801
  0
LINE
  8
0
 10
16.7251
 20
147.801
 11
16.7063
 21
147.9
  0
LINE
  8
0
 10
16.7063
 20
147.9
 11
16.7
 21
148
  0
LINE
  8
0
 10
16.7
 20
148
 11
16.7063
 21
148.1
  0
LINE
  8
0
 10
16.7063
 20
148.1
 11
16.7251
 21
148.199
  0
LINE
  8
0
 10
16.7251
 20
148.199
 11
16.7562
 21
148.294
  0
LINE
  8
0
 10
16.7562
 20
148.294
 11
16.799
 21
148.385
  0
LINE
  8
0
 10
16.799
 20
148.385
 11
16.8528
 21
148.47
  0
LINE
  8
0
 10
16.8528
 20
148.47
 11
16.9168
 21
148.548
  0
LINE
  8
0
 10
16.9168
 20
148.548
 11
16.9901
 21
148.616
  0
LINE
  8
0
 10
16.9901
 20
148.616
 11
17.0713
 21
148.675
  0
LINE
  8
0
 10
17.0713
 20
148.675
 11
17.1594
 21
148.724
  0
LINE
  8
0
 10
17.1594
 20
148.724
 11
17.2528
 21
148.761
  0
LINE
  8
0
 10
17.2528
 20
148.761
 11
17.3501
 21
148.786
  0
LINE
  8
0
 10
17.3501
 20
148.786
 11
17.4498
 21
148.798
  0
LINE
  8
0
 10
17.4498
 20
148.798
 11
17.5502
 21
148.798
  0
LINE
  8
0
 10
17.5502
 20
148.798
 11
17.6499
 21
148.786
  0
LINE
  8
0
 10
17.6499
 20
148.786
 11
17.7472
 21
148.761
  0
LINE
  8
0
 10
17.7472
 20
148.761
 11
17.8406
 21
148.724
  0
LINE
  8
0
 10
17.8406
 20
148.724
 11
17.9286
 21
148.675
  0
LINE
  8
0
 10
17.9286
 20
148.675
 11
18.0099
 21
148.616
  0
LINE
  8
0
 10
18.0099
 20
148.616
 11
18.0832
 21
148.548
  0
LINE
  8
0
 10
18.0832
 20
148.548
 11
18.1472
 21
148.47
  0
LINE
  8
0
 10
18.1472
 20
148.47
 11
18.201
 21
148.385
  0
LINE
  8
0
 10
18.201
 20
148.385
 11
18.2438
 21
148.294
  0
LINE
  8
0
 10
18.2438
 20
148.294
 11
18.2749
 21
148.199
  0
LINE
  8
0
 10
18.2749
 20
148.199
 11
18.2937
 21
148.1
  0
LINE
  8
0
 10
18.2937
 20
148.1
 11
18.3
 21
148
  0
LINE
  8
0
 10
18.3
 20
148
 11
18.2937
 21
147.9
  0
LINE
  8
0
 10
18.2937
 20
147.9
 11
18.2749
 21
147.801
  0
LINE
  8
0
 10
18.2749
 20
147.801
 11
18.2438
 21
147.706
  0
LINE
  8
0
 10
18.2438
 20
147.706
 11
18.201
 21
147.615
  0
LINE
  8
0
 10
18.201
 20
147.615
 11
18.1472
 21
147.53
  0
LINE
  8
0
 10
18.1472
 20
147.53
 11
18.0832
 21
147.452
  0
LINE
  8
0
 10
18.0832
 20
147.452
 11
18.0099
 21
147.384
  0
LINE
  8
0
 10
18.0099
 20
147.384
 11
17.9286
 21
147.325
  0
LINE
  8
0
 10
17.9286
 20
147.325
 11
17.8406
 21
147.276
  0
LINE
  8
0
 10
17.8406
 20
147.276
 11
17.7472
 21
147.239
  0
LINE
  8
0
 10
17.7472
 20
147.239
 11
17.6499
 21
147.214
  0
LINE
  8
0
 10
17.6499
 20
147.214
 11
17.5502
 21
147.202
  0
LINE
  8
0
 10
17.5502
 20
147.202
 11
17.4498
 21
147.202
  0
LINE
  8
0
 10
-17.5502
 20
147.202
 11
-17.6499
 21
147.214
  0
LINE
  8
0
 10
-17.6499
 20
147.214
 11
-17.7472
 21
147.239
  0
LINE
  8
0
 10
-17.7472
 20
147.239
 11
-17.8406
 21
147.276
  0
LINE
  8
0
 10
-17.8406
 20
147.276
 11
-17.9286
 21
147.325
  0
LINE
  8
0
 10
-17.9286
 20
147.325
 11
-18.0099
 21
147.384
  0
LINE
  8
0
 10
-18.0099
 20
147.384
 11
-18.0832
 21
147.452
  0
LINE
  8
0
 10
-18.0832
 20
147.452
 11
-18.1472
 21
147.53
  0
LINE
  8
0
 10
-18.1472
 20
147.53
 11
-18.201
 21
147.615
  0
LINE
  8
0
 10
-18.201
 20
147.615
 11
-18.2438
 21
147.706
  0
LINE
  8
0
 10
-18.2438
 20
147.706
 11
-18.2749
 21
147.801
  0
LINE
  8
0
 10
-18.2749
 20
147.801
 11
-18.2937
 21
147.9
  0
LINE
  8
0
 10
-18.2937
 20
147.9
 11
-18.3
 21
148
  0
LINE
  8
0
 10
-18.3
 20
148
 11
-18.2937
 21
148.1
  0
LINE
  8
0
 10
-18.2937
 20
148.1
 11
-18.2749
 21
148.199
  0
LINE
  8
0
 10
-18.2749
 20
148.199
 11
-18.2438
 21
148.294
  0
LINE
  8
0
 10
-18.2438
 20
148.294
 11
-18.201
 21
148.385
  0
LINE
  8
0
 10
-18.201
 20
148.385
 11
-18.1472
 21
148.47
  0
LINE
  8
0
 10
-18.1472
 20
148.47
 11
-18.0832
 21
148.548
  0
LINE
  8
0
 10
-18.0832
 20
148.548
 11
-18.0099
 21
148.616
  0
LINE
  8
0
 10
-18.0099
 20
148.616
 11
-17.9286
 21
148.675
  0
LINE
  8
0
 10
-17.9286
 20
148.675
 11
-17.8406
 21
148.724
  0
LINE
  8
0
 10
-17.8406
 20
148.724
 11
-17.7472
 21
148.761
  0
LINE
  8
0
 10
-17.7472
 20
148.761
 11
-17.6499
 21
148.786
  0
LINE
  8
0
 10
-17.6499
 20
148.786
 11
-17.5502
 21
148.798
  0
LINE
  8
0
 10
-17.5502
 20
148.798
 11
-17.4498
 21
148.798
  0
LINE
  8
0
 10
-17.4498
 20
148.798
 11
-17.3501
 21
148.786
  0
LINE
  8
0
 10
-17.3501
 20
148.786
 11
-17.2528
 21
148.761
  0
LINE
  8
0
 10
-17.2528
 20
148.761
 11
-17.1594
 21
148.724
  0
LINE
  8
0
 10
-17.1594
 20
148.724
 11
-17.0713
 21
148.675
  0
LINE
  8
0
 10
-17.0713
 20
148.675
 11
-16.9901
 21
148.616
  0
LINE
  8
0
 10
-16.9901
 20
148.616
 11
-16.9168
 21
148.548
  0
LINE
  8
0
 10
-16.9168
 20
148.548
 11
-16.8528
 21
148.47
  0
LINE
  8
0
 10
-16.8528
 20
148.47
 11
-16.799
 21
148.385
  0
LINE
  8
0
 10
-16.799
 20
148.385
 11
-16.7562
 21
148.294
  0
LINE
  8
0
 10
-16.7562
 20
148.294
 11
-16.7251
 21
148.199
  0
LINE
  8
0
 10
-16.7251
 20
148.199
 11
-16.7063
 21
148.1
  0
LINE
  8
0
 10
-16.7063
 20
148.1
 11
-16.7
 21
148
  0
LINE
  8
0
 10
-16.7
 20
148
 11
-16.7063
 21
147.9
  0
LINE
  8
0
 10
-16.7063
 20
147.9
 11
-16.7251
 21
147.801
  0
LINE
  8
0
 10
-16.7251
 20
147.801
 11
-16.7562
 21
147.706
  0
LINE
  8
0
 10
-16.7562
 20
147.706
 11
-16.799
 21
147.615
  0
LINE
  8
0
 10
-16.799
 20
147.615
 11
-16.8528
 21
147.53
  0
LINE
  8
0
 10
-16.8528
 20
147.53
 11
-16.9168
 21
147.452
  0
LINE
  8
0
 10
-16.9168
 20
147.452
 11
-16.9901
 21
147.384
  0
LINE
  8
0
 10
-16.9901
 20
147.384
 11
-17.0713
 21
147.325
  0
LINE
  8
0
 10
-17.0713
 20
147.325
 11
-17.1594
 21
147.276
  0
LINE
  8
0
 10
-17.1594
 20
147.276
 11
-17.2528
 21
147.239
  0
LINE
  8
0
 10
-17.2528
 20
147.239
 11
-17.3501
 21
147.214
  0
LINE
  8
0
 10
-17.3501
 20
147.214
 11
-17.4498
 21
147.202
  0
LINE
  8
0
 10
-17.4498
 20
147.202
 11
-17.5502
 21
147.202
  0
LINE
  8
0
 10
330
 20
144.5
 11
262
 21
144.5
  0
LINE
  8
0
 10
262
 20
144.5
 11
262
 21
49.5
  0
LINE
  8
0
 10
262
 20
49.5
 11
330
 21
49.5
  0
LINE
  8
0
 10
330
 20
49.5
 11
330
 21
144.5
  0
LINE
  8
0
 10
110
 20
144.5
 11
38
 21
144.5
  0
LINE
  8
0
 10
38
 20
144.5
 11
38
 21
49.5
  0
LINE
  8
0
 10
38
 20
49.5
 11
110
 21
49.5
  0
LINE
  8
0
 10
110
 20
49.5
 11
110
 21
144.5
  0
LINE
  8
0
 10
256
 20
144.5
 11
188
 21
144.5
  0
LINE
  8
0
 10
188
 20
144.5
 11
188
 21
49.5
  0
LINE
  8
0
 10
188
 20
49.5
 11
256
 21
49.5
  0
LINE
  8
0
 10
256
 20
49.5
 11
256
 21
144.5
  0
LINE
  8
0
 10
184
 20
144.5
 11
112
 21
144.5
  0
LINE
  8
0
 10
112
 20
144.5
 11
112
 21
49.5
  0
LINE
  8
0
 10
112
 20
49.5
 11
184
 21
49.5
  0
LINE
  8
0
 10
184
 20
49.5
 11
184
 21
144.5
  0
LINE
  8
0
 10
406
 20
110
 11
334
 21
110
  0
LINE
  8
0
 10
334
 20
110
 11
334
 21
38
  0
LINE
  8
0
 10
334
 20
38
 11
406
 21
38
  0
LINE
  8
0
 10
406
 20
38
 11
406
 21
110
  0
LINE
  8
0
 10
341.75
 20
45.75
 11
341.75
 21
102.25
  0
LINE
  8
0
 10
341.75
 20
102.25
 11
398.25
 21
102.25
  0
LINE
  8
0
 10
398.25
 20
102.25
 11
398.25
 21
45.75
  0
LINE
  8
0
 10
398.25
 20
45.75
 11
341.75
 21
45.75
  0
LINE
  8
0
 10
36
 20
110
 11
-36
 21
110
  0
LINE
  8
0
 10
-36
 20
110
 11
-36
 21
38
  0
LINE
  8
0
 10
-36
 20
38
 11
36
 21
38
  0
LINE
  8
0
 10
36
 20
38
 11
36
 21
110
  0
LINE
  8
0
 10
-15
 20
59
 11
-15
 21
89
  0
LINE
  8
0
 10
-15
 20
89
 11
15
 21
89
  0
LINE
  8
0
 10
15
 20
89
 11
15
 21
59
  0
LINE
  8
0
 10
15
 20
59
 11
-15
 21
59
  0
LINE
  8
0
 10
17.4498
 20
73.2016
 11
17.3501
 21
73.2142
  0
LINE
  8
0
 10
17.3501
 20
73.2142
 11
17.2528
 21
73.2392
  0
LINE
  8
0
 10
17.2528
 20
73.2392
 11
17.1594
 21
73.2762
  0
LINE
  8
0
 10
17.1594
 20
73.2762
 11
17.0713
 21
73.3245
  0
LINE
  8
0
 10
17.0713
 20
73.3245
 11
16.9901
 21
73.3836
  0
LINE
  8
0
 10
16.9901
 20
73.3836
 11
16.9168
 21
73.4524
  0
LINE
  8
0
 10
16.9168
 20
73.4524
 11
16.8528
 21
73.5298
  0
LINE
  8
0
 10
16.8528
 20
73.5298
 11
16.799
 21
73.6146
  0
LINE
  8
0
 10
16.799
 20
73.6146
 11
16.7562
 21
73.7055
  0
LINE
  8
0
 10
16.7562
 20
73.7055
 11
16.7251
 21
73.8011
  0
LINE
  8
0
 10
16.7251
 20
73.8011
 11
16.7063
 21
73.8997
  0
LINE
  8
0
 10
16.7063
 20
73.8997
 11
16.7
 21
74
  0
LINE
  8
0
 10
16.7
 20
74
 11
16.7063
 21
74.1003
  0
LINE
  8
0
 10
16.7063
 20
74.1003
 11
16.7251
 21
74.1989
  0
LINE
  8
0
 10
16.7251
 20
74.1989
 11
16.7562
 21
74.2945
  0
LINE
  8
0
 10
16.7562
 20
74.2945
 11
16.799
 21
74.3854
  0
LINE
  8
0
 10
16.799
 20
74.3854
 11
16.8528
 21
74.4702
  0
LINE
  8
0
 10
16.8528
 20
74.4702
 11
16.9168
 21
74.5476
  0
LINE
  8
0
 10
16.9168
 20
74.5476
 11
16.9901
 21
74.6164
  0
LINE
  8
0
 10
16.9901
 20
74.6164
 11
17.0713
 21
74.6755
  0
LINE
  8
0
 10
17.0713
 20
74.6755
 11
17.1594
 21
74.7238
  0
LINE
  8
0
 10
17.1594
 20
74.7238
 11
17.2528
 21
74.7608
  0
LINE
  8
0
 10
17.2528
 20
74.7608
 11
17.3501
 21
74.7858
  0
LINE
  8
0
 10
17.3501
 20
74.7858
 11
17.4498
 21
74.7984
  0
LINE
  8
0
 10
17.4498
 20
74.7984
 11
17.5502
 21
74.7984
  0
LINE
  8
0
 10
17.5502
 20
74.7984
 11
17.6499
 21
74.7858
  0
LINE
  8
0
 10
17.6499
 20
74.7858
 11
17.7472
 21
74.7608
  0
LINE
  8
0
 10
17.7472
 20
74.7608
 11
17.8406
 21
74.7238
  0
LINE
  8
0
 10
17.8406
 20
74.7238
 11
17.9286
 21
74.6755
  0
LINE
  8
0
 10
17.9286
 20
74.6755
 11
18.0099
 21
74.6164
  0
LINE
  8
0
 10
18.0099
 20
74.6164
 11
18.0832
 21
74.5476
  0
LINE
  8
0
 10
18.0832
 20
74.5476
 11
18.1472
 21
74.4702
  0
LINE
  8
0
 10
18.1472
 20
74.4702
 11
18.201
 21
74.3854
  0
LINE
  8
0
 10
18.201
 20
74.3854
 11
18.2438
 21
74.2945
  0
LINE
  8
0
 10
18.2438
 20
74.2945
 11
18.2749
 21
74.1989
  0
LINE
  8
0
 10
18.2749
 20
74.1989
 11
18.2937
 21
74.1003
  0
LINE
  8
0
 10
18.2937
 20
74.1003
 11
18.3
 21
74
  0
LINE
  8
0
 10
18.3
 20
74
 11
18.2937
 21
73.8997
  0
LINE
  8
0
 10
18.2937
 20
73.8997
 11
18.2749
 21
73.8011
  0
LINE
  8
0
 10
18.2749
 20
73.8011
 11
18.2438
 21
73.7055
  0
LINE
  8
0
 10
18.2438
 20
73.7055
 11
18.201
 21
73.6146
  0
LINE
  8
0
 10
18.201
 20
73.6146
 11
18.1472
 21
73.5298
  0
LINE
  8
0
 10
18.1472
 20
73.5298
 11
18.0832
 21
73.4524
  0
LINE
  8
0
 10
18.0832
 20
73.4524
 11
18.0099
 21
73.3836
  0
LINE
  8
0
 10
18.0099
 20
73.3836
 11
17.9286
 21
73.3245
  0
LINE
  8
0
 10
17.9286
 20
73.3245
 11
17.8406
 21
73.2762
  0
LINE
  8
0
 10
17.8406
 20
73.2762
 11
17.7472
 21
73.2392
  0
LINE
  8
0
 10
17.7472
 20
73.2392
 11
17.6499
 21
73.2142
  0
LINE
  8
0
 10
17.6499
 20
73.2142
 11
17.5502
 21
73.2016
  0
LINE
  8
0
 10
17.5502
 20
73.2016
 11
17.4498
 21
73.2016
  0
LINE
  8
0
 10
-17.5502
 20
73.2016
 11
-17.6499
 21
73.2142
  0
LINE
  8
0
 10
-17.6499
 20
73.2142
 11
-17.7472
 21
73.2392
  0
LINE
  8
0
 10
-17.7472
 20
73.2392
 11
-17.8406
 21
73.2762
  0
LINE
  8
0
 10
-17.8406
 20
73.2762
 11
-17.9286
 21
73.3245
  0
LINE
  8
0
 10
-17.9286
 20
73.3245
 11
-18.0099
 21
73.3836
  0
LINE
  8
0
 10
-18.0099
 20
73.3836
 11
-18.0832
 21
73.4524
  0
LINE
  8
0
 10
-18.0832
 20
73.4524
 11
-18.1472
 21
73.5298
  0
LINE
  8
0
 10
-18.1472
 20
73.5298
 11
-18.201
 21
73.6146
  0
LINE
  8
0
 10
-18.201
 20
73.6146
 11
-18.2438
 21
73.7055
  0
LINE
  8
0
 10
-18.2438
 20
73.7055
 11
-18.2749
 21
73.8011
  0
LINE
  8
0
 10
-18.2749
 20
73.8011
 11
-18.2937
 21
73.8997
  0
LINE
  8
0
 10
-18.2937
 20
73.8997
 11
-18.3
 21
74
  0
LINE
  8
0
 10
-18.3
 20
74
 11
-18.2937
 21
74.1003
  0
LINE
  8
0
 10
-18.2937
 20
74.1003
 11
-18.2749
 21
74.1989
  0
LINE
  8
0
 10
-18.2749
 20
74.1989
 11
-18.2438
 21
74.2945
  0
LINE
  8
0
 10
-18.2438
 20
74.2945
 11
-18.201
 21
74.3854
  0
LINE
  8
0
 10
-18.201
 20
74.3854
 11
-18.1472
 21
74.4702
  0
LINE
  8
0
 10
-18.1472
 20
74.4702
 11
-18.0832
 21
74.5476
  0
LINE
  8
0
 10
-18.0832
 20
74.5476
 11
-18.0099
 21
74.6164
  0
LINE
  8
0
 10
-18.0099
 20
74.6164
 11
-17.9286
 21
74.6755
  0
LINE
  8
0
 10
-17.9286
 20
74.6755
 11
-17.8406
 21
74.7238
  0
LINE
  8
0
 10
-17.8406
 20
74.7238
 11
-17.7472
 21
74.7608
  0
LINE
  8
0
 10
-17.7472
 20
74.7608
 11
-17.6499
 21
74.7858
  0
LINE
  8
0
 10
-17.6499
 20
74.7858
 11
-17.5502
 21
74.7984
  0
LINE
  8
0
 10
-17.5502
 20
74.7984
 11
-17.4498
 21
74.7984
  0
LINE
  8
0
 10
-17.4498
 20
74.7984
 11
-17.3501
 21
74.7858
  0
LINE
  8
0
 10
-17.3501
 20
74.7858
 11
-17.2528
 21
74.7608
  0
LINE
  8
0
 10
-17.2528
 20
74.7608
 11
-17.1594
 21
74.7238
  0
LINE
  8
0
 10
-17.1594
 20
74.7238
 11
-17.0713
 21
74.6755
  0
LINE
  8
0
 10
-17.0713
 20
74.6755
 11
-16.9901
 21
74.6164
  0
LINE
  8
0
 10
-16.9901
 20
74.6164
 11
-16.9168
 21
74.5476
  0
LINE
  8
0
 10
-16.9168
 20
74.5476
 11
-16.8528
 21
74.4702
  0
LINE
  8
0
 10
-16.8528
 20
74.4702
 11
-16.799
 21
74.3854
  0
LINE
  8
0
 10
-16.799
 20
74.3854
 11
-16.7562
 21
74.2945
  0
LINE
  8
0
 10
-16.7562
 20
74.2945
 11
-16.7251
 21
74.1989
  0
LINE
  8
0
 10
-16.7251
 20
74.1989
 11
-16.7063
 21
74.1003
  0
LINE
  8
0
 10
-16.7063
 20
74.1003
 11
-16.7
 21
74
  0
LINE
  8
0
 10
-16.7
 20
74
 11
-16.7063
 21
73.8997
  0
LINE
  8
0
 10
-16.7063
 20
73.8997
 11
-16.7251
 21
73.8011
  0
LINE
  8
0
 10
-16.7251
 20
73.8011
 11
-16.7562
 21
73.7055
  0
LINE
  8
0
 10
-16.7562
 20
73.7055
 11
-16.799
 21
73.6146
  0
LINE
  8
0
 10
-16.799
 20
73.6146
 11
-16.8528
 21
73.5298
  0
LINE
  8
0
 10
-16.8528
 20
73.5298
 11
-16.9168
 21
73.4524
  0
LINE
  8
0
 10
-16.9168
 20
73.4524
 11
-16.9901
 21
73.3836
  0
LINE
  8
0
 10
-16.9901
 20
73.3836
 11
-17.0713
 21
73.3245
  0
LINE
  8
0
 10
-17.0713
 20
73.3245
 11
-17.1594
 21
73.2762
  0
LINE
  8
0
 10
-17.1594
 20
73.2762
 11
-17.2528
 21
73.2392
  0
LINE
  8
0
 10
-17.2528
 20
73.2392
 11
-17.3501
 21
73.2142
  0
LINE
  8
0
 10
-17.3501
 20
73.2142
 11
-17.4498
 21
73.2016
  0
LINE
  8
0
 10
-17.4498
 20
73.2016
 11
-17.5502
 21
73.2016
  0
LINE
  8
0
 10
184
 20
47.5
 11
112
 21
47.5
  0
LINE
  8
0
 10
112
 20
47.5
 11
112
 21
-47.5
  0
LINE
  8
0
 10
112
 20
-47.5
 11
184
 21
-47.5
  0
LINE
  8
0
 10
184
 20
-47.5
 11
184
 21
47.5
  0
LINE
  8
0
 10
256
 20
47.5
 11
188
 21
47.5
  0
LINE
  8
0
 10
188
 20
47.5
 11
188
 21
-47.5
  0
LINE
  8
0
 10
188
 20
-47.5
 11
256
 21
-47.5
  0
LINE
  8
0
 10
256
 20
-47.5
 11
256
 21
47.5
  0
LINE
  8
0
 10
110
 20
47.5
 11
38
 21
47.5
  0
LINE
  8
0
 10
38
 20
47.5
 11
38
 21
-47.5
  0
LINE
  8
0
 10
38
 20
-47.5
 11
110
 21
-47.5
  0
LINE
  8
0
 10
110
 20
-47.5
 11
110
 21
47.5
  0
LINE
  8
0
 10
330
 20
47.5
 11
262
 21
47.5
  0
LINE
  8
0
 10
262
 20
47.5
 11
262
 21
-47.5
  0
LINE
  8
0
 10
262
 20
-47.5
 11
330
 21
-47.5
  0
LINE
  8
0
 10
330
 20
-47.5
 11
330
 21
47.5
  0
LINE
  8
0
 10
406
 20
36
 11
334
 21
36
  0
LINE
  8
0
 10
334
 20
36
 11
334
 21
-36
  0
LINE
  8
0
 10
334
 20
-36
 11
406
 21
-36
  0
LINE
  8
0
 10
406
 20
-36
 11
406
 21
36
  0
LINE
  8
0
 10
341.75
 20
-28.25
 11
341.75
 21
28.25
  0
LINE
  8
0
 10
341.75
 20
28.25
 11
398.25
 21
28.25
  0
LINE
  8
0
 10
398.25
 20
28.25
 11
398.25
 21
-28.25
  0
LINE
  8
0
 10
398.25
 20
-28.25
 11
341.75
 21
-28.25
  0
LINE
  8
0
 10
36
 20
36
 11
-36
 21
36
  0
LINE
  8
0
 10
-36
 20
36
 11
-36
 21
-36
  0
LINE
  8
0
 10
-36
 20
-36
 11
36
 21
-36
  0
LINE
  8
0
 10
36
 20
-36
 11
36
 21
36
  0
LINE
  8
0
 10
-15
 20
-15
 11
-15
 21
15
  0
LINE
  8
0
 10
-15
 20
15
 11
15
 21
15
  0
LINE
  8
0
 10
15
 20
15
 11
15
 21
-15
  0
LINE
  8
0
 10
15
 20
-15
 11
-15
 21
-15
  0
LINE
  8
0
 10
-17.5502
 20
-0.798416
 11
-17.6499
 21
-0.785828
  0
LINE
  8
0
 10
-17.6499
 20
-0.785828
 11
-17.7472
 21
-0.760834
  0
LINE
  8
0
 10
-17.7472
 20
-0.760834
 11
-17.8406
 21
-0.723846
  0
LINE
  8
0
 10
-17.8406
 20
-0.723846
 11
-17.9286
 21
-0.675461
  0
LINE
  8
0
 10
-17.9286
 20
-0.675461
 11
-18.0099
 21
-0.616409
  0
LINE
  8
0
 10
-18.0099
 20
-0.616409
 11
-18.0832
 21
-0.547623
  0
LINE
  8
0
 10
-18.0832
 20
-0.547623
 11
-18.1472
 21
-0.470215
  0
LINE
  8
0
 10
-18.1472
 20
-0.470215
 11
-18.201
 21
-0.385391
  0
LINE
  8
0
 10
-18.201
 20
-0.385391
 11
-18.2438
 21
-0.294495
  0
LINE
  8
0
 10
-18.2438
 20
-0.294495
 11
-18.2749
 21
-0.198944
  0
LINE
  8
0
 10
-18.2749
 20
-0.198944
 11
-18.2937
 21
-0.100266
  0
LINE
  8
0
 10
-18.2937
 20
-0.100266
 11
-18.3
 21
0
  0
LINE
  8
0
 10
-18.3
 20
0
 11
-18.2937
 21
0.100266
  0
LINE
  8
0
 10
-18.2937
 20
0.100266
 11
-18.2749
 21
0.198944
  0
LINE
  8
0
 10
-18.2749
 20
0.198944
 11
-18.2438
 21
0.294495
  0
LINE
  8
0
 10
-18.2438
 20
0.294495
 11
-18.201
 21
0.385391
  0
LINE
  8
0
 10
-18.201
 20
0.385391
 11
-18.1472
 21
0.470215
  0
LINE
  8
0
 10
-18.1472
 20
0.470215
 11
-18.0832
 21
0.547623
  0
LINE
  8
0
 10
-18.0832
 20
0.547623
 11
-18.0099
 21
0.616409
  0
LINE
  8
0
 10
-18.0099
 20
0.616409
 11
-17.9286
 21
0.675461
  0
LINE
  8
0
 10
-17.9286
 20
0.675461
 11
-17.8406
 21
0.723846
  0
LINE
  8
0
 10
-17.8406
 20
0.723846
 11
-17.7472
 21
0.760834
  0
LINE
  8
0
 10
-17.7472
 20
0.760834
 11
-17.6499
 21
0.785828
  0
LINE
  8
0
 10
-17.6499
 20
0.785828
 11
-17.5502
 21
0.798416
  0
LINE
  8
0
 10
-17.5502
 20
0.798416
 11
-17.4498
 21
0.798416
  0
LINE
  8
0
 10
-17.4498
 20
0.798416
 11
-17.3501
 21
0.785828
  0
LINE
  8
0
 10
-17.3501
 20
0.785828
 11
-17.2528
 21
0.760834
  0
LINE
  8
0
 10
-17.2528
 20
0.760834
 11
-17.1594
 21
0.723846
  0
LINE
  8
0
 10
-17.1594
 20
0.723846
 11
-17.0713
 21
0.675461
  0
LINE
  8
0
 10
-17.0713
 20
0.675461
 11
-16.9901
 21
0.616409
  0
LINE
  8
0
 10
-16.9901
 20
0.616409
 11
-16.9168
 21
0.547623
  0
LINE
  8
0
 10
-16.9168
 20
0.547623
 11
-16.8528
 21
0.470215
  0
LINE
  8
0
 10
-16.8528
 20
0.470215
 11
-16.799
 21
0.385391
  0
LINE
  8
0
 10
-16.799
 20
0.385391
 11
-16.7562
 21
0.294495
  0
LINE
  8
0
 10
-16.7562
 20
0.294495
 11
-16.7251
 21
0.198944
  0
LINE
  8
0
 10
-16.7251
 20
0.198944
 11
-16.7063
 21
0.100266
  0
LINE
  8
0
 10
-16.7063
 20
0.100266
 11
-16.7
 21
0
  0
LINE
  8
0
 10
-16.7
 20
0
 11
-16.7063
 21
-0.100266
  0
LINE
  8
0
 10
-16.7063
 20
-0.100266
 11
-16.7251
 21
-0.198944
  0
LINE
  8
0
 10
-16.7251
 20
-0.198944
 11
-16.7562
 21
-0.294495
  0
LINE
  8
0
 10
-16.7562
 20
-0.294495
 11
-16.799
 21
-0.385391
  0
LINE
  8
0
 10
-16.799
 20
-0.385391
 11
-16.8528
 21
-0.470215
  0
LINE
  8
0
 10
-16.8528
 20
-0.470215
 11
-16.9168
 21
-0.547623
  0
LINE
  8
0
 10
-16.9168
 20
-0.547623
 11
-16.9901
 21
-0.616409
  0
LINE
  8
0
 10
-16.9901
 20
-0.616409
 11
-17.0713
 21
-0.675461
  0
LINE
  8
0
 10
-17.0713
 20
-0.675461
 11
-17.1594
 21
-0.723846
  0
LINE
  8
0
 10
-17.1594
 20
-0.723846
 11
-17.2528
 21
-0.760834
  0
LINE
  8
0
 10
-17.2528
 20
-0.760834
 11
-17.3501
 21
-0.785828
  0
LINE
  8
0
 10
-17.3501
 20
-0.785828
 11
-17.4498
 21
-0.798416
  0
LINE
  8
0
 10
-17.4498
 20
-0.798416
 11
-17.5502
 21
-0.798416
  0
LINE
  8
0
 10
17.4498
 20
-0.798416
 11
17.3501
 21
-0.785828
  0
LINE
  8
0
 10
17.3501
 20
-0.785828
 11
17.2528
 21
-0.760834
  0
LINE
  8
0
 10
17.2528
 20
-0.760834
 11
17.1594
 21
-0.723846
  0
LINE
  8
0
 10
17.1594
 20
-0.723846
 11
17.0713
 21
-0.675461
  0
LINE
  8
0
 10
17.0713
 20
-0.675461
 11
16.9901
 21
-0.616409
  0
LINE
  8
0
 10
16.9901
 20
-0.616409
 11
16.9168
 21
-0.547623
  0
LINE
  8
0
 10
16.9168
 20
-0.547623
 11
16.8528
 21
-0.470215
  0
LINE
  8
0
 10
16.8528
 20
-0.470215
 11
16.799
 21
-0.385391
  0
LINE
  8
0
 10
16.799
 20
-0.385391
 11
16.7562
 21
-0.294495
  0
LINE
  8
0
 10
16.7562
 20
-0.294495
 11
16.7251
 21
-0.198944
  0
LINE
  8
0
 10
16.7251
 20
-0.198944
 11
16.7063
 21
-0.100266
  0
LINE
  8
0
 10
16.7063
 20
-0.100266
 11
16.7
 21
0
  0
LINE
  8
0
 10
16.7
 20
0
 11
16.7063
 21
0.100266
  0
LINE
  8
0
 10
16.7063
 20
0.100266
 11
16.7251
 21
0.198944
  0
LINE
  8
0
 10
16.7251
 20
0.198944
 11
16.7562
 21
0.294495
  0
LINE
  8
0
 10
16.7562
 20
0.294495
 11
16.799
 21
0.385391
  0
LINE
  8
0
 10
16.799
 20
0.385391
 11
16.8528
 21
0.470215
  0
LINE
  8
0
 10
16.8528
 20
0.470215
 11
16.9168
 21
0.547623
  0
LINE
  8
0
 10
16.9168
 20
0.547623
 11
16.9901
 21
0.616409
  0
LINE
  8
0
 10
16.9901
 20
0.616409
 11
17.0713
 21
0.675461
  0
LINE
  8
0
 10
17.0713
 20
0.675461
 11
17.1594
 21
0.723846
  0
LINE
  8
0
 10
17.1594
 20
0.723846
 11
17.2528
 21
0.760834
  0
LINE
  8
0
 10
17.2528
 20
0.760834
 11
17.3501
 21
0.785828
  0
LINE
  8
0
 10
17.3501
 20
0.785828
 11
17.4498
 21
0.798416
  0
LINE
  8
0
 10
17.4498
 20
0.798416
 11
17.5502
 21
0.798416
  0
LINE
  8
0
 10
17.5502
 20
0.798416
 11
17.6499
 21
0.785828
  0
LINE
  8
0
 10
17.6499
 20
0.785828
 11
17.7472
 21
0.760834
  0
LINE
  8
0
 10
17.7472
 20
0.760834
 11
17.8406
 21
0.723846
  0
LINE
  8
0
 10
17.8406
 20
0.723846
 11
17.9286
 21
0.675461
  0
LINE
  8
0
 10
17.9286
 20
0.675461
 11
18.0099
 21
0.616409
  0
LINE
  8
0
 10
18.0099
 20
0.616409
 11
18.0832
 21
0.547623
  0
LINE
  8
0
 10
18.0832
 20
0.547623
 11
18.1472
 21
0.470215
  0
LINE
  8
0
 10
18.1472
 20
0.470215
 11
18.201
 21
0.385391
  0
LINE
  8
0
 10
18.201
 20
0.385391
 11
18.2438
 21
0.294495
  0
LINE
  8
0
 10
18.2438
 20
0.294495
 11
18.2749
 21
0.198944
  0
LINE
  8
0
 10
18.2749
 20
0.198944
 11
18.2937
 21
0.100266
  0
LINE
  8
0
 10
18.2937
 20
0.100266
 11
18.3
 21
0
  0
LINE
  8
0
 10
18.3
 20
0
 11
18.2937
 21
-0.100266
  0
LINE
  8
0
 10
18.2937
 20
-0.100266
 11
18.2749
 21
-0.198944
  0
LINE
  8
0
 10
18.2749
 20
-0.198944
 11
18.2438
 21
-0.294495
  0
LINE
  8
0
 10
18.2438
 20
-0.294495
 11
18.201
 21
-0.385391
  0
LINE
  8
0
 10
18.201
 20
-0.385391
 11
18.1472
 21
-0.470215
  0
LINE
  8
0
 10
18.1472
 20
-0.470215
 11
18.0832
 21
-0.547623
  0
LINE
  8
0
 10
18.0832
 20
-0.547623
 11
18.0099
 21
-0.616409
  0
LINE
  8
0
 10
18.0099
 20
-0.616409
 11
17.9286
 21
-0.675461
  0
LINE
  8
0
 10
17.9286
 20
-0.675461
 11
17.8406
 21
-0.723846
  0
LINE
  8
0
 10
17.8406
 20
-0.723846
 11
17.7472
 21
-0.760834
  0
LINE
  8
0
 10
17.7472
 20
-0.760834
 11
17.6499
 21
-0.785828
  0
LINE
  8
0
 10
17.6499
 20
-0.785828
 11
17.5502
 21
-0.798416
  0
LINE
  8
0
 10
17.5502
 20
-0.798416
 11
17.4498
 21
-0.798416
  0
ENDSEC
  0
SECTION
  2
OBJECTS
  0
DICTIONARY
  0
ENDSEC
  0
EOF
