  0
SECTION
  2
BLOCKS
  0
ENDSEC
  0
SECTION
  2
ENTITIES
  0
LINE
  8
0
 10
222
 20
241.5
 11
178
 21
241.5
  0
LINE
  8
0
 10
178
 20
241.5
 11
178
 21
146.5
  0
LINE
  8
0
 10
178
 20
146.5
 11
222
 21
146.5
  0
LINE
  8
0
 10
222
 20
146.5
 11
222
 21
241.5
  0
LINE
  8
0
 10
172
 20
241.5
 11
128
 21
241.5
  0
LINE
  8
0
 10
128
 20
241.5
 11
128
 21
146.5
  0
LINE
  8
0
 10
128
 20
146.5
 11
172
 21
146.5
  0
LINE
  8
0
 10
172
 20
146.5
 11
172
 21
241.5
  0
LINE
  8
0
 10
124
 20
241.5
 11
76
 21
241.5
  0
LINE
  8
0
 10
76
 20
241.5
 11
76
 21
146.5
  0
LINE
  8
0
 10
76
 20
146.5
 11
124
 21
146.5
  0
LINE
  8
0
 10
124
 20
146.5
 11
124
 21
241.5
  0
LINE
  8
0
 10
74
 20
241.5
 11
26
 21
241.5
  0
LINE
  8
0
 10
26
 20
241.5
 11
26
 21
146.5
  0
LINE
  8
0
 10
26
 20
146.5
 11
74
 21
146.5
  0
LINE
  8
0
 10
74
 20
146.5
 11
74
 21
241.5
  0
LINE
  8
0
 10
222
 20
144.5
 11
178
 21
144.5
  0
LINE
  8
0
 10
178
 20
144.5
 11
178
 21
49.5
  0
LINE
  8
0
 10
178
 20
49.5
 11
222
 21
49.5
  0
LINE
  8
0
 10
222
 20
49.5
 11
222
 21
144.5
  0
LINE
  8
0
 10
172
 20
144.5
 11
128
 21
144.5
  0
LINE
  8
0
 10
128
 20
144.5
 11
128
 21
49.5
  0
LINE
  8
0
 10
128
 20
49.5
 11
172
 21
49.5
  0
LINE
  8
0
 10
172
 20
49.5
 11
172
 21
144.5
  0
LINE
  8
0
 10
124
 20
144.5
 11
76
 21
144.5
  0
LINE
  8
0
 10
76
 20
144.5
 11
76
 21
49.5
  0
LINE
  8
0
 10
76
 20
49.5
 11
124
 21
49.5
  0
LINE
  8
0
 10
124
 20
49.5
 11
124
 21
144.5
  0
LINE
  8
0
 10
74
 20
144.5
 11
26
 21
144.5
  0
LINE
  8
0
 10
26
 20
144.5
 11
26
 21
49.5
  0
LINE
  8
0
 10
26
 20
49.5
 11
74
 21
49.5
  0
LINE
  8
0
 10
74
 20
49.5
 11
74
 21
144.5
  0
LINE
  8
0
 10
24
 20
124
 11
-24
 21
124
  0
LINE
  8
0
 10
-24
 20
124
 11
-24
 21
76
  0
LINE
  8
0
 10
-24
 20
76
 11
24
 21
76
  0
LINE
  8
0
 10
24
 20
76
 11
24
 21
124
  0
LINE
  8
0
 10
-0.100266
 20
116.706
 11
-0.198944
 21
116.725
  0
LINE
  8
0
 10
-0.198944
 20
116.725
 11
-0.294495
 21
116.756
  0
LINE
  8
0
 10
-0.294495
 20
116.756
 11
-0.385391
 21
116.799
  0
LINE
  8
0
 10
-0.385391
 20
116.799
 11
-0.470215
 21
116.853
  0
LINE
  8
0
 10
-0.470215
 20
116.853
 11
-0.547623
 21
116.917
  0
LINE
  8
0
 10
-0.547623
 20
116.917
 11
-0.616409
 21
116.99
  0
LINE
  8
0
 10
-0.616409
 20
116.99
 11
-0.675461
 21
117.071
  0
LINE
  8
0
 10
-0.675461
 20
117.071
 11
-0.723846
 21
117.159
  0
LINE
  8
0
 10
-0.723846
 20
117.159
 11
-0.760834
 21
117.253
  0
LINE
  8
0
 10
-0.760834
 20
117.253
 11
-0.785828
 21
117.35
  0
LINE
  8
0
 10
-0.785828
 20
117.35
 11
-0.798416
 21
117.45
  0
LINE
  8
0
 10
-0.798416
 20
117.45
 11
-0.798416
 21
117.55
  0
LINE
  8
0
 10
-0.798416
 20
117.55
 11
-0.785828
 21
117.65
  0
LINE
  8
0
 10
-0.785828
 20
117.65
 11
-0.760834
 21
117.747
  0
LINE
  8
0
 10
-0.760834
 20
117.747
 11
-0.723846
 21
117.841
  0
LINE
  8
0
 10
-0.723846
 20
117.841
 11
-0.675461
 21
117.929
  0
LINE
  8
0
 10
-0.675461
 20
117.929
 11
-0.616409
 21
118.01
  0
LINE
  8
0
 10
-0.616409
 20
118.01
 11
-0.547623
 21
118.083
  0
LINE
  8
0
 10
-0.547623
 20
118.083
 11
-0.470215
 21
118.147
  0
LINE
  8
0
 10
-0.470215
 20
118.147
 11
-0.385391
 21
118.201
  0
LINE
  8
0
 10
-0.385391
 20
118.201
 11
-0.294495
 21
118.244
  0
LINE
  8
0
 10
-0.294495
 20
118.244
 11
-0.198944
 21
118.275
  0
LINE
  8
0
 10
-0.198944
 20
118.275
 11
-0.100266
 21
118.294
  0
LINE
  8
0
 10
-0.100266
 20
118.294
 11
0
 21
118.3
  0
LINE
  8
0
 10
0
 20
118.3
 11
0.100266
 21
118.294
  0
LINE
  8
0
 10
0.100266
 20
118.294
 11
0.198944
 21
118.275
  0
LINE
  8
0
 10
0.198944
 20
118.275
 11
0.294495
 21
118.244
  0
LINE
  8
0
 10
0.294495
 20
118.244
 11
0.385391
 21
118.201
  0
LINE
  8
0
 10
0.385391
 20
118.201
 11
0.470215
 21
118.147
  0
LINE
  8
0
 10
0.470215
 20
118.147
 11
0.547623
 21
118.083
  0
LINE
  8
0
 10
0.547623
 20
118.083
 11
0.616409
 21
118.01
  0
LINE
  8
0
 10
0.616409
 20
118.01
 11
0.675461
 21
117.929
  0
LINE
  8
0
 10
0.675461
 20
117.929
 11
0.723846
 21
117.841
  0
LINE
  8
0
 10
0.723846
 20
117.841
 11
0.760834
 21
117.747
  0
LINE
  8
0
 10
0.760834
 20
117.747
 11
0.785828
 21
117.65
  0
LINE
  8
0
 10
0.785828
 20
117.65
 11
0.798416
 21
117.55
  0
LINE
  8
0
 10
0.798416
 20
117.55
 11
0.798416
 21
117.45
  0
LINE
  8
0
 10
0.798416
 20
117.45
 11
0.785828
 21
117.35
  0
LINE
  8
0
 10
0.785828
 20
117.35
 11
0.760834
 21
117.253
  0
LINE
  8
0
 10
0.760834
 20
117.253
 11
0.723846
 21
117.159
  0
LINE
  8
0
 10
0.723846
 20
117.159
 11
0.675461
 21
117.071
  0
LINE
  8
0
 10
0.675461
 20
117.071
 11
0.616409
 21
116.99
  0
LINE
  8
0
 10
0.616409
 20
116.99
 11
0.547623
 21
116.917
  0
LINE
  8
0
 10
0.547623
 20
116.917
 11
0.470215
 21
116.853
  0
LINE
  8
0
 10
0.470215
 20
116.853
 11
0.385391
 21
116.799
  0
LINE
  8
0
 10
0.385391
 20
116.799
 11
0.294495
 21
116.756
  0
LINE
  8
0
 10
0.294495
 20
116.756
 11
0.198944
 21
116.725
  0
LINE
  8
0
 10
0.198944
 20
116.725
 11
0.100266
 21
116.706
  0
LINE
  8
0
 10
0.100266
 20
116.706
 11
0
 21
116.7
  0
LINE
  8
0
 10
0
 20
116.7
 11
-0.100266
 21
116.706
  0
LINE
  8
0
 10
-15
 20
85
 11
-15
 21
115
  0
LINE
  8
0
 10
-15
 20
115
 11
15
 21
115
  0
LINE
  8
0
 10
15
 20
115
 11
15
 21
85
  0
LINE
  8
0
 10
15
 20
85
 11
-15
 21
85
  0
LINE
  8
0
 10
-0.100266
 20
81.7063
 11
-0.198944
 21
81.7251
  0
LINE
  8
0
 10
-0.198944
 20
81.7251
 11
-0.294495
 21
81.7562
  0
LINE
  8
0
 10
-0.294495
 20
81.7562
 11
-0.385391
 21
81.799
  0
LINE
  8
0
 10
-0.385391
 20
81.799
 11
-0.470215
 21
81.8528
  0
LINE
  8
0
 10
-0.470215
 20
81.8528
 11
-0.547623
 21
81.9168
  0
LINE
  8
0
 10
-0.547623
 20
81.9168
 11
-0.616409
 21
81.9901
  0
LINE
  8
0
 10
-0.616409
 20
81.9901
 11
-0.675461
 21
82.0714
  0
LINE
  8
0
 10
-0.675461
 20
82.0714
 11
-0.723846
 21
82.1594
  0
LINE
  8
0
 10
-0.723846
 20
82.1594
 11
-0.760834
 21
82.2528
  0
LINE
  8
0
 10
-0.760834
 20
82.2528
 11
-0.785828
 21
82.3501
  0
LINE
  8
0
 10
-0.785828
 20
82.3501
 11
-0.798416
 21
82.4498
  0
LINE
  8
0
 10
-0.798416
 20
82.4498
 11
-0.798416
 21
82.5502
  0
LINE
  8
0
 10
-0.798416
 20
82.5502
 11
-0.785828
 21
82.6499
  0
LINE
  8
0
 10
-0.785828
 20
82.6499
 11
-0.760834
 21
82.7472
  0
LINE
  8
0
 10
-0.760834
 20
82.7472
 11
-0.723846
 21
82.8406
  0
LINE
  8
0
 10
-0.723846
 20
82.8406
 11
-0.675461
 21
82.9287
  0
LINE
  8
0
 10
-0.675461
 20
82.9287
 11
-0.616409
 21
83.0099
  0
LINE
  8
0
 10
-0.616409
 20
83.0099
 11
-0.547623
 21
83.0832
  0
LINE
  8
0
 10
-0.547623
 20
83.0832
 11
-0.470215
 21
83.1472
  0
LINE
  8
0
 10
-0.470215
 20
83.1472
 11
-0.385391
 21
83.201
  0
LINE
  8
0
 10
-0.385391
 20
83.201
 11
-0.294495
 21
83.2438
  0
LINE
  8
0
 10
-0.294495
 20
83.2438
 11
-0.198944
 21
83.2749
  0
LINE
  8
0
 10
-0.198944
 20
83.2749
 11
-0.100266
 21
83.2937
  0
LINE
  8
0
 10
-0.100266
 20
83.2937
 11
0
 21
83.3
  0
LINE
  8
0
 10
0
 20
83.3
 11
0.100266
 21
83.2937
  0
LINE
  8
0
 10
0.100266
 20
83.2937
 11
0.198944
 21
83.2749
  0
LINE
  8
0
 10
0.198944
 20
83.2749
 11
0.294495
 21
83.2438
  0
LINE
  8
0
 10
0.294495
 20
83.2438
 11
0.385391
 21
83.201
  0
LINE
  8
0
 10
0.385391
 20
83.201
 11
0.470215
 21
83.1472
  0
LINE
  8
0
 10
0.470215
 20
83.1472
 11
0.547623
 21
83.0832
  0
LINE
  8
0
 10
0.547623
 20
83.0832
 11
0.616409
 21
83.0099
  0
LINE
  8
0
 10
0.616409
 20
83.0099
 11
0.675461
 21
82.9287
  0
LINE
  8
0
 10
0.675461
 20
82.9287
 11
0.723846
 21
82.8406
  0
LINE
  8
0
 10
0.723846
 20
82.8406
 11
0.760834
 21
82.7472
  0
LINE
  8
0
 10
0.760834
 20
82.7472
 11
0.785828
 21
82.6499
  0
LINE
  8
0
 10
0.785828
 20
82.6499
 11
0.798416
 21
82.5502
  0
LINE
  8
0
 10
0.798416
 20
82.5502
 11
0.798416
 21
82.4498
  0
LINE
  8
0
 10
0.798416
 20
82.4498
 11
0.785828
 21
82.3501
  0
LINE
  8
0
 10
0.785828
 20
82.3501
 11
0.760834
 21
82.2528
  0
LINE
  8
0
 10
0.760834
 20
82.2528
 11
0.723846
 21
82.1594
  0
LINE
  8
0
 10
0.723846
 20
82.1594
 11
0.675461
 21
82.0714
  0
LINE
  8
0
 10
0.675461
 20
82.0714
 11
0.616409
 21
81.9901
  0
LINE
  8
0
 10
0.616409
 20
81.9901
 11
0.547623
 21
81.9168
  0
LINE
  8
0
 10
0.547623
 20
81.9168
 11
0.470215
 21
81.8528
  0
LINE
  8
0
 10
0.470215
 20
81.8528
 11
0.385391
 21
81.799
  0
LINE
  8
0
 10
0.385391
 20
81.799
 11
0.294495
 21
81.7562
  0
LINE
  8
0
 10
0.294495
 20
81.7562
 11
0.198944
 21
81.7251
  0
LINE
  8
0
 10
0.198944
 20
81.7251
 11
0.100266
 21
81.7063
  0
LINE
  8
0
 10
0.100266
 20
81.7063
 11
0
 21
81.7
  0
LINE
  8
0
 10
0
 20
81.7
 11
-0.100266
 21
81.7063
  0
LINE
  8
0
 10
274
 20
124
 11
226
 21
124
  0
LINE
  8
0
 10
226
 20
124
 11
226
 21
76
  0
LINE
  8
0
 10
226
 20
76
 11
274
 21
76
  0
LINE
  8
0
 10
274
 20
76
 11
274
 21
124
  0
LINE
  8
0
 10
248.156
 20
96.1709
 11
246.677
 21
97.3502
  0
LINE
  8
0
 10
246.677
 20
97.3502
 11
245.857
 21
99.0543
  0
LINE
  8
0
 10
245.857
 20
99.0543
 11
245.857
 21
100.946
  0
LINE
  8
0
 10
245.857
 20
100.946
 11
246.677
 21
102.65
  0
LINE
  8
0
 10
246.677
 20
102.65
 11
248.156
 21
103.829
  0
LINE
  8
0
 10
248.156
 20
103.829
 11
250
 21
104.25
  0
LINE
  8
0
 10
250
 20
104.25
 11
251.844
 21
103.829
  0
LINE
  8
0
 10
251.844
 20
103.829
 11
253.323
 21
102.65
  0
LINE
  8
0
 10
253.323
 20
102.65
 11
254.143
 21
100.946
  0
LINE
  8
0
 10
254.143
 20
100.946
 11
254.143
 21
99.0543
  0
LINE
  8
0
 10
254.143
 20
99.0543
 11
253.323
 21
97.3502
  0
LINE
  8
0
 10
253.323
 20
97.3502
 11
251.844
 21
96.1709
  0
LINE
  8
0
 10
251.844
 20
96.1709
 11
250
 21
95.75
  0
LINE
  8
0
 10
250
 20
95.75
 11
248.156
 21
96.1709
  0
LINE
  8
0
 10
274
 20
74
 11
226
 21
74
  0
LINE
  8
0
 10
226
 20
74
 11
226
 21
26
  0
LINE
  8
0
 10
226
 20
26
 11
274
 21
26
  0
LINE
  8
0
 10
274
 20
26
 11
274
 21
74
  0
LINE
  8
0
 10
248.156
 20
46.1709
 11
246.677
 21
47.3502
  0
LINE
  8
0
 10
246.677
 20
47.3502
 11
245.857
 21
49.0543
  0
LINE
  8
0
 10
245.857
 20
49.0543
 11
245.857
 21
50.9457
  0
LINE
  8
0
 10
245.857
 20
50.9457
 11
246.677
 21
52.6498
  0
LINE
  8
0
 10
246.677
 20
52.6498
 11
248.156
 21
53.8291
  0
LINE
  8
0
 10
248.156
 20
53.8291
 11
250
 21
54.25
  0
LINE
  8
0
 10
250
 20
54.25
 11
251.844
 21
53.8291
  0
LINE
  8
0
 10
251.844
 20
53.8291
 11
253.323
 21
52.6498
  0
LINE
  8
0
 10
253.323
 20
52.6498
 11
254.143
 21
50.9457
  0
LINE
  8
0
 10
254.143
 20
50.9457
 11
254.143
 21
49.0543
  0
LINE
  8
0
 10
254.143
 20
49.0543
 11
253.323
 21
47.3502
  0
LINE
  8
0
 10
253.323
 20
47.3502
 11
251.844
 21
46.1709
  0
LINE
  8
0
 10
251.844
 20
46.1709
 11
250
 21
45.75
  0
LINE
  8
0
 10
250
 20
45.75
 11
248.156
 21
46.1709
  0
LINE
  8
0
 10
24
 20
74
 11
-24
 21
74
  0
LINE
  8
0
 10
-24
 20
74
 11
-24
 21
26
  0
LINE
  8
0
 10
-24
 20
26
 11
24
 21
26
  0
LINE
  8
0
 10
24
 20
26
 11
24
 21
74
  0
LINE
  8
0
 10
-0.100266
 20
66.7063
 11
-0.198944
 21
66.7251
  0
LINE
  8
0
 10
-0.198944
 20
66.7251
 11
-0.294495
 21
66.7562
  0
LINE
  8
0
 10
-0.294495
 20
66.7562
 11
-0.385391
 21
66.799
  0
LINE
  8
0
 10
-0.385391
 20
66.799
 11
-0.470215
 21
66.8528
  0
LINE
  8
0
 10
-0.470215
 20
66.8528
 11
-0.547623
 21
66.9168
  0
LINE
  8
0
 10
-0.547623
 20
66.9168
 11
-0.616409
 21
66.9901
  0
LINE
  8
0
 10
-0.616409
 20
66.9901
 11
-0.675461
 21
67.0713
  0
LINE
  8
0
 10
-0.675461
 20
67.0713
 11
-0.723846
 21
67.1594
  0
LINE
  8
0
 10
-0.723846
 20
67.1594
 11
-0.760834
 21
67.2528
  0
LINE
  8
0
 10
-0.760834
 20
67.2528
 11
-0.785828
 21
67.3501
  0
LINE
  8
0
 10
-0.785828
 20
67.3501
 11
-0.798416
 21
67.4498
  0
LINE
  8
0
 10
-0.798416
 20
67.4498
 11
-0.798416
 21
67.5502
  0
LINE
  8
0
 10
-0.798416
 20
67.5502
 11
-0.785828
 21
67.6499
  0
LINE
  8
0
 10
-0.785828
 20
67.6499
 11
-0.760834
 21
67.7472
  0
LINE
  8
0
 10
-0.760834
 20
67.7472
 11
-0.723846
 21
67.8406
  0
LINE
  8
0
 10
-0.723846
 20
67.8406
 11
-0.675461
 21
67.9286
  0
LINE
  8
0
 10
-0.675461
 20
67.9286
 11
-0.616409
 21
68.0099
  0
LINE
  8
0
 10
-0.616409
 20
68.0099
 11
-0.547623
 21
68.0832
  0
LINE
  8
0
 10
-0.547623
 20
68.0832
 11
-0.470215
 21
68.1472
  0
LINE
  8
0
 10
-0.470215
 20
68.1472
 11
-0.385391
 21
68.201
  0
LINE
  8
0
 10
-0.385391
 20
68.201
 11
-0.294495
 21
68.2438
  0
LINE
  8
0
 10
-0.294495
 20
68.2438
 11
-0.198944
 21
68.2749
  0
LINE
  8
0
 10
-0.198944
 20
68.2749
 11
-0.100266
 21
68.2937
  0
LINE
  8
0
 10
-0.100266
 20
68.2937
 11
0
 21
68.3
  0
LINE
  8
0
 10
0
 20
68.3
 11
0.100266
 21
68.2937
  0
LINE
  8
0
 10
0.100266
 20
68.2937
 11
0.198944
 21
68.2749
  0
LINE
  8
0
 10
0.198944
 20
68.2749
 11
0.294495
 21
68.2438
  0
LINE
  8
0
 10
0.294495
 20
68.2438
 11
0.385391
 21
68.201
  0
LINE
  8
0
 10
0.385391
 20
68.201
 11
0.470215
 21
68.1472
  0
LINE
  8
0
 10
0.470215
 20
68.1472
 11
0.547623
 21
68.0832
  0
LINE
  8
0
 10
0.547623
 20
68.0832
 11
0.616409
 21
68.0099
  0
LINE
  8
0
 10
0.616409
 20
68.0099
 11
0.675461
 21
67.9286
  0
LINE
  8
0
 10
0.675461
 20
67.9286
 11
0.723846
 21
67.8406
  0
LINE
  8
0
 10
0.723846
 20
67.8406
 11
0.760834
 21
67.7472
  0
LINE
  8
0
 10
0.760834
 20
67.7472
 11
0.785828
 21
67.6499
  0
LINE
  8
0
 10
0.785828
 20
67.6499
 11
0.798416
 21
67.5502
  0
LINE
  8
0
 10
0.798416
 20
67.5502
 11
0.798416
 21
67.4498
  0
LINE
  8
0
 10
0.798416
 20
67.4498
 11
0.785828
 21
67.3501
  0
LINE
  8
0
 10
0.785828
 20
67.3501
 11
0.760834
 21
67.2528
  0
LINE
  8
0
 10
0.760834
 20
67.2528
 11
0.723846
 21
67.1594
  0
LINE
  8
0
 10
0.723846
 20
67.1594
 11
0.675461
 21
67.0713
  0
LINE
  8
0
 10
0.675461
 20
67.0713
 11
0.616409
 21
66.9901
  0
LINE
  8
0
 10
0.616409
 20
66.9901
 11
0.547623
 21
66.9168
  0
LINE
  8
0
 10
0.547623
 20
66.9168
 11
0.470215
 21
66.8528
  0
LINE
  8
0
 10
0.470215
 20
66.8528
 11
0.385391
 21
66.799
  0
LINE
  8
0
 10
0.385391
 20
66.799
 11
0.294495
 21
66.7562
  0
LINE
  8
0
 10
0.294495
 20
66.7562
 11
0.198944
 21
66.7251
  0
LINE
  8
0
 10
0.198944
 20
66.7251
 11
0.100266
 21
66.7063
  0
LINE
  8
0
 10
0.100266
 20
66.7063
 11
0
 21
66.7
  0
LINE
  8
0
 10
0
 20
66.7
 11
-0.100266
 21
66.7063
  0
LINE
  8
0
 10
-15
 20
35
 11
-15
 21
65
  0
LINE
  8
0
 10
-15
 20
65
 11
15
 21
65
  0
LINE
  8
0
 10
15
 20
65
 11
15
 21
35
  0
LINE
  8
0
 10
15
 20
35
 11
-15
 21
35
  0
LINE
  8
0
 10
-0.100266
 20
31.7063
 11
-0.198944
 21
31.7251
  0
LINE
  8
0
 10
-0.198944
 20
31.7251
 11
-0.294495
 21
31.7562
  0
LINE
  8
0
 10
-0.294495
 20
31.7562
 11
-0.385391
 21
31.799
  0
LINE
  8
0
 10
-0.385391
 20
31.799
 11
-0.470215
 21
31.8528
  0
LINE
  8
0
 10
-0.470215
 20
31.8528
 11
-0.547623
 21
31.9168
  0
LINE
  8
0
 10
-0.547623
 20
31.9168
 11
-0.616409
 21
31.9901
  0
LINE
  8
0
 10
-0.616409
 20
31.9901
 11
-0.675461
 21
32.0714
  0
LINE
  8
0
 10
-0.675461
 20
32.0714
 11
-0.723846
 21
32.1594
  0
LINE
  8
0
 10
-0.723846
 20
32.1594
 11
-0.760834
 21
32.2528
  0
LINE
  8
0
 10
-0.760834
 20
32.2528
 11
-0.785828
 21
32.3501
  0
LINE
  8
0
 10
-0.785828
 20
32.3501
 11
-0.798416
 21
32.4498
  0
LINE
  8
0
 10
-0.798416
 20
32.4498
 11
-0.798416
 21
32.5502
  0
LINE
  8
0
 10
-0.798416
 20
32.5502
 11
-0.785828
 21
32.6499
  0
LINE
  8
0
 10
-0.785828
 20
32.6499
 11
-0.760834
 21
32.7472
  0
LINE
  8
0
 10
-0.760834
 20
32.7472
 11
-0.723846
 21
32.8406
  0
LINE
  8
0
 10
-0.723846
 20
32.8406
 11
-0.675461
 21
32.9287
  0
LINE
  8
0
 10
-0.675461
 20
32.9287
 11
-0.616409
 21
33.0099
  0
LINE
  8
0
 10
-0.616409
 20
33.0099
 11
-0.547623
 21
33.0832
  0
LINE
  8
0
 10
-0.547623
 20
33.0832
 11
-0.470215
 21
33.1472
  0
LINE
  8
0
 10
-0.470215
 20
33.1472
 11
-0.385391
 21
33.201
  0
LINE
  8
0
 10
-0.385391
 20
33.201
 11
-0.294495
 21
33.2438
  0
LINE
  8
0
 10
-0.294495
 20
33.2438
 11
-0.198944
 21
33.2749
  0
LINE
  8
0
 10
-0.198944
 20
33.2749
 11
-0.100266
 21
33.2937
  0
LINE
  8
0
 10
-0.100266
 20
33.2937
 11
0
 21
33.3
  0
LINE
  8
0
 10
0
 20
33.3
 11
0.100266
 21
33.2937
  0
LINE
  8
0
 10
0.100266
 20
33.2937
 11
0.198944
 21
33.2749
  0
LINE
  8
0
 10
0.198944
 20
33.2749
 11
0.294495
 21
33.2438
  0
LINE
  8
0
 10
0.294495
 20
33.2438
 11
0.385391
 21
33.201
  0
LINE
  8
0
 10
0.385391
 20
33.201
 11
0.470215
 21
33.1472
  0
LINE
  8
0
 10
0.470215
 20
33.1472
 11
0.547623
 21
33.0832
  0
LINE
  8
0
 10
0.547623
 20
33.0832
 11
0.616409
 21
33.0099
  0
LINE
  8
0
 10
0.616409
 20
33.0099
 11
0.675461
 21
32.9287
  0
LINE
  8
0
 10
0.675461
 20
32.9287
 11
0.723846
 21
32.8406
  0
LINE
  8
0
 10
0.723846
 20
32.8406
 11
0.760834
 21
32.7472
  0
LINE
  8
0
 10
0.760834
 20
32.7472
 11
0.785828
 21
32.6499
  0
LINE
  8
0
 10
0.785828
 20
32.6499
 11
0.798416
 21
32.5502
  0
LINE
  8
0
 10
0.798416
 20
32.5502
 11
0.798416
 21
32.4498
  0
LINE
  8
0
 10
0.798416
 20
32.4498
 11
0.785828
 21
32.3501
  0
LINE
  8
0
 10
0.785828
 20
32.3501
 11
0.760834
 21
32.2528
  0
LINE
  8
0
 10
0.760834
 20
32.2528
 11
0.723846
 21
32.1594
  0
LINE
  8
0
 10
0.723846
 20
32.1594
 11
0.675461
 21
32.0714
  0
LINE
  8
0
 10
0.675461
 20
32.0714
 11
0.616409
 21
31.9901
  0
LINE
  8
0
 10
0.616409
 20
31.9901
 11
0.547623
 21
31.9168
  0
LINE
  8
0
 10
0.547623
 20
31.9168
 11
0.470215
 21
31.8528
  0
LINE
  8
0
 10
0.470215
 20
31.8528
 11
0.385391
 21
31.799
  0
LINE
  8
0
 10
0.385391
 20
31.799
 11
0.294495
 21
31.7562
  0
LINE
  8
0
 10
0.294495
 20
31.7562
 11
0.198944
 21
31.7251
  0
LINE
  8
0
 10
0.198944
 20
31.7251
 11
0.100266
 21
31.7063
  0
LINE
  8
0
 10
0.100266
 20
31.7063
 11
0
 21
31.7
  0
LINE
  8
0
 10
0
 20
31.7
 11
-0.100266
 21
31.7063
  0
LINE
  8
0
 10
124
 20
47.5
 11
76
 21
47.5
  0
LINE
  8
0
 10
76
 20
47.5
 11
76
 21
-47.5
  0
LINE
  8
0
 10
76
 20
-47.5
 11
124
 21
-47.5
  0
LINE
  8
0
 10
124
 20
-47.5
 11
124
 21
47.5
  0
LINE
  8
0
 10
172
 20
47.5
 11
128
 21
47.5
  0
LINE
  8
0
 10
128
 20
47.5
 11
128
 21
-47.5
  0
LINE
  8
0
 10
128
 20
-47.5
 11
172
 21
-47.5
  0
LINE
  8
0
 10
172
 20
-47.5
 11
172
 21
47.5
  0
LINE
  8
0
 10
222
 20
47.5
 11
178
 21
47.5
  0
LINE
  8
0
 10
178
 20
47.5
 11
178
 21
-47.5
  0
LINE
  8
0
 10
178
 20
-47.5
 11
222
 21
-47.5
  0
LINE
  8
0
 10
222
 20
-47.5
 11
222
 21
47.5
  0
LINE
  8
0
 10
74
 20
47.5
 11
26
 21
47.5
  0
LINE
  8
0
 10
26
 20
47.5
 11
26
 21
-47.5
  0
LINE
  8
0
 10
26
 20
-47.5
 11
74
 21
-47.5
  0
LINE
  8
0
 10
74
 20
-47.5
 11
74
 21
47.5
  0
LINE
  8
0
 10
24
 20
24
 11
-24
 21
24
  0
LINE
  8
0
 10
-24
 20
24
 11
-24
 21
-24
  0
LINE
  8
0
 10
-24
 20
-24
 11
24
 21
-24
  0
LINE
  8
0
 10
24
 20
-24
 11
24
 21
24
  0
LINE
  8
0
 10
-0.100266
 20
16.7063
 11
-0.198944
 21
16.7251
  0
LINE
  8
0
 10
-0.198944
 20
16.7251
 11
-0.294495
 21
16.7562
  0
LINE
  8
0
 10
-0.294495
 20
16.7562
 11
-0.385391
 21
16.799
  0
LINE
  8
0
 10
-0.385391
 20
16.799
 11
-0.470215
 21
16.8528
  0
LINE
  8
0
 10
-0.470215
 20
16.8528
 11
-0.547623
 21
16.9168
  0
LINE
  8
0
 10
-0.547623
 20
16.9168
 11
-0.616409
 21
16.9901
  0
LINE
  8
0
 10
-0.616409
 20
16.9901
 11
-0.675461
 21
17.0713
  0
LINE
  8
0
 10
-0.675461
 20
17.0713
 11
-0.723846
 21
17.1594
  0
LINE
  8
0
 10
-0.723846
 20
17.1594
 11
-0.760834
 21
17.2528
  0
LINE
  8
0
 10
-0.760834
 20
17.2528
 11
-0.785828
 21
17.3501
  0
LINE
  8
0
 10
-0.785828
 20
17.3501
 11
-0.798416
 21
17.4498
  0
LINE
  8
0
 10
-0.798416
 20
17.4498
 11
-0.798416
 21
17.5502
  0
LINE
  8
0
 10
-0.798416
 20
17.5502
 11
-0.785828
 21
17.6499
  0
LINE
  8
0
 10
-0.785828
 20
17.6499
 11
-0.760834
 21
17.7472
  0
LINE
  8
0
 10
-0.760834
 20
17.7472
 11
-0.723846
 21
17.8406
  0
LINE
  8
0
 10
-0.723846
 20
17.8406
 11
-0.675461
 21
17.9286
  0
LINE
  8
0
 10
-0.675461
 20
17.9286
 11
-0.616409
 21
18.0099
  0
LINE
  8
0
 10
-0.616409
 20
18.0099
 11
-0.547623
 21
18.0832
  0
LINE
  8
0
 10
-0.547623
 20
18.0832
 11
-0.470215
 21
18.1472
  0
LINE
  8
0
 10
-0.470215
 20
18.1472
 11
-0.385391
 21
18.201
  0
LINE
  8
0
 10
-0.385391
 20
18.201
 11
-0.294495
 21
18.2438
  0
LINE
  8
0
 10
-0.294495
 20
18.2438
 11
-0.198944
 21
18.2749
  0
LINE
  8
0
 10
-0.198944
 20
18.2749
 11
-0.100266
 21
18.2937
  0
LINE
  8
0
 10
-0.100266
 20
18.2937
 11
0
 21
18.3
  0
LINE
  8
0
 10
0
 20
18.3
 11
0.100266
 21
18.2937
  0
LINE
  8
0
 10
0.100266
 20
18.2937
 11
0.198944
 21
18.2749
  0
LINE
  8
0
 10
0.198944
 20
18.2749
 11
0.294495
 21
18.2438
  0
LINE
  8
0
 10
0.294495
 20
18.2438
 11
0.385391
 21
18.201
  0
LINE
  8
0
 10
0.385391
 20
18.201
 11
0.470215
 21
18.1472
  0
LINE
  8
0
 10
0.470215
 20
18.1472
 11
0.547623
 21
18.0832
  0
LINE
  8
0
 10
0.547623
 20
18.0832
 11
0.616409
 21
18.0099
  0
LINE
  8
0
 10
0.616409
 20
18.0099
 11
0.675461
 21
17.9286
  0
LINE
  8
0
 10
0.675461
 20
17.9286
 11
0.723846
 21
17.8406
  0
LINE
  8
0
 10
0.723846
 20
17.8406
 11
0.760834
 21
17.7472
  0
LINE
  8
0
 10
0.760834
 20
17.7472
 11
0.785828
 21
17.6499
  0
LINE
  8
0
 10
0.785828
 20
17.6499
 11
0.798416
 21
17.5502
  0
LINE
  8
0
 10
0.798416
 20
17.5502
 11
0.798416
 21
17.4498
  0
LINE
  8
0
 10
0.798416
 20
17.4498
 11
0.785828
 21
17.3501
  0
LINE
  8
0
 10
0.785828
 20
17.3501
 11
0.760834
 21
17.2528
  0
LINE
  8
0
 10
0.760834
 20
17.2528
 11
0.723846
 21
17.1594
  0
LINE
  8
0
 10
0.723846
 20
17.1594
 11
0.675461
 21
17.0713
  0
LINE
  8
0
 10
0.675461
 20
17.0713
 11
0.616409
 21
16.9901
  0
LINE
  8
0
 10
0.616409
 20
16.9901
 11
0.547623
 21
16.9168
  0
LINE
  8
0
 10
0.547623
 20
16.9168
 11
0.470215
 21
16.8528
  0
LINE
  8
0
 10
0.470215
 20
16.8528
 11
0.385391
 21
16.799
  0
LINE
  8
0
 10
0.385391
 20
16.799
 11
0.294495
 21
16.7562
  0
LINE
  8
0
 10
0.294495
 20
16.7562
 11
0.198944
 21
16.7251
  0
LINE
  8
0
 10
0.198944
 20
16.7251
 11
0.100266
 21
16.7063
  0
LINE
  8
0
 10
0.100266
 20
16.7063
 11
0
 21
16.7
  0
LINE
  8
0
 10
0
 20
16.7
 11
-0.100266
 21
16.7063
  0
LINE
  8
0
 10
-15
 20
-15
 11
-15
 21
15
  0
LINE
  8
0
 10
-15
 20
15
 11
15
 21
15
  0
LINE
  8
0
 10
15
 20
15
 11
15
 21
-15
  0
LINE
  8
0
 10
15
 20
-15
 11
-15
 21
-15
  0
LINE
  8
0
 10
-0.100266
 20
-18.2937
 11
-0.198944
 21
-18.2749
  0
LINE
  8
0
 10
-0.198944
 20
-18.2749
 11
-0.294495
 21
-18.2438
  0
LINE
  8
0
 10
-0.294495
 20
-18.2438
 11
-0.385391
 21
-18.201
  0
LINE
  8
0
 10
-0.385391
 20
-18.201
 11
-0.470215
 21
-18.1472
  0
LINE
  8
0
 10
-0.470215
 20
-18.1472
 11
-0.547623
 21
-18.0832
  0
LINE
  8
0
 10
-0.547623
 20
-18.0832
 11
-0.616409
 21
-18.0099
  0
LINE
  8
0
 10
-0.616409
 20
-18.0099
 11
-0.675461
 21
-17.9286
  0
LINE
  8
0
 10
-0.675461
 20
-17.9286
 11
-0.723846
 21
-17.8406
  0
LINE
  8
0
 10
-0.723846
 20
-17.8406
 11
-0.760834
 21
-17.7472
  0
LINE
  8
0
 10
-0.760834
 20
-17.7472
 11
-0.785828
 21
-17.6499
  0
LINE
  8
0
 10
-0.785828
 20
-17.6499
 11
-0.798416
 21
-17.5502
  0
LINE
  8
0
 10
-0.798416
 20
-17.5502
 11
-0.798416
 21
-17.4498
  0
LINE
  8
0
 10
-0.798416
 20
-17.4498
 11
-0.785828
 21
-17.3501
  0
LINE
  8
0
 10
-0.785828
 20
-17.3501
 11
-0.760834
 21
-17.2528
  0
LINE
  8
0
 10
-0.760834
 20
-17.2528
 11
-0.723846
 21
-17.1594
  0
LINE
  8
0
 10
-0.723846
 20
-17.1594
 11
-0.675461
 21
-17.0713
  0
LINE
  8
0
 10
-0.675461
 20
-17.0713
 11
-0.616409
 21
-16.9901
  0
LINE
  8
0
 10
-0.616409
 20
-16.9901
 11
-0.547623
 21
-16.9168
  0
LINE
  8
0
 10
-0.547623
 20
-16.9168
 11
-0.470215
 21
-16.8528
  0
LINE
  8
0
 10
-0.470215
 20
-16.8528
 11
-0.385391
 21
-16.799
  0
LINE
  8
0
 10
-0.385391
 20
-16.799
 11
-0.294495
 21
-16.7562
  0
LINE
  8
0
 10
-0.294495
 20
-16.7562
 11
-0.198944
 21
-16.7251
  0
LINE
  8
0
 10
-0.198944
 20
-16.7251
 11
-0.100266
 21
-16.7063
  0
LINE
  8
0
 10
-0.100266
 20
-16.7063
 11
0
 21
-16.7
  0
LINE
  8
0
 10
0
 20
-16.7
 11
0.100266
 21
-16.7063
  0
LINE
  8
0
 10
0.100266
 20
-16.7063
 11
0.198944
 21
-16.7251
  0
LINE
  8
0
 10
0.198944
 20
-16.7251
 11
0.294495
 21
-16.7562
  0
LINE
  8
0
 10
0.294495
 20
-16.7562
 11
0.385391
 21
-16.799
  0
LINE
  8
0
 10
0.385391
 20
-16.799
 11
0.470215
 21
-16.8528
  0
LINE
  8
0
 10
0.470215
 20
-16.8528
 11
0.547623
 21
-16.9168
  0
LINE
  8
0
 10
0.547623
 20
-16.9168
 11
0.616409
 21
-16.9901
  0
LINE
  8
0
 10
0.616409
 20
-16.9901
 11
0.675461
 21
-17.0713
  0
LINE
  8
0
 10
0.675461
 20
-17.0713
 11
0.723846
 21
-17.1594
  0
LINE
  8
0
 10
0.723846
 20
-17.1594
 11
0.760834
 21
-17.2528
  0
LINE
  8
0
 10
0.760834
 20
-17.2528
 11
0.785828
 21
-17.3501
  0
LINE
  8
0
 10
0.785828
 20
-17.3501
 11
0.798416
 21
-17.4498
  0
LINE
  8
0
 10
0.798416
 20
-17.4498
 11
0.798416
 21
-17.5502
  0
LINE
  8
0
 10
0.798416
 20
-17.5502
 11
0.785828
 21
-17.6499
  0
LINE
  8
0
 10
0.785828
 20
-17.6499
 11
0.760834
 21
-17.7472
  0
LINE
  8
0
 10
0.760834
 20
-17.7472
 11
0.723846
 21
-17.8406
  0
LINE
  8
0
 10
0.723846
 20
-17.8406
 11
0.675461
 21
-17.9286
  0
LINE
  8
0
 10
0.675461
 20
-17.9286
 11
0.616409
 21
-18.0099
  0
LINE
  8
0
 10
0.616409
 20
-18.0099
 11
0.547623
 21
-18.0832
  0
LINE
  8
0
 10
0.547623
 20
-18.0832
 11
0.470215
 21
-18.1472
  0
LINE
  8
0
 10
0.470215
 20
-18.1472
 11
0.385391
 21
-18.201
  0
LINE
  8
0
 10
0.385391
 20
-18.201
 11
0.294495
 21
-18.2438
  0
LINE
  8
0
 10
0.294495
 20
-18.2438
 11
0.198944
 21
-18.2749
  0
LINE
  8
0
 10
0.198944
 20
-18.2749
 11
0.100266
 21
-18.2937
  0
LINE
  8
0
 10
0.100266
 20
-18.2937
 11
0
 21
-18.3
  0
LINE
  8
0
 10
0
 20
-18.3
 11
-0.100266
 21
-18.2937
  0
LINE
  8
0
 10
274
 20
24
 11
226
 21
24
  0
LINE
  8
0
 10
226
 20
24
 11
226
 21
-24
  0
LINE
  8
0
 10
226
 20
-24
 11
274
 21
-24
  0
LINE
  8
0
 10
274
 20
-24
 11
274
 21
24
  0
LINE
  8
0
 10
248.156
 20
-3.82912
 11
246.677
 21
-2.64983
  0
LINE
  8
0
 10
246.677
 20
-2.64983
 11
245.857
 21
-0.945709
  0
LINE
  8
0
 10
245.857
 20
-0.945709
 11
245.857
 21
0.945709
  0
LINE
  8
0
 10
245.857
 20
0.945709
 11
246.677
 21
2.64983
  0
LINE
  8
0
 10
246.677
 20
2.64983
 11
248.156
 21
3.82912
  0
LINE
  8
0
 10
248.156
 20
3.82912
 11
250
 21
4.25
  0
LINE
  8
0
 10
250
 20
4.25
 11
251.844
 21
3.82912
  0
LINE
  8
0
 10
251.844
 20
3.82912
 11
253.323
 21
2.64983
  0
LINE
  8
0
 10
253.323
 20
2.64983
 11
254.143
 21
0.945709
  0
LINE
  8
0
 10
254.143
 20
0.945709
 11
254.143
 21
-0.945709
  0
LINE
  8
0
 10
254.143
 20
-0.945709
 11
253.323
 21
-2.64983
  0
LINE
  8
0
 10
253.323
 20
-2.64983
 11
251.844
 21
-3.82912
  0
LINE
  8
0
 10
251.844
 20
-3.82912
 11
250
 21
-4.25
  0
LINE
  8
0
 10
250
 20
-4.25
 11
248.156
 21
-3.82912
  0
ENDSEC
  0
SECTION
  2
OBJECTS
  0
DICTIONARY
  0
ENDSEC
  0
EOF
