<?xml version="1.0" standalone="no"?>
<!DOCTYPE svg PUBLIC "-//W3C//DTD SVG 1.1//EN" "http://www.w3.org/Graphics/SVG/1.1/DTD/svg11.dtd">
<svg width="442mm" height="387mm" viewBox="-36 -339 442 387" xmlns="http://www.w3.org/2000/svg" version="1.1">
<title>OpenSCAD Model</title>
<path d="
M 330,-338.5 L 262,-338.5 L 262,-243.5 L 330,-243.5 z
M 256,-338.5 L 188,-338.5 L 188,-243.5 L 256,-243.5 z
M 184,-338.5 L 112,-338.5 L 112,-243.5 L 184,-243.5 z
M 110,-338.5 L 38,-338.5 L 38,-243.5 L 110,-243.5 z
M 36,-258 L -36,-258 L -36,-186 L 36,-186 z
M -15,-207 L -15,-237 L 15,-237 L 15,-207 z
M 17.4498,-221.202 L 17.3501,-221.214 L 17.2528,-221.239 L 17.1594,-221.276 L 17.0713,-221.325 L 16.9901,-221.384
 L 16.9168,-221.452 L 16.8528,-221.53 L 16.799,-221.615 L 16.7562,-221.706 L 16.7251,-221.801 L 16.7063,-221.9
 L 16.7,-222 L 16.7063,-222.1 L 16.7251,-222.199 L 16.7562,-222.294 L 16.799,-222.385 L 16.8528,-222.47
 L 16.9168,-222.548 L 16.9901,-222.616 L 17.0713,-222.675 L 17.1594,-222.724 L 17.2528,-222.761 L 17.3501,-222.786
 L 17.4498,-222.798 L 17.5502,-222.798 L 17.6499,-222.786 L 17.7472,-222.761 L 17.8406,-222.724 L 17.9286,-222.675
 L 18.0099,-222.616 L 18.0832,-222.548 L 18.1472,-222.47 L 18.201,-222.385 L 18.2438,-222.294 L 18.2749,-222.199
 L 18.2937,-222.1 L 18.3,-222 L 18.2937,-221.9 L 18.2749,-221.801 L 18.2438,-221.706 L 18.201,-221.615
 L 18.1472,-221.53 L 18.0832,-221.452 L 18.0099,-221.384 L 17.9286,-221.325 L 17.8406,-221.276 L 17.7472,-221.239
 L 17.6499,-221.214 L 17.5502,-221.202 z
M -17.5502,-221.202 L -17.6499,-221.214 L -17.7472,-221.239 L -17.8406,-221.276 L -17.9286,-221.325 L -18.0099,-221.384
 L -18.0832,-221.452 L -18.1472,-221.53 L -18.201,-221.615 L -18.2438,-221.706 L -18.2749,-221.801 L -18.2937,-221.9
 L -18.3,-222 L -18.2937,-222.1 L -18.2749,-222.199 L -18.2438,-222.294 L -18.201,-222.385 L -18.1472,-222.47
 L -18.0832,-222.548 L -18.0099,-222.616 L -17.9286,-222.675 L -17.8406,-222.724 L -17.7472,-222.761 L -17.6499,-222.786
 L -17.5502,-222.798 L -17.4498,-222.798 L -17.3501,-222.786 L -17.2528,-222.761 L -17.1594,-222.724 L -17.0713,-222.675
 L -16.9901,-222.616 L -16.9168,-222.548 L -16.8528,-222.47 L -16.799,-222.385 L -16.7562,-222.294 L -16.7251,-222.199
 L -16.7063,-222.1 L -16.7,-222 L -16.7063,-221.9 L -16.7251,-221.801 L -16.7562,-221.706 L -16.799,-221.615
 L -16.8528,-221.53 L -16.9168,-221.452 L -16.9901,-221.384 L -17.0713,-221.325 L -17.1594,-221.276 L -17.2528,-221.239
 L -17.3501,-221.214 L -17.4498,-221.202 z
M 406,-258 L 334,-258 L 334,-186 L 406,-186 z
M 341.75,-193.75 L 341.75,-250.25 L 398.25,-250.25 L 398.25,-193.75 z
M 330,-241.5 L 262,-241.5 L 262,-146.5 L 330,-146.5 z
M 256,-241.5 L 188,-241.5 L 188,-146.5 L 256,-146.5 z
M 184,-241.5 L 112,-241.5 L 112,-146.5 L 184,-146.5 z
M 110,-241.5 L 38,-241.5 L 38,-146.5 L 110,-146.5 z
M 406,-184 L 334,-184 L 334,-112 L 406,-112 z
M 341.75,-119.75 L 341.75,-176.25 L 398.25,-176.25 L 398.25,-119.75 z
M 36,-184 L -36,-184 L -36,-112 L 36,-112 z
M -15,-133 L -15,-163 L 15,-163 L 15,-133 z
M 17.4498,-147.202 L 17.3501,-147.214 L 17.2528,-147.239 L 17.1594,-147.276 L 17.0713,-147.325 L 16.9901,-147.384
 L 16.9168,-147.452 L 16.8528,-147.53 L 16.799,-147.615 L 16.7562,-147.706 L 16.7251,-147.801 L 16.7063,-147.9
 L 16.7,-148 L 16.7063,-148.1 L 16.7251,-148.199 L 16.7562,-148.294 L 16.799,-148.385 L 16.8528,-148.47
 L 16.9168,-148.548 L 16.9901,-148.616 L 17.0713,-148.675 L 17.1594,-148.724 L 17.2528,-148.761 L 17.3501,-148.786
 L 17.4498,-148.798 L 17.5502,-148.798 L 17.6499,-148.786 L 17.7472,-148.761 L 17.8406,-148.724 L 17.9286,-148.675
 L 18.0099,-148.616 L 18.0832,-148.548 L 18.1472,-148.47 L 18.201,-148.385 L 18.2438,-148.294 L 18.2749,-148.199
 L 18.2937,-148.1 L 18.3,-148 L 18.2937,-147.9 L 18.2749,-147.801 L 18.2438,-147.706 L 18.201,-147.615
 L 18.1472,-147.53 L 18.0832,-147.452 L 18.0099,-147.384 L 17.9286,-147.325 L 17.8406,-147.276 L 17.7472,-147.239
 L 17.6499,-147.214 L 17.5502,-147.202 z
M -17.5502,-147.202 L -17.6499,-147.214 L -17.7472,-147.239 L -17.8406,-147.276 L -17.9286,-147.325 L -18.0099,-147.384
 L -18.0832,-147.452 L -18.1472,-147.53 L -18.201,-147.615 L -18.2438,-147.706 L -18.2749,-147.801 L -18.2937,-147.9
 L -18.3,-148 L -18.2937,-148.1 L -18.2749,-148.199 L -18.2438,-148.294 L -18.201,-148.385 L -18.1472,-148.47
 L -18.0832,-148.548 L -18.0099,-148.616 L -17.9286,-148.675 L -17.8406,-148.724 L -17.7472,-148.761 L -17.6499,-148.786
 L -17.5502,-148.798 L -17.4498,-148.798 L -17.3501,-148.786 L -17.2528,-148.761 L -17.1594,-148.724 L -17.0713,-148.675
 L -16.9901,-148.616 L -16.9168,-148.548 L -16.8528,-148.47 L -16.799,-148.385 L -16.7562,-148.294 L -16.7251,-148.199
 L -16.7063,-148.1 L -16.7,-148 L -16.7063,-147.9 L -16.7251,-147.801 L -16.7562,-147.706 L -16.799,-147.615
 L -16.8528,-147.53 L -16.9168,-147.452 L -16.9901,-147.384 L -17.0713,-147.325 L -17.1594,-147.276 L -17.2528,-147.239
 L -17.3501,-147.214 L -17.4498,-147.202 z
M 330,-144.5 L 262,-144.5 L 262,-49.5 L 330,-49.5 z
M 110,-144.5 L 38,-144.5 L 38,-49.5 L 110,-49.5 z
M 256,-144.5 L 188,-144.5 L 188,-49.5 L 256,-49.5 z
M 184,-144.5 L 112,-144.5 L 112,-49.5 L 184,-49.5 z
M 406,-110 L 334,-110 L 334,-38 L 406,-38 z
M 341.75,-45.75 L 341.75,-102.25 L 398.25,-102.25 L 398.25,-45.75 z
M 36,-110 L -36,-110 L -36,-38 L 36,-38 z
M -15,-59 L -15,-89 L 15,-89 L 15,-59 z
M 17.4498,-73.2016 L 17.3501,-73.2142 L 17.2528,-73.2392 L 17.1594,-73.2762 L 17.0713,-73.3245 L 16.9901,-73.3836
 L 16.9168,-73.4524 L 16.8528,-73.5298 L 16.799,-73.6146 L 16.7562,-73.7055 L 16.7251,-73.8011 L 16.7063,-73.8997
 L 16.7,-74 L 16.7063,-74.1003 L 16.7251,-74.1989 L 16.7562,-74.2945 L 16.799,-74.3854 L 16.8528,-74.4702
 L 16.9168,-74.5476 L 16.9901,-74.6164 L 17.0713,-74.6755 L 17.1594,-74.7238 L 17.2528,-74.7608 L 17.3501,-74.7858
 L 17.4498,-74.7984 L 17.5502,-74.7984 L 17.6499,-74.7858 L 17.7472,-74.7608 L 17.8406,-74.7238 L 17.9286,-74.6755
 L 18.0099,-74.6164 L 18.0832,-74.5476 L 18.1472,-74.4702 L 18.201,-74.3854 L 18.2438,-74.2945 L 18.2749,-74.1989
 L 18.2937,-74.1003 L 18.3,-74 L 18.2937,-73.8997 L 18.2749,-73.8011 L 18.2438,-73.7055 L 18.201,-73.6146
 L 18.1472,-73.5298 L 18.0832,-73.4524 L 18.0099,-73.3836 L 17.9286,-73.3245 L 17.8406,-73.2762 L 17.7472,-73.2392
 L 17.6499,-73.2142 L 17.5502,-73.2016 z
M -17.5502,-73.2016 L -17.6499,-73.2142 L -17.7472,-73.2392 L -17.8406,-73.2762 L -17.9286,-73.3245 L -18.0099,-73.3836
 L -18.0832,-73.4524 L -18.1472,-73.5298 L -18.201,-73.6146 L -18.2438,-73.7055 L -18.2749,-73.8011 L -18.2937,-73.8997
 L -18.3,-74 L -18.2937,-74.1003 L -18.2749,-74.1989 L -18.2438,-74.2945 L -18.201,-74.3854 L -18.1472,-74.4702
 L -18.0832,-74.5476 L -18.0099,-74.6164 L -17.9286,-74.6755 L -17.8406,-74.7238 L -17.7472,-74.7608 L -17.6499,-74.7858
 L -17.5502,-74.7984 L -17.4498,-74.7984 L -17.3501,-74.7858 L -17.2528,-74.7608 L -17.1594,-74.7238 L -17.0713,-74.6755
 L -16.9901,-74.6164 L -16.9168,-74.5476 L -16.8528,-74.4702 L -16.799,-74.3854 L -16.7562,-74.2945 L -16.7251,-74.1989
 L -16.7063,-74.1003 L -16.7,-74 L -16.7063,-73.8997 L -16.7251,-73.8011 L -16.7562,-73.7055 L -16.799,-73.6146
 L -16.8528,-73.5298 L -16.9168,-73.4524 L -16.9901,-73.3836 L -17.0713,-73.3245 L -17.1594,-73.2762 L -17.2528,-73.2392
 L -17.3501,-73.2142 L -17.4498,-73.2016 z
M 184,-47.5 L 112,-47.5 L 112,47.5 L 184,47.5 z
M 256,-47.5 L 188,-47.5 L 188,47.5 L 256,47.5 z
M 110,-47.5 L 38,-47.5 L 38,47.5 L 110,47.5 z
M 330,-47.5 L 262,-47.5 L 262,47.5 L 330,47.5 z
M 406,-36 L 334,-36 L 334,36 L 406,36 z
M 341.75,28.25 L 341.75,-28.25 L 398.25,-28.25 L 398.25,28.25 z
M 36,-36 L -36,-36 L -36,36 L 36,36 z
M -15,15 L -15,-15 L 15,-15 L 15,15 z
M -17.5502,0.798416 L -17.6499,0.785828 L -17.7472,0.760834 L -17.8406,0.723846 L -17.9286,0.675461 L -18.0099,0.616409
 L -18.0832,0.547623 L -18.1472,0.470215 L -18.201,0.385391 L -18.2438,0.294495 L -18.2749,0.198944 L -18.2937,0.100266
 L -18.3,-0 L -18.2937,-0.100266 L -18.2749,-0.198944 L -18.2438,-0.294495 L -18.201,-0.385391 L -18.1472,-0.470215
 L -18.0832,-0.547623 L -18.0099,-0.616409 L -17.9286,-0.675461 L -17.8406,-0.723846 L -17.7472,-0.760834 L -17.6499,-0.785828
 L -17.5502,-0.798416 L -17.4498,-0.798416 L -17.3501,-0.785828 L -17.2528,-0.760834 L -17.1594,-0.723846 L -17.0713,-0.675461
 L -16.9901,-0.616409 L -16.9168,-0.547623 L -16.8528,-0.470215 L -16.799,-0.385391 L -16.7562,-0.294495 L -16.7251,-0.198944
 L -16.7063,-0.100266 L -16.7,-0 L -16.7063,0.100266 L -16.7251,0.198944 L -16.7562,0.294495 L -16.799,0.385391
 L -16.8528,0.470215 L -16.9168,0.547623 L -16.9901,0.616409 L -17.0713,0.675461 L -17.1594,0.723846 L -17.2528,0.760834
 L -17.3501,0.785828 L -17.4498,0.798416 z
M 17.4498,0.798416 L 17.3501,0.785828 L 17.2528,0.760834 L 17.1594,0.723846 L 17.0713,0.675461 L 16.9901,0.616409
 L 16.9168,0.547623 L 16.8528,0.470215 L 16.799,0.385391 L 16.7562,0.294495 L 16.7251,0.198944 L 16.7063,0.100266
 L 16.7,-0 L 16.7063,-0.100266 L 16.7251,-0.198944 L 16.7562,-0.294495 L 16.799,-0.385391 L 16.8528,-0.470215
 L 16.9168,-0.547623 L 16.9901,-0.616409 L 17.0713,-0.675461 L 17.1594,-0.723846 L 17.2528,-0.760834 L 17.3501,-0.785828
 L 17.4498,-0.798416 L 17.5502,-0.798416 L 17.6499,-0.785828 L 17.7472,-0.760834 L 17.8406,-0.723846 L 17.9286,-0.675461
 L 18.0099,-0.616409 L 18.0832,-0.547623 L 18.1472,-0.470215 L 18.201,-0.385391 L 18.2438,-0.294495 L 18.2749,-0.198944
 L 18.2937,-0.100266 L 18.3,-0 L 18.2937,0.100266 L 18.2749,0.198944 L 18.2438,0.294495 L 18.201,0.385391
 L 18.1472,0.470215 L 18.0832,0.547623 L 18.0099,0.616409 L 17.9286,0.675461 L 17.8406,0.723846 L 17.7472,0.760834
 L 17.6499,0.785828 L 17.5502,0.798416 z
" stroke="black" fill="lightgray" stroke-width="0.5"/>
</svg>
