<?xml version="1.0" standalone="no"?>
<!DOCTYPE svg PUBLIC "-//W3C//DTD SVG 1.1//EN" "http://www.w3.org/Graphics/SVG/1.1/DTD/svg11.dtd">
<svg width="288mm" height="678mm" viewBox="-19 -630 288 678" xmlns="http://www.w3.org/2000/svg" version="1.1">
<title>OpenSCAD Model</title>
<path d="
M 225.8,-629.5 L 191.8,-629.5 L 191.8,-534.5 L 225.8,-534.5 z
M 185.2,-629.5 L 151.2,-629.5 L 151.2,-534.5 L 185.2,-534.5 z
M 144,-629.5 L 88,-629.5 L 88,-534.5 L 144,-534.5 z
M 84,-629.5 L 28,-629.5 L 28,-534.5 L 84,-534.5 z
M 225.8,-532.5 L 191.8,-532.5 L 191.8,-437.5 L 225.8,-437.5 z
M 185.2,-532.5 L 151.2,-532.5 L 151.2,-437.5 L 185.2,-437.5 z
M 144,-532.5 L 88,-532.5 L 88,-437.5 L 144,-437.5 z
M 84,-532.5 L 28,-532.5 L 28,-437.5 L 84,-437.5 z
M 225.8,-435.5 L 191.8,-435.5 L 191.8,-340.5 L 225.8,-340.5 z
M 185.2,-435.5 L 151.2,-435.5 L 151.2,-340.5 L 185.2,-340.5 z
M 144,-435.5 L 88,-435.5 L 88,-340.5 L 144,-340.5 z
M 84,-435.5 L 28,-435.5 L 28,-340.5 L 84,-340.5 z
M 19,-376 L -19,-376 L -19,-320 L 19,-320 z
M -0.100266,-364.706 L -0.198944,-364.725 L -0.294495,-364.756 L -0.385391,-364.799 L -0.470215,-364.853 L -0.547623,-364.917
 L -0.616409,-364.99 L -0.675461,-365.071 L -0.723846,-365.159 L -0.760834,-365.253 L -0.785828,-365.35 L -0.798416,-365.45
 L -0.798416,-365.55 L -0.785828,-365.65 L -0.760834,-365.747 L -0.723846,-365.841 L -0.675461,-365.929 L -0.616409,-366.01
 L -0.547623,-366.083 L -0.470215,-366.147 L -0.385391,-366.201 L -0.294495,-366.244 L -0.198944,-366.275 L -0.100266,-366.294
 L 0,-366.3 L 0.100266,-366.294 L 0.198944,-366.275 L 0.294495,-366.244 L 0.385391,-366.201 L 0.470215,-366.147
 L 0.547623,-366.083 L 0.616409,-366.01 L 0.675461,-365.929 L 0.723846,-365.841 L 0.760834,-365.747 L 0.785828,-365.65
 L 0.798416,-365.55 L 0.798416,-365.45 L 0.785828,-365.35 L 0.760834,-365.253 L 0.723846,-365.159 L 0.675461,-365.071
 L 0.616409,-364.99 L 0.547623,-364.917 L 0.470215,-364.853 L 0.385391,-364.799 L 0.294495,-364.756 L 0.198944,-364.725
 L 0.100266,-364.706 L 0,-364.7 z
M -15,-333 L -15,-363 L 15,-363 L 15,-333 z
M -0.100266,-329.706 L -0.198944,-329.725 L -0.294495,-329.756 L -0.385391,-329.799 L -0.470215,-329.853 L -0.547623,-329.917
 L -0.616409,-329.99 L -0.675461,-330.071 L -0.723846,-330.159 L -0.760834,-330.253 L -0.785828,-330.35 L -0.798416,-330.45
 L -0.798416,-330.55 L -0.785828,-330.65 L -0.760834,-330.747 L -0.723846,-330.841 L -0.675461,-330.929 L -0.616409,-331.01
 L -0.547623,-331.083 L -0.470215,-331.147 L -0.385391,-331.201 L -0.294495,-331.244 L -0.198944,-331.275 L -0.100266,-331.294
 L 0,-331.3 L 0.100266,-331.294 L 0.198944,-331.275 L 0.294495,-331.244 L 0.385391,-331.201 L 0.470215,-331.147
 L 0.547623,-331.083 L 0.616409,-331.01 L 0.675461,-330.929 L 0.723846,-330.841 L 0.760834,-330.747 L 0.785828,-330.65
 L 0.798416,-330.55 L 0.798416,-330.45 L 0.785828,-330.35 L 0.760834,-330.253 L 0.723846,-330.159 L 0.675461,-330.071
 L 0.616409,-329.99 L 0.547623,-329.917 L 0.470215,-329.853 L 0.385391,-329.799 L 0.294495,-329.756 L 0.198944,-329.725
 L 0.100266,-329.706 L 0,-329.7 z
M 268.4,-376 L 230.4,-376 L 230.4,-320 L 268.4,-320 z
M 235.15,-325.5 L 235.15,-370.5 L 263.65,-370.5 L 263.65,-325.5 z
M 84,-338.5 L 28,-338.5 L 28,-243.5 L 84,-243.5 z
M 185.2,-338.5 L 151.2,-338.5 L 151.2,-243.5 L 185.2,-243.5 z
M 144,-338.5 L 88,-338.5 L 88,-243.5 L 144,-243.5 z
M 225.8,-338.5 L 191.8,-338.5 L 191.8,-243.5 L 225.8,-243.5 z
M 19,-318 L -19,-318 L -19,-262 L 19,-262 z
M -0.100266,-306.706 L -0.198944,-306.725 L -0.294495,-306.756 L -0.385391,-306.799 L -0.470215,-306.853 L -0.547623,-306.917
 L -0.616409,-306.99 L -0.675461,-307.071 L -0.723846,-307.159 L -0.760834,-307.253 L -0.785828,-307.35 L -0.798416,-307.45
 L -0.798416,-307.55 L -0.785828,-307.65 L -0.760834,-307.747 L -0.723846,-307.841 L -0.675461,-307.929 L -0.616409,-308.01
 L -0.547623,-308.083 L -0.470215,-308.147 L -0.385391,-308.201 L -0.294495,-308.244 L -0.198944,-308.275 L -0.100266,-308.294
 L 0,-308.3 L 0.100266,-308.294 L 0.198944,-308.275 L 0.294495,-308.244 L 0.385391,-308.201 L 0.470215,-308.147
 L 0.547623,-308.083 L 0.616409,-308.01 L 0.675461,-307.929 L 0.723846,-307.841 L 0.760834,-307.747 L 0.785828,-307.65
 L 0.798416,-307.55 L 0.798416,-307.45 L 0.785828,-307.35 L 0.760834,-307.253 L 0.723846,-307.159 L 0.675461,-307.071
 L 0.616409,-306.99 L 0.547623,-306.917 L 0.470215,-306.853 L 0.385391,-306.799 L 0.294495,-306.756 L 0.198944,-306.725
 L 0.100266,-306.706 L 0,-306.7 z
M -15,-275 L -15,-305 L 15,-305 L 15,-275 z
M -0.100266,-271.706 L -0.198944,-271.725 L -0.294495,-271.756 L -0.385391,-271.799 L -0.470215,-271.853 L -0.547623,-271.917
 L -0.616409,-271.99 L -0.675461,-272.071 L -0.723846,-272.159 L -0.760834,-272.253 L -0.785828,-272.35 L -0.798416,-272.45
 L -0.798416,-272.55 L -0.785828,-272.65 L -0.760834,-272.747 L -0.723846,-272.841 L -0.675461,-272.929 L -0.616409,-273.01
 L -0.547623,-273.083 L -0.470215,-273.147 L -0.385391,-273.201 L -0.294495,-273.244 L -0.198944,-273.275 L -0.100266,-273.294
 L 0,-273.3 L 0.100266,-273.294 L 0.198944,-273.275 L 0.294495,-273.244 L 0.385391,-273.201 L 0.470215,-273.147
 L 0.547623,-273.083 L 0.616409,-273.01 L 0.675461,-272.929 L 0.723846,-272.841 L 0.760834,-272.747 L 0.785828,-272.65
 L 0.798416,-272.55 L 0.798416,-272.45 L 0.785828,-272.35 L 0.760834,-272.253 L 0.723846,-272.159 L 0.675461,-272.071
 L 0.616409,-271.99 L 0.547623,-271.917 L 0.470215,-271.853 L 0.385391,-271.799 L 0.294495,-271.756 L 0.198944,-271.725
 L 0.100266,-271.706 L 0,-271.7 z
M 268.4,-318 L 230.4,-318 L 230.4,-262 L 268.4,-262 z
M 235.15,-267.5 L 235.15,-312.5 L 263.65,-312.5 L 263.65,-267.5 z
M 19,-260 L -19,-260 L -19,-204 L 19,-204 z
M -0.100266,-248.706 L -0.198944,-248.725 L -0.294495,-248.756 L -0.385391,-248.799 L -0.470215,-248.853 L -0.547623,-248.917
 L -0.616409,-248.99 L -0.675461,-249.071 L -0.723846,-249.159 L -0.760834,-249.253 L -0.785828,-249.35 L -0.798416,-249.45
 L -0.798416,-249.55 L -0.785828,-249.65 L -0.760834,-249.747 L -0.723846,-249.841 L -0.675461,-249.929 L -0.616409,-250.01
 L -0.547623,-250.083 L -0.470215,-250.147 L -0.385391,-250.201 L -0.294495,-250.244 L -0.198944,-250.275 L -0.100266,-250.294
 L 0,-250.3 L 0.100266,-250.294 L 0.198944,-250.275 L 0.294495,-250.244 L 0.385391,-250.201 L 0.470215,-250.147
 L 0.547623,-250.083 L 0.616409,-250.01 L 0.675461,-249.929 L 0.723846,-249.841 L 0.760834,-249.747 L 0.785828,-249.65
 L 0.798416,-249.55 L 0.798416,-249.45 L 0.785828,-249.35 L 0.760834,-249.253 L 0.723846,-249.159 L 0.675461,-249.071
 L 0.616409,-248.99 L 0.547623,-248.917 L 0.470215,-248.853 L 0.385391,-248.799 L 0.294495,-248.756 L 0.198944,-248.725
 L 0.100266,-248.706 L 0,-248.7 z
M -15,-217 L -15,-247 L 15,-247 L 15,-217 z
M -0.100266,-213.706 L -0.198944,-213.725 L -0.294495,-213.756 L -0.385391,-213.799 L -0.470215,-213.853 L -0.547623,-213.917
 L -0.616409,-213.99 L -0.675461,-214.071 L -0.723846,-214.159 L -0.760834,-214.253 L -0.785828,-214.35 L -0.798416,-214.45
 L -0.798416,-214.55 L -0.785828,-214.65 L -0.760834,-214.747 L -0.723846,-214.841 L -0.675461,-214.929 L -0.616409,-215.01
 L -0.547623,-215.083 L -0.470215,-215.147 L -0.385391,-215.201 L -0.294495,-215.244 L -0.198944,-215.275 L -0.100266,-215.294
 L 0,-215.3 L 0.100266,-215.294 L 0.198944,-215.275 L 0.294495,-215.244 L 0.385391,-215.201 L 0.470215,-215.147
 L 0.547623,-215.083 L 0.616409,-215.01 L 0.675461,-214.929 L 0.723846,-214.841 L 0.760834,-214.747 L 0.785828,-214.65
 L 0.798416,-214.55 L 0.798416,-214.45 L 0.785828,-214.35 L 0.760834,-214.253 L 0.723846,-214.159 L 0.675461,-214.071
 L 0.616409,-213.99 L 0.547623,-213.917 L 0.470215,-213.853 L 0.385391,-213.799 L 0.294495,-213.756 L 0.198944,-213.725
 L 0.100266,-213.706 L 0,-213.7 z
M 268.4,-260 L 230.4,-260 L 230.4,-204 L 268.4,-204 z
M 235.15,-209.5 L 235.15,-254.5 L 263.65,-254.5 L 263.65,-209.5 z
M 84,-241.5 L 28,-241.5 L 28,-146.5 L 84,-146.5 z
M 225.8,-241.5 L 191.8,-241.5 L 191.8,-146.5 L 225.8,-146.5 z
M 185.2,-241.5 L 151.2,-241.5 L 151.2,-146.5 L 185.2,-146.5 z
M 144,-241.5 L 88,-241.5 L 88,-146.5 L 144,-146.5 z
M 19,-202 L -19,-202 L -19,-146 L 19,-146 z
M -0.100266,-190.706 L -0.198944,-190.725 L -0.294495,-190.756 L -0.385391,-190.799 L -0.470215,-190.853 L -0.547623,-190.917
 L -0.616409,-190.99 L -0.675461,-191.071 L -0.723846,-191.159 L -0.760834,-191.253 L -0.785828,-191.35 L -0.798416,-191.45
 L -0.798416,-191.55 L -0.785828,-191.65 L -0.760834,-191.747 L -0.723846,-191.841 L -0.675461,-191.929 L -0.616409,-192.01
 L -0.547623,-192.083 L -0.470215,-192.147 L -0.385391,-192.201 L -0.294495,-192.244 L -0.198944,-192.275 L -0.100266,-192.294
 L 0,-192.3 L 0.100266,-192.294 L 0.198944,-192.275 L 0.294495,-192.244 L 0.385391,-192.201 L 0.470215,-192.147
 L 0.547623,-192.083 L 0.616409,-192.01 L 0.675461,-191.929 L 0.723846,-191.841 L 0.760834,-191.747 L 0.785828,-191.65
 L 0.798416,-191.55 L 0.798416,-191.45 L 0.785828,-191.35 L 0.760834,-191.253 L 0.723846,-191.159 L 0.675461,-191.071
 L 0.616409,-190.99 L 0.547623,-190.917 L 0.470215,-190.853 L 0.385391,-190.799 L 0.294495,-190.756 L 0.198944,-190.725
 L 0.100266,-190.706 L 0,-190.7 z
M -15,-159 L -15,-189 L 15,-189 L 15,-159 z
M -0.100266,-155.706 L -0.198944,-155.725 L -0.294495,-155.756 L -0.385391,-155.799 L -0.470215,-155.853 L -0.547623,-155.917
 L -0.616409,-155.99 L -0.675461,-156.071 L -0.723846,-156.159 L -0.760834,-156.253 L -0.785828,-156.35 L -0.798416,-156.45
 L -0.798416,-156.55 L -0.785828,-156.65 L -0.760834,-156.747 L -0.723846,-156.841 L -0.675461,-156.929 L -0.616409,-157.01
 L -0.547623,-157.083 L -0.470215,-157.147 L -0.385391,-157.201 L -0.294495,-157.244 L -0.198944,-157.275 L -0.100266,-157.294
 L 0,-157.3 L 0.100266,-157.294 L 0.198944,-157.275 L 0.294495,-157.244 L 0.385391,-157.201 L 0.470215,-157.147
 L 0.547623,-157.083 L 0.616409,-157.01 L 0.675461,-156.929 L 0.723846,-156.841 L 0.760834,-156.747 L 0.785828,-156.65
 L 0.798416,-156.55 L 0.798416,-156.45 L 0.785828,-156.35 L 0.760834,-156.253 L 0.723846,-156.159 L 0.675461,-156.071
 L 0.616409,-155.99 L 0.547623,-155.917 L 0.470215,-155.853 L 0.385391,-155.799 L 0.294495,-155.756 L 0.198944,-155.725
 L 0.100266,-155.706 L 0,-155.7 z
M 268.4,-202 L 230.4,-202 L 230.4,-146 L 268.4,-146 z
M 235.15,-151.5 L 235.15,-196.5 L 263.65,-196.5 L 263.65,-151.5 z
M 185.2,-144.5 L 151.2,-144.5 L 151.2,-49.5 L 185.2,-49.5 z
M 225.8,-144.5 L 191.8,-144.5 L 191.8,-49.5 L 225.8,-49.5 z
M 144,-144.5 L 88,-144.5 L 88,-49.5 L 144,-49.5 z
M 84,-144.5 L 28,-144.5 L 28,-49.5 L 84,-49.5 z
M 268.4,-144 L 230.4,-144 L 230.4,-88 L 268.4,-88 z
M 235.15,-93.5 L 235.15,-138.5 L 263.65,-138.5 L 263.65,-93.5 z
M 19,-144 L -19,-144 L -19,-88 L 19,-88 z
M -0.100266,-132.706 L -0.198944,-132.725 L -0.294495,-132.756 L -0.385391,-132.799 L -0.470215,-132.853 L -0.547623,-132.917
 L -0.616409,-132.99 L -0.675461,-133.071 L -0.723846,-133.159 L -0.760834,-133.253 L -0.785828,-133.35 L -0.798416,-133.45
 L -0.798416,-133.55 L -0.785828,-133.65 L -0.760834,-133.747 L -0.723846,-133.841 L -0.675461,-133.929 L -0.616409,-134.01
 L -0.547623,-134.083 L -0.470215,-134.147 L -0.385391,-134.201 L -0.294495,-134.244 L -0.198944,-134.275 L -0.100266,-134.294
 L 0,-134.3 L 0.100266,-134.294 L 0.198944,-134.275 L 0.294495,-134.244 L 0.385391,-134.201 L 0.470215,-134.147
 L 0.547623,-134.083 L 0.616409,-134.01 L 0.675461,-133.929 L 0.723846,-133.841 L 0.760834,-133.747 L 0.785828,-133.65
 L 0.798416,-133.55 L 0.798416,-133.45 L 0.785828,-133.35 L 0.760834,-133.253 L 0.723846,-133.159 L 0.675461,-133.071
 L 0.616409,-132.99 L 0.547623,-132.917 L 0.470215,-132.853 L 0.385391,-132.799 L 0.294495,-132.756 L 0.198944,-132.725
 L 0.100266,-132.706 L 0,-132.7 z
M -15,-101 L -15,-131 L 15,-131 L 15,-101 z
M -0.100266,-97.7063 L -0.198944,-97.7251 L -0.294495,-97.7562 L -0.385391,-97.799 L -0.470215,-97.8528 L -0.547623,-97.9168
 L -0.616409,-97.9901 L -0.675461,-98.0714 L -0.723846,-98.1594 L -0.760834,-98.2528 L -0.785828,-98.3501 L -0.798416,-98.4498
 L -0.798416,-98.5502 L -0.785828,-98.6499 L -0.760834,-98.7472 L -0.723846,-98.8406 L -0.675461,-98.9287 L -0.616409,-99.0099
 L -0.547623,-99.0832 L -0.470215,-99.1472 L -0.385391,-99.201 L -0.294495,-99.2438 L -0.198944,-99.2749 L -0.100266,-99.2937
 L 0,-99.3 L 0.100266,-99.2937 L 0.198944,-99.2749 L 0.294495,-99.2438 L 0.385391,-99.201 L 0.470215,-99.1472
 L 0.547623,-99.0832 L 0.616409,-99.0099 L 0.675461,-98.9287 L 0.723846,-98.8406 L 0.760834,-98.7472 L 0.785828,-98.6499
 L 0.798416,-98.5502 L 0.798416,-98.4498 L 0.785828,-98.3501 L 0.760834,-98.2528 L 0.723846,-98.1594 L 0.675461,-98.0714
 L 0.616409,-97.9901 L 0.547623,-97.9168 L 0.470215,-97.8528 L 0.385391,-97.799 L 0.294495,-97.7562 L 0.198944,-97.7251
 L 0.100266,-97.7063 L 0,-97.7 z
M 268.4,-86 L 230.4,-86 L 230.4,-30 L 268.4,-30 z
M 235.15,-35.5 L 235.15,-80.5 L 263.65,-80.5 L 263.65,-35.5 z
M 19,-86 L -19,-86 L -19,-30 L 19,-30 z
M -0.100266,-74.7063 L -0.198944,-74.7251 L -0.294495,-74.7562 L -0.385391,-74.799 L -0.470215,-74.8528 L -0.547623,-74.9168
 L -0.616409,-74.9901 L -0.675461,-75.0713 L -0.723846,-75.1594 L -0.760834,-75.2528 L -0.785828,-75.3501 L -0.798416,-75.4498
 L -0.798416,-75.5502 L -0.785828,-75.6499 L -0.760834,-75.7472 L -0.723846,-75.8406 L -0.675461,-75.9286 L -0.616409,-76.0099
 L -0.547623,-76.0832 L -0.470215,-76.1472 L -0.385391,-76.201 L -0.294495,-76.2438 L -0.198944,-76.2749 L -0.100266,-76.2937
 L 0,-76.3 L 0.100266,-76.2937 L 0.198944,-76.2749 L 0.294495,-76.2438 L 0.385391,-76.201 L 0.470215,-76.1472
 L 0.547623,-76.0832 L 0.616409,-76.0099 L 0.675461,-75.9286 L 0.723846,-75.8406 L 0.760834,-75.7472 L 0.785828,-75.6499
 L 0.798416,-75.5502 L 0.798416,-75.4498 L 0.785828,-75.3501 L 0.760834,-75.2528 L 0.723846,-75.1594 L 0.675461,-75.0713
 L 0.616409,-74.9901 L 0.547623,-74.9168 L 0.470215,-74.8528 L 0.385391,-74.799 L 0.294495,-74.7562 L 0.198944,-74.7251
 L 0.100266,-74.7063 L 0,-74.7 z
M -15,-43 L -15,-73 L 15,-73 L 15,-43 z
M -0.100266,-39.7063 L -0.198944,-39.7251 L -0.294495,-39.7562 L -0.385391,-39.799 L -0.470215,-39.8528 L -0.547623,-39.9168
 L -0.616409,-39.9901 L -0.675461,-40.0714 L -0.723846,-40.1594 L -0.760834,-40.2528 L -0.785828,-40.3501 L -0.798416,-40.4498
 L -0.798416,-40.5502 L -0.785828,-40.6499 L -0.760834,-40.7472 L -0.723846,-40.8406 L -0.675461,-40.9287 L -0.616409,-41.0099
 L -0.547623,-41.0832 L -0.470215,-41.1472 L -0.385391,-41.201 L -0.294495,-41.2438 L -0.198944,-41.2749 L -0.100266,-41.2937
 L 0,-41.3 L 0.100266,-41.2937 L 0.198944,-41.2749 L 0.294495,-41.2438 L 0.385391,-41.201 L 0.470215,-41.1472
 L 0.547623,-41.0832 L 0.616409,-41.0099 L 0.675461,-40.9287 L 0.723846,-40.8406 L 0.760834,-40.7472 L 0.785828,-40.6499
 L 0.798416,-40.5502 L 0.798416,-40.4498 L 0.785828,-40.3501 L 0.760834,-40.2528 L 0.723846,-40.1594 L 0.675461,-40.0714
 L 0.616409,-39.9901 L 0.547623,-39.9168 L 0.470215,-39.8528 L 0.385391,-39.799 L 0.294495,-39.7562 L 0.198944,-39.7251
 L 0.100266,-39.7063 L 0,-39.7 z
M 144,-47.5 L 88,-47.5 L 88,47.5 L 144,47.5 z
M 225.8,-47.5 L 191.8,-47.5 L 191.8,47.5 L 225.8,47.5 z
M 84,-47.5 L 28,-47.5 L 28,47.5 L 84,47.5 z
M 185.2,-47.5 L 151.2,-47.5 L 151.2,47.5 L 185.2,47.5 z
M 19,-28 L -19,-28 L -19,28 L 19,28 z
M -0.100266,-16.7063 L -0.198944,-16.7251 L -0.294495,-16.7562 L -0.385391,-16.799 L -0.470215,-16.8528 L -0.547623,-16.9168
 L -0.616409,-16.9901 L -0.675461,-17.0713 L -0.723846,-17.1594 L -0.760834,-17.2528 L -0.785828,-17.3501 L -0.798416,-17.4498
 L -0.798416,-17.5502 L -0.785828,-17.6499 L -0.760834,-17.7472 L -0.723846,-17.8406 L -0.675461,-17.9286 L -0.616409,-18.0099
 L -0.547623,-18.0832 L -0.470215,-18.1472 L -0.385391,-18.201 L -0.294495,-18.2438 L -0.198944,-18.2749 L -0.100266,-18.2937
 L 0,-18.3 L 0.100266,-18.2937 L 0.198944,-18.2749 L 0.294495,-18.2438 L 0.385391,-18.201 L 0.470215,-18.1472
 L 0.547623,-18.0832 L 0.616409,-18.0099 L 0.675461,-17.9286 L 0.723846,-17.8406 L 0.760834,-17.7472 L 0.785828,-17.6499
 L 0.798416,-17.5502 L 0.798416,-17.4498 L 0.785828,-17.3501 L 0.760834,-17.2528 L 0.723846,-17.1594 L 0.675461,-17.0713
 L 0.616409,-16.9901 L 0.547623,-16.9168 L 0.470215,-16.8528 L 0.385391,-16.799 L 0.294495,-16.7562 L 0.198944,-16.7251
 L 0.100266,-16.7063 L 0,-16.7 z
M -15,15 L -15,-15 L 15,-15 L 15,15 z
M -0.100266,18.2937 L -0.198944,18.2749 L -0.294495,18.2438 L -0.385391,18.201 L -0.470215,18.1472 L -0.547623,18.0832
 L -0.616409,18.0099 L -0.675461,17.9286 L -0.723846,17.8406 L -0.760834,17.7472 L -0.785828,17.6499 L -0.798416,17.5502
 L -0.798416,17.4498 L -0.785828,17.3501 L -0.760834,17.2528 L -0.723846,17.1594 L -0.675461,17.0713 L -0.616409,16.9901
 L -0.547623,16.9168 L -0.470215,16.8528 L -0.385391,16.799 L -0.294495,16.7562 L -0.198944,16.7251 L -0.100266,16.7063
 L 0,16.7 L 0.100266,16.7063 L 0.198944,16.7251 L 0.294495,16.7562 L 0.385391,16.799 L 0.470215,16.8528
 L 0.547623,16.9168 L 0.616409,16.9901 L 0.675461,17.0713 L 0.723846,17.1594 L 0.760834,17.2528 L 0.785828,17.3501
 L 0.798416,17.4498 L 0.798416,17.5502 L 0.785828,17.6499 L 0.760834,17.7472 L 0.723846,17.8406 L 0.675461,17.9286
 L 0.616409,18.0099 L 0.547623,18.0832 L 0.470215,18.1472 L 0.385391,18.201 L 0.294495,18.2438 L 0.198944,18.2749
 L 0.100266,18.2937 L 0,18.3 z
M 268.4,-28 L 230.4,-28 L 230.4,28 L 268.4,28 z
M 235.15,22.5 L 235.15,-22.5 L 263.65,-22.5 L 263.65,22.5 z
" stroke="black" fill="lightgray" stroke-width="0.5"/>
</svg>
