<?xml version="1.0" standalone="no"?>
<!DOCTYPE svg PUBLIC "-//W3C//DTD SVG 1.1//EN" "http://www.w3.org/Graphics/SVG/1.1/DTD/svg11.dtd">
<svg width="261mm" height="562mm" viewBox="-15 -547 261 562" xmlns="http://www.w3.org/2000/svg" version="1.1">
<title>OpenSCAD Model</title>
<path d="
M 149.4,-546.4 L 119.4,-546.4 L 119.4,-506.4 L 149.4,-506.4 z
M 134.3,-543.106 L 134.201,-543.125 L 134.105,-543.156 L 134.015,-543.199 L 133.93,-543.253 L 133.852,-543.317
 L 133.784,-543.39 L 133.725,-543.471 L 133.676,-543.559 L 133.639,-543.653 L 133.614,-543.75 L 133.602,-543.85
 L 133.602,-543.95 L 133.614,-544.05 L 133.639,-544.147 L 133.676,-544.241 L 133.725,-544.329 L 133.784,-544.41
 L 133.852,-544.483 L 133.93,-544.547 L 134.015,-544.601 L 134.105,-544.644 L 134.201,-544.675 L 134.3,-544.694
 L 134.4,-544.7 L 134.5,-544.694 L 134.599,-544.675 L 134.694,-544.644 L 134.785,-544.601 L 134.87,-544.547
 L 134.948,-544.483 L 135.016,-544.41 L 135.075,-544.329 L 135.124,-544.241 L 135.161,-544.147 L 135.186,-544.05
 L 135.198,-543.95 L 135.198,-543.85 L 135.186,-543.75 L 135.161,-543.653 L 135.124,-543.559 L 135.075,-543.471
 L 135.016,-543.39 L 134.948,-543.317 L 134.87,-543.253 L 134.785,-543.199 L 134.694,-543.156 L 134.599,-543.125
 L 134.5,-543.106 L 134.4,-543.1 z
M 133.773,-521.439 L 133.157,-521.557 L 132.559,-521.751 L 131.991,-522.018 L 131.461,-522.355 L 130.977,-522.755
 L 130.547,-523.213 L 130.178,-523.721 L 129.876,-524.271 L 129.645,-524.855 L 129.489,-525.463 L 129.41,-526.086
 L 129.41,-526.714 L 129.489,-527.337 L 129.645,-527.945 L 129.876,-528.529 L 130.178,-529.079 L 130.547,-529.587
 L 130.977,-530.045 L 131.461,-530.445 L 131.991,-530.782 L 132.559,-531.049 L 133.157,-531.243 L 133.773,-531.361
 L 134.4,-531.4 L 135.027,-531.361 L 135.643,-531.243 L 136.241,-531.049 L 136.809,-530.782 L 137.339,-530.445
 L 137.823,-530.045 L 138.253,-529.587 L 138.622,-529.079 L 138.924,-528.529 L 139.155,-527.945 L 139.311,-527.337
 L 139.39,-526.714 L 139.39,-526.086 L 139.311,-525.463 L 139.155,-524.855 L 138.924,-524.271 L 138.622,-523.721
 L 138.253,-523.213 L 137.823,-522.755 L 137.339,-522.355 L 136.809,-522.018 L 136.241,-521.751 L 135.643,-521.557
 L 135.027,-521.439 L 134.4,-521.4 z
M 134.3,-508.106 L 134.201,-508.125 L 134.105,-508.156 L 134.015,-508.199 L 133.93,-508.253 L 133.852,-508.317
 L 133.784,-508.39 L 133.725,-508.471 L 133.676,-508.559 L 133.639,-508.653 L 133.614,-508.75 L 133.602,-508.85
 L 133.602,-508.95 L 133.614,-509.05 L 133.639,-509.147 L 133.676,-509.241 L 133.725,-509.329 L 133.784,-509.41
 L 133.852,-509.483 L 133.93,-509.547 L 134.015,-509.601 L 134.105,-509.644 L 134.201,-509.675 L 134.3,-509.694
 L 134.4,-509.7 L 134.5,-509.694 L 134.599,-509.675 L 134.694,-509.644 L 134.785,-509.601 L 134.87,-509.547
 L 134.948,-509.483 L 135.016,-509.41 L 135.075,-509.329 L 135.124,-509.241 L 135.161,-509.147 L 135.186,-509.05
 L 135.198,-508.95 L 135.198,-508.85 L 135.186,-508.75 L 135.161,-508.653 L 135.124,-508.559 L 135.075,-508.471
 L 135.016,-508.39 L 134.948,-508.317 L 134.87,-508.253 L 134.785,-508.199 L 134.694,-508.156 L 134.599,-508.125
 L 134.5,-508.106 L 134.4,-508.1 z
M 245.4,-546.4 L 215.4,-546.4 L 215.4,-506.4 L 245.4,-506.4 z
M 230.3,-543.106 L 230.201,-543.125 L 230.105,-543.156 L 230.015,-543.199 L 229.93,-543.253 L 229.852,-543.317
 L 229.784,-543.39 L 229.725,-543.471 L 229.676,-543.559 L 229.639,-543.653 L 229.614,-543.75 L 229.602,-543.85
 L 229.602,-543.95 L 229.614,-544.05 L 229.639,-544.147 L 229.676,-544.241 L 229.725,-544.329 L 229.784,-544.41
 L 229.852,-544.483 L 229.93,-544.547 L 230.015,-544.601 L 230.105,-544.644 L 230.201,-544.675 L 230.3,-544.694
 L 230.4,-544.7 L 230.5,-544.694 L 230.599,-544.675 L 230.694,-544.644 L 230.785,-544.601 L 230.87,-544.547
 L 230.948,-544.483 L 231.016,-544.41 L 231.075,-544.329 L 231.124,-544.241 L 231.161,-544.147 L 231.186,-544.05
 L 231.198,-543.95 L 231.198,-543.85 L 231.186,-543.75 L 231.161,-543.653 L 231.124,-543.559 L 231.075,-543.471
 L 231.016,-543.39 L 230.948,-543.317 L 230.87,-543.253 L 230.785,-543.199 L 230.694,-543.156 L 230.599,-543.125
 L 230.5,-543.106 L 230.4,-543.1 z
M 229.773,-521.439 L 229.157,-521.557 L 228.559,-521.751 L 227.991,-522.018 L 227.461,-522.355 L 226.977,-522.755
 L 226.547,-523.213 L 226.178,-523.721 L 225.876,-524.271 L 225.645,-524.855 L 225.489,-525.463 L 225.41,-526.086
 L 225.41,-526.714 L 225.489,-527.337 L 225.645,-527.945 L 225.876,-528.529 L 226.178,-529.079 L 226.547,-529.587
 L 226.977,-530.045 L 227.461,-530.445 L 227.991,-530.782 L 228.559,-531.049 L 229.157,-531.243 L 229.773,-531.361
 L 230.4,-531.4 L 231.027,-531.361 L 231.643,-531.243 L 232.241,-531.049 L 232.809,-530.782 L 233.339,-530.445
 L 233.823,-530.045 L 234.253,-529.587 L 234.622,-529.079 L 234.924,-528.529 L 235.155,-527.945 L 235.311,-527.337
 L 235.39,-526.714 L 235.39,-526.086 L 235.311,-525.463 L 235.155,-524.855 L 234.924,-524.271 L 234.622,-523.721
 L 234.253,-523.213 L 233.823,-522.755 L 233.339,-522.355 L 232.809,-522.018 L 232.241,-521.751 L 231.643,-521.557
 L 231.027,-521.439 L 230.4,-521.4 z
M 230.3,-508.106 L 230.201,-508.125 L 230.105,-508.156 L 230.015,-508.199 L 229.93,-508.253 L 229.852,-508.317
 L 229.784,-508.39 L 229.725,-508.471 L 229.676,-508.559 L 229.639,-508.653 L 229.614,-508.75 L 229.602,-508.85
 L 229.602,-508.95 L 229.614,-509.05 L 229.639,-509.147 L 229.676,-509.241 L 229.725,-509.329 L 229.784,-509.41
 L 229.852,-509.483 L 229.93,-509.547 L 230.015,-509.601 L 230.105,-509.644 L 230.201,-509.675 L 230.3,-509.694
 L 230.4,-509.7 L 230.5,-509.694 L 230.599,-509.675 L 230.694,-509.644 L 230.785,-509.601 L 230.87,-509.547
 L 230.948,-509.483 L 231.016,-509.41 L 231.075,-509.329 L 231.124,-509.241 L 231.161,-509.147 L 231.186,-509.05
 L 231.198,-508.95 L 231.198,-508.85 L 231.186,-508.75 L 231.161,-508.653 L 231.124,-508.559 L 231.075,-508.471
 L 231.016,-508.39 L 230.948,-508.317 L 230.87,-508.253 L 230.785,-508.199 L 230.694,-508.156 L 230.599,-508.125
 L 230.5,-508.106 L 230.4,-508.1 z
M 213.4,-546.4 L 183.4,-546.4 L 183.4,-506.4 L 213.4,-506.4 z
M 198.3,-543.106 L 198.201,-543.125 L 198.105,-543.156 L 198.015,-543.199 L 197.93,-543.253 L 197.852,-543.317
 L 197.784,-543.39 L 197.725,-543.471 L 197.676,-543.559 L 197.639,-543.653 L 197.614,-543.75 L 197.602,-543.85
 L 197.602,-543.95 L 197.614,-544.05 L 197.639,-544.147 L 197.676,-544.241 L 197.725,-544.329 L 197.784,-544.41
 L 197.852,-544.483 L 197.93,-544.547 L 198.015,-544.601 L 198.105,-544.644 L 198.201,-544.675 L 198.3,-544.694
 L 198.4,-544.7 L 198.5,-544.694 L 198.599,-544.675 L 198.694,-544.644 L 198.785,-544.601 L 198.87,-544.547
 L 198.948,-544.483 L 199.016,-544.41 L 199.075,-544.329 L 199.124,-544.241 L 199.161,-544.147 L 199.186,-544.05
 L 199.198,-543.95 L 199.198,-543.85 L 199.186,-543.75 L 199.161,-543.653 L 199.124,-543.559 L 199.075,-543.471
 L 199.016,-543.39 L 198.948,-543.317 L 198.87,-543.253 L 198.785,-543.199 L 198.694,-543.156 L 198.599,-543.125
 L 198.5,-543.106 L 198.4,-543.1 z
M 197.773,-521.439 L 197.157,-521.557 L 196.559,-521.751 L 195.991,-522.018 L 195.461,-522.355 L 194.977,-522.755
 L 194.547,-523.213 L 194.178,-523.721 L 193.876,-524.271 L 193.645,-524.855 L 193.489,-525.463 L 193.41,-526.086
 L 193.41,-526.714 L 193.489,-527.337 L 193.645,-527.945 L 193.876,-528.529 L 194.178,-529.079 L 194.547,-529.587
 L 194.977,-530.045 L 195.461,-530.445 L 195.991,-530.782 L 196.559,-531.049 L 197.157,-531.243 L 197.773,-531.361
 L 198.4,-531.4 L 199.027,-531.361 L 199.643,-531.243 L 200.241,-531.049 L 200.809,-530.782 L 201.339,-530.445
 L 201.823,-530.045 L 202.253,-529.587 L 202.622,-529.079 L 202.924,-528.529 L 203.155,-527.945 L 203.311,-527.337
 L 203.39,-526.714 L 203.39,-526.086 L 203.311,-525.463 L 203.155,-524.855 L 202.924,-524.271 L 202.622,-523.721
 L 202.253,-523.213 L 201.823,-522.755 L 201.339,-522.355 L 200.809,-522.018 L 200.241,-521.751 L 199.643,-521.557
 L 199.027,-521.439 L 198.4,-521.4 z
M 198.3,-508.106 L 198.201,-508.125 L 198.105,-508.156 L 198.015,-508.199 L 197.93,-508.253 L 197.852,-508.317
 L 197.784,-508.39 L 197.725,-508.471 L 197.676,-508.559 L 197.639,-508.653 L 197.614,-508.75 L 197.602,-508.85
 L 197.602,-508.95 L 197.614,-509.05 L 197.639,-509.147 L 197.676,-509.241 L 197.725,-509.329 L 197.784,-509.41
 L 197.852,-509.483 L 197.93,-509.547 L 198.015,-509.601 L 198.105,-509.644 L 198.201,-509.675 L 198.3,-509.694
 L 198.4,-509.7 L 198.5,-509.694 L 198.599,-509.675 L 198.694,-509.644 L 198.785,-509.601 L 198.87,-509.547
 L 198.948,-509.483 L 199.016,-509.41 L 199.075,-509.329 L 199.124,-509.241 L 199.161,-509.147 L 199.186,-509.05
 L 199.198,-508.95 L 199.198,-508.85 L 199.186,-508.75 L 199.161,-508.653 L 199.124,-508.559 L 199.075,-508.471
 L 199.016,-508.39 L 198.948,-508.317 L 198.87,-508.253 L 198.785,-508.199 L 198.694,-508.156 L 198.599,-508.125
 L 198.5,-508.106 L 198.4,-508.1 z
M 181.4,-546.4 L 151.4,-546.4 L 151.4,-506.4 L 181.4,-506.4 z
M 166.3,-543.106 L 166.201,-543.125 L 166.105,-543.156 L 166.015,-543.199 L 165.93,-543.253 L 165.852,-543.317
 L 165.784,-543.39 L 165.725,-543.471 L 165.676,-543.559 L 165.639,-543.653 L 165.614,-543.75 L 165.602,-543.85
 L 165.602,-543.95 L 165.614,-544.05 L 165.639,-544.147 L 165.676,-544.241 L 165.725,-544.329 L 165.784,-544.41
 L 165.852,-544.483 L 165.93,-544.547 L 166.015,-544.601 L 166.105,-544.644 L 166.201,-544.675 L 166.3,-544.694
 L 166.4,-544.7 L 166.5,-544.694 L 166.599,-544.675 L 166.694,-544.644 L 166.785,-544.601 L 166.87,-544.547
 L 166.948,-544.483 L 167.016,-544.41 L 167.075,-544.329 L 167.124,-544.241 L 167.161,-544.147 L 167.186,-544.05
 L 167.198,-543.95 L 167.198,-543.85 L 167.186,-543.75 L 167.161,-543.653 L 167.124,-543.559 L 167.075,-543.471
 L 167.016,-543.39 L 166.948,-543.317 L 166.87,-543.253 L 166.785,-543.199 L 166.694,-543.156 L 166.599,-543.125
 L 166.5,-543.106 L 166.4,-543.1 z
M 165.773,-521.439 L 165.157,-521.557 L 164.559,-521.751 L 163.991,-522.018 L 163.461,-522.355 L 162.977,-522.755
 L 162.547,-523.213 L 162.178,-523.721 L 161.876,-524.271 L 161.645,-524.855 L 161.489,-525.463 L 161.41,-526.086
 L 161.41,-526.714 L 161.489,-527.337 L 161.645,-527.945 L 161.876,-528.529 L 162.178,-529.079 L 162.547,-529.587
 L 162.977,-530.045 L 163.461,-530.445 L 163.991,-530.782 L 164.559,-531.049 L 165.157,-531.243 L 165.773,-531.361
 L 166.4,-531.4 L 167.027,-531.361 L 167.643,-531.243 L 168.241,-531.049 L 168.809,-530.782 L 169.339,-530.445
 L 169.823,-530.045 L 170.253,-529.587 L 170.622,-529.079 L 170.924,-528.529 L 171.155,-527.945 L 171.311,-527.337
 L 171.39,-526.714 L 171.39,-526.086 L 171.311,-525.463 L 171.155,-524.855 L 170.924,-524.271 L 170.622,-523.721
 L 170.253,-523.213 L 169.823,-522.755 L 169.339,-522.355 L 168.809,-522.018 L 168.241,-521.751 L 167.643,-521.557
 L 167.027,-521.439 L 166.4,-521.4 z
M 166.3,-508.106 L 166.201,-508.125 L 166.105,-508.156 L 166.015,-508.199 L 165.93,-508.253 L 165.852,-508.317
 L 165.784,-508.39 L 165.725,-508.471 L 165.676,-508.559 L 165.639,-508.653 L 165.614,-508.75 L 165.602,-508.85
 L 165.602,-508.95 L 165.614,-509.05 L 165.639,-509.147 L 165.676,-509.241 L 165.725,-509.329 L 165.784,-509.41
 L 165.852,-509.483 L 165.93,-509.547 L 166.015,-509.601 L 166.105,-509.644 L 166.201,-509.675 L 166.3,-509.694
 L 166.4,-509.7 L 166.5,-509.694 L 166.599,-509.675 L 166.694,-509.644 L 166.785,-509.601 L 166.87,-509.547
 L 166.948,-509.483 L 167.016,-509.41 L 167.075,-509.329 L 167.124,-509.241 L 167.161,-509.147 L 167.186,-509.05
 L 167.198,-508.95 L 167.198,-508.85 L 167.186,-508.75 L 167.161,-508.653 L 167.124,-508.559 L 167.075,-508.471
 L 167.016,-508.39 L 166.948,-508.317 L 166.87,-508.253 L 166.785,-508.199 L 166.694,-508.156 L 166.599,-508.125
 L 166.5,-508.106 L 166.4,-508.1 z
M 245.4,-499.4 L 215.4,-499.4 L 215.4,-459.4 L 245.4,-459.4 z
M 230.3,-496.106 L 230.201,-496.125 L 230.105,-496.156 L 230.015,-496.199 L 229.93,-496.253 L 229.852,-496.317
 L 229.784,-496.39 L 229.725,-496.471 L 229.676,-496.559 L 229.639,-496.653 L 229.614,-496.75 L 229.602,-496.85
 L 229.602,-496.95 L 229.614,-497.05 L 229.639,-497.147 L 229.676,-497.241 L 229.725,-497.329 L 229.784,-497.41
 L 229.852,-497.483 L 229.93,-497.547 L 230.015,-497.601 L 230.105,-497.644 L 230.201,-497.675 L 230.3,-497.694
 L 230.4,-497.7 L 230.5,-497.694 L 230.599,-497.675 L 230.694,-497.644 L 230.785,-497.601 L 230.87,-497.547
 L 230.948,-497.483 L 231.016,-497.41 L 231.075,-497.329 L 231.124,-497.241 L 231.161,-497.147 L 231.186,-497.05
 L 231.198,-496.95 L 231.198,-496.85 L 231.186,-496.75 L 231.161,-496.653 L 231.124,-496.559 L 231.075,-496.471
 L 231.016,-496.39 L 230.948,-496.317 L 230.87,-496.253 L 230.785,-496.199 L 230.694,-496.156 L 230.599,-496.125
 L 230.5,-496.106 L 230.4,-496.1 z
M 229.773,-474.439 L 229.157,-474.557 L 228.559,-474.751 L 227.991,-475.018 L 227.461,-475.355 L 226.977,-475.755
 L 226.547,-476.213 L 226.178,-476.721 L 225.876,-477.271 L 225.645,-477.855 L 225.489,-478.463 L 225.41,-479.086
 L 225.41,-479.714 L 225.489,-480.337 L 225.645,-480.945 L 225.876,-481.529 L 226.178,-482.079 L 226.547,-482.587
 L 226.977,-483.045 L 227.461,-483.445 L 227.991,-483.782 L 228.559,-484.049 L 229.157,-484.243 L 229.773,-484.361
 L 230.4,-484.4 L 231.027,-484.361 L 231.643,-484.243 L 232.241,-484.049 L 232.809,-483.782 L 233.339,-483.445
 L 233.823,-483.045 L 234.253,-482.587 L 234.622,-482.079 L 234.924,-481.529 L 235.155,-480.945 L 235.311,-480.337
 L 235.39,-479.714 L 235.39,-479.086 L 235.311,-478.463 L 235.155,-477.855 L 234.924,-477.271 L 234.622,-476.721
 L 234.253,-476.213 L 233.823,-475.755 L 233.339,-475.355 L 232.809,-475.018 L 232.241,-474.751 L 231.643,-474.557
 L 231.027,-474.439 L 230.4,-474.4 z
M 230.3,-461.106 L 230.201,-461.125 L 230.105,-461.156 L 230.015,-461.199 L 229.93,-461.253 L 229.852,-461.317
 L 229.784,-461.39 L 229.725,-461.471 L 229.676,-461.559 L 229.639,-461.653 L 229.614,-461.75 L 229.602,-461.85
 L 229.602,-461.95 L 229.614,-462.05 L 229.639,-462.147 L 229.676,-462.241 L 229.725,-462.329 L 229.784,-462.41
 L 229.852,-462.483 L 229.93,-462.547 L 230.015,-462.601 L 230.105,-462.644 L 230.201,-462.675 L 230.3,-462.694
 L 230.4,-462.7 L 230.5,-462.694 L 230.599,-462.675 L 230.694,-462.644 L 230.785,-462.601 L 230.87,-462.547
 L 230.948,-462.483 L 231.016,-462.41 L 231.075,-462.329 L 231.124,-462.241 L 231.161,-462.147 L 231.186,-462.05
 L 231.198,-461.95 L 231.198,-461.85 L 231.186,-461.75 L 231.161,-461.653 L 231.124,-461.559 L 231.075,-461.471
 L 231.016,-461.39 L 230.948,-461.317 L 230.87,-461.253 L 230.785,-461.199 L 230.694,-461.156 L 230.599,-461.125
 L 230.5,-461.106 L 230.4,-461.1 z
M 149.4,-499.4 L 119.4,-499.4 L 119.4,-459.4 L 149.4,-459.4 z
M 134.3,-496.106 L 134.201,-496.125 L 134.105,-496.156 L 134.015,-496.199 L 133.93,-496.253 L 133.852,-496.317
 L 133.784,-496.39 L 133.725,-496.471 L 133.676,-496.559 L 133.639,-496.653 L 133.614,-496.75 L 133.602,-496.85
 L 133.602,-496.95 L 133.614,-497.05 L 133.639,-497.147 L 133.676,-497.241 L 133.725,-497.329 L 133.784,-497.41
 L 133.852,-497.483 L 133.93,-497.547 L 134.015,-497.601 L 134.105,-497.644 L 134.201,-497.675 L 134.3,-497.694
 L 134.4,-497.7 L 134.5,-497.694 L 134.599,-497.675 L 134.694,-497.644 L 134.785,-497.601 L 134.87,-497.547
 L 134.948,-497.483 L 135.016,-497.41 L 135.075,-497.329 L 135.124,-497.241 L 135.161,-497.147 L 135.186,-497.05
 L 135.198,-496.95 L 135.198,-496.85 L 135.186,-496.75 L 135.161,-496.653 L 135.124,-496.559 L 135.075,-496.471
 L 135.016,-496.39 L 134.948,-496.317 L 134.87,-496.253 L 134.785,-496.199 L 134.694,-496.156 L 134.599,-496.125
 L 134.5,-496.106 L 134.4,-496.1 z
M 133.773,-474.439 L 133.157,-474.557 L 132.559,-474.751 L 131.991,-475.018 L 131.461,-475.355 L 130.977,-475.755
 L 130.547,-476.213 L 130.178,-476.721 L 129.876,-477.271 L 129.645,-477.855 L 129.489,-478.463 L 129.41,-479.086
 L 129.41,-479.714 L 129.489,-480.337 L 129.645,-480.945 L 129.876,-481.529 L 130.178,-482.079 L 130.547,-482.587
 L 130.977,-483.045 L 131.461,-483.445 L 131.991,-483.782 L 132.559,-484.049 L 133.157,-484.243 L 133.773,-484.361
 L 134.4,-484.4 L 135.027,-484.361 L 135.643,-484.243 L 136.241,-484.049 L 136.809,-483.782 L 137.339,-483.445
 L 137.823,-483.045 L 138.253,-482.587 L 138.622,-482.079 L 138.924,-481.529 L 139.155,-480.945 L 139.311,-480.337
 L 139.39,-479.714 L 139.39,-479.086 L 139.311,-478.463 L 139.155,-477.855 L 138.924,-477.271 L 138.622,-476.721
 L 138.253,-476.213 L 137.823,-475.755 L 137.339,-475.355 L 136.809,-475.018 L 136.241,-474.751 L 135.643,-474.557
 L 135.027,-474.439 L 134.4,-474.4 z
M 134.3,-461.106 L 134.201,-461.125 L 134.105,-461.156 L 134.015,-461.199 L 133.93,-461.253 L 133.852,-461.317
 L 133.784,-461.39 L 133.725,-461.471 L 133.676,-461.559 L 133.639,-461.653 L 133.614,-461.75 L 133.602,-461.85
 L 133.602,-461.95 L 133.614,-462.05 L 133.639,-462.147 L 133.676,-462.241 L 133.725,-462.329 L 133.784,-462.41
 L 133.852,-462.483 L 133.93,-462.547 L 134.015,-462.601 L 134.105,-462.644 L 134.201,-462.675 L 134.3,-462.694
 L 134.4,-462.7 L 134.5,-462.694 L 134.599,-462.675 L 134.694,-462.644 L 134.785,-462.601 L 134.87,-462.547
 L 134.948,-462.483 L 135.016,-462.41 L 135.075,-462.329 L 135.124,-462.241 L 135.161,-462.147 L 135.186,-462.05
 L 135.198,-461.95 L 135.198,-461.85 L 135.186,-461.75 L 135.161,-461.653 L 135.124,-461.559 L 135.075,-461.471
 L 135.016,-461.39 L 134.948,-461.317 L 134.87,-461.253 L 134.785,-461.199 L 134.694,-461.156 L 134.599,-461.125
 L 134.5,-461.106 L 134.4,-461.1 z
M 181.4,-499.4 L 151.4,-499.4 L 151.4,-459.4 L 181.4,-459.4 z
M 166.3,-496.106 L 166.201,-496.125 L 166.105,-496.156 L 166.015,-496.199 L 165.93,-496.253 L 165.852,-496.317
 L 165.784,-496.39 L 165.725,-496.471 L 165.676,-496.559 L 165.639,-496.653 L 165.614,-496.75 L 165.602,-496.85
 L 165.602,-496.95 L 165.614,-497.05 L 165.639,-497.147 L 165.676,-497.241 L 165.725,-497.329 L 165.784,-497.41
 L 165.852,-497.483 L 165.93,-497.547 L 166.015,-497.601 L 166.105,-497.644 L 166.201,-497.675 L 166.3,-497.694
 L 166.4,-497.7 L 166.5,-497.694 L 166.599,-497.675 L 166.694,-497.644 L 166.785,-497.601 L 166.87,-497.547
 L 166.948,-497.483 L 167.016,-497.41 L 167.075,-497.329 L 167.124,-497.241 L 167.161,-497.147 L 167.186,-497.05
 L 167.198,-496.95 L 167.198,-496.85 L 167.186,-496.75 L 167.161,-496.653 L 167.124,-496.559 L 167.075,-496.471
 L 167.016,-496.39 L 166.948,-496.317 L 166.87,-496.253 L 166.785,-496.199 L 166.694,-496.156 L 166.599,-496.125
 L 166.5,-496.106 L 166.4,-496.1 z
M 165.773,-474.439 L 165.157,-474.557 L 164.559,-474.751 L 163.991,-475.018 L 163.461,-475.355 L 162.977,-475.755
 L 162.547,-476.213 L 162.178,-476.721 L 161.876,-477.271 L 161.645,-477.855 L 161.489,-478.463 L 161.41,-479.086
 L 161.41,-479.714 L 161.489,-480.337 L 161.645,-480.945 L 161.876,-481.529 L 162.178,-482.079 L 162.547,-482.587
 L 162.977,-483.045 L 163.461,-483.445 L 163.991,-483.782 L 164.559,-484.049 L 165.157,-484.243 L 165.773,-484.361
 L 166.4,-484.4 L 167.027,-484.361 L 167.643,-484.243 L 168.241,-484.049 L 168.809,-483.782 L 169.339,-483.445
 L 169.823,-483.045 L 170.253,-482.587 L 170.622,-482.079 L 170.924,-481.529 L 171.155,-480.945 L 171.311,-480.337
 L 171.39,-479.714 L 171.39,-479.086 L 171.311,-478.463 L 171.155,-477.855 L 170.924,-477.271 L 170.622,-476.721
 L 170.253,-476.213 L 169.823,-475.755 L 169.339,-475.355 L 168.809,-475.018 L 168.241,-474.751 L 167.643,-474.557
 L 167.027,-474.439 L 166.4,-474.4 z
M 166.3,-461.106 L 166.201,-461.125 L 166.105,-461.156 L 166.015,-461.199 L 165.93,-461.253 L 165.852,-461.317
 L 165.784,-461.39 L 165.725,-461.471 L 165.676,-461.559 L 165.639,-461.653 L 165.614,-461.75 L 165.602,-461.85
 L 165.602,-461.95 L 165.614,-462.05 L 165.639,-462.147 L 165.676,-462.241 L 165.725,-462.329 L 165.784,-462.41
 L 165.852,-462.483 L 165.93,-462.547 L 166.015,-462.601 L 166.105,-462.644 L 166.201,-462.675 L 166.3,-462.694
 L 166.4,-462.7 L 166.5,-462.694 L 166.599,-462.675 L 166.694,-462.644 L 166.785,-462.601 L 166.87,-462.547
 L 166.948,-462.483 L 167.016,-462.41 L 167.075,-462.329 L 167.124,-462.241 L 167.161,-462.147 L 167.186,-462.05
 L 167.198,-461.95 L 167.198,-461.85 L 167.186,-461.75 L 167.161,-461.653 L 167.124,-461.559 L 167.075,-461.471
 L 167.016,-461.39 L 166.948,-461.317 L 166.87,-461.253 L 166.785,-461.199 L 166.694,-461.156 L 166.599,-461.125
 L 166.5,-461.106 L 166.4,-461.1 z
M 213.4,-499.4 L 183.4,-499.4 L 183.4,-459.4 L 213.4,-459.4 z
M 198.3,-496.106 L 198.201,-496.125 L 198.105,-496.156 L 198.015,-496.199 L 197.93,-496.253 L 197.852,-496.317
 L 197.784,-496.39 L 197.725,-496.471 L 197.676,-496.559 L 197.639,-496.653 L 197.614,-496.75 L 197.602,-496.85
 L 197.602,-496.95 L 197.614,-497.05 L 197.639,-497.147 L 197.676,-497.241 L 197.725,-497.329 L 197.784,-497.41
 L 197.852,-497.483 L 197.93,-497.547 L 198.015,-497.601 L 198.105,-497.644 L 198.201,-497.675 L 198.3,-497.694
 L 198.4,-497.7 L 198.5,-497.694 L 198.599,-497.675 L 198.694,-497.644 L 198.785,-497.601 L 198.87,-497.547
 L 198.948,-497.483 L 199.016,-497.41 L 199.075,-497.329 L 199.124,-497.241 L 199.161,-497.147 L 199.186,-497.05
 L 199.198,-496.95 L 199.198,-496.85 L 199.186,-496.75 L 199.161,-496.653 L 199.124,-496.559 L 199.075,-496.471
 L 199.016,-496.39 L 198.948,-496.317 L 198.87,-496.253 L 198.785,-496.199 L 198.694,-496.156 L 198.599,-496.125
 L 198.5,-496.106 L 198.4,-496.1 z
M 197.773,-474.439 L 197.157,-474.557 L 196.559,-474.751 L 195.991,-475.018 L 195.461,-475.355 L 194.977,-475.755
 L 194.547,-476.213 L 194.178,-476.721 L 193.876,-477.271 L 193.645,-477.855 L 193.489,-478.463 L 193.41,-479.086
 L 193.41,-479.714 L 193.489,-480.337 L 193.645,-480.945 L 193.876,-481.529 L 194.178,-482.079 L 194.547,-482.587
 L 194.977,-483.045 L 195.461,-483.445 L 195.991,-483.782 L 196.559,-484.049 L 197.157,-484.243 L 197.773,-484.361
 L 198.4,-484.4 L 199.027,-484.361 L 199.643,-484.243 L 200.241,-484.049 L 200.809,-483.782 L 201.339,-483.445
 L 201.823,-483.045 L 202.253,-482.587 L 202.622,-482.079 L 202.924,-481.529 L 203.155,-480.945 L 203.311,-480.337
 L 203.39,-479.714 L 203.39,-479.086 L 203.311,-478.463 L 203.155,-477.855 L 202.924,-477.271 L 202.622,-476.721
 L 202.253,-476.213 L 201.823,-475.755 L 201.339,-475.355 L 200.809,-475.018 L 200.241,-474.751 L 199.643,-474.557
 L 199.027,-474.439 L 198.4,-474.4 z
M 198.3,-461.106 L 198.201,-461.125 L 198.105,-461.156 L 198.015,-461.199 L 197.93,-461.253 L 197.852,-461.317
 L 197.784,-461.39 L 197.725,-461.471 L 197.676,-461.559 L 197.639,-461.653 L 197.614,-461.75 L 197.602,-461.85
 L 197.602,-461.95 L 197.614,-462.05 L 197.639,-462.147 L 197.676,-462.241 L 197.725,-462.329 L 197.784,-462.41
 L 197.852,-462.483 L 197.93,-462.547 L 198.015,-462.601 L 198.105,-462.644 L 198.201,-462.675 L 198.3,-462.694
 L 198.4,-462.7 L 198.5,-462.694 L 198.599,-462.675 L 198.694,-462.644 L 198.785,-462.601 L 198.87,-462.547
 L 198.948,-462.483 L 199.016,-462.41 L 199.075,-462.329 L 199.124,-462.241 L 199.161,-462.147 L 199.186,-462.05
 L 199.198,-461.95 L 199.198,-461.85 L 199.186,-461.75 L 199.161,-461.653 L 199.124,-461.559 L 199.075,-461.471
 L 199.016,-461.39 L 198.948,-461.317 L 198.87,-461.253 L 198.785,-461.199 L 198.694,-461.156 L 198.599,-461.125
 L 198.5,-461.106 L 198.4,-461.1 z
M 111,-495.5 L 81,-495.5 L 81,-450.5 L 111,-450.5 z
M 15,-495.5 L -15,-495.5 L -15,-450.5 L 15,-450.5 z
M 47,-495.5 L 17,-495.5 L 17,-450.5 L 47,-450.5 z
M 79,-495.5 L 49,-495.5 L 49,-450.5 L 79,-450.5 z
M 181.4,-452.4 L 151.4,-452.4 L 151.4,-412.4 L 181.4,-412.4 z
M 166.3,-449.106 L 166.201,-449.125 L 166.105,-449.156 L 166.015,-449.199 L 165.93,-449.253 L 165.852,-449.317
 L 165.784,-449.39 L 165.725,-449.471 L 165.676,-449.559 L 165.639,-449.653 L 165.614,-449.75 L 165.602,-449.85
 L 165.602,-449.95 L 165.614,-450.05 L 165.639,-450.147 L 165.676,-450.241 L 165.725,-450.329 L 165.784,-450.41
 L 165.852,-450.483 L 165.93,-450.547 L 166.015,-450.601 L 166.105,-450.644 L 166.201,-450.675 L 166.3,-450.694
 L 166.4,-450.7 L 166.5,-450.694 L 166.599,-450.675 L 166.694,-450.644 L 166.785,-450.601 L 166.87,-450.547
 L 166.948,-450.483 L 167.016,-450.41 L 167.075,-450.329 L 167.124,-450.241 L 167.161,-450.147 L 167.186,-450.05
 L 167.198,-449.95 L 167.198,-449.85 L 167.186,-449.75 L 167.161,-449.653 L 167.124,-449.559 L 167.075,-449.471
 L 167.016,-449.39 L 166.948,-449.317 L 166.87,-449.253 L 166.785,-449.199 L 166.694,-449.156 L 166.599,-449.125
 L 166.5,-449.106 L 166.4,-449.1 z
M 165.773,-427.439 L 165.157,-427.557 L 164.559,-427.751 L 163.991,-428.018 L 163.461,-428.355 L 162.977,-428.755
 L 162.547,-429.213 L 162.178,-429.721 L 161.876,-430.271 L 161.645,-430.855 L 161.489,-431.463 L 161.41,-432.086
 L 161.41,-432.714 L 161.489,-433.337 L 161.645,-433.945 L 161.876,-434.529 L 162.178,-435.079 L 162.547,-435.587
 L 162.977,-436.045 L 163.461,-436.445 L 163.991,-436.782 L 164.559,-437.049 L 165.157,-437.243 L 165.773,-437.361
 L 166.4,-437.4 L 167.027,-437.361 L 167.643,-437.243 L 168.241,-437.049 L 168.809,-436.782 L 169.339,-436.445
 L 169.823,-436.045 L 170.253,-435.587 L 170.622,-435.079 L 170.924,-434.529 L 171.155,-433.945 L 171.311,-433.337
 L 171.39,-432.714 L 171.39,-432.086 L 171.311,-431.463 L 171.155,-430.855 L 170.924,-430.271 L 170.622,-429.721
 L 170.253,-429.213 L 169.823,-428.755 L 169.339,-428.355 L 168.809,-428.018 L 168.241,-427.751 L 167.643,-427.557
 L 167.027,-427.439 L 166.4,-427.4 z
M 166.3,-414.106 L 166.201,-414.125 L 166.105,-414.156 L 166.015,-414.199 L 165.93,-414.253 L 165.852,-414.317
 L 165.784,-414.39 L 165.725,-414.471 L 165.676,-414.559 L 165.639,-414.653 L 165.614,-414.75 L 165.602,-414.85
 L 165.602,-414.95 L 165.614,-415.05 L 165.639,-415.147 L 165.676,-415.241 L 165.725,-415.329 L 165.784,-415.41
 L 165.852,-415.483 L 165.93,-415.547 L 166.015,-415.601 L 166.105,-415.644 L 166.201,-415.675 L 166.3,-415.694
 L 166.4,-415.7 L 166.5,-415.694 L 166.599,-415.675 L 166.694,-415.644 L 166.785,-415.601 L 166.87,-415.547
 L 166.948,-415.483 L 167.016,-415.41 L 167.075,-415.329 L 167.124,-415.241 L 167.161,-415.147 L 167.186,-415.05
 L 167.198,-414.95 L 167.198,-414.85 L 167.186,-414.75 L 167.161,-414.653 L 167.124,-414.559 L 167.075,-414.471
 L 167.016,-414.39 L 166.948,-414.317 L 166.87,-414.253 L 166.785,-414.199 L 166.694,-414.156 L 166.599,-414.125
 L 166.5,-414.106 L 166.4,-414.1 z
M 213.4,-452.4 L 183.4,-452.4 L 183.4,-412.4 L 213.4,-412.4 z
M 198.3,-449.106 L 198.201,-449.125 L 198.105,-449.156 L 198.015,-449.199 L 197.93,-449.253 L 197.852,-449.317
 L 197.784,-449.39 L 197.725,-449.471 L 197.676,-449.559 L 197.639,-449.653 L 197.614,-449.75 L 197.602,-449.85
 L 197.602,-449.95 L 197.614,-450.05 L 197.639,-450.147 L 197.676,-450.241 L 197.725,-450.329 L 197.784,-450.41
 L 197.852,-450.483 L 197.93,-450.547 L 198.015,-450.601 L 198.105,-450.644 L 198.201,-450.675 L 198.3,-450.694
 L 198.4,-450.7 L 198.5,-450.694 L 198.599,-450.675 L 198.694,-450.644 L 198.785,-450.601 L 198.87,-450.547
 L 198.948,-450.483 L 199.016,-450.41 L 199.075,-450.329 L 199.124,-450.241 L 199.161,-450.147 L 199.186,-450.05
 L 199.198,-449.95 L 199.198,-449.85 L 199.186,-449.75 L 199.161,-449.653 L 199.124,-449.559 L 199.075,-449.471
 L 199.016,-449.39 L 198.948,-449.317 L 198.87,-449.253 L 198.785,-449.199 L 198.694,-449.156 L 198.599,-449.125
 L 198.5,-449.106 L 198.4,-449.1 z
M 197.773,-427.439 L 197.157,-427.557 L 196.559,-427.751 L 195.991,-428.018 L 195.461,-428.355 L 194.977,-428.755
 L 194.547,-429.213 L 194.178,-429.721 L 193.876,-430.271 L 193.645,-430.855 L 193.489,-431.463 L 193.41,-432.086
 L 193.41,-432.714 L 193.489,-433.337 L 193.645,-433.945 L 193.876,-434.529 L 194.178,-435.079 L 194.547,-435.587
 L 194.977,-436.045 L 195.461,-436.445 L 195.991,-436.782 L 196.559,-437.049 L 197.157,-437.243 L 197.773,-437.361
 L 198.4,-437.4 L 199.027,-437.361 L 199.643,-437.243 L 200.241,-437.049 L 200.809,-436.782 L 201.339,-436.445
 L 201.823,-436.045 L 202.253,-435.587 L 202.622,-435.079 L 202.924,-434.529 L 203.155,-433.945 L 203.311,-433.337
 L 203.39,-432.714 L 203.39,-432.086 L 203.311,-431.463 L 203.155,-430.855 L 202.924,-430.271 L 202.622,-429.721
 L 202.253,-429.213 L 201.823,-428.755 L 201.339,-428.355 L 200.809,-428.018 L 200.241,-427.751 L 199.643,-427.557
 L 199.027,-427.439 L 198.4,-427.4 z
M 198.3,-414.106 L 198.201,-414.125 L 198.105,-414.156 L 198.015,-414.199 L 197.93,-414.253 L 197.852,-414.317
 L 197.784,-414.39 L 197.725,-414.471 L 197.676,-414.559 L 197.639,-414.653 L 197.614,-414.75 L 197.602,-414.85
 L 197.602,-414.95 L 197.614,-415.05 L 197.639,-415.147 L 197.676,-415.241 L 197.725,-415.329 L 197.784,-415.41
 L 197.852,-415.483 L 197.93,-415.547 L 198.015,-415.601 L 198.105,-415.644 L 198.201,-415.675 L 198.3,-415.694
 L 198.4,-415.7 L 198.5,-415.694 L 198.599,-415.675 L 198.694,-415.644 L 198.785,-415.601 L 198.87,-415.547
 L 198.948,-415.483 L 199.016,-415.41 L 199.075,-415.329 L 199.124,-415.241 L 199.161,-415.147 L 199.186,-415.05
 L 199.198,-414.95 L 199.198,-414.85 L 199.186,-414.75 L 199.161,-414.653 L 199.124,-414.559 L 199.075,-414.471
 L 199.016,-414.39 L 198.948,-414.317 L 198.87,-414.253 L 198.785,-414.199 L 198.694,-414.156 L 198.599,-414.125
 L 198.5,-414.106 L 198.4,-414.1 z
M 245.4,-452.4 L 215.4,-452.4 L 215.4,-412.4 L 245.4,-412.4 z
M 230.3,-449.106 L 230.201,-449.125 L 230.105,-449.156 L 230.015,-449.199 L 229.93,-449.253 L 229.852,-449.317
 L 229.784,-449.39 L 229.725,-449.471 L 229.676,-449.559 L 229.639,-449.653 L 229.614,-449.75 L 229.602,-449.85
 L 229.602,-449.95 L 229.614,-450.05 L 229.639,-450.147 L 229.676,-450.241 L 229.725,-450.329 L 229.784,-450.41
 L 229.852,-450.483 L 229.93,-450.547 L 230.015,-450.601 L 230.105,-450.644 L 230.201,-450.675 L 230.3,-450.694
 L 230.4,-450.7 L 230.5,-450.694 L 230.599,-450.675 L 230.694,-450.644 L 230.785,-450.601 L 230.87,-450.547
 L 230.948,-450.483 L 231.016,-450.41 L 231.075,-450.329 L 231.124,-450.241 L 231.161,-450.147 L 231.186,-450.05
 L 231.198,-449.95 L 231.198,-449.85 L 231.186,-449.75 L 231.161,-449.653 L 231.124,-449.559 L 231.075,-449.471
 L 231.016,-449.39 L 230.948,-449.317 L 230.87,-449.253 L 230.785,-449.199 L 230.694,-449.156 L 230.599,-449.125
 L 230.5,-449.106 L 230.4,-449.1 z
M 229.773,-427.439 L 229.157,-427.557 L 228.559,-427.751 L 227.991,-428.018 L 227.461,-428.355 L 226.977,-428.755
 L 226.547,-429.213 L 226.178,-429.721 L 225.876,-430.271 L 225.645,-430.855 L 225.489,-431.463 L 225.41,-432.086
 L 225.41,-432.714 L 225.489,-433.337 L 225.645,-433.945 L 225.876,-434.529 L 226.178,-435.079 L 226.547,-435.587
 L 226.977,-436.045 L 227.461,-436.445 L 227.991,-436.782 L 228.559,-437.049 L 229.157,-437.243 L 229.773,-437.361
 L 230.4,-437.4 L 231.027,-437.361 L 231.643,-437.243 L 232.241,-437.049 L 232.809,-436.782 L 233.339,-436.445
 L 233.823,-436.045 L 234.253,-435.587 L 234.622,-435.079 L 234.924,-434.529 L 235.155,-433.945 L 235.311,-433.337
 L 235.39,-432.714 L 235.39,-432.086 L 235.311,-431.463 L 235.155,-430.855 L 234.924,-430.271 L 234.622,-429.721
 L 234.253,-429.213 L 233.823,-428.755 L 233.339,-428.355 L 232.809,-428.018 L 232.241,-427.751 L 231.643,-427.557
 L 231.027,-427.439 L 230.4,-427.4 z
M 230.3,-414.106 L 230.201,-414.125 L 230.105,-414.156 L 230.015,-414.199 L 229.93,-414.253 L 229.852,-414.317
 L 229.784,-414.39 L 229.725,-414.471 L 229.676,-414.559 L 229.639,-414.653 L 229.614,-414.75 L 229.602,-414.85
 L 229.602,-414.95 L 229.614,-415.05 L 229.639,-415.147 L 229.676,-415.241 L 229.725,-415.329 L 229.784,-415.41
 L 229.852,-415.483 L 229.93,-415.547 L 230.015,-415.601 L 230.105,-415.644 L 230.201,-415.675 L 230.3,-415.694
 L 230.4,-415.7 L 230.5,-415.694 L 230.599,-415.675 L 230.694,-415.644 L 230.785,-415.601 L 230.87,-415.547
 L 230.948,-415.483 L 231.016,-415.41 L 231.075,-415.329 L 231.124,-415.241 L 231.161,-415.147 L 231.186,-415.05
 L 231.198,-414.95 L 231.198,-414.85 L 231.186,-414.75 L 231.161,-414.653 L 231.124,-414.559 L 231.075,-414.471
 L 231.016,-414.39 L 230.948,-414.317 L 230.87,-414.253 L 230.785,-414.199 L 230.694,-414.156 L 230.599,-414.125
 L 230.5,-414.106 L 230.4,-414.1 z
M 149.4,-452.4 L 119.4,-452.4 L 119.4,-412.4 L 149.4,-412.4 z
M 134.3,-449.106 L 134.201,-449.125 L 134.105,-449.156 L 134.015,-449.199 L 133.93,-449.253 L 133.852,-449.317
 L 133.784,-449.39 L 133.725,-449.471 L 133.676,-449.559 L 133.639,-449.653 L 133.614,-449.75 L 133.602,-449.85
 L 133.602,-449.95 L 133.614,-450.05 L 133.639,-450.147 L 133.676,-450.241 L 133.725,-450.329 L 133.784,-450.41
 L 133.852,-450.483 L 133.93,-450.547 L 134.015,-450.601 L 134.105,-450.644 L 134.201,-450.675 L 134.3,-450.694
 L 134.4,-450.7 L 134.5,-450.694 L 134.599,-450.675 L 134.694,-450.644 L 134.785,-450.601 L 134.87,-450.547
 L 134.948,-450.483 L 135.016,-450.41 L 135.075,-450.329 L 135.124,-450.241 L 135.161,-450.147 L 135.186,-450.05
 L 135.198,-449.95 L 135.198,-449.85 L 135.186,-449.75 L 135.161,-449.653 L 135.124,-449.559 L 135.075,-449.471
 L 135.016,-449.39 L 134.948,-449.317 L 134.87,-449.253 L 134.785,-449.199 L 134.694,-449.156 L 134.599,-449.125
 L 134.5,-449.106 L 134.4,-449.1 z
M 133.773,-427.439 L 133.157,-427.557 L 132.559,-427.751 L 131.991,-428.018 L 131.461,-428.355 L 130.977,-428.755
 L 130.547,-429.213 L 130.178,-429.721 L 129.876,-430.271 L 129.645,-430.855 L 129.489,-431.463 L 129.41,-432.086
 L 129.41,-432.714 L 129.489,-433.337 L 129.645,-433.945 L 129.876,-434.529 L 130.178,-435.079 L 130.547,-435.587
 L 130.977,-436.045 L 131.461,-436.445 L 131.991,-436.782 L 132.559,-437.049 L 133.157,-437.243 L 133.773,-437.361
 L 134.4,-437.4 L 135.027,-437.361 L 135.643,-437.243 L 136.241,-437.049 L 136.809,-436.782 L 137.339,-436.445
 L 137.823,-436.045 L 138.253,-435.587 L 138.622,-435.079 L 138.924,-434.529 L 139.155,-433.945 L 139.311,-433.337
 L 139.39,-432.714 L 139.39,-432.086 L 139.311,-431.463 L 139.155,-430.855 L 138.924,-430.271 L 138.622,-429.721
 L 138.253,-429.213 L 137.823,-428.755 L 137.339,-428.355 L 136.809,-428.018 L 136.241,-427.751 L 135.643,-427.557
 L 135.027,-427.439 L 134.4,-427.4 z
M 134.3,-414.106 L 134.201,-414.125 L 134.105,-414.156 L 134.015,-414.199 L 133.93,-414.253 L 133.852,-414.317
 L 133.784,-414.39 L 133.725,-414.471 L 133.676,-414.559 L 133.639,-414.653 L 133.614,-414.75 L 133.602,-414.85
 L 133.602,-414.95 L 133.614,-415.05 L 133.639,-415.147 L 133.676,-415.241 L 133.725,-415.329 L 133.784,-415.41
 L 133.852,-415.483 L 133.93,-415.547 L 134.015,-415.601 L 134.105,-415.644 L 134.201,-415.675 L 134.3,-415.694
 L 134.4,-415.7 L 134.5,-415.694 L 134.599,-415.675 L 134.694,-415.644 L 134.785,-415.601 L 134.87,-415.547
 L 134.948,-415.483 L 135.016,-415.41 L 135.075,-415.329 L 135.124,-415.241 L 135.161,-415.147 L 135.186,-415.05
 L 135.198,-414.95 L 135.198,-414.85 L 135.186,-414.75 L 135.161,-414.653 L 135.124,-414.559 L 135.075,-414.471
 L 135.016,-414.39 L 134.948,-414.317 L 134.87,-414.253 L 134.785,-414.199 L 134.694,-414.156 L 134.599,-414.125
 L 134.5,-414.106 L 134.4,-414.1 z
M 15,-448.5 L -15,-448.5 L -15,-403.5 L 15,-403.5 z
M 111,-448.5 L 81,-448.5 L 81,-403.5 L 111,-403.5 z
M 79,-448.5 L 49,-448.5 L 49,-403.5 L 79,-403.5 z
M 47,-448.5 L 17,-448.5 L 17,-403.5 L 47,-403.5 z
M 213.4,-405.4 L 183.4,-405.4 L 183.4,-365.4 L 213.4,-365.4 z
M 198.3,-402.106 L 198.201,-402.125 L 198.105,-402.156 L 198.015,-402.199 L 197.93,-402.253 L 197.852,-402.317
 L 197.784,-402.39 L 197.725,-402.471 L 197.676,-402.559 L 197.639,-402.653 L 197.614,-402.75 L 197.602,-402.85
 L 197.602,-402.95 L 197.614,-403.05 L 197.639,-403.147 L 197.676,-403.241 L 197.725,-403.329 L 197.784,-403.41
 L 197.852,-403.483 L 197.93,-403.547 L 198.015,-403.601 L 198.105,-403.644 L 198.201,-403.675 L 198.3,-403.694
 L 198.4,-403.7 L 198.5,-403.694 L 198.599,-403.675 L 198.694,-403.644 L 198.785,-403.601 L 198.87,-403.547
 L 198.948,-403.483 L 199.016,-403.41 L 199.075,-403.329 L 199.124,-403.241 L 199.161,-403.147 L 199.186,-403.05
 L 199.198,-402.95 L 199.198,-402.85 L 199.186,-402.75 L 199.161,-402.653 L 199.124,-402.559 L 199.075,-402.471
 L 199.016,-402.39 L 198.948,-402.317 L 198.87,-402.253 L 198.785,-402.199 L 198.694,-402.156 L 198.599,-402.125
 L 198.5,-402.106 L 198.4,-402.1 z
M 197.773,-380.439 L 197.157,-380.557 L 196.559,-380.751 L 195.991,-381.018 L 195.461,-381.355 L 194.977,-381.755
 L 194.547,-382.213 L 194.178,-382.721 L 193.876,-383.271 L 193.645,-383.855 L 193.489,-384.463 L 193.41,-385.086
 L 193.41,-385.714 L 193.489,-386.337 L 193.645,-386.945 L 193.876,-387.529 L 194.178,-388.079 L 194.547,-388.587
 L 194.977,-389.045 L 195.461,-389.445 L 195.991,-389.782 L 196.559,-390.049 L 197.157,-390.243 L 197.773,-390.361
 L 198.4,-390.4 L 199.027,-390.361 L 199.643,-390.243 L 200.241,-390.049 L 200.809,-389.782 L 201.339,-389.445
 L 201.823,-389.045 L 202.253,-388.587 L 202.622,-388.079 L 202.924,-387.529 L 203.155,-386.945 L 203.311,-386.337
 L 203.39,-385.714 L 203.39,-385.086 L 203.311,-384.463 L 203.155,-383.855 L 202.924,-383.271 L 202.622,-382.721
 L 202.253,-382.213 L 201.823,-381.755 L 201.339,-381.355 L 200.809,-381.018 L 200.241,-380.751 L 199.643,-380.557
 L 199.027,-380.439 L 198.4,-380.4 z
M 198.3,-367.106 L 198.201,-367.125 L 198.105,-367.156 L 198.015,-367.199 L 197.93,-367.253 L 197.852,-367.317
 L 197.784,-367.39 L 197.725,-367.471 L 197.676,-367.559 L 197.639,-367.653 L 197.614,-367.75 L 197.602,-367.85
 L 197.602,-367.95 L 197.614,-368.05 L 197.639,-368.147 L 197.676,-368.241 L 197.725,-368.329 L 197.784,-368.41
 L 197.852,-368.483 L 197.93,-368.547 L 198.015,-368.601 L 198.105,-368.644 L 198.201,-368.675 L 198.3,-368.694
 L 198.4,-368.7 L 198.5,-368.694 L 198.599,-368.675 L 198.694,-368.644 L 198.785,-368.601 L 198.87,-368.547
 L 198.948,-368.483 L 199.016,-368.41 L 199.075,-368.329 L 199.124,-368.241 L 199.161,-368.147 L 199.186,-368.05
 L 199.198,-367.95 L 199.198,-367.85 L 199.186,-367.75 L 199.161,-367.653 L 199.124,-367.559 L 199.075,-367.471
 L 199.016,-367.39 L 198.948,-367.317 L 198.87,-367.253 L 198.785,-367.199 L 198.694,-367.156 L 198.599,-367.125
 L 198.5,-367.106 L 198.4,-367.1 z
M 181.4,-405.4 L 151.4,-405.4 L 151.4,-365.4 L 181.4,-365.4 z
M 166.3,-402.106 L 166.201,-402.125 L 166.105,-402.156 L 166.015,-402.199 L 165.93,-402.253 L 165.852,-402.317
 L 165.784,-402.39 L 165.725,-402.471 L 165.676,-402.559 L 165.639,-402.653 L 165.614,-402.75 L 165.602,-402.85
 L 165.602,-402.95 L 165.614,-403.05 L 165.639,-403.147 L 165.676,-403.241 L 165.725,-403.329 L 165.784,-403.41
 L 165.852,-403.483 L 165.93,-403.547 L 166.015,-403.601 L 166.105,-403.644 L 166.201,-403.675 L 166.3,-403.694
 L 166.4,-403.7 L 166.5,-403.694 L 166.599,-403.675 L 166.694,-403.644 L 166.785,-403.601 L 166.87,-403.547
 L 166.948,-403.483 L 167.016,-403.41 L 167.075,-403.329 L 167.124,-403.241 L 167.161,-403.147 L 167.186,-403.05
 L 167.198,-402.95 L 167.198,-402.85 L 167.186,-402.75 L 167.161,-402.653 L 167.124,-402.559 L 167.075,-402.471
 L 167.016,-402.39 L 166.948,-402.317 L 166.87,-402.253 L 166.785,-402.199 L 166.694,-402.156 L 166.599,-402.125
 L 166.5,-402.106 L 166.4,-402.1 z
M 165.773,-380.439 L 165.157,-380.557 L 164.559,-380.751 L 163.991,-381.018 L 163.461,-381.355 L 162.977,-381.755
 L 162.547,-382.213 L 162.178,-382.721 L 161.876,-383.271 L 161.645,-383.855 L 161.489,-384.463 L 161.41,-385.086
 L 161.41,-385.714 L 161.489,-386.337 L 161.645,-386.945 L 161.876,-387.529 L 162.178,-388.079 L 162.547,-388.587
 L 162.977,-389.045 L 163.461,-389.445 L 163.991,-389.782 L 164.559,-390.049 L 165.157,-390.243 L 165.773,-390.361
 L 166.4,-390.4 L 167.027,-390.361 L 167.643,-390.243 L 168.241,-390.049 L 168.809,-389.782 L 169.339,-389.445
 L 169.823,-389.045 L 170.253,-388.587 L 170.622,-388.079 L 170.924,-387.529 L 171.155,-386.945 L 171.311,-386.337
 L 171.39,-385.714 L 171.39,-385.086 L 171.311,-384.463 L 171.155,-383.855 L 170.924,-383.271 L 170.622,-382.721
 L 170.253,-382.213 L 169.823,-381.755 L 169.339,-381.355 L 168.809,-381.018 L 168.241,-380.751 L 167.643,-380.557
 L 167.027,-380.439 L 166.4,-380.4 z
M 166.3,-367.106 L 166.201,-367.125 L 166.105,-367.156 L 166.015,-367.199 L 165.93,-367.253 L 165.852,-367.317
 L 165.784,-367.39 L 165.725,-367.471 L 165.676,-367.559 L 165.639,-367.653 L 165.614,-367.75 L 165.602,-367.85
 L 165.602,-367.95 L 165.614,-368.05 L 165.639,-368.147 L 165.676,-368.241 L 165.725,-368.329 L 165.784,-368.41
 L 165.852,-368.483 L 165.93,-368.547 L 166.015,-368.601 L 166.105,-368.644 L 166.201,-368.675 L 166.3,-368.694
 L 166.4,-368.7 L 166.5,-368.694 L 166.599,-368.675 L 166.694,-368.644 L 166.785,-368.601 L 166.87,-368.547
 L 166.948,-368.483 L 167.016,-368.41 L 167.075,-368.329 L 167.124,-368.241 L 167.161,-368.147 L 167.186,-368.05
 L 167.198,-367.95 L 167.198,-367.85 L 167.186,-367.75 L 167.161,-367.653 L 167.124,-367.559 L 167.075,-367.471
 L 167.016,-367.39 L 166.948,-367.317 L 166.87,-367.253 L 166.785,-367.199 L 166.694,-367.156 L 166.599,-367.125
 L 166.5,-367.106 L 166.4,-367.1 z
M 149.4,-405.4 L 119.4,-405.4 L 119.4,-365.4 L 149.4,-365.4 z
M 134.3,-402.106 L 134.201,-402.125 L 134.105,-402.156 L 134.015,-402.199 L 133.93,-402.253 L 133.852,-402.317
 L 133.784,-402.39 L 133.725,-402.471 L 133.676,-402.559 L 133.639,-402.653 L 133.614,-402.75 L 133.602,-402.85
 L 133.602,-402.95 L 133.614,-403.05 L 133.639,-403.147 L 133.676,-403.241 L 133.725,-403.329 L 133.784,-403.41
 L 133.852,-403.483 L 133.93,-403.547 L 134.015,-403.601 L 134.105,-403.644 L 134.201,-403.675 L 134.3,-403.694
 L 134.4,-403.7 L 134.5,-403.694 L 134.599,-403.675 L 134.694,-403.644 L 134.785,-403.601 L 134.87,-403.547
 L 134.948,-403.483 L 135.016,-403.41 L 135.075,-403.329 L 135.124,-403.241 L 135.161,-403.147 L 135.186,-403.05
 L 135.198,-402.95 L 135.198,-402.85 L 135.186,-402.75 L 135.161,-402.653 L 135.124,-402.559 L 135.075,-402.471
 L 135.016,-402.39 L 134.948,-402.317 L 134.87,-402.253 L 134.785,-402.199 L 134.694,-402.156 L 134.599,-402.125
 L 134.5,-402.106 L 134.4,-402.1 z
M 133.773,-380.439 L 133.157,-380.557 L 132.559,-380.751 L 131.991,-381.018 L 131.461,-381.355 L 130.977,-381.755
 L 130.547,-382.213 L 130.178,-382.721 L 129.876,-383.271 L 129.645,-383.855 L 129.489,-384.463 L 129.41,-385.086
 L 129.41,-385.714 L 129.489,-386.337 L 129.645,-386.945 L 129.876,-387.529 L 130.178,-388.079 L 130.547,-388.587
 L 130.977,-389.045 L 131.461,-389.445 L 131.991,-389.782 L 132.559,-390.049 L 133.157,-390.243 L 133.773,-390.361
 L 134.4,-390.4 L 135.027,-390.361 L 135.643,-390.243 L 136.241,-390.049 L 136.809,-389.782 L 137.339,-389.445
 L 137.823,-389.045 L 138.253,-388.587 L 138.622,-388.079 L 138.924,-387.529 L 139.155,-386.945 L 139.311,-386.337
 L 139.39,-385.714 L 139.39,-385.086 L 139.311,-384.463 L 139.155,-383.855 L 138.924,-383.271 L 138.622,-382.721
 L 138.253,-382.213 L 137.823,-381.755 L 137.339,-381.355 L 136.809,-381.018 L 136.241,-380.751 L 135.643,-380.557
 L 135.027,-380.439 L 134.4,-380.4 z
M 134.3,-367.106 L 134.201,-367.125 L 134.105,-367.156 L 134.015,-367.199 L 133.93,-367.253 L 133.852,-367.317
 L 133.784,-367.39 L 133.725,-367.471 L 133.676,-367.559 L 133.639,-367.653 L 133.614,-367.75 L 133.602,-367.85
 L 133.602,-367.95 L 133.614,-368.05 L 133.639,-368.147 L 133.676,-368.241 L 133.725,-368.329 L 133.784,-368.41
 L 133.852,-368.483 L 133.93,-368.547 L 134.015,-368.601 L 134.105,-368.644 L 134.201,-368.675 L 134.3,-368.694
 L 134.4,-368.7 L 134.5,-368.694 L 134.599,-368.675 L 134.694,-368.644 L 134.785,-368.601 L 134.87,-368.547
 L 134.948,-368.483 L 135.016,-368.41 L 135.075,-368.329 L 135.124,-368.241 L 135.161,-368.147 L 135.186,-368.05
 L 135.198,-367.95 L 135.198,-367.85 L 135.186,-367.75 L 135.161,-367.653 L 135.124,-367.559 L 135.075,-367.471
 L 135.016,-367.39 L 134.948,-367.317 L 134.87,-367.253 L 134.785,-367.199 L 134.694,-367.156 L 134.599,-367.125
 L 134.5,-367.106 L 134.4,-367.1 z
M 245.4,-405.4 L 215.4,-405.4 L 215.4,-365.4 L 245.4,-365.4 z
M 230.3,-402.106 L 230.201,-402.125 L 230.105,-402.156 L 230.015,-402.199 L 229.93,-402.253 L 229.852,-402.317
 L 229.784,-402.39 L 229.725,-402.471 L 229.676,-402.559 L 229.639,-402.653 L 229.614,-402.75 L 229.602,-402.85
 L 229.602,-402.95 L 229.614,-403.05 L 229.639,-403.147 L 229.676,-403.241 L 229.725,-403.329 L 229.784,-403.41
 L 229.852,-403.483 L 229.93,-403.547 L 230.015,-403.601 L 230.105,-403.644 L 230.201,-403.675 L 230.3,-403.694
 L 230.4,-403.7 L 230.5,-403.694 L 230.599,-403.675 L 230.694,-403.644 L 230.785,-403.601 L 230.87,-403.547
 L 230.948,-403.483 L 231.016,-403.41 L 231.075,-403.329 L 231.124,-403.241 L 231.161,-403.147 L 231.186,-403.05
 L 231.198,-402.95 L 231.198,-402.85 L 231.186,-402.75 L 231.161,-402.653 L 231.124,-402.559 L 231.075,-402.471
 L 231.016,-402.39 L 230.948,-402.317 L 230.87,-402.253 L 230.785,-402.199 L 230.694,-402.156 L 230.599,-402.125
 L 230.5,-402.106 L 230.4,-402.1 z
M 229.773,-380.439 L 229.157,-380.557 L 228.559,-380.751 L 227.991,-381.018 L 227.461,-381.355 L 226.977,-381.755
 L 226.547,-382.213 L 226.178,-382.721 L 225.876,-383.271 L 225.645,-383.855 L 225.489,-384.463 L 225.41,-385.086
 L 225.41,-385.714 L 225.489,-386.337 L 225.645,-386.945 L 225.876,-387.529 L 226.178,-388.079 L 226.547,-388.587
 L 226.977,-389.045 L 227.461,-389.445 L 227.991,-389.782 L 228.559,-390.049 L 229.157,-390.243 L 229.773,-390.361
 L 230.4,-390.4 L 231.027,-390.361 L 231.643,-390.243 L 232.241,-390.049 L 232.809,-389.782 L 233.339,-389.445
 L 233.823,-389.045 L 234.253,-388.587 L 234.622,-388.079 L 234.924,-387.529 L 235.155,-386.945 L 235.311,-386.337
 L 235.39,-385.714 L 235.39,-385.086 L 235.311,-384.463 L 235.155,-383.855 L 234.924,-383.271 L 234.622,-382.721
 L 234.253,-382.213 L 233.823,-381.755 L 233.339,-381.355 L 232.809,-381.018 L 232.241,-380.751 L 231.643,-380.557
 L 231.027,-380.439 L 230.4,-380.4 z
M 230.3,-367.106 L 230.201,-367.125 L 230.105,-367.156 L 230.015,-367.199 L 229.93,-367.253 L 229.852,-367.317
 L 229.784,-367.39 L 229.725,-367.471 L 229.676,-367.559 L 229.639,-367.653 L 229.614,-367.75 L 229.602,-367.85
 L 229.602,-367.95 L 229.614,-368.05 L 229.639,-368.147 L 229.676,-368.241 L 229.725,-368.329 L 229.784,-368.41
 L 229.852,-368.483 L 229.93,-368.547 L 230.015,-368.601 L 230.105,-368.644 L 230.201,-368.675 L 230.3,-368.694
 L 230.4,-368.7 L 230.5,-368.694 L 230.599,-368.675 L 230.694,-368.644 L 230.785,-368.601 L 230.87,-368.547
 L 230.948,-368.483 L 231.016,-368.41 L 231.075,-368.329 L 231.124,-368.241 L 231.161,-368.147 L 231.186,-368.05
 L 231.198,-367.95 L 231.198,-367.85 L 231.186,-367.75 L 231.161,-367.653 L 231.124,-367.559 L 231.075,-367.471
 L 231.016,-367.39 L 230.948,-367.317 L 230.87,-367.253 L 230.785,-367.199 L 230.694,-367.156 L 230.599,-367.125
 L 230.5,-367.106 L 230.4,-367.1 z
M 15,-401.5 L -15,-401.5 L -15,-356.5 L 15,-356.5 z
M 47,-401.5 L 17,-401.5 L 17,-356.5 L 47,-356.5 z
M 79,-401.5 L 49,-401.5 L 49,-356.5 L 79,-356.5 z
M 111,-401.5 L 81,-401.5 L 81,-356.5 L 111,-356.5 z
M 139,-360.9 L 113,-360.9 L 113,-315.9 L 139,-315.9 z
M 229,-360.9 L 203,-360.9 L 203,-315.9 L 229,-315.9 z
M 199,-360.9 L 173,-360.9 L 173,-315.9 L 199,-315.9 z
M 169,-360.9 L 143,-360.9 L 143,-315.9 L 169,-315.9 z
M 111,-354.5 L 81,-354.5 L 81,-309.5 L 111,-309.5 z
M 79,-354.5 L 49,-354.5 L 49,-309.5 L 79,-309.5 z
M 47,-354.5 L 17,-354.5 L 17,-309.5 L 47,-309.5 z
M 15,-354.5 L -15,-354.5 L -15,-309.5 L 15,-309.5 z
M 139,-313.9 L 113,-313.9 L 113,-268.9 L 139,-268.9 z
M 169,-313.9 L 143,-313.9 L 143,-268.9 L 169,-268.9 z
M 199,-313.9 L 173,-313.9 L 173,-268.9 L 199,-268.9 z
M 229,-313.9 L 203,-313.9 L 203,-268.9 L 229,-268.9 z
M 47,-307.5 L 17,-307.5 L 17,-262.5 L 47,-262.5 z
M 79,-307.5 L 49,-307.5 L 49,-262.5 L 79,-262.5 z
M 111,-307.5 L 81,-307.5 L 81,-262.5 L 111,-262.5 z
M 15,-307.5 L -15,-307.5 L -15,-262.5 L 15,-262.5 z
M 169,-266.9 L 143,-266.9 L 143,-221.9 L 169,-221.9 z
M 229,-266.9 L 203,-266.9 L 203,-221.9 L 229,-221.9 z
M 199,-266.9 L 173,-266.9 L 173,-221.9 L 199,-221.9 z
M 139,-266.9 L 113,-266.9 L 113,-221.9 L 139,-221.9 z
M 79,-260.5 L 49,-260.5 L 49,-215.5 L 79,-215.5 z
M 111,-260.5 L 81,-260.5 L 81,-215.5 L 111,-215.5 z
M 47,-260.5 L 17,-260.5 L 17,-215.5 L 47,-215.5 z
M 15,-260.5 L -15,-260.5 L -15,-215.5 L 15,-215.5 z
M 139,-219.9 L 113,-219.9 L 113,-174.9 L 139,-174.9 z
M 169,-219.9 L 143,-219.9 L 143,-174.9 L 169,-174.9 z
M 199,-219.9 L 173,-219.9 L 173,-174.9 L 199,-174.9 z
M 229,-219.9 L 203,-219.9 L 203,-174.9 L 229,-174.9 z
M 15,-213.5 L -15,-213.5 L -15,-168.5 L 15,-168.5 z
M 47,-213.5 L 17,-213.5 L 17,-168.5 L 47,-168.5 z
M 79,-213.5 L 49,-213.5 L 49,-168.5 L 79,-168.5 z
M 111,-213.5 L 81,-213.5 L 81,-168.5 L 111,-168.5 z
M 169,-172.9 L 143,-172.9 L 143,-127.9 L 169,-127.9 z
M 139,-172.9 L 113,-172.9 L 113,-127.9 L 139,-127.9 z
M 199,-172.9 L 173,-172.9 L 173,-127.9 L 199,-127.9 z
M 229,-172.9 L 203,-172.9 L 203,-127.9 L 229,-127.9 z
M 111,-166.5 L 81,-166.5 L 81,-121.5 L 111,-121.5 z
M 79,-166.5 L 49,-166.5 L 49,-121.5 L 79,-121.5 z
M 47,-166.5 L 17,-166.5 L 17,-121.5 L 47,-121.5 z
M 15,-166.5 L -15,-166.5 L -15,-121.5 L 15,-121.5 z
M 139,-125.9 L 113,-125.9 L 113,-80.9 L 139,-80.9 z
M 169,-125.9 L 143,-125.9 L 143,-80.9 L 169,-80.9 z
M 199,-125.9 L 173,-125.9 L 173,-80.9 L 199,-80.9 z
M 229,-125.9 L 203,-125.9 L 203,-80.9 L 229,-80.9 z
M 47,-111 L 17,-111 L 17,-81 L 47,-81 z
M 31.6861,-91.0099 L 31.0631,-91.0886 L 30.4549,-91.2447 L 29.8711,-91.4759 L 29.3209,-91.7784 L 28.8129,-92.1474
 L 28.3552,-92.5773 L 27.9549,-93.0611 L 27.6185,-93.5912 L 27.3511,-94.1594 L 27.1571,-94.7566 L 27.0394,-95.3733
 L 27,-96 L 27.0394,-96.6267 L 27.1571,-97.2434 L 27.3511,-97.8406 L 27.6185,-98.4088 L 27.9549,-98.9389
 L 28.3552,-99.4227 L 28.8129,-99.8526 L 29.3209,-100.222 L 29.8711,-100.524 L 30.4549,-100.755 L 31.0631,-100.911
 L 31.6861,-100.99 L 32.3139,-100.99 L 32.9369,-100.911 L 33.5451,-100.755 L 34.1289,-100.524 L 34.6791,-100.222
 L 35.1871,-99.8526 L 35.6448,-99.4227 L 36.0451,-98.9389 L 36.3815,-98.4088 L 36.6489,-97.8406 L 36.8429,-97.2434
 L 36.9606,-96.6267 L 37,-96 L 36.9606,-95.3733 L 36.8429,-94.7566 L 36.6489,-94.1594 L 36.3815,-93.5912
 L 36.0451,-93.0611 L 35.6448,-92.5773 L 35.1871,-92.1474 L 34.6791,-91.7784 L 34.1289,-91.4759 L 33.5451,-91.2447
 L 32.9369,-91.0886 L 32.3139,-91.0099 z
M 79,-111 L 49,-111 L 49,-81 L 79,-81 z
M 63.6861,-91.0099 L 63.0631,-91.0886 L 62.4549,-91.2447 L 61.8711,-91.4759 L 61.3209,-91.7784 L 60.8129,-92.1474
 L 60.3552,-92.5773 L 59.9549,-93.0611 L 59.6185,-93.5912 L 59.3511,-94.1594 L 59.1571,-94.7566 L 59.0394,-95.3733
 L 59,-96 L 59.0394,-96.6267 L 59.1571,-97.2434 L 59.3511,-97.8406 L 59.6185,-98.4088 L 59.9549,-98.9389
 L 60.3552,-99.4227 L 60.8129,-99.8526 L 61.3209,-100.222 L 61.8711,-100.524 L 62.4549,-100.755 L 63.0631,-100.911
 L 63.6861,-100.99 L 64.3139,-100.99 L 64.9369,-100.911 L 65.5451,-100.755 L 66.1289,-100.524 L 66.6791,-100.222
 L 67.1871,-99.8526 L 67.6448,-99.4227 L 68.0451,-98.9389 L 68.3815,-98.4088 L 68.6489,-97.8406 L 68.8429,-97.2434
 L 68.9606,-96.6267 L 69,-96 L 68.9606,-95.3733 L 68.8429,-94.7566 L 68.6489,-94.1594 L 68.3815,-93.5912
 L 68.0451,-93.0611 L 67.6448,-92.5773 L 67.1871,-92.1474 L 66.6791,-91.7784 L 66.1289,-91.4759 L 65.5451,-91.2447
 L 64.9369,-91.0886 L 64.3139,-91.0099 z
M 111,-111 L 81,-111 L 81,-81 L 111,-81 z
M 95.6861,-91.0099 L 95.0631,-91.0886 L 94.4549,-91.2447 L 93.8711,-91.4759 L 93.3209,-91.7784 L 92.8129,-92.1474
 L 92.3552,-92.5773 L 91.9549,-93.0611 L 91.6185,-93.5912 L 91.3511,-94.1594 L 91.1571,-94.7566 L 91.0394,-95.3733
 L 91,-96 L 91.0394,-96.6267 L 91.1571,-97.2434 L 91.3511,-97.8406 L 91.6185,-98.4088 L 91.9549,-98.9389
 L 92.3552,-99.4227 L 92.8129,-99.8526 L 93.3209,-100.222 L 93.8711,-100.524 L 94.4549,-100.755 L 95.0631,-100.911
 L 95.6861,-100.99 L 96.3139,-100.99 L 96.9369,-100.911 L 97.5451,-100.755 L 98.1289,-100.524 L 98.6791,-100.222
 L 99.1871,-99.8526 L 99.6448,-99.4227 L 100.045,-98.9389 L 100.382,-98.4088 L 100.649,-97.8406 L 100.843,-97.2434
 L 100.961,-96.6267 L 101,-96 L 100.961,-95.3733 L 100.843,-94.7566 L 100.649,-94.1594 L 100.382,-93.5912
 L 100.045,-93.0611 L 99.6448,-92.5773 L 99.1871,-92.1474 L 98.6791,-91.7784 L 98.1289,-91.4759 L 97.5451,-91.2447
 L 96.9369,-91.0886 L 96.3139,-91.0099 z
M 15,-111 L -15,-111 L -15,-81 L 15,-81 z
M -0.31395,-91.0099 L -0.936905,-91.0886 L -1.54507,-91.2447 L -2.12889,-91.4759 L -2.67912,-91.7784 L -3.18712,-92.1474
 L -3.64484,-92.5773 L -4.04507,-93.0611 L -4.38153,-93.5912 L -4.64888,-94.1594 L -4.84291,-94.7566 L -4.96057,-95.3733
 L -5,-96 L -4.96057,-96.6267 L -4.84291,-97.2434 L -4.64888,-97.8406 L -4.38153,-98.4088 L -4.04507,-98.9389
 L -3.64484,-99.4227 L -3.18712,-99.8526 L -2.67912,-100.222 L -2.12889,-100.524 L -1.54507,-100.755 L -0.936905,-100.911
 L -0.31395,-100.99 L 0.31395,-100.99 L 0.936905,-100.911 L 1.54507,-100.755 L 2.12889,-100.524 L 2.67912,-100.222
 L 3.18712,-99.8526 L 3.64484,-99.4227 L 4.04507,-98.9389 L 4.38153,-98.4088 L 4.64888,-97.8406 L 4.84291,-97.2434
 L 4.96057,-96.6267 L 5,-96 L 4.96057,-95.3733 L 4.84291,-94.7566 L 4.64888,-94.1594 L 4.38153,-93.5912
 L 4.04507,-93.0611 L 3.64484,-92.5773 L 3.18712,-92.1474 L 2.67912,-91.7784 L 2.12889,-91.4759 L 1.54507,-91.2447
 L 0.936905,-91.0886 L 0.31395,-91.0099 z
M 47,-79 L 17,-79 L 17,-49 L 47,-49 z
M 31.6861,-59.0099 L 31.0631,-59.0886 L 30.4549,-59.2447 L 29.8711,-59.4759 L 29.3209,-59.7784 L 28.8129,-60.1474
 L 28.3552,-60.5773 L 27.9549,-61.0611 L 27.6185,-61.5912 L 27.3511,-62.1594 L 27.1571,-62.7566 L 27.0394,-63.3733
 L 27,-64 L 27.0394,-64.6267 L 27.1571,-65.2434 L 27.3511,-65.8406 L 27.6185,-66.4088 L 27.9549,-66.9389
 L 28.3552,-67.4227 L 28.8129,-67.8526 L 29.3209,-68.2216 L 29.8711,-68.5241 L 30.4549,-68.7553 L 31.0631,-68.9114
 L 31.6861,-68.9901 L 32.3139,-68.9901 L 32.9369,-68.9114 L 33.5451,-68.7553 L 34.1289,-68.5241 L 34.6791,-68.2216
 L 35.1871,-67.8526 L 35.6448,-67.4227 L 36.0451,-66.9389 L 36.3815,-66.4088 L 36.6489,-65.8406 L 36.8429,-65.2434
 L 36.9606,-64.6267 L 37,-64 L 36.9606,-63.3733 L 36.8429,-62.7566 L 36.6489,-62.1594 L 36.3815,-61.5912
 L 36.0451,-61.0611 L 35.6448,-60.5773 L 35.1871,-60.1474 L 34.6791,-59.7784 L 34.1289,-59.4759 L 33.5451,-59.2447
 L 32.9369,-59.0886 L 32.3139,-59.0099 z
M 111,-79 L 81,-79 L 81,-49 L 111,-49 z
M 95.6861,-59.0099 L 95.0631,-59.0886 L 94.4549,-59.2447 L 93.8711,-59.4759 L 93.3209,-59.7784 L 92.8129,-60.1474
 L 92.3552,-60.5773 L 91.9549,-61.0611 L 91.6185,-61.5912 L 91.3511,-62.1594 L 91.1571,-62.7566 L 91.0394,-63.3733
 L 91,-64 L 91.0394,-64.6267 L 91.1571,-65.2434 L 91.3511,-65.8406 L 91.6185,-66.4088 L 91.9549,-66.9389
 L 92.3552,-67.4227 L 92.8129,-67.8526 L 93.3209,-68.2216 L 93.8711,-68.5241 L 94.4549,-68.7553 L 95.0631,-68.9114
 L 95.6861,-68.9901 L 96.3139,-68.9901 L 96.9369,-68.9114 L 97.5451,-68.7553 L 98.1289,-68.5241 L 98.6791,-68.2216
 L 99.1871,-67.8526 L 99.6448,-67.4227 L 100.045,-66.9389 L 100.382,-66.4088 L 100.649,-65.8406 L 100.843,-65.2434
 L 100.961,-64.6267 L 101,-64 L 100.961,-63.3733 L 100.843,-62.7566 L 100.649,-62.1594 L 100.382,-61.5912
 L 100.045,-61.0611 L 99.6448,-60.5773 L 99.1871,-60.1474 L 98.6791,-59.7784 L 98.1289,-59.4759 L 97.5451,-59.2447
 L 96.9369,-59.0886 L 96.3139,-59.0099 z
M 15,-79 L -15,-79 L -15,-49 L 15,-49 z
M -0.31395,-59.0099 L -0.936905,-59.0886 L -1.54507,-59.2447 L -2.12889,-59.4759 L -2.67912,-59.7784 L -3.18712,-60.1474
 L -3.64484,-60.5773 L -4.04507,-61.0611 L -4.38153,-61.5912 L -4.64888,-62.1594 L -4.84291,-62.7566 L -4.96057,-63.3733
 L -5,-64 L -4.96057,-64.6267 L -4.84291,-65.2434 L -4.64888,-65.8406 L -4.38153,-66.4088 L -4.04507,-66.9389
 L -3.64484,-67.4227 L -3.18712,-67.8526 L -2.67912,-68.2216 L -2.12889,-68.5241 L -1.54507,-68.7553 L -0.936905,-68.9114
 L -0.31395,-68.9901 L 0.31395,-68.9901 L 0.936905,-68.9114 L 1.54507,-68.7553 L 2.12889,-68.5241 L 2.67912,-68.2216
 L 3.18712,-67.8526 L 3.64484,-67.4227 L 4.04507,-66.9389 L 4.38153,-66.4088 L 4.64888,-65.8406 L 4.84291,-65.2434
 L 4.96057,-64.6267 L 5,-64 L 4.96057,-63.3733 L 4.84291,-62.7566 L 4.64888,-62.1594 L 4.38153,-61.5912
 L 4.04507,-61.0611 L 3.64484,-60.5773 L 3.18712,-60.1474 L 2.67912,-59.7784 L 2.12889,-59.4759 L 1.54507,-59.2447
 L 0.936905,-59.0886 L 0.31395,-59.0099 z
M 79,-79 L 49,-79 L 49,-49 L 79,-49 z
M 63.6861,-59.0099 L 63.0631,-59.0886 L 62.4549,-59.2447 L 61.8711,-59.4759 L 61.3209,-59.7784 L 60.8129,-60.1474
 L 60.3552,-60.5773 L 59.9549,-61.0611 L 59.6185,-61.5912 L 59.3511,-62.1594 L 59.1571,-62.7566 L 59.0394,-63.3733
 L 59,-64 L 59.0394,-64.6267 L 59.1571,-65.2434 L 59.3511,-65.8406 L 59.6185,-66.4088 L 59.9549,-66.9389
 L 60.3552,-67.4227 L 60.8129,-67.8526 L 61.3209,-68.2216 L 61.8711,-68.5241 L 62.4549,-68.7553 L 63.0631,-68.9114
 L 63.6861,-68.9901 L 64.3139,-68.9901 L 64.9369,-68.9114 L 65.5451,-68.7553 L 66.1289,-68.5241 L 66.6791,-68.2216
 L 67.1871,-67.8526 L 67.6448,-67.4227 L 68.0451,-66.9389 L 68.3815,-66.4088 L 68.6489,-65.8406 L 68.8429,-65.2434
 L 68.9606,-64.6267 L 69,-64 L 68.9606,-63.3733 L 68.8429,-62.7566 L 68.6489,-62.1594 L 68.3815,-61.5912
 L 68.0451,-61.0611 L 67.6448,-60.5773 L 67.1871,-60.1474 L 66.6791,-59.7784 L 66.1289,-59.4759 L 65.5451,-59.2447
 L 64.9369,-59.0886 L 64.3139,-59.0099 z
M 139,-78.9 L 113,-78.9 L 113,-33.9 L 139,-33.9 z
M 229,-78.9 L 203,-78.9 L 203,-33.9 L 229,-33.9 z
M 199,-78.9 L 173,-78.9 L 173,-33.9 L 199,-33.9 z
M 169,-78.9 L 143,-78.9 L 143,-33.9 L 169,-33.9 z
M 111,-47 L 81,-47 L 81,-17 L 111,-17 z
M 95.6861,-27.0099 L 95.0631,-27.0886 L 94.4549,-27.2447 L 93.8711,-27.4759 L 93.3209,-27.7784 L 92.8129,-28.1474
 L 92.3552,-28.5773 L 91.9549,-29.0611 L 91.6185,-29.5912 L 91.3511,-30.1594 L 91.1571,-30.7566 L 91.0394,-31.3733
 L 91,-32 L 91.0394,-32.6267 L 91.1571,-33.2434 L 91.3511,-33.8406 L 91.6185,-34.4088 L 91.9549,-34.9389
 L 92.3552,-35.4227 L 92.8129,-35.8526 L 93.3209,-36.2216 L 93.8711,-36.5241 L 94.4549,-36.7553 L 95.0631,-36.9114
 L 95.6861,-36.9901 L 96.3139,-36.9901 L 96.9369,-36.9114 L 97.5451,-36.7553 L 98.1289,-36.5241 L 98.6791,-36.2216
 L 99.1871,-35.8526 L 99.6448,-35.4227 L 100.045,-34.9389 L 100.382,-34.4088 L 100.649,-33.8406 L 100.843,-33.2434
 L 100.961,-32.6267 L 101,-32 L 100.961,-31.3733 L 100.843,-30.7566 L 100.649,-30.1594 L 100.382,-29.5912
 L 100.045,-29.0611 L 99.6448,-28.5773 L 99.1871,-28.1474 L 98.6791,-27.7784 L 98.1289,-27.4759 L 97.5451,-27.2447
 L 96.9369,-27.0886 L 96.3139,-27.0099 z
M 79,-47 L 49,-47 L 49,-17 L 79,-17 z
M 63.6861,-27.0099 L 63.0631,-27.0886 L 62.4549,-27.2447 L 61.8711,-27.4759 L 61.3209,-27.7784 L 60.8129,-28.1474
 L 60.3552,-28.5773 L 59.9549,-29.0611 L 59.6185,-29.5912 L 59.3511,-30.1594 L 59.1571,-30.7566 L 59.0394,-31.3733
 L 59,-32 L 59.0394,-32.6267 L 59.1571,-33.2434 L 59.3511,-33.8406 L 59.6185,-34.4088 L 59.9549,-34.9389
 L 60.3552,-35.4227 L 60.8129,-35.8526 L 61.3209,-36.2216 L 61.8711,-36.5241 L 62.4549,-36.7553 L 63.0631,-36.9114
 L 63.6861,-36.9901 L 64.3139,-36.9901 L 64.9369,-36.9114 L 65.5451,-36.7553 L 66.1289,-36.5241 L 66.6791,-36.2216
 L 67.1871,-35.8526 L 67.6448,-35.4227 L 68.0451,-34.9389 L 68.3815,-34.4088 L 68.6489,-33.8406 L 68.8429,-33.2434
 L 68.9606,-32.6267 L 69,-32 L 68.9606,-31.3733 L 68.8429,-30.7566 L 68.6489,-30.1594 L 68.3815,-29.5912
 L 68.0451,-29.0611 L 67.6448,-28.5773 L 67.1871,-28.1474 L 66.6791,-27.7784 L 66.1289,-27.4759 L 65.5451,-27.2447
 L 64.9369,-27.0886 L 64.3139,-27.0099 z
M 15,-47 L -15,-47 L -15,-17 L 15,-17 z
M -0.31395,-27.0099 L -0.936905,-27.0886 L -1.54507,-27.2447 L -2.12889,-27.4759 L -2.67912,-27.7784 L -3.18712,-28.1474
 L -3.64484,-28.5773 L -4.04507,-29.0611 L -4.38153,-29.5912 L -4.64888,-30.1594 L -4.84291,-30.7566 L -4.96057,-31.3733
 L -5,-32 L -4.96057,-32.6267 L -4.84291,-33.2434 L -4.64888,-33.8406 L -4.38153,-34.4088 L -4.04507,-34.9389
 L -3.64484,-35.4227 L -3.18712,-35.8526 L -2.67912,-36.2216 L -2.12889,-36.5241 L -1.54507,-36.7553 L -0.936905,-36.9114
 L -0.31395,-36.9901 L 0.31395,-36.9901 L 0.936905,-36.9114 L 1.54507,-36.7553 L 2.12889,-36.5241 L 2.67912,-36.2216
 L 3.18712,-35.8526 L 3.64484,-35.4227 L 4.04507,-34.9389 L 4.38153,-34.4088 L 4.64888,-33.8406 L 4.84291,-33.2434
 L 4.96057,-32.6267 L 5,-32 L 4.96057,-31.3733 L 4.84291,-30.7566 L 4.64888,-30.1594 L 4.38153,-29.5912
 L 4.04507,-29.0611 L 3.64484,-28.5773 L 3.18712,-28.1474 L 2.67912,-27.7784 L 2.12889,-27.4759 L 1.54507,-27.2447
 L 0.936905,-27.0886 L 0.31395,-27.0099 z
M 47,-47 L 17,-47 L 17,-17 L 47,-17 z
M 31.6861,-27.0099 L 31.0631,-27.0886 L 30.4549,-27.2447 L 29.8711,-27.4759 L 29.3209,-27.7784 L 28.8129,-28.1474
 L 28.3552,-28.5773 L 27.9549,-29.0611 L 27.6185,-29.5912 L 27.3511,-30.1594 L 27.1571,-30.7566 L 27.0394,-31.3733
 L 27,-32 L 27.0394,-32.6267 L 27.1571,-33.2434 L 27.3511,-33.8406 L 27.6185,-34.4088 L 27.9549,-34.9389
 L 28.3552,-35.4227 L 28.8129,-35.8526 L 29.3209,-36.2216 L 29.8711,-36.5241 L 30.4549,-36.7553 L 31.0631,-36.9114
 L 31.6861,-36.9901 L 32.3139,-36.9901 L 32.9369,-36.9114 L 33.5451,-36.7553 L 34.1289,-36.5241 L 34.6791,-36.2216
 L 35.1871,-35.8526 L 35.6448,-35.4227 L 36.0451,-34.9389 L 36.3815,-34.4088 L 36.6489,-33.8406 L 36.8429,-33.2434
 L 36.9606,-32.6267 L 37,-32 L 36.9606,-31.3733 L 36.8429,-30.7566 L 36.6489,-30.1594 L 36.3815,-29.5912
 L 36.0451,-29.0611 L 35.6448,-28.5773 L 35.1871,-28.1474 L 34.6791,-27.7784 L 34.1289,-27.4759 L 33.5451,-27.2447
 L 32.9369,-27.0886 L 32.3139,-27.0099 z
M 139,-31.9 L 113,-31.9 L 113,13.1 L 139,13.1 z
M 169,-31.9 L 143,-31.9 L 143,13.1 L 169,13.1 z
M 199,-31.9 L 173,-31.9 L 173,13.1 L 199,13.1 z
M 229,-31.9 L 203,-31.9 L 203,13.1 L 229,13.1 z
M 15,-15 L -15,-15 L -15,15 L 15,15 z
M -0.31395,4.99013 L -0.936905,4.91142 L -1.54507,4.75528 L -2.12889,4.52412 L -2.67912,4.22163 L -3.18712,3.85255
 L -3.64484,3.42273 L -4.04507,2.93892 L -4.38153,2.40877 L -4.64888,1.84062 L -4.84291,1.24344 L -4.96057,0.626663
 L -5,-0 L -4.96057,-0.626663 L -4.84291,-1.24344 L -4.64888,-1.84062 L -4.38153,-2.40877 L -4.04507,-2.93892
 L -3.64484,-3.42273 L -3.18712,-3.85255 L -2.67912,-4.22163 L -2.12889,-4.52412 L -1.54507,-4.75528 L -0.936905,-4.91142
 L -0.31395,-4.99013 L 0.31395,-4.99013 L 0.936905,-4.91142 L 1.54507,-4.75528 L 2.12889,-4.52412 L 2.67912,-4.22163
 L 3.18712,-3.85255 L 3.64484,-3.42273 L 4.04507,-2.93892 L 4.38153,-2.40877 L 4.64888,-1.84062 L 4.84291,-1.24344
 L 4.96057,-0.626663 L 5,-0 L 4.96057,0.626663 L 4.84291,1.24344 L 4.64888,1.84062 L 4.38153,2.40877
 L 4.04507,2.93892 L 3.64484,3.42273 L 3.18712,3.85255 L 2.67912,4.22163 L 2.12889,4.52412 L 1.54507,4.75528
 L 0.936905,4.91142 L 0.31395,4.99013 z
M 111,-15 L 81,-15 L 81,15 L 111,15 z
M 95.6861,4.99013 L 95.0631,4.91142 L 94.4549,4.75528 L 93.8711,4.52412 L 93.3209,4.22163 L 92.8129,3.85255
 L 92.3552,3.42273 L 91.9549,2.93892 L 91.6185,2.40877 L 91.3511,1.84062 L 91.1571,1.24344 L 91.0394,0.626663
 L 91,-0 L 91.0394,-0.626663 L 91.1571,-1.24344 L 91.3511,-1.84062 L 91.6185,-2.40877 L 91.9549,-2.93892
 L 92.3552,-3.42273 L 92.8129,-3.85255 L 93.3209,-4.22163 L 93.8711,-4.52412 L 94.4549,-4.75528 L 95.0631,-4.91142
 L 95.6861,-4.99013 L 96.3139,-4.99013 L 96.9369,-4.91142 L 97.5451,-4.75528 L 98.1289,-4.52412 L 98.6791,-4.22163
 L 99.1871,-3.85255 L 99.6448,-3.42273 L 100.045,-2.93892 L 100.382,-2.40877 L 100.649,-1.84062 L 100.843,-1.24344
 L 100.961,-0.626663 L 101,-0 L 100.961,0.626663 L 100.843,1.24344 L 100.649,1.84062 L 100.382,2.40877
 L 100.045,2.93892 L 99.6448,3.42273 L 99.1871,3.85255 L 98.6791,4.22163 L 98.1289,4.52412 L 97.5451,4.75528
 L 96.9369,4.91142 L 96.3139,4.99013 z
M 79,-15 L 49,-15 L 49,15 L 79,15 z
M 63.6861,4.99013 L 63.0631,4.91142 L 62.4549,4.75528 L 61.8711,4.52412 L 61.3209,4.22163 L 60.8129,3.85255
 L 60.3552,3.42273 L 59.9549,2.93892 L 59.6185,2.40877 L 59.3511,1.84062 L 59.1571,1.24344 L 59.0394,0.626663
 L 59,-0 L 59.0394,-0.626663 L 59.1571,-1.24344 L 59.3511,-1.84062 L 59.6185,-2.40877 L 59.9549,-2.93892
 L 60.3552,-3.42273 L 60.8129,-3.85255 L 61.3209,-4.22163 L 61.8711,-4.52412 L 62.4549,-4.75528 L 63.0631,-4.91142
 L 63.6861,-4.99013 L 64.3139,-4.99013 L 64.9369,-4.91142 L 65.5451,-4.75528 L 66.1289,-4.52412 L 66.6791,-4.22163
 L 67.1871,-3.85255 L 67.6448,-3.42273 L 68.0451,-2.93892 L 68.3815,-2.40877 L 68.6489,-1.84062 L 68.8429,-1.24344
 L 68.9606,-0.626663 L 69,-0 L 68.9606,0.626663 L 68.8429,1.24344 L 68.6489,1.84062 L 68.3815,2.40877
 L 68.0451,2.93892 L 67.6448,3.42273 L 67.1871,3.85255 L 66.6791,4.22163 L 66.1289,4.52412 L 65.5451,4.75528
 L 64.9369,4.91142 L 64.3139,4.99013 z
M 47,-15 L 17,-15 L 17,15 L 47,15 z
M 31.6861,4.99013 L 31.0631,4.91142 L 30.4549,4.75528 L 29.8711,4.52412 L 29.3209,4.22163 L 28.8129,3.85255
 L 28.3552,3.42273 L 27.9549,2.93892 L 27.6185,2.40877 L 27.3511,1.84062 L 27.1571,1.24344 L 27.0394,0.626663
 L 27,-0 L 27.0394,-0.626663 L 27.1571,-1.24344 L 27.3511,-1.84062 L 27.6185,-2.40877 L 27.9549,-2.93892
 L 28.3552,-3.42273 L 28.8129,-3.85255 L 29.3209,-4.22163 L 29.8711,-4.52412 L 30.4549,-4.75528 L 31.0631,-4.91142
 L 31.6861,-4.99013 L 32.3139,-4.99013 L 32.9369,-4.91142 L 33.5451,-4.75528 L 34.1289,-4.52412 L 34.6791,-4.22163
 L 35.1871,-3.85255 L 35.6448,-3.42273 L 36.0451,-2.93892 L 36.3815,-2.40877 L 36.6489,-1.84062 L 36.8429,-1.24344
 L 36.9606,-0.626663 L 37,-0 L 36.9606,0.626663 L 36.8429,1.24344 L 36.6489,1.84062 L 36.3815,2.40877
 L 36.0451,2.93892 L 35.6448,3.42273 L 35.1871,3.85255 L 34.6791,4.22163 L 34.1289,4.52412 L 33.5451,4.75528
 L 32.9369,4.91142 L 32.3139,4.99013 z
" stroke="black" fill="lightgray" stroke-width="0.5"/>
</svg>
