<?xml version="1.0" standalone="no"?>
<!DOCTYPE svg PUBLIC "-//W3C//DTD SVG 1.1//EN" "http://www.w3.org/Graphics/SVG/1.1/DTD/svg11.dtd">
<svg width="298mm" height="290mm" viewBox="-24 -242 298 290" xmlns="http://www.w3.org/2000/svg" version="1.1">
<title>OpenSCAD Model</title>
<path d="
M 222,-241.5 L 178,-241.5 L 178,-146.5 L 222,-146.5 z
M 172,-241.5 L 128,-241.5 L 128,-146.5 L 172,-146.5 z
M 124,-241.5 L 76,-241.5 L 76,-146.5 L 124,-146.5 z
M 74,-241.5 L 26,-241.5 L 26,-146.5 L 74,-146.5 z
M 222,-144.5 L 178,-144.5 L 178,-49.5 L 222,-49.5 z
M 172,-144.5 L 128,-144.5 L 128,-49.5 L 172,-49.5 z
M 124,-144.5 L 76,-144.5 L 76,-49.5 L 124,-49.5 z
M 74,-144.5 L 26,-144.5 L 26,-49.5 L 74,-49.5 z
M 24,-124 L -24,-124 L -24,-76 L 24,-76 z
M -0.100266,-116.706 L -0.198944,-116.725 L -0.294495,-116.756 L -0.385391,-116.799 L -0.470215,-116.853 L -0.547623,-116.917
 L -0.616409,-116.99 L -0.675461,-117.071 L -0.723846,-117.159 L -0.760834,-117.253 L -0.785828,-117.35 L -0.798416,-117.45
 L -0.798416,-117.55 L -0.785828,-117.65 L -0.760834,-117.747 L -0.723846,-117.841 L -0.675461,-117.929 L -0.616409,-118.01
 L -0.547623,-118.083 L -0.470215,-118.147 L -0.385391,-118.201 L -0.294495,-118.244 L -0.198944,-118.275 L -0.100266,-118.294
 L 0,-118.3 L 0.100266,-118.294 L 0.198944,-118.275 L 0.294495,-118.244 L 0.385391,-118.201 L 0.470215,-118.147
 L 0.547623,-118.083 L 0.616409,-118.01 L 0.675461,-117.929 L 0.723846,-117.841 L 0.760834,-117.747 L 0.785828,-117.65
 L 0.798416,-117.55 L 0.798416,-117.45 L 0.785828,-117.35 L 0.760834,-117.253 L 0.723846,-117.159 L 0.675461,-117.071
 L 0.616409,-116.99 L 0.547623,-116.917 L 0.470215,-116.853 L 0.385391,-116.799 L 0.294495,-116.756 L 0.198944,-116.725
 L 0.100266,-116.706 L 0,-116.7 z
M -15,-85 L -15,-115 L 15,-115 L 15,-85 z
M -0.100266,-81.7063 L -0.198944,-81.7251 L -0.294495,-81.7562 L -0.385391,-81.799 L -0.470215,-81.8528 L -0.547623,-81.9168
 L -0.616409,-81.9901 L -0.675461,-82.0714 L -0.723846,-82.1594 L -0.760834,-82.2528 L -0.785828,-82.3501 L -0.798416,-82.4498
 L -0.798416,-82.5502 L -0.785828,-82.6499 L -0.760834,-82.7472 L -0.723846,-82.8406 L -0.675461,-82.9287 L -0.616409,-83.0099
 L -0.547623,-83.0832 L -0.470215,-83.1472 L -0.385391,-83.201 L -0.294495,-83.2438 L -0.198944,-83.2749 L -0.100266,-83.2937
 L 0,-83.3 L 0.100266,-83.2937 L 0.198944,-83.2749 L 0.294495,-83.2438 L 0.385391,-83.201 L 0.470215,-83.1472
 L 0.547623,-83.0832 L 0.616409,-83.0099 L 0.675461,-82.9287 L 0.723846,-82.8406 L 0.760834,-82.7472 L 0.785828,-82.6499
 L 0.798416,-82.5502 L 0.798416,-82.4498 L 0.785828,-82.3501 L 0.760834,-82.2528 L 0.723846,-82.1594 L 0.675461,-82.0714
 L 0.616409,-81.9901 L 0.547623,-81.9168 L 0.470215,-81.8528 L 0.385391,-81.799 L 0.294495,-81.7562 L 0.198944,-81.7251
 L 0.100266,-81.7063 L 0,-81.7 z
M 274,-124 L 226,-124 L 226,-76 L 274,-76 z
M 248.156,-96.1709 L 246.677,-97.3502 L 245.857,-99.0543 L 245.857,-100.946 L 246.677,-102.65 L 248.156,-103.829
 L 250,-104.25 L 251.844,-103.829 L 253.323,-102.65 L 254.143,-100.946 L 254.143,-99.0543 L 253.323,-97.3502
 L 251.844,-96.1709 L 250,-95.75 z
M 274,-74 L 226,-74 L 226,-26 L 274,-26 z
M 248.156,-46.1709 L 246.677,-47.3502 L 245.857,-49.0543 L 245.857,-50.9457 L 246.677,-52.6498 L 248.156,-53.8291
 L 250,-54.25 L 251.844,-53.8291 L 253.323,-52.6498 L 254.143,-50.9457 L 254.143,-49.0543 L 253.323,-47.3502
 L 251.844,-46.1709 L 250,-45.75 z
M 24,-74 L -24,-74 L -24,-26 L 24,-26 z
M -0.100266,-66.7063 L -0.198944,-66.7251 L -0.294495,-66.7562 L -0.385391,-66.799 L -0.470215,-66.8528 L -0.547623,-66.9168
 L -0.616409,-66.9901 L -0.675461,-67.0713 L -0.723846,-67.1594 L -0.760834,-67.2528 L -0.785828,-67.3501 L -0.798416,-67.4498
 L -0.798416,-67.5502 L -0.785828,-67.6499 L -0.760834,-67.7472 L -0.723846,-67.8406 L -0.675461,-67.9286 L -0.616409,-68.0099
 L -0.547623,-68.0832 L -0.470215,-68.1472 L -0.385391,-68.201 L -0.294495,-68.2438 L -0.198944,-68.2749 L -0.100266,-68.2937
 L 0,-68.3 L 0.100266,-68.2937 L 0.198944,-68.2749 L 0.294495,-68.2438 L 0.385391,-68.201 L 0.470215,-68.1472
 L 0.547623,-68.0832 L 0.616409,-68.0099 L 0.675461,-67.9286 L 0.723846,-67.8406 L 0.760834,-67.7472 L 0.785828,-67.6499
 L 0.798416,-67.5502 L 0.798416,-67.4498 L 0.785828,-67.3501 L 0.760834,-67.2528 L 0.723846,-67.1594 L 0.675461,-67.0713
 L 0.616409,-66.9901 L 0.547623,-66.9168 L 0.470215,-66.8528 L 0.385391,-66.799 L 0.294495,-66.7562 L 0.198944,-66.7251
 L 0.100266,-66.7063 L 0,-66.7 z
M -15,-35 L -15,-65 L 15,-65 L 15,-35 z
M -0.100266,-31.7063 L -0.198944,-31.7251 L -0.294495,-31.7562 L -0.385391,-31.799 L -0.470215,-31.8528 L -0.547623,-31.9168
 L -0.616409,-31.9901 L -0.675461,-32.0714 L -0.723846,-32.1594 L -0.760834,-32.2528 L -0.785828,-32.3501 L -0.798416,-32.4498
 L -0.798416,-32.5502 L -0.785828,-32.6499 L -0.760834,-32.7472 L -0.723846,-32.8406 L -0.675461,-32.9287 L -0.616409,-33.0099
 L -0.547623,-33.0832 L -0.470215,-33.1472 L -0.385391,-33.201 L -0.294495,-33.2438 L -0.198944,-33.2749 L -0.100266,-33.2937
 L 0,-33.3 L 0.100266,-33.2937 L 0.198944,-33.2749 L 0.294495,-33.2438 L 0.385391,-33.201 L 0.470215,-33.1472
 L 0.547623,-33.0832 L 0.616409,-33.0099 L 0.675461,-32.9287 L 0.723846,-32.8406 L 0.760834,-32.7472 L 0.785828,-32.6499
 L 0.798416,-32.5502 L 0.798416,-32.4498 L 0.785828,-32.3501 L 0.760834,-32.2528 L 0.723846,-32.1594 L 0.675461,-32.0714
 L 0.616409,-31.9901 L 0.547623,-31.9168 L 0.470215,-31.8528 L 0.385391,-31.799 L 0.294495,-31.7562 L 0.198944,-31.7251
 L 0.100266,-31.7063 L 0,-31.7 z
M 124,-47.5 L 76,-47.5 L 76,47.5 L 124,47.5 z
M 172,-47.5 L 128,-47.5 L 128,47.5 L 172,47.5 z
M 222,-47.5 L 178,-47.5 L 178,47.5 L 222,47.5 z
M 74,-47.5 L 26,-47.5 L 26,47.5 L 74,47.5 z
M 24,-24 L -24,-24 L -24,24 L 24,24 z
M -0.100266,-16.7063 L -0.198944,-16.7251 L -0.294495,-16.7562 L -0.385391,-16.799 L -0.470215,-16.8528 L -0.547623,-16.9168
 L -0.616409,-16.9901 L -0.675461,-17.0713 L -0.723846,-17.1594 L -0.760834,-17.2528 L -0.785828,-17.3501 L -0.798416,-17.4498
 L -0.798416,-17.5502 L -0.785828,-17.6499 L -0.760834,-17.7472 L -0.723846,-17.8406 L -0.675461,-17.9286 L -0.616409,-18.0099
 L -0.547623,-18.0832 L -0.470215,-18.1472 L -0.385391,-18.201 L -0.294495,-18.2438 L -0.198944,-18.2749 L -0.100266,-18.2937
 L 0,-18.3 L 0.100266,-18.2937 L 0.198944,-18.2749 L 0.294495,-18.2438 L 0.385391,-18.201 L 0.470215,-18.1472
 L 0.547623,-18.0832 L 0.616409,-18.0099 L 0.675461,-17.9286 L 0.723846,-17.8406 L 0.760834,-17.7472 L 0.785828,-17.6499
 L 0.798416,-17.5502 L 0.798416,-17.4498 L 0.785828,-17.3501 L 0.760834,-17.2528 L 0.723846,-17.1594 L 0.675461,-17.0713
 L 0.616409,-16.9901 L 0.547623,-16.9168 L 0.470215,-16.8528 L 0.385391,-16.799 L 0.294495,-16.7562 L 0.198944,-16.7251
 L 0.100266,-16.7063 L 0,-16.7 z
M -15,15 L -15,-15 L 15,-15 L 15,15 z
M -0.100266,18.2937 L -0.198944,18.2749 L -0.294495,18.2438 L -0.385391,18.201 L -0.470215,18.1472 L -0.547623,18.0832
 L -0.616409,18.0099 L -0.675461,17.9286 L -0.723846,17.8406 L -0.760834,17.7472 L -0.785828,17.6499 L -0.798416,17.5502
 L -0.798416,17.4498 L -0.785828,17.3501 L -0.760834,17.2528 L -0.723846,17.1594 L -0.675461,17.0713 L -0.616409,16.9901
 L -0.547623,16.9168 L -0.470215,16.8528 L -0.385391,16.799 L -0.294495,16.7562 L -0.198944,16.7251 L -0.100266,16.7063
 L 0,16.7 L 0.100266,16.7063 L 0.198944,16.7251 L 0.294495,16.7562 L 0.385391,16.799 L 0.470215,16.8528
 L 0.547623,16.9168 L 0.616409,16.9901 L 0.675461,17.0713 L 0.723846,17.1594 L 0.760834,17.2528 L 0.785828,17.3501
 L 0.798416,17.4498 L 0.798416,17.5502 L 0.785828,17.6499 L 0.760834,17.7472 L 0.723846,17.8406 L 0.675461,17.9286
 L 0.616409,18.0099 L 0.547623,18.0832 L 0.470215,18.1472 L 0.385391,18.201 L 0.294495,18.2438 L 0.198944,18.2749
 L 0.100266,18.2937 L 0,18.3 z
M 274,-24 L 226,-24 L 226,24 L 274,24 z
M 248.156,3.82912 L 246.677,2.64983 L 245.857,0.945709 L 245.857,-0.945709 L 246.677,-2.64983 L 248.156,-3.82912
 L 250,-4.25 L 251.844,-3.82912 L 253.323,-2.64983 L 254.143,-0.945709 L 254.143,0.945709 L 253.323,2.64983
 L 251.844,3.82912 L 250,4.25 z
" stroke="black" fill="lightgray" stroke-width="0.5"/>
</svg>
