  0
SECTION
  2
BLOCKS
  0
ENDSEC
  0
SECTION
  2
ENTITIES
  0
LINE
  8
0
 10
225.8
 20
629.5
 11
191.8
 21
629.5
  0
LINE
  8
0
 10
191.8
 20
629.5
 11
191.8
 21
534.5
  0
LINE
  8
0
 10
191.8
 20
534.5
 11
225.8
 21
534.5
  0
LINE
  8
0
 10
225.8
 20
534.5
 11
225.8
 21
629.5
  0
LINE
  8
0
 10
185.2
 20
629.5
 11
151.2
 21
629.5
  0
LINE
  8
0
 10
151.2
 20
629.5
 11
151.2
 21
534.5
  0
LINE
  8
0
 10
151.2
 20
534.5
 11
185.2
 21
534.5
  0
LINE
  8
0
 10
185.2
 20
534.5
 11
185.2
 21
629.5
  0
LINE
  8
0
 10
144
 20
629.5
 11
88
 21
629.5
  0
LINE
  8
0
 10
88
 20
629.5
 11
88
 21
534.5
  0
LINE
  8
0
 10
88
 20
534.5
 11
144
 21
534.5
  0
LINE
  8
0
 10
144
 20
534.5
 11
144
 21
629.5
  0
LINE
  8
0
 10
84
 20
629.5
 11
28
 21
629.5
  0
LINE
  8
0
 10
28
 20
629.5
 11
28
 21
534.5
  0
LINE
  8
0
 10
28
 20
534.5
 11
84
 21
534.5
  0
LINE
  8
0
 10
84
 20
534.5
 11
84
 21
629.5
  0
LINE
  8
0
 10
225.8
 20
532.5
 11
191.8
 21
532.5
  0
LINE
  8
0
 10
191.8
 20
532.5
 11
191.8
 21
437.5
  0
LINE
  8
0
 10
191.8
 20
437.5
 11
225.8
 21
437.5
  0
LINE
  8
0
 10
225.8
 20
437.5
 11
225.8
 21
532.5
  0
LINE
  8
0
 10
185.2
 20
532.5
 11
151.2
 21
532.5
  0
LINE
  8
0
 10
151.2
 20
532.5
 11
151.2
 21
437.5
  0
LINE
  8
0
 10
151.2
 20
437.5
 11
185.2
 21
437.5
  0
LINE
  8
0
 10
185.2
 20
437.5
 11
185.2
 21
532.5
  0
LINE
  8
0
 10
144
 20
532.5
 11
88
 21
532.5
  0
LINE
  8
0
 10
88
 20
532.5
 11
88
 21
437.5
  0
LINE
  8
0
 10
88
 20
437.5
 11
144
 21
437.5
  0
LINE
  8
0
 10
144
 20
437.5
 11
144
 21
532.5
  0
LINE
  8
0
 10
84
 20
532.5
 11
28
 21
532.5
  0
LINE
  8
0
 10
28
 20
532.5
 11
28
 21
437.5
  0
LINE
  8
0
 10
28
 20
437.5
 11
84
 21
437.5
  0
LINE
  8
0
 10
84
 20
437.5
 11
84
 21
532.5
  0
LINE
  8
0
 10
225.8
 20
435.5
 11
191.8
 21
435.5
  0
LINE
  8
0
 10
191.8
 20
435.5
 11
191.8
 21
340.5
  0
LINE
  8
0
 10
191.8
 20
340.5
 11
225.8
 21
340.5
  0
LINE
  8
0
 10
225.8
 20
340.5
 11
225.8
 21
435.5
  0
LINE
  8
0
 10
185.2
 20
435.5
 11
151.2
 21
435.5
  0
LINE
  8
0
 10
151.2
 20
435.5
 11
151.2
 21
340.5
  0
LINE
  8
0
 10
151.2
 20
340.5
 11
185.2
 21
340.5
  0
LINE
  8
0
 10
185.2
 20
340.5
 11
185.2
 21
435.5
  0
LINE
  8
0
 10
144
 20
435.5
 11
88
 21
435.5
  0
LINE
  8
0
 10
88
 20
435.5
 11
88
 21
340.5
  0
LINE
  8
0
 10
88
 20
340.5
 11
144
 21
340.5
  0
LINE
  8
0
 10
144
 20
340.5
 11
144
 21
435.5
  0
LINE
  8
0
 10
84
 20
435.5
 11
28
 21
435.5
  0
LINE
  8
0
 10
28
 20
435.5
 11
28
 21
340.5
  0
LINE
  8
0
 10
28
 20
340.5
 11
84
 21
340.5
  0
LINE
  8
0
 10
84
 20
340.5
 11
84
 21
435.5
  0
LINE
  8
0
 10
19
 20
376
 11
-19
 21
376
  0
LINE
  8
0
 10
-19
 20
376
 11
-19
 21
320
  0
LINE
  8
0
 10
-19
 20
320
 11
19
 21
320
  0
LINE
  8
0
 10
19
 20
320
 11
19
 21
376
  0
LINE
  8
0
 10
-0.100266
 20
364.706
 11
-0.198944
 21
364.725
  0
LINE
  8
0
 10
-0.198944
 20
364.725
 11
-0.294495
 21
364.756
  0
LINE
  8
0
 10
-0.294495
 20
364.756
 11
-0.385391
 21
364.799
  0
LINE
  8
0
 10
-0.385391
 20
364.799
 11
-0.470215
 21
364.853
  0
LINE
  8
0
 10
-0.470215
 20
364.853
 11
-0.547623
 21
364.917
  0
LINE
  8
0
 10
-0.547623
 20
364.917
 11
-0.616409
 21
364.99
  0
LINE
  8
0
 10
-0.616409
 20
364.99
 11
-0.675461
 21
365.071
  0
LINE
  8
0
 10
-0.675461
 20
365.071
 11
-0.723846
 21
365.159
  0
LINE
  8
0
 10
-0.723846
 20
365.159
 11
-0.760834
 21
365.253
  0
LINE
  8
0
 10
-0.760834
 20
365.253
 11
-0.785828
 21
365.35
  0
LINE
  8
0
 10
-0.785828
 20
365.35
 11
-0.798416
 21
365.45
  0
LINE
  8
0
 10
-0.798416
 20
365.45
 11
-0.798416
 21
365.55
  0
LINE
  8
0
 10
-0.798416
 20
365.55
 11
-0.785828
 21
365.65
  0
LINE
  8
0
 10
-0.785828
 20
365.65
 11
-0.760834
 21
365.747
  0
LINE
  8
0
 10
-0.760834
 20
365.747
 11
-0.723846
 21
365.841
  0
LINE
  8
0
 10
-0.723846
 20
365.841
 11
-0.675461
 21
365.929
  0
LINE
  8
0
 10
-0.675461
 20
365.929
 11
-0.616409
 21
366.01
  0
LINE
  8
0
 10
-0.616409
 20
366.01
 11
-0.547623
 21
366.083
  0
LINE
  8
0
 10
-0.547623
 20
366.083
 11
-0.470215
 21
366.147
  0
LINE
  8
0
 10
-0.470215
 20
366.147
 11
-0.385391
 21
366.201
  0
LINE
  8
0
 10
-0.385391
 20
366.201
 11
-0.294495
 21
366.244
  0
LINE
  8
0
 10
-0.294495
 20
366.244
 11
-0.198944
 21
366.275
  0
LINE
  8
0
 10
-0.198944
 20
366.275
 11
-0.100266
 21
366.294
  0
LINE
  8
0
 10
-0.100266
 20
366.294
 11
0
 21
366.3
  0
LINE
  8
0
 10
0
 20
366.3
 11
0.100266
 21
366.294
  0
LINE
  8
0
 10
0.100266
 20
366.294
 11
0.198944
 21
366.275
  0
LINE
  8
0
 10
0.198944
 20
366.275
 11
0.294495
 21
366.244
  0
LINE
  8
0
 10
0.294495
 20
366.244
 11
0.385391
 21
366.201
  0
LINE
  8
0
 10
0.385391
 20
366.201
 11
0.470215
 21
366.147
  0
LINE
  8
0
 10
0.470215
 20
366.147
 11
0.547623
 21
366.083
  0
LINE
  8
0
 10
0.547623
 20
366.083
 11
0.616409
 21
366.01
  0
LINE
  8
0
 10
0.616409
 20
366.01
 11
0.675461
 21
365.929
  0
LINE
  8
0
 10
0.675461
 20
365.929
 11
0.723846
 21
365.841
  0
LINE
  8
0
 10
0.723846
 20
365.841
 11
0.760834
 21
365.747
  0
LINE
  8
0
 10
0.760834
 20
365.747
 11
0.785828
 21
365.65
  0
LINE
  8
0
 10
0.785828
 20
365.65
 11
0.798416
 21
365.55
  0
LINE
  8
0
 10
0.798416
 20
365.55
 11
0.798416
 21
365.45
  0
LINE
  8
0
 10
0.798416
 20
365.45
 11
0.785828
 21
365.35
  0
LINE
  8
0
 10
0.785828
 20
365.35
 11
0.760834
 21
365.253
  0
LINE
  8
0
 10
0.760834
 20
365.253
 11
0.723846
 21
365.159
  0
LINE
  8
0
 10
0.723846
 20
365.159
 11
0.675461
 21
365.071
  0
LINE
  8
0
 10
0.675461
 20
365.071
 11
0.616409
 21
364.99
  0
LINE
  8
0
 10
0.616409
 20
364.99
 11
0.547623
 21
364.917
  0
LINE
  8
0
 10
0.547623
 20
364.917
 11
0.470215
 21
364.853
  0
LINE
  8
0
 10
0.470215
 20
364.853
 11
0.385391
 21
364.799
  0
LINE
  8
0
 10
0.385391
 20
364.799
 11
0.294495
 21
364.756
  0
LINE
  8
0
 10
0.294495
 20
364.756
 11
0.198944
 21
364.725
  0
LINE
  8
0
 10
0.198944
 20
364.725
 11
0.100266
 21
364.706
  0
LINE
  8
0
 10
0.100266
 20
364.706
 11
0
 21
364.7
  0
LINE
  8
0
 10
0
 20
364.7
 11
-0.100266
 21
364.706
  0
LINE
  8
0
 10
-15
 20
333
 11
-15
 21
363
  0
LINE
  8
0
 10
-15
 20
363
 11
15
 21
363
  0
LINE
  8
0
 10
15
 20
363
 11
15
 21
333
  0
LINE
  8
0
 10
15
 20
333
 11
-15
 21
333
  0
LINE
  8
0
 10
-0.100266
 20
329.706
 11
-0.198944
 21
329.725
  0
LINE
  8
0
 10
-0.198944
 20
329.725
 11
-0.294495
 21
329.756
  0
LINE
  8
0
 10
-0.294495
 20
329.756
 11
-0.385391
 21
329.799
  0
LINE
  8
0
 10
-0.385391
 20
329.799
 11
-0.470215
 21
329.853
  0
LINE
  8
0
 10
-0.470215
 20
329.853
 11
-0.547623
 21
329.917
  0
LINE
  8
0
 10
-0.547623
 20
329.917
 11
-0.616409
 21
329.99
  0
LINE
  8
0
 10
-0.616409
 20
329.99
 11
-0.675461
 21
330.071
  0
LINE
  8
0
 10
-0.675461
 20
330.071
 11
-0.723846
 21
330.159
  0
LINE
  8
0
 10
-0.723846
 20
330.159
 11
-0.760834
 21
330.253
  0
LINE
  8
0
 10
-0.760834
 20
330.253
 11
-0.785828
 21
330.35
  0
LINE
  8
0
 10
-0.785828
 20
330.35
 11
-0.798416
 21
330.45
  0
LINE
  8
0
 10
-0.798416
 20
330.45
 11
-0.798416
 21
330.55
  0
LINE
  8
0
 10
-0.798416
 20
330.55
 11
-0.785828
 21
330.65
  0
LINE
  8
0
 10
-0.785828
 20
330.65
 11
-0.760834
 21
330.747
  0
LINE
  8
0
 10
-0.760834
 20
330.747
 11
-0.723846
 21
330.841
  0
LINE
  8
0
 10
-0.723846
 20
330.841
 11
-0.675461
 21
330.929
  0
LINE
  8
0
 10
-0.675461
 20
330.929
 11
-0.616409
 21
331.01
  0
LINE
  8
0
 10
-0.616409
 20
331.01
 11
-0.547623
 21
331.083
  0
LINE
  8
0
 10
-0.547623
 20
331.083
 11
-0.470215
 21
331.147
  0
LINE
  8
0
 10
-0.470215
 20
331.147
 11
-0.385391
 21
331.201
  0
LINE
  8
0
 10
-0.385391
 20
331.201
 11
-0.294495
 21
331.244
  0
LINE
  8
0
 10
-0.294495
 20
331.244
 11
-0.198944
 21
331.275
  0
LINE
  8
0
 10
-0.198944
 20
331.275
 11
-0.100266
 21
331.294
  0
LINE
  8
0
 10
-0.100266
 20
331.294
 11
0
 21
331.3
  0
LINE
  8
0
 10
0
 20
331.3
 11
0.100266
 21
331.294
  0
LINE
  8
0
 10
0.100266
 20
331.294
 11
0.198944
 21
331.275
  0
LINE
  8
0
 10
0.198944
 20
331.275
 11
0.294495
 21
331.244
  0
LINE
  8
0
 10
0.294495
 20
331.244
 11
0.385391
 21
331.201
  0
LINE
  8
0
 10
0.385391
 20
331.201
 11
0.470215
 21
331.147
  0
LINE
  8
0
 10
0.470215
 20
331.147
 11
0.547623
 21
331.083
  0
LINE
  8
0
 10
0.547623
 20
331.083
 11
0.616409
 21
331.01
  0
LINE
  8
0
 10
0.616409
 20
331.01
 11
0.675461
 21
330.929
  0
LINE
  8
0
 10
0.675461
 20
330.929
 11
0.723846
 21
330.841
  0
LINE
  8
0
 10
0.723846
 20
330.841
 11
0.760834
 21
330.747
  0
LINE
  8
0
 10
0.760834
 20
330.747
 11
0.785828
 21
330.65
  0
LINE
  8
0
 10
0.785828
 20
330.65
 11
0.798416
 21
330.55
  0
LINE
  8
0
 10
0.798416
 20
330.55
 11
0.798416
 21
330.45
  0
LINE
  8
0
 10
0.798416
 20
330.45
 11
0.785828
 21
330.35
  0
LINE
  8
0
 10
0.785828
 20
330.35
 11
0.760834
 21
330.253
  0
LINE
  8
0
 10
0.760834
 20
330.253
 11
0.723846
 21
330.159
  0
LINE
  8
0
 10
0.723846
 20
330.159
 11
0.675461
 21
330.071
  0
LINE
  8
0
 10
0.675461
 20
330.071
 11
0.616409
 21
329.99
  0
LINE
  8
0
 10
0.616409
 20
329.99
 11
0.547623
 21
329.917
  0
LINE
  8
0
 10
0.547623
 20
329.917
 11
0.470215
 21
329.853
  0
LINE
  8
0
 10
0.470215
 20
329.853
 11
0.385391
 21
329.799
  0
LINE
  8
0
 10
0.385391
 20
329.799
 11
0.294495
 21
329.756
  0
LINE
  8
0
 10
0.294495
 20
329.756
 11
0.198944
 21
329.725
  0
LINE
  8
0
 10
0.198944
 20
329.725
 11
0.100266
 21
329.706
  0
LINE
  8
0
 10
0.100266
 20
329.706
 11
0
 21
329.7
  0
LINE
  8
0
 10
0
 20
329.7
 11
-0.100266
 21
329.706
  0
LINE
  8
0
 10
268.4
 20
376
 11
230.4
 21
376
  0
LINE
  8
0
 10
230.4
 20
376
 11
230.4
 21
320
  0
LINE
  8
0
 10
230.4
 20
320
 11
268.4
 21
320
  0
LINE
  8
0
 10
268.4
 20
320
 11
268.4
 21
376
  0
LINE
  8
0
 10
235.15
 20
325.5
 11
235.15
 21
370.5
  0
LINE
  8
0
 10
235.15
 20
370.5
 11
263.65
 21
370.5
  0
LINE
  8
0
 10
263.65
 20
370.5
 11
263.65
 21
325.5
  0
LINE
  8
0
 10
263.65
 20
325.5
 11
235.15
 21
325.5
  0
LINE
  8
0
 10
84
 20
338.5
 11
28
 21
338.5
  0
LINE
  8
0
 10
28
 20
338.5
 11
28
 21
243.5
  0
LINE
  8
0
 10
28
 20
243.5
 11
84
 21
243.5
  0
LINE
  8
0
 10
84
 20
243.5
 11
84
 21
338.5
  0
LINE
  8
0
 10
185.2
 20
338.5
 11
151.2
 21
338.5
  0
LINE
  8
0
 10
151.2
 20
338.5
 11
151.2
 21
243.5
  0
LINE
  8
0
 10
151.2
 20
243.5
 11
185.2
 21
243.5
  0
LINE
  8
0
 10
185.2
 20
243.5
 11
185.2
 21
338.5
  0
LINE
  8
0
 10
144
 20
338.5
 11
88
 21
338.5
  0
LINE
  8
0
 10
88
 20
338.5
 11
88
 21
243.5
  0
LINE
  8
0
 10
88
 20
243.5
 11
144
 21
243.5
  0
LINE
  8
0
 10
144
 20
243.5
 11
144
 21
338.5
  0
LINE
  8
0
 10
225.8
 20
338.5
 11
191.8
 21
338.5
  0
LINE
  8
0
 10
191.8
 20
338.5
 11
191.8
 21
243.5
  0
LINE
  8
0
 10
191.8
 20
243.5
 11
225.8
 21
243.5
  0
LINE
  8
0
 10
225.8
 20
243.5
 11
225.8
 21
338.5
  0
LINE
  8
0
 10
19
 20
318
 11
-19
 21
318
  0
LINE
  8
0
 10
-19
 20
318
 11
-19
 21
262
  0
LINE
  8
0
 10
-19
 20
262
 11
19
 21
262
  0
LINE
  8
0
 10
19
 20
262
 11
19
 21
318
  0
LINE
  8
0
 10
-0.100266
 20
306.706
 11
-0.198944
 21
306.725
  0
LINE
  8
0
 10
-0.198944
 20
306.725
 11
-0.294495
 21
306.756
  0
LINE
  8
0
 10
-0.294495
 20
306.756
 11
-0.385391
 21
306.799
  0
LINE
  8
0
 10
-0.385391
 20
306.799
 11
-0.470215
 21
306.853
  0
LINE
  8
0
 10
-0.470215
 20
306.853
 11
-0.547623
 21
306.917
  0
LINE
  8
0
 10
-0.547623
 20
306.917
 11
-0.616409
 21
306.99
  0
LINE
  8
0
 10
-0.616409
 20
306.99
 11
-0.675461
 21
307.071
  0
LINE
  8
0
 10
-0.675461
 20
307.071
 11
-0.723846
 21
307.159
  0
LINE
  8
0
 10
-0.723846
 20
307.159
 11
-0.760834
 21
307.253
  0
LINE
  8
0
 10
-0.760834
 20
307.253
 11
-0.785828
 21
307.35
  0
LINE
  8
0
 10
-0.785828
 20
307.35
 11
-0.798416
 21
307.45
  0
LINE
  8
0
 10
-0.798416
 20
307.45
 11
-0.798416
 21
307.55
  0
LINE
  8
0
 10
-0.798416
 20
307.55
 11
-0.785828
 21
307.65
  0
LINE
  8
0
 10
-0.785828
 20
307.65
 11
-0.760834
 21
307.747
  0
LINE
  8
0
 10
-0.760834
 20
307.747
 11
-0.723846
 21
307.841
  0
LINE
  8
0
 10
-0.723846
 20
307.841
 11
-0.675461
 21
307.929
  0
LINE
  8
0
 10
-0.675461
 20
307.929
 11
-0.616409
 21
308.01
  0
LINE
  8
0
 10
-0.616409
 20
308.01
 11
-0.547623
 21
308.083
  0
LINE
  8
0
 10
-0.547623
 20
308.083
 11
-0.470215
 21
308.147
  0
LINE
  8
0
 10
-0.470215
 20
308.147
 11
-0.385391
 21
308.201
  0
LINE
  8
0
 10
-0.385391
 20
308.201
 11
-0.294495
 21
308.244
  0
LINE
  8
0
 10
-0.294495
 20
308.244
 11
-0.198944
 21
308.275
  0
LINE
  8
0
 10
-0.198944
 20
308.275
 11
-0.100266
 21
308.294
  0
LINE
  8
0
 10
-0.100266
 20
308.294
 11
0
 21
308.3
  0
LINE
  8
0
 10
0
 20
308.3
 11
0.100266
 21
308.294
  0
LINE
  8
0
 10
0.100266
 20
308.294
 11
0.198944
 21
308.275
  0
LINE
  8
0
 10
0.198944
 20
308.275
 11
0.294495
 21
308.244
  0
LINE
  8
0
 10
0.294495
 20
308.244
 11
0.385391
 21
308.201
  0
LINE
  8
0
 10
0.385391
 20
308.201
 11
0.470215
 21
308.147
  0
LINE
  8
0
 10
0.470215
 20
308.147
 11
0.547623
 21
308.083
  0
LINE
  8
0
 10
0.547623
 20
308.083
 11
0.616409
 21
308.01
  0
LINE
  8
0
 10
0.616409
 20
308.01
 11
0.675461
 21
307.929
  0
LINE
  8
0
 10
0.675461
 20
307.929
 11
0.723846
 21
307.841
  0
LINE
  8
0
 10
0.723846
 20
307.841
 11
0.760834
 21
307.747
  0
LINE
  8
0
 10
0.760834
 20
307.747
 11
0.785828
 21
307.65
  0
LINE
  8
0
 10
0.785828
 20
307.65
 11
0.798416
 21
307.55
  0
LINE
  8
0
 10
0.798416
 20
307.55
 11
0.798416
 21
307.45
  0
LINE
  8
0
 10
0.798416
 20
307.45
 11
0.785828
 21
307.35
  0
LINE
  8
0
 10
0.785828
 20
307.35
 11
0.760834
 21
307.253
  0
LINE
  8
0
 10
0.760834
 20
307.253
 11
0.723846
 21
307.159
  0
LINE
  8
0
 10
0.723846
 20
307.159
 11
0.675461
 21
307.071
  0
LINE
  8
0
 10
0.675461
 20
307.071
 11
0.616409
 21
306.99
  0
LINE
  8
0
 10
0.616409
 20
306.99
 11
0.547623
 21
306.917
  0
LINE
  8
0
 10
0.547623
 20
306.917
 11
0.470215
 21
306.853
  0
LINE
  8
0
 10
0.470215
 20
306.853
 11
0.385391
 21
306.799
  0
LINE
  8
0
 10
0.385391
 20
306.799
 11
0.294495
 21
306.756
  0
LINE
  8
0
 10
0.294495
 20
306.756
 11
0.198944
 21
306.725
  0
LINE
  8
0
 10
0.198944
 20
306.725
 11
0.100266
 21
306.706
  0
LINE
  8
0
 10
0.100266
 20
306.706
 11
0
 21
306.7
  0
LINE
  8
0
 10
0
 20
306.7
 11
-0.100266
 21
306.706
  0
LINE
  8
0
 10
-15
 20
275
 11
-15
 21
305
  0
LINE
  8
0
 10
-15
 20
305
 11
15
 21
305
  0
LINE
  8
0
 10
15
 20
305
 11
15
 21
275
  0
LINE
  8
0
 10
15
 20
275
 11
-15
 21
275
  0
LINE
  8
0
 10
-0.100266
 20
271.706
 11
-0.198944
 21
271.725
  0
LINE
  8
0
 10
-0.198944
 20
271.725
 11
-0.294495
 21
271.756
  0
LINE
  8
0
 10
-0.294495
 20
271.756
 11
-0.385391
 21
271.799
  0
LINE
  8
0
 10
-0.385391
 20
271.799
 11
-0.470215
 21
271.853
  0
LINE
  8
0
 10
-0.470215
 20
271.853
 11
-0.547623
 21
271.917
  0
LINE
  8
0
 10
-0.547623
 20
271.917
 11
-0.616409
 21
271.99
  0
LINE
  8
0
 10
-0.616409
 20
271.99
 11
-0.675461
 21
272.071
  0
LINE
  8
0
 10
-0.675461
 20
272.071
 11
-0.723846
 21
272.159
  0
LINE
  8
0
 10
-0.723846
 20
272.159
 11
-0.760834
 21
272.253
  0
LINE
  8
0
 10
-0.760834
 20
272.253
 11
-0.785828
 21
272.35
  0
LINE
  8
0
 10
-0.785828
 20
272.35
 11
-0.798416
 21
272.45
  0
LINE
  8
0
 10
-0.798416
 20
272.45
 11
-0.798416
 21
272.55
  0
LINE
  8
0
 10
-0.798416
 20
272.55
 11
-0.785828
 21
272.65
  0
LINE
  8
0
 10
-0.785828
 20
272.65
 11
-0.760834
 21
272.747
  0
LINE
  8
0
 10
-0.760834
 20
272.747
 11
-0.723846
 21
272.841
  0
LINE
  8
0
 10
-0.723846
 20
272.841
 11
-0.675461
 21
272.929
  0
LINE
  8
0
 10
-0.675461
 20
272.929
 11
-0.616409
 21
273.01
  0
LINE
  8
0
 10
-0.616409
 20
273.01
 11
-0.547623
 21
273.083
  0
LINE
  8
0
 10
-0.547623
 20
273.083
 11
-0.470215
 21
273.147
  0
LINE
  8
0
 10
-0.470215
 20
273.147
 11
-0.385391
 21
273.201
  0
LINE
  8
0
 10
-0.385391
 20
273.201
 11
-0.294495
 21
273.244
  0
LINE
  8
0
 10
-0.294495
 20
273.244
 11
-0.198944
 21
273.275
  0
LINE
  8
0
 10
-0.198944
 20
273.275
 11
-0.100266
 21
273.294
  0
LINE
  8
0
 10
-0.100266
 20
273.294
 11
0
 21
273.3
  0
LINE
  8
0
 10
0
 20
273.3
 11
0.100266
 21
273.294
  0
LINE
  8
0
 10
0.100266
 20
273.294
 11
0.198944
 21
273.275
  0
LINE
  8
0
 10
0.198944
 20
273.275
 11
0.294495
 21
273.244
  0
LINE
  8
0
 10
0.294495
 20
273.244
 11
0.385391
 21
273.201
  0
LINE
  8
0
 10
0.385391
 20
273.201
 11
0.470215
 21
273.147
  0
LINE
  8
0
 10
0.470215
 20
273.147
 11
0.547623
 21
273.083
  0
LINE
  8
0
 10
0.547623
 20
273.083
 11
0.616409
 21
273.01
  0
LINE
  8
0
 10
0.616409
 20
273.01
 11
0.675461
 21
272.929
  0
LINE
  8
0
 10
0.675461
 20
272.929
 11
0.723846
 21
272.841
  0
LINE
  8
0
 10
0.723846
 20
272.841
 11
0.760834
 21
272.747
  0
LINE
  8
0
 10
0.760834
 20
272.747
 11
0.785828
 21
272.65
  0
LINE
  8
0
 10
0.785828
 20
272.65
 11
0.798416
 21
272.55
  0
LINE
  8
0
 10
0.798416
 20
272.55
 11
0.798416
 21
272.45
  0
LINE
  8
0
 10
0.798416
 20
272.45
 11
0.785828
 21
272.35
  0
LINE
  8
0
 10
0.785828
 20
272.35
 11
0.760834
 21
272.253
  0
LINE
  8
0
 10
0.760834
 20
272.253
 11
0.723846
 21
272.159
  0
LINE
  8
0
 10
0.723846
 20
272.159
 11
0.675461
 21
272.071
  0
LINE
  8
0
 10
0.675461
 20
272.071
 11
0.616409
 21
271.99
  0
LINE
  8
0
 10
0.616409
 20
271.99
 11
0.547623
 21
271.917
  0
LINE
  8
0
 10
0.547623
 20
271.917
 11
0.470215
 21
271.853
  0
LINE
  8
0
 10
0.470215
 20
271.853
 11
0.385391
 21
271.799
  0
LINE
  8
0
 10
0.385391
 20
271.799
 11
0.294495
 21
271.756
  0
LINE
  8
0
 10
0.294495
 20
271.756
 11
0.198944
 21
271.725
  0
LINE
  8
0
 10
0.198944
 20
271.725
 11
0.100266
 21
271.706
  0
LINE
  8
0
 10
0.100266
 20
271.706
 11
0
 21
271.7
  0
LINE
  8
0
 10
0
 20
271.7
 11
-0.100266
 21
271.706
  0
LINE
  8
0
 10
268.4
 20
318
 11
230.4
 21
318
  0
LINE
  8
0
 10
230.4
 20
318
 11
230.4
 21
262
  0
LINE
  8
0
 10
230.4
 20
262
 11
268.4
 21
262
  0
LINE
  8
0
 10
268.4
 20
262
 11
268.4
 21
318
  0
LINE
  8
0
 10
235.15
 20
267.5
 11
235.15
 21
312.5
  0
LINE
  8
0
 10
235.15
 20
312.5
 11
263.65
 21
312.5
  0
LINE
  8
0
 10
263.65
 20
312.5
 11
263.65
 21
267.5
  0
LINE
  8
0
 10
263.65
 20
267.5
 11
235.15
 21
267.5
  0
LINE
  8
0
 10
19
 20
260
 11
-19
 21
260
  0
LINE
  8
0
 10
-19
 20
260
 11
-19
 21
204
  0
LINE
  8
0
 10
-19
 20
204
 11
19
 21
204
  0
LINE
  8
0
 10
19
 20
204
 11
19
 21
260
  0
LINE
  8
0
 10
-0.100266
 20
248.706
 11
-0.198944
 21
248.725
  0
LINE
  8
0
 10
-0.198944
 20
248.725
 11
-0.294495
 21
248.756
  0
LINE
  8
0
 10
-0.294495
 20
248.756
 11
-0.385391
 21
248.799
  0
LINE
  8
0
 10
-0.385391
 20
248.799
 11
-0.470215
 21
248.853
  0
LINE
  8
0
 10
-0.470215
 20
248.853
 11
-0.547623
 21
248.917
  0
LINE
  8
0
 10
-0.547623
 20
248.917
 11
-0.616409
 21
248.99
  0
LINE
  8
0
 10
-0.616409
 20
248.99
 11
-0.675461
 21
249.071
  0
LINE
  8
0
 10
-0.675461
 20
249.071
 11
-0.723846
 21
249.159
  0
LINE
  8
0
 10
-0.723846
 20
249.159
 11
-0.760834
 21
249.253
  0
LINE
  8
0
 10
-0.760834
 20
249.253
 11
-0.785828
 21
249.35
  0
LINE
  8
0
 10
-0.785828
 20
249.35
 11
-0.798416
 21
249.45
  0
LINE
  8
0
 10
-0.798416
 20
249.45
 11
-0.798416
 21
249.55
  0
LINE
  8
0
 10
-0.798416
 20
249.55
 11
-0.785828
 21
249.65
  0
LINE
  8
0
 10
-0.785828
 20
249.65
 11
-0.760834
 21
249.747
  0
LINE
  8
0
 10
-0.760834
 20
249.747
 11
-0.723846
 21
249.841
  0
LINE
  8
0
 10
-0.723846
 20
249.841
 11
-0.675461
 21
249.929
  0
LINE
  8
0
 10
-0.675461
 20
249.929
 11
-0.616409
 21
250.01
  0
LINE
  8
0
 10
-0.616409
 20
250.01
 11
-0.547623
 21
250.083
  0
LINE
  8
0
 10
-0.547623
 20
250.083
 11
-0.470215
 21
250.147
  0
LINE
  8
0
 10
-0.470215
 20
250.147
 11
-0.385391
 21
250.201
  0
LINE
  8
0
 10
-0.385391
 20
250.201
 11
-0.294495
 21
250.244
  0
LINE
  8
0
 10
-0.294495
 20
250.244
 11
-0.198944
 21
250.275
  0
LINE
  8
0
 10
-0.198944
 20
250.275
 11
-0.100266
 21
250.294
  0
LINE
  8
0
 10
-0.100266
 20
250.294
 11
0
 21
250.3
  0
LINE
  8
0
 10
0
 20
250.3
 11
0.100266
 21
250.294
  0
LINE
  8
0
 10
0.100266
 20
250.294
 11
0.198944
 21
250.275
  0
LINE
  8
0
 10
0.198944
 20
250.275
 11
0.294495
 21
250.244
  0
LINE
  8
0
 10
0.294495
 20
250.244
 11
0.385391
 21
250.201
  0
LINE
  8
0
 10
0.385391
 20
250.201
 11
0.470215
 21
250.147
  0
LINE
  8
0
 10
0.470215
 20
250.147
 11
0.547623
 21
250.083
  0
LINE
  8
0
 10
0.547623
 20
250.083
 11
0.616409
 21
250.01
  0
LINE
  8
0
 10
0.616409
 20
250.01
 11
0.675461
 21
249.929
  0
LINE
  8
0
 10
0.675461
 20
249.929
 11
0.723846
 21
249.841
  0
LINE
  8
0
 10
0.723846
 20
249.841
 11
0.760834
 21
249.747
  0
LINE
  8
0
 10
0.760834
 20
249.747
 11
0.785828
 21
249.65
  0
LINE
  8
0
 10
0.785828
 20
249.65
 11
0.798416
 21
249.55
  0
LINE
  8
0
 10
0.798416
 20
249.55
 11
0.798416
 21
249.45
  0
LINE
  8
0
 10
0.798416
 20
249.45
 11
0.785828
 21
249.35
  0
LINE
  8
0
 10
0.785828
 20
249.35
 11
0.760834
 21
249.253
  0
LINE
  8
0
 10
0.760834
 20
249.253
 11
0.723846
 21
249.159
  0
LINE
  8
0
 10
0.723846
 20
249.159
 11
0.675461
 21
249.071
  0
LINE
  8
0
 10
0.675461
 20
249.071
 11
0.616409
 21
248.99
  0
LINE
  8
0
 10
0.616409
 20
248.99
 11
0.547623
 21
248.917
  0
LINE
  8
0
 10
0.547623
 20
248.917
 11
0.470215
 21
248.853
  0
LINE
  8
0
 10
0.470215
 20
248.853
 11
0.385391
 21
248.799
  0
LINE
  8
0
 10
0.385391
 20
248.799
 11
0.294495
 21
248.756
  0
LINE
  8
0
 10
0.294495
 20
248.756
 11
0.198944
 21
248.725
  0
LINE
  8
0
 10
0.198944
 20
248.725
 11
0.100266
 21
248.706
  0
LINE
  8
0
 10
0.100266
 20
248.706
 11
0
 21
248.7
  0
LINE
  8
0
 10
0
 20
248.7
 11
-0.100266
 21
248.706
  0
LINE
  8
0
 10
-15
 20
217
 11
-15
 21
247
  0
LINE
  8
0
 10
-15
 20
247
 11
15
 21
247
  0
LINE
  8
0
 10
15
 20
247
 11
15
 21
217
  0
LINE
  8
0
 10
15
 20
217
 11
-15
 21
217
  0
LINE
  8
0
 10
-0.100266
 20
213.706
 11
-0.198944
 21
213.725
  0
LINE
  8
0
 10
-0.198944
 20
213.725
 11
-0.294495
 21
213.756
  0
LINE
  8
0
 10
-0.294495
 20
213.756
 11
-0.385391
 21
213.799
  0
LINE
  8
0
 10
-0.385391
 20
213.799
 11
-0.470215
 21
213.853
  0
LINE
  8
0
 10
-0.470215
 20
213.853
 11
-0.547623
 21
213.917
  0
LINE
  8
0
 10
-0.547623
 20
213.917
 11
-0.616409
 21
213.99
  0
LINE
  8
0
 10
-0.616409
 20
213.99
 11
-0.675461
 21
214.071
  0
LINE
  8
0
 10
-0.675461
 20
214.071
 11
-0.723846
 21
214.159
  0
LINE
  8
0
 10
-0.723846
 20
214.159
 11
-0.760834
 21
214.253
  0
LINE
  8
0
 10
-0.760834
 20
214.253
 11
-0.785828
 21
214.35
  0
LINE
  8
0
 10
-0.785828
 20
214.35
 11
-0.798416
 21
214.45
  0
LINE
  8
0
 10
-0.798416
 20
214.45
 11
-0.798416
 21
214.55
  0
LINE
  8
0
 10
-0.798416
 20
214.55
 11
-0.785828
 21
214.65
  0
LINE
  8
0
 10
-0.785828
 20
214.65
 11
-0.760834
 21
214.747
  0
LINE
  8
0
 10
-0.760834
 20
214.747
 11
-0.723846
 21
214.841
  0
LINE
  8
0
 10
-0.723846
 20
214.841
 11
-0.675461
 21
214.929
  0
LINE
  8
0
 10
-0.675461
 20
214.929
 11
-0.616409
 21
215.01
  0
LINE
  8
0
 10
-0.616409
 20
215.01
 11
-0.547623
 21
215.083
  0
LINE
  8
0
 10
-0.547623
 20
215.083
 11
-0.470215
 21
215.147
  0
LINE
  8
0
 10
-0.470215
 20
215.147
 11
-0.385391
 21
215.201
  0
LINE
  8
0
 10
-0.385391
 20
215.201
 11
-0.294495
 21
215.244
  0
LINE
  8
0
 10
-0.294495
 20
215.244
 11
-0.198944
 21
215.275
  0
LINE
  8
0
 10
-0.198944
 20
215.275
 11
-0.100266
 21
215.294
  0
LINE
  8
0
 10
-0.100266
 20
215.294
 11
0
 21
215.3
  0
LINE
  8
0
 10
0
 20
215.3
 11
0.100266
 21
215.294
  0
LINE
  8
0
 10
0.100266
 20
215.294
 11
0.198944
 21
215.275
  0
LINE
  8
0
 10
0.198944
 20
215.275
 11
0.294495
 21
215.244
  0
LINE
  8
0
 10
0.294495
 20
215.244
 11
0.385391
 21
215.201
  0
LINE
  8
0
 10
0.385391
 20
215.201
 11
0.470215
 21
215.147
  0
LINE
  8
0
 10
0.470215
 20
215.147
 11
0.547623
 21
215.083
  0
LINE
  8
0
 10
0.547623
 20
215.083
 11
0.616409
 21
215.01
  0
LINE
  8
0
 10
0.616409
 20
215.01
 11
0.675461
 21
214.929
  0
LINE
  8
0
 10
0.675461
 20
214.929
 11
0.723846
 21
214.841
  0
LINE
  8
0
 10
0.723846
 20
214.841
 11
0.760834
 21
214.747
  0
LINE
  8
0
 10
0.760834
 20
214.747
 11
0.785828
 21
214.65
  0
LINE
  8
0
 10
0.785828
 20
214.65
 11
0.798416
 21
214.55
  0
LINE
  8
0
 10
0.798416
 20
214.55
 11
0.798416
 21
214.45
  0
LINE
  8
0
 10
0.798416
 20
214.45
 11
0.785828
 21
214.35
  0
LINE
  8
0
 10
0.785828
 20
214.35
 11
0.760834
 21
214.253
  0
LINE
  8
0
 10
0.760834
 20
214.253
 11
0.723846
 21
214.159
  0
LINE
  8
0
 10
0.723846
 20
214.159
 11
0.675461
 21
214.071
  0
LINE
  8
0
 10
0.675461
 20
214.071
 11
0.616409
 21
213.99
  0
LINE
  8
0
 10
0.616409
 20
213.99
 11
0.547623
 21
213.917
  0
LINE
  8
0
 10
0.547623
 20
213.917
 11
0.470215
 21
213.853
  0
LINE
  8
0
 10
0.470215
 20
213.853
 11
0.385391
 21
213.799
  0
LINE
  8
0
 10
0.385391
 20
213.799
 11
0.294495
 21
213.756
  0
LINE
  8
0
 10
0.294495
 20
213.756
 11
0.198944
 21
213.725
  0
LINE
  8
0
 10
0.198944
 20
213.725
 11
0.100266
 21
213.706
  0
LINE
  8
0
 10
0.100266
 20
213.706
 11
0
 21
213.7
  0
LINE
  8
0
 10
0
 20
213.7
 11
-0.100266
 21
213.706
  0
LINE
  8
0
 10
268.4
 20
260
 11
230.4
 21
260
  0
LINE
  8
0
 10
230.4
 20
260
 11
230.4
 21
204
  0
LINE
  8
0
 10
230.4
 20
204
 11
268.4
 21
204
  0
LINE
  8
0
 10
268.4
 20
204
 11
268.4
 21
260
  0
LINE
  8
0
 10
235.15
 20
209.5
 11
235.15
 21
254.5
  0
LINE
  8
0
 10
235.15
 20
254.5
 11
263.65
 21
254.5
  0
LINE
  8
0
 10
263.65
 20
254.5
 11
263.65
 21
209.5
  0
LINE
  8
0
 10
263.65
 20
209.5
 11
235.15
 21
209.5
  0
LINE
  8
0
 10
84
 20
241.5
 11
28
 21
241.5
  0
LINE
  8
0
 10
28
 20
241.5
 11
28
 21
146.5
  0
LINE
  8
0
 10
28
 20
146.5
 11
84
 21
146.5
  0
LINE
  8
0
 10
84
 20
146.5
 11
84
 21
241.5
  0
LINE
  8
0
 10
225.8
 20
241.5
 11
191.8
 21
241.5
  0
LINE
  8
0
 10
191.8
 20
241.5
 11
191.8
 21
146.5
  0
LINE
  8
0
 10
191.8
 20
146.5
 11
225.8
 21
146.5
  0
LINE
  8
0
 10
225.8
 20
146.5
 11
225.8
 21
241.5
  0
LINE
  8
0
 10
185.2
 20
241.5
 11
151.2
 21
241.5
  0
LINE
  8
0
 10
151.2
 20
241.5
 11
151.2
 21
146.5
  0
LINE
  8
0
 10
151.2
 20
146.5
 11
185.2
 21
146.5
  0
LINE
  8
0
 10
185.2
 20
146.5
 11
185.2
 21
241.5
  0
LINE
  8
0
 10
144
 20
241.5
 11
88
 21
241.5
  0
LINE
  8
0
 10
88
 20
241.5
 11
88
 21
146.5
  0
LINE
  8
0
 10
88
 20
146.5
 11
144
 21
146.5
  0
LINE
  8
0
 10
144
 20
146.5
 11
144
 21
241.5
  0
LINE
  8
0
 10
19
 20
202
 11
-19
 21
202
  0
LINE
  8
0
 10
-19
 20
202
 11
-19
 21
146
  0
LINE
  8
0
 10
-19
 20
146
 11
19
 21
146
  0
LINE
  8
0
 10
19
 20
146
 11
19
 21
202
  0
LINE
  8
0
 10
-0.100266
 20
190.706
 11
-0.198944
 21
190.725
  0
LINE
  8
0
 10
-0.198944
 20
190.725
 11
-0.294495
 21
190.756
  0
LINE
  8
0
 10
-0.294495
 20
190.756
 11
-0.385391
 21
190.799
  0
LINE
  8
0
 10
-0.385391
 20
190.799
 11
-0.470215
 21
190.853
  0
LINE
  8
0
 10
-0.470215
 20
190.853
 11
-0.547623
 21
190.917
  0
LINE
  8
0
 10
-0.547623
 20
190.917
 11
-0.616409
 21
190.99
  0
LINE
  8
0
 10
-0.616409
 20
190.99
 11
-0.675461
 21
191.071
  0
LINE
  8
0
 10
-0.675461
 20
191.071
 11
-0.723846
 21
191.159
  0
LINE
  8
0
 10
-0.723846
 20
191.159
 11
-0.760834
 21
191.253
  0
LINE
  8
0
 10
-0.760834
 20
191.253
 11
-0.785828
 21
191.35
  0
LINE
  8
0
 10
-0.785828
 20
191.35
 11
-0.798416
 21
191.45
  0
LINE
  8
0
 10
-0.798416
 20
191.45
 11
-0.798416
 21
191.55
  0
LINE
  8
0
 10
-0.798416
 20
191.55
 11
-0.785828
 21
191.65
  0
LINE
  8
0
 10
-0.785828
 20
191.65
 11
-0.760834
 21
191.747
  0
LINE
  8
0
 10
-0.760834
 20
191.747
 11
-0.723846
 21
191.841
  0
LINE
  8
0
 10
-0.723846
 20
191.841
 11
-0.675461
 21
191.929
  0
LINE
  8
0
 10
-0.675461
 20
191.929
 11
-0.616409
 21
192.01
  0
LINE
  8
0
 10
-0.616409
 20
192.01
 11
-0.547623
 21
192.083
  0
LINE
  8
0
 10
-0.547623
 20
192.083
 11
-0.470215
 21
192.147
  0
LINE
  8
0
 10
-0.470215
 20
192.147
 11
-0.385391
 21
192.201
  0
LINE
  8
0
 10
-0.385391
 20
192.201
 11
-0.294495
 21
192.244
  0
LINE
  8
0
 10
-0.294495
 20
192.244
 11
-0.198944
 21
192.275
  0
LINE
  8
0
 10
-0.198944
 20
192.275
 11
-0.100266
 21
192.294
  0
LINE
  8
0
 10
-0.100266
 20
192.294
 11
0
 21
192.3
  0
LINE
  8
0
 10
0
 20
192.3
 11
0.100266
 21
192.294
  0
LINE
  8
0
 10
0.100266
 20
192.294
 11
0.198944
 21
192.275
  0
LINE
  8
0
 10
0.198944
 20
192.275
 11
0.294495
 21
192.244
  0
LINE
  8
0
 10
0.294495
 20
192.244
 11
0.385391
 21
192.201
  0
LINE
  8
0
 10
0.385391
 20
192.201
 11
0.470215
 21
192.147
  0
LINE
  8
0
 10
0.470215
 20
192.147
 11
0.547623
 21
192.083
  0
LINE
  8
0
 10
0.547623
 20
192.083
 11
0.616409
 21
192.01
  0
LINE
  8
0
 10
0.616409
 20
192.01
 11
0.675461
 21
191.929
  0
LINE
  8
0
 10
0.675461
 20
191.929
 11
0.723846
 21
191.841
  0
LINE
  8
0
 10
0.723846
 20
191.841
 11
0.760834
 21
191.747
  0
LINE
  8
0
 10
0.760834
 20
191.747
 11
0.785828
 21
191.65
  0
LINE
  8
0
 10
0.785828
 20
191.65
 11
0.798416
 21
191.55
  0
LINE
  8
0
 10
0.798416
 20
191.55
 11
0.798416
 21
191.45
  0
LINE
  8
0
 10
0.798416
 20
191.45
 11
0.785828
 21
191.35
  0
LINE
  8
0
 10
0.785828
 20
191.35
 11
0.760834
 21
191.253
  0
LINE
  8
0
 10
0.760834
 20
191.253
 11
0.723846
 21
191.159
  0
LINE
  8
0
 10
0.723846
 20
191.159
 11
0.675461
 21
191.071
  0
LINE
  8
0
 10
0.675461
 20
191.071
 11
0.616409
 21
190.99
  0
LINE
  8
0
 10
0.616409
 20
190.99
 11
0.547623
 21
190.917
  0
LINE
  8
0
 10
0.547623
 20
190.917
 11
0.470215
 21
190.853
  0
LINE
  8
0
 10
0.470215
 20
190.853
 11
0.385391
 21
190.799
  0
LINE
  8
0
 10
0.385391
 20
190.799
 11
0.294495
 21
190.756
  0
LINE
  8
0
 10
0.294495
 20
190.756
 11
0.198944
 21
190.725
  0
LINE
  8
0
 10
0.198944
 20
190.725
 11
0.100266
 21
190.706
  0
LINE
  8
0
 10
0.100266
 20
190.706
 11
0
 21
190.7
  0
LINE
  8
0
 10
0
 20
190.7
 11
-0.100266
 21
190.706
  0
LINE
  8
0
 10
-15
 20
159
 11
-15
 21
189
  0
LINE
  8
0
 10
-15
 20
189
 11
15
 21
189
  0
LINE
  8
0
 10
15
 20
189
 11
15
 21
159
  0
LINE
  8
0
 10
15
 20
159
 11
-15
 21
159
  0
LINE
  8
0
 10
-0.100266
 20
155.706
 11
-0.198944
 21
155.725
  0
LINE
  8
0
 10
-0.198944
 20
155.725
 11
-0.294495
 21
155.756
  0
LINE
  8
0
 10
-0.294495
 20
155.756
 11
-0.385391
 21
155.799
  0
LINE
  8
0
 10
-0.385391
 20
155.799
 11
-0.470215
 21
155.853
  0
LINE
  8
0
 10
-0.470215
 20
155.853
 11
-0.547623
 21
155.917
  0
LINE
  8
0
 10
-0.547623
 20
155.917
 11
-0.616409
 21
155.99
  0
LINE
  8
0
 10
-0.616409
 20
155.99
 11
-0.675461
 21
156.071
  0
LINE
  8
0
 10
-0.675461
 20
156.071
 11
-0.723846
 21
156.159
  0
LINE
  8
0
 10
-0.723846
 20
156.159
 11
-0.760834
 21
156.253
  0
LINE
  8
0
 10
-0.760834
 20
156.253
 11
-0.785828
 21
156.35
  0
LINE
  8
0
 10
-0.785828
 20
156.35
 11
-0.798416
 21
156.45
  0
LINE
  8
0
 10
-0.798416
 20
156.45
 11
-0.798416
 21
156.55
  0
LINE
  8
0
 10
-0.798416
 20
156.55
 11
-0.785828
 21
156.65
  0
LINE
  8
0
 10
-0.785828
 20
156.65
 11
-0.760834
 21
156.747
  0
LINE
  8
0
 10
-0.760834
 20
156.747
 11
-0.723846
 21
156.841
  0
LINE
  8
0
 10
-0.723846
 20
156.841
 11
-0.675461
 21
156.929
  0
LINE
  8
0
 10
-0.675461
 20
156.929
 11
-0.616409
 21
157.01
  0
LINE
  8
0
 10
-0.616409
 20
157.01
 11
-0.547623
 21
157.083
  0
LINE
  8
0
 10
-0.547623
 20
157.083
 11
-0.470215
 21
157.147
  0
LINE
  8
0
 10
-0.470215
 20
157.147
 11
-0.385391
 21
157.201
  0
LINE
  8
0
 10
-0.385391
 20
157.201
 11
-0.294495
 21
157.244
  0
LINE
  8
0
 10
-0.294495
 20
157.244
 11
-0.198944
 21
157.275
  0
LINE
  8
0
 10
-0.198944
 20
157.275
 11
-0.100266
 21
157.294
  0
LINE
  8
0
 10
-0.100266
 20
157.294
 11
0
 21
157.3
  0
LINE
  8
0
 10
0
 20
157.3
 11
0.100266
 21
157.294
  0
LINE
  8
0
 10
0.100266
 20
157.294
 11
0.198944
 21
157.275
  0
LINE
  8
0
 10
0.198944
 20
157.275
 11
0.294495
 21
157.244
  0
LINE
  8
0
 10
0.294495
 20
157.244
 11
0.385391
 21
157.201
  0
LINE
  8
0
 10
0.385391
 20
157.201
 11
0.470215
 21
157.147
  0
LINE
  8
0
 10
0.470215
 20
157.147
 11
0.547623
 21
157.083
  0
LINE
  8
0
 10
0.547623
 20
157.083
 11
0.616409
 21
157.01
  0
LINE
  8
0
 10
0.616409
 20
157.01
 11
0.675461
 21
156.929
  0
LINE
  8
0
 10
0.675461
 20
156.929
 11
0.723846
 21
156.841
  0
LINE
  8
0
 10
0.723846
 20
156.841
 11
0.760834
 21
156.747
  0
LINE
  8
0
 10
0.760834
 20
156.747
 11
0.785828
 21
156.65
  0
LINE
  8
0
 10
0.785828
 20
156.65
 11
0.798416
 21
156.55
  0
LINE
  8
0
 10
0.798416
 20
156.55
 11
0.798416
 21
156.45
  0
LINE
  8
0
 10
0.798416
 20
156.45
 11
0.785828
 21
156.35
  0
LINE
  8
0
 10
0.785828
 20
156.35
 11
0.760834
 21
156.253
  0
LINE
  8
0
 10
0.760834
 20
156.253
 11
0.723846
 21
156.159
  0
LINE
  8
0
 10
0.723846
 20
156.159
 11
0.675461
 21
156.071
  0
LINE
  8
0
 10
0.675461
 20
156.071
 11
0.616409
 21
155.99
  0
LINE
  8
0
 10
0.616409
 20
155.99
 11
0.547623
 21
155.917
  0
LINE
  8
0
 10
0.547623
 20
155.917
 11
0.470215
 21
155.853
  0
LINE
  8
0
 10
0.470215
 20
155.853
 11
0.385391
 21
155.799
  0
LINE
  8
0
 10
0.385391
 20
155.799
 11
0.294495
 21
155.756
  0
LINE
  8
0
 10
0.294495
 20
155.756
 11
0.198944
 21
155.725
  0
LINE
  8
0
 10
0.198944
 20
155.725
 11
0.100266
 21
155.706
  0
LINE
  8
0
 10
0.100266
 20
155.706
 11
0
 21
155.7
  0
LINE
  8
0
 10
0
 20
155.7
 11
-0.100266
 21
155.706
  0
LINE
  8
0
 10
268.4
 20
202
 11
230.4
 21
202
  0
LINE
  8
0
 10
230.4
 20
202
 11
230.4
 21
146
  0
LINE
  8
0
 10
230.4
 20
146
 11
268.4
 21
146
  0
LINE
  8
0
 10
268.4
 20
146
 11
268.4
 21
202
  0
LINE
  8
0
 10
235.15
 20
151.5
 11
235.15
 21
196.5
  0
LINE
  8
0
 10
235.15
 20
196.5
 11
263.65
 21
196.5
  0
LINE
  8
0
 10
263.65
 20
196.5
 11
263.65
 21
151.5
  0
LINE
  8
0
 10
263.65
 20
151.5
 11
235.15
 21
151.5
  0
LINE
  8
0
 10
185.2
 20
144.5
 11
151.2
 21
144.5
  0
LINE
  8
0
 10
151.2
 20
144.5
 11
151.2
 21
49.5
  0
LINE
  8
0
 10
151.2
 20
49.5
 11
185.2
 21
49.5
  0
LINE
  8
0
 10
185.2
 20
49.5
 11
185.2
 21
144.5
  0
LINE
  8
0
 10
225.8
 20
144.5
 11
191.8
 21
144.5
  0
LINE
  8
0
 10
191.8
 20
144.5
 11
191.8
 21
49.5
  0
LINE
  8
0
 10
191.8
 20
49.5
 11
225.8
 21
49.5
  0
LINE
  8
0
 10
225.8
 20
49.5
 11
225.8
 21
144.5
  0
LINE
  8
0
 10
144
 20
144.5
 11
88
 21
144.5
  0
LINE
  8
0
 10
88
 20
144.5
 11
88
 21
49.5
  0
LINE
  8
0
 10
88
 20
49.5
 11
144
 21
49.5
  0
LINE
  8
0
 10
144
 20
49.5
 11
144
 21
144.5
  0
LINE
  8
0
 10
84
 20
144.5
 11
28
 21
144.5
  0
LINE
  8
0
 10
28
 20
144.5
 11
28
 21
49.5
  0
LINE
  8
0
 10
28
 20
49.5
 11
84
 21
49.5
  0
LINE
  8
0
 10
84
 20
49.5
 11
84
 21
144.5
  0
LINE
  8
0
 10
268.4
 20
144
 11
230.4
 21
144
  0
LINE
  8
0
 10
230.4
 20
144
 11
230.4
 21
88
  0
LINE
  8
0
 10
230.4
 20
88
 11
268.4
 21
88
  0
LINE
  8
0
 10
268.4
 20
88
 11
268.4
 21
144
  0
LINE
  8
0
 10
235.15
 20
93.5
 11
235.15
 21
138.5
  0
LINE
  8
0
 10
235.15
 20
138.5
 11
263.65
 21
138.5
  0
LINE
  8
0
 10
263.65
 20
138.5
 11
263.65
 21
93.5
  0
LINE
  8
0
 10
263.65
 20
93.5
 11
235.15
 21
93.5
  0
LINE
  8
0
 10
19
 20
144
 11
-19
 21
144
  0
LINE
  8
0
 10
-19
 20
144
 11
-19
 21
88
  0
LINE
  8
0
 10
-19
 20
88
 11
19
 21
88
  0
LINE
  8
0
 10
19
 20
88
 11
19
 21
144
  0
LINE
  8
0
 10
-0.100266
 20
132.706
 11
-0.198944
 21
132.725
  0
LINE
  8
0
 10
-0.198944
 20
132.725
 11
-0.294495
 21
132.756
  0
LINE
  8
0
 10
-0.294495
 20
132.756
 11
-0.385391
 21
132.799
  0
LINE
  8
0
 10
-0.385391
 20
132.799
 11
-0.470215
 21
132.853
  0
LINE
  8
0
 10
-0.470215
 20
132.853
 11
-0.547623
 21
132.917
  0
LINE
  8
0
 10
-0.547623
 20
132.917
 11
-0.616409
 21
132.99
  0
LINE
  8
0
 10
-0.616409
 20
132.99
 11
-0.675461
 21
133.071
  0
LINE
  8
0
 10
-0.675461
 20
133.071
 11
-0.723846
 21
133.159
  0
LINE
  8
0
 10
-0.723846
 20
133.159
 11
-0.760834
 21
133.253
  0
LINE
  8
0
 10
-0.760834
 20
133.253
 11
-0.785828
 21
133.35
  0
LINE
  8
0
 10
-0.785828
 20
133.35
 11
-0.798416
 21
133.45
  0
LINE
  8
0
 10
-0.798416
 20
133.45
 11
-0.798416
 21
133.55
  0
LINE
  8
0
 10
-0.798416
 20
133.55
 11
-0.785828
 21
133.65
  0
LINE
  8
0
 10
-0.785828
 20
133.65
 11
-0.760834
 21
133.747
  0
LINE
  8
0
 10
-0.760834
 20
133.747
 11
-0.723846
 21
133.841
  0
LINE
  8
0
 10
-0.723846
 20
133.841
 11
-0.675461
 21
133.929
  0
LINE
  8
0
 10
-0.675461
 20
133.929
 11
-0.616409
 21
134.01
  0
LINE
  8
0
 10
-0.616409
 20
134.01
 11
-0.547623
 21
134.083
  0
LINE
  8
0
 10
-0.547623
 20
134.083
 11
-0.470215
 21
134.147
  0
LINE
  8
0
 10
-0.470215
 20
134.147
 11
-0.385391
 21
134.201
  0
LINE
  8
0
 10
-0.385391
 20
134.201
 11
-0.294495
 21
134.244
  0
LINE
  8
0
 10
-0.294495
 20
134.244
 11
-0.198944
 21
134.275
  0
LINE
  8
0
 10
-0.198944
 20
134.275
 11
-0.100266
 21
134.294
  0
LINE
  8
0
 10
-0.100266
 20
134.294
 11
0
 21
134.3
  0
LINE
  8
0
 10
0
 20
134.3
 11
0.100266
 21
134.294
  0
LINE
  8
0
 10
0.100266
 20
134.294
 11
0.198944
 21
134.275
  0
LINE
  8
0
 10
0.198944
 20
134.275
 11
0.294495
 21
134.244
  0
LINE
  8
0
 10
0.294495
 20
134.244
 11
0.385391
 21
134.201
  0
LINE
  8
0
 10
0.385391
 20
134.201
 11
0.470215
 21
134.147
  0
LINE
  8
0
 10
0.470215
 20
134.147
 11
0.547623
 21
134.083
  0
LINE
  8
0
 10
0.547623
 20
134.083
 11
0.616409
 21
134.01
  0
LINE
  8
0
 10
0.616409
 20
134.01
 11
0.675461
 21
133.929
  0
LINE
  8
0
 10
0.675461
 20
133.929
 11
0.723846
 21
133.841
  0
LINE
  8
0
 10
0.723846
 20
133.841
 11
0.760834
 21
133.747
  0
LINE
  8
0
 10
0.760834
 20
133.747
 11
0.785828
 21
133.65
  0
LINE
  8
0
 10
0.785828
 20
133.65
 11
0.798416
 21
133.55
  0
LINE
  8
0
 10
0.798416
 20
133.55
 11
0.798416
 21
133.45
  0
LINE
  8
0
 10
0.798416
 20
133.45
 11
0.785828
 21
133.35
  0
LINE
  8
0
 10
0.785828
 20
133.35
 11
0.760834
 21
133.253
  0
LINE
  8
0
 10
0.760834
 20
133.253
 11
0.723846
 21
133.159
  0
LINE
  8
0
 10
0.723846
 20
133.159
 11
0.675461
 21
133.071
  0
LINE
  8
0
 10
0.675461
 20
133.071
 11
0.616409
 21
132.99
  0
LINE
  8
0
 10
0.616409
 20
132.99
 11
0.547623
 21
132.917
  0
LINE
  8
0
 10
0.547623
 20
132.917
 11
0.470215
 21
132.853
  0
LINE
  8
0
 10
0.470215
 20
132.853
 11
0.385391
 21
132.799
  0
LINE
  8
0
 10
0.385391
 20
132.799
 11
0.294495
 21
132.756
  0
LINE
  8
0
 10
0.294495
 20
132.756
 11
0.198944
 21
132.725
  0
LINE
  8
0
 10
0.198944
 20
132.725
 11
0.100266
 21
132.706
  0
LINE
  8
0
 10
0.100266
 20
132.706
 11
0
 21
132.7
  0
LINE
  8
0
 10
0
 20
132.7
 11
-0.100266
 21
132.706
  0
LINE
  8
0
 10
-15
 20
101
 11
-15
 21
131
  0
LINE
  8
0
 10
-15
 20
131
 11
15
 21
131
  0
LINE
  8
0
 10
15
 20
131
 11
15
 21
101
  0
LINE
  8
0
 10
15
 20
101
 11
-15
 21
101
  0
LINE
  8
0
 10
-0.100266
 20
97.7063
 11
-0.198944
 21
97.7251
  0
LINE
  8
0
 10
-0.198944
 20
97.7251
 11
-0.294495
 21
97.7562
  0
LINE
  8
0
 10
-0.294495
 20
97.7562
 11
-0.385391
 21
97.799
  0
LINE
  8
0
 10
-0.385391
 20
97.799
 11
-0.470215
 21
97.8528
  0
LINE
  8
0
 10
-0.470215
 20
97.8528
 11
-0.547623
 21
97.9168
  0
LINE
  8
0
 10
-0.547623
 20
97.9168
 11
-0.616409
 21
97.9901
  0
LINE
  8
0
 10
-0.616409
 20
97.9901
 11
-0.675461
 21
98.0714
  0
LINE
  8
0
 10
-0.675461
 20
98.0714
 11
-0.723846
 21
98.1594
  0
LINE
  8
0
 10
-0.723846
 20
98.1594
 11
-0.760834
 21
98.2528
  0
LINE
  8
0
 10
-0.760834
 20
98.2528
 11
-0.785828
 21
98.3501
  0
LINE
  8
0
 10
-0.785828
 20
98.3501
 11
-0.798416
 21
98.4498
  0
LINE
  8
0
 10
-0.798416
 20
98.4498
 11
-0.798416
 21
98.5502
  0
LINE
  8
0
 10
-0.798416
 20
98.5502
 11
-0.785828
 21
98.6499
  0
LINE
  8
0
 10
-0.785828
 20
98.6499
 11
-0.760834
 21
98.7472
  0
LINE
  8
0
 10
-0.760834
 20
98.7472
 11
-0.723846
 21
98.8406
  0
LINE
  8
0
 10
-0.723846
 20
98.8406
 11
-0.675461
 21
98.9287
  0
LINE
  8
0
 10
-0.675461
 20
98.9287
 11
-0.616409
 21
99.0099
  0
LINE
  8
0
 10
-0.616409
 20
99.0099
 11
-0.547623
 21
99.0832
  0
LINE
  8
0
 10
-0.547623
 20
99.0832
 11
-0.470215
 21
99.1472
  0
LINE
  8
0
 10
-0.470215
 20
99.1472
 11
-0.385391
 21
99.201
  0
LINE
  8
0
 10
-0.385391
 20
99.201
 11
-0.294495
 21
99.2438
  0
LINE
  8
0
 10
-0.294495
 20
99.2438
 11
-0.198944
 21
99.2749
  0
LINE
  8
0
 10
-0.198944
 20
99.2749
 11
-0.100266
 21
99.2937
  0
LINE
  8
0
 10
-0.100266
 20
99.2937
 11
0
 21
99.3
  0
LINE
  8
0
 10
0
 20
99.3
 11
0.100266
 21
99.2937
  0
LINE
  8
0
 10
0.100266
 20
99.2937
 11
0.198944
 21
99.2749
  0
LINE
  8
0
 10
0.198944
 20
99.2749
 11
0.294495
 21
99.2438
  0
LINE
  8
0
 10
0.294495
 20
99.2438
 11
0.385391
 21
99.201
  0
LINE
  8
0
 10
0.385391
 20
99.201
 11
0.470215
 21
99.1472
  0
LINE
  8
0
 10
0.470215
 20
99.1472
 11
0.547623
 21
99.0832
  0
LINE
  8
0
 10
0.547623
 20
99.0832
 11
0.616409
 21
99.0099
  0
LINE
  8
0
 10
0.616409
 20
99.0099
 11
0.675461
 21
98.9287
  0
LINE
  8
0
 10
0.675461
 20
98.9287
 11
0.723846
 21
98.8406
  0
LINE
  8
0
 10
0.723846
 20
98.8406
 11
0.760834
 21
98.7472
  0
LINE
  8
0
 10
0.760834
 20
98.7472
 11
0.785828
 21
98.6499
  0
LINE
  8
0
 10
0.785828
 20
98.6499
 11
0.798416
 21
98.5502
  0
LINE
  8
0
 10
0.798416
 20
98.5502
 11
0.798416
 21
98.4498
  0
LINE
  8
0
 10
0.798416
 20
98.4498
 11
0.785828
 21
98.3501
  0
LINE
  8
0
 10
0.785828
 20
98.3501
 11
0.760834
 21
98.2528
  0
LINE
  8
0
 10
0.760834
 20
98.2528
 11
0.723846
 21
98.1594
  0
LINE
  8
0
 10
0.723846
 20
98.1594
 11
0.675461
 21
98.0714
  0
LINE
  8
0
 10
0.675461
 20
98.0714
 11
0.616409
 21
97.9901
  0
LINE
  8
0
 10
0.616409
 20
97.9901
 11
0.547623
 21
97.9168
  0
LINE
  8
0
 10
0.547623
 20
97.9168
 11
0.470215
 21
97.8528
  0
LINE
  8
0
 10
0.470215
 20
97.8528
 11
0.385391
 21
97.799
  0
LINE
  8
0
 10
0.385391
 20
97.799
 11
0.294495
 21
97.7562
  0
LINE
  8
0
 10
0.294495
 20
97.7562
 11
0.198944
 21
97.7251
  0
LINE
  8
0
 10
0.198944
 20
97.7251
 11
0.100266
 21
97.7063
  0
LINE
  8
0
 10
0.100266
 20
97.7063
 11
0
 21
97.7
  0
LINE
  8
0
 10
0
 20
97.7
 11
-0.100266
 21
97.7063
  0
LINE
  8
0
 10
268.4
 20
86
 11
230.4
 21
86
  0
LINE
  8
0
 10
230.4
 20
86
 11
230.4
 21
30
  0
LINE
  8
0
 10
230.4
 20
30
 11
268.4
 21
30
  0
LINE
  8
0
 10
268.4
 20
30
 11
268.4
 21
86
  0
LINE
  8
0
 10
235.15
 20
35.5
 11
235.15
 21
80.5
  0
LINE
  8
0
 10
235.15
 20
80.5
 11
263.65
 21
80.5
  0
LINE
  8
0
 10
263.65
 20
80.5
 11
263.65
 21
35.5
  0
LINE
  8
0
 10
263.65
 20
35.5
 11
235.15
 21
35.5
  0
LINE
  8
0
 10
19
 20
86
 11
-19
 21
86
  0
LINE
  8
0
 10
-19
 20
86
 11
-19
 21
30
  0
LINE
  8
0
 10
-19
 20
30
 11
19
 21
30
  0
LINE
  8
0
 10
19
 20
30
 11
19
 21
86
  0
LINE
  8
0
 10
-0.100266
 20
74.7063
 11
-0.198944
 21
74.7251
  0
LINE
  8
0
 10
-0.198944
 20
74.7251
 11
-0.294495
 21
74.7562
  0
LINE
  8
0
 10
-0.294495
 20
74.7562
 11
-0.385391
 21
74.799
  0
LINE
  8
0
 10
-0.385391
 20
74.799
 11
-0.470215
 21
74.8528
  0
LINE
  8
0
 10
-0.470215
 20
74.8528
 11
-0.547623
 21
74.9168
  0
LINE
  8
0
 10
-0.547623
 20
74.9168
 11
-0.616409
 21
74.9901
  0
LINE
  8
0
 10
-0.616409
 20
74.9901
 11
-0.675461
 21
75.0713
  0
LINE
  8
0
 10
-0.675461
 20
75.0713
 11
-0.723846
 21
75.1594
  0
LINE
  8
0
 10
-0.723846
 20
75.1594
 11
-0.760834
 21
75.2528
  0
LINE
  8
0
 10
-0.760834
 20
75.2528
 11
-0.785828
 21
75.3501
  0
LINE
  8
0
 10
-0.785828
 20
75.3501
 11
-0.798416
 21
75.4498
  0
LINE
  8
0
 10
-0.798416
 20
75.4498
 11
-0.798416
 21
75.5502
  0
LINE
  8
0
 10
-0.798416
 20
75.5502
 11
-0.785828
 21
75.6499
  0
LINE
  8
0
 10
-0.785828
 20
75.6499
 11
-0.760834
 21
75.7472
  0
LINE
  8
0
 10
-0.760834
 20
75.7472
 11
-0.723846
 21
75.8406
  0
LINE
  8
0
 10
-0.723846
 20
75.8406
 11
-0.675461
 21
75.9286
  0
LINE
  8
0
 10
-0.675461
 20
75.9286
 11
-0.616409
 21
76.0099
  0
LINE
  8
0
 10
-0.616409
 20
76.0099
 11
-0.547623
 21
76.0832
  0
LINE
  8
0
 10
-0.547623
 20
76.0832
 11
-0.470215
 21
76.1472
  0
LINE
  8
0
 10
-0.470215
 20
76.1472
 11
-0.385391
 21
76.201
  0
LINE
  8
0
 10
-0.385391
 20
76.201
 11
-0.294495
 21
76.2438
  0
LINE
  8
0
 10
-0.294495
 20
76.2438
 11
-0.198944
 21
76.2749
  0
LINE
  8
0
 10
-0.198944
 20
76.2749
 11
-0.100266
 21
76.2937
  0
LINE
  8
0
 10
-0.100266
 20
76.2937
 11
0
 21
76.3
  0
LINE
  8
0
 10
0
 20
76.3
 11
0.100266
 21
76.2937
  0
LINE
  8
0
 10
0.100266
 20
76.2937
 11
0.198944
 21
76.2749
  0
LINE
  8
0
 10
0.198944
 20
76.2749
 11
0.294495
 21
76.2438
  0
LINE
  8
0
 10
0.294495
 20
76.2438
 11
0.385391
 21
76.201
  0
LINE
  8
0
 10
0.385391
 20
76.201
 11
0.470215
 21
76.1472
  0
LINE
  8
0
 10
0.470215
 20
76.1472
 11
0.547623
 21
76.0832
  0
LINE
  8
0
 10
0.547623
 20
76.0832
 11
0.616409
 21
76.0099
  0
LINE
  8
0
 10
0.616409
 20
76.0099
 11
0.675461
 21
75.9286
  0
LINE
  8
0
 10
0.675461
 20
75.9286
 11
0.723846
 21
75.8406
  0
LINE
  8
0
 10
0.723846
 20
75.8406
 11
0.760834
 21
75.7472
  0
LINE
  8
0
 10
0.760834
 20
75.7472
 11
0.785828
 21
75.6499
  0
LINE
  8
0
 10
0.785828
 20
75.6499
 11
0.798416
 21
75.5502
  0
LINE
  8
0
 10
0.798416
 20
75.5502
 11
0.798416
 21
75.4498
  0
LINE
  8
0
 10
0.798416
 20
75.4498
 11
0.785828
 21
75.3501
  0
LINE
  8
0
 10
0.785828
 20
75.3501
 11
0.760834
 21
75.2528
  0
LINE
  8
0
 10
0.760834
 20
75.2528
 11
0.723846
 21
75.1594
  0
LINE
  8
0
 10
0.723846
 20
75.1594
 11
0.675461
 21
75.0713
  0
LINE
  8
0
 10
0.675461
 20
75.0713
 11
0.616409
 21
74.9901
  0
LINE
  8
0
 10
0.616409
 20
74.9901
 11
0.547623
 21
74.9168
  0
LINE
  8
0
 10
0.547623
 20
74.9168
 11
0.470215
 21
74.8528
  0
LINE
  8
0
 10
0.470215
 20
74.8528
 11
0.385391
 21
74.799
  0
LINE
  8
0
 10
0.385391
 20
74.799
 11
0.294495
 21
74.7562
  0
LINE
  8
0
 10
0.294495
 20
74.7562
 11
0.198944
 21
74.7251
  0
LINE
  8
0
 10
0.198944
 20
74.7251
 11
0.100266
 21
74.7063
  0
LINE
  8
0
 10
0.100266
 20
74.7063
 11
0
 21
74.7
  0
LINE
  8
0
 10
0
 20
74.7
 11
-0.100266
 21
74.7063
  0
LINE
  8
0
 10
-15
 20
43
 11
-15
 21
73
  0
LINE
  8
0
 10
-15
 20
73
 11
15
 21
73
  0
LINE
  8
0
 10
15
 20
73
 11
15
 21
43
  0
LINE
  8
0
 10
15
 20
43
 11
-15
 21
43
  0
LINE
  8
0
 10
-0.100266
 20
39.7063
 11
-0.198944
 21
39.7251
  0
LINE
  8
0
 10
-0.198944
 20
39.7251
 11
-0.294495
 21
39.7562
  0
LINE
  8
0
 10
-0.294495
 20
39.7562
 11
-0.385391
 21
39.799
  0
LINE
  8
0
 10
-0.385391
 20
39.799
 11
-0.470215
 21
39.8528
  0
LINE
  8
0
 10
-0.470215
 20
39.8528
 11
-0.547623
 21
39.9168
  0
LINE
  8
0
 10
-0.547623
 20
39.9168
 11
-0.616409
 21
39.9901
  0
LINE
  8
0
 10
-0.616409
 20
39.9901
 11
-0.675461
 21
40.0714
  0
LINE
  8
0
 10
-0.675461
 20
40.0714
 11
-0.723846
 21
40.1594
  0
LINE
  8
0
 10
-0.723846
 20
40.1594
 11
-0.760834
 21
40.2528
  0
LINE
  8
0
 10
-0.760834
 20
40.2528
 11
-0.785828
 21
40.3501
  0
LINE
  8
0
 10
-0.785828
 20
40.3501
 11
-0.798416
 21
40.4498
  0
LINE
  8
0
 10
-0.798416
 20
40.4498
 11
-0.798416
 21
40.5502
  0
LINE
  8
0
 10
-0.798416
 20
40.5502
 11
-0.785828
 21
40.6499
  0
LINE
  8
0
 10
-0.785828
 20
40.6499
 11
-0.760834
 21
40.7472
  0
LINE
  8
0
 10
-0.760834
 20
40.7472
 11
-0.723846
 21
40.8406
  0
LINE
  8
0
 10
-0.723846
 20
40.8406
 11
-0.675461
 21
40.9287
  0
LINE
  8
0
 10
-0.675461
 20
40.9287
 11
-0.616409
 21
41.0099
  0
LINE
  8
0
 10
-0.616409
 20
41.0099
 11
-0.547623
 21
41.0832
  0
LINE
  8
0
 10
-0.547623
 20
41.0832
 11
-0.470215
 21
41.1472
  0
LINE
  8
0
 10
-0.470215
 20
41.1472
 11
-0.385391
 21
41.201
  0
LINE
  8
0
 10
-0.385391
 20
41.201
 11
-0.294495
 21
41.2438
  0
LINE
  8
0
 10
-0.294495
 20
41.2438
 11
-0.198944
 21
41.2749
  0
LINE
  8
0
 10
-0.198944
 20
41.2749
 11
-0.100266
 21
41.2937
  0
LINE
  8
0
 10
-0.100266
 20
41.2937
 11
0
 21
41.3
  0
LINE
  8
0
 10
0
 20
41.3
 11
0.100266
 21
41.2937
  0
LINE
  8
0
 10
0.100266
 20
41.2937
 11
0.198944
 21
41.2749
  0
LINE
  8
0
 10
0.198944
 20
41.2749
 11
0.294495
 21
41.2438
  0
LINE
  8
0
 10
0.294495
 20
41.2438
 11
0.385391
 21
41.201
  0
LINE
  8
0
 10
0.385391
 20
41.201
 11
0.470215
 21
41.1472
  0
LINE
  8
0
 10
0.470215
 20
41.1472
 11
0.547623
 21
41.0832
  0
LINE
  8
0
 10
0.547623
 20
41.0832
 11
0.616409
 21
41.0099
  0
LINE
  8
0
 10
0.616409
 20
41.0099
 11
0.675461
 21
40.9287
  0
LINE
  8
0
 10
0.675461
 20
40.9287
 11
0.723846
 21
40.8406
  0
LINE
  8
0
 10
0.723846
 20
40.8406
 11
0.760834
 21
40.7472
  0
LINE
  8
0
 10
0.760834
 20
40.7472
 11
0.785828
 21
40.6499
  0
LINE
  8
0
 10
0.785828
 20
40.6499
 11
0.798416
 21
40.5502
  0
LINE
  8
0
 10
0.798416
 20
40.5502
 11
0.798416
 21
40.4498
  0
LINE
  8
0
 10
0.798416
 20
40.4498
 11
0.785828
 21
40.3501
  0
LINE
  8
0
 10
0.785828
 20
40.3501
 11
0.760834
 21
40.2528
  0
LINE
  8
0
 10
0.760834
 20
40.2528
 11
0.723846
 21
40.1594
  0
LINE
  8
0
 10
0.723846
 20
40.1594
 11
0.675461
 21
40.0714
  0
LINE
  8
0
 10
0.675461
 20
40.0714
 11
0.616409
 21
39.9901
  0
LINE
  8
0
 10
0.616409
 20
39.9901
 11
0.547623
 21
39.9168
  0
LINE
  8
0
 10
0.547623
 20
39.9168
 11
0.470215
 21
39.8528
  0
LINE
  8
0
 10
0.470215
 20
39.8528
 11
0.385391
 21
39.799
  0
LINE
  8
0
 10
0.385391
 20
39.799
 11
0.294495
 21
39.7562
  0
LINE
  8
0
 10
0.294495
 20
39.7562
 11
0.198944
 21
39.7251
  0
LINE
  8
0
 10
0.198944
 20
39.7251
 11
0.100266
 21
39.7063
  0
LINE
  8
0
 10
0.100266
 20
39.7063
 11
0
 21
39.7
  0
LINE
  8
0
 10
0
 20
39.7
 11
-0.100266
 21
39.7063
  0
LINE
  8
0
 10
144
 20
47.5
 11
88
 21
47.5
  0
LINE
  8
0
 10
88
 20
47.5
 11
88
 21
-47.5
  0
LINE
  8
0
 10
88
 20
-47.5
 11
144
 21
-47.5
  0
LINE
  8
0
 10
144
 20
-47.5
 11
144
 21
47.5
  0
LINE
  8
0
 10
225.8
 20
47.5
 11
191.8
 21
47.5
  0
LINE
  8
0
 10
191.8
 20
47.5
 11
191.8
 21
-47.5
  0
LINE
  8
0
 10
191.8
 20
-47.5
 11
225.8
 21
-47.5
  0
LINE
  8
0
 10
225.8
 20
-47.5
 11
225.8
 21
47.5
  0
LINE
  8
0
 10
84
 20
47.5
 11
28
 21
47.5
  0
LINE
  8
0
 10
28
 20
47.5
 11
28
 21
-47.5
  0
LINE
  8
0
 10
28
 20
-47.5
 11
84
 21
-47.5
  0
LINE
  8
0
 10
84
 20
-47.5
 11
84
 21
47.5
  0
LINE
  8
0
 10
185.2
 20
47.5
 11
151.2
 21
47.5
  0
LINE
  8
0
 10
151.2
 20
47.5
 11
151.2
 21
-47.5
  0
LINE
  8
0
 10
151.2
 20
-47.5
 11
185.2
 21
-47.5
  0
LINE
  8
0
 10
185.2
 20
-47.5
 11
185.2
 21
47.5
  0
LINE
  8
0
 10
19
 20
28
 11
-19
 21
28
  0
LINE
  8
0
 10
-19
 20
28
 11
-19
 21
-28
  0
LINE
  8
0
 10
-19
 20
-28
 11
19
 21
-28
  0
LINE
  8
0
 10
19
 20
-28
 11
19
 21
28
  0
LINE
  8
0
 10
-0.100266
 20
16.7063
 11
-0.198944
 21
16.7251
  0
LINE
  8
0
 10
-0.198944
 20
16.7251
 11
-0.294495
 21
16.7562
  0
LINE
  8
0
 10
-0.294495
 20
16.7562
 11
-0.385391
 21
16.799
  0
LINE
  8
0
 10
-0.385391
 20
16.799
 11
-0.470215
 21
16.8528
  0
LINE
  8
0
 10
-0.470215
 20
16.8528
 11
-0.547623
 21
16.9168
  0
LINE
  8
0
 10
-0.547623
 20
16.9168
 11
-0.616409
 21
16.9901
  0
LINE
  8
0
 10
-0.616409
 20
16.9901
 11
-0.675461
 21
17.0713
  0
LINE
  8
0
 10
-0.675461
 20
17.0713
 11
-0.723846
 21
17.1594
  0
LINE
  8
0
 10
-0.723846
 20
17.1594
 11
-0.760834
 21
17.2528
  0
LINE
  8
0
 10
-0.760834
 20
17.2528
 11
-0.785828
 21
17.3501
  0
LINE
  8
0
 10
-0.785828
 20
17.3501
 11
-0.798416
 21
17.4498
  0
LINE
  8
0
 10
-0.798416
 20
17.4498
 11
-0.798416
 21
17.5502
  0
LINE
  8
0
 10
-0.798416
 20
17.5502
 11
-0.785828
 21
17.6499
  0
LINE
  8
0
 10
-0.785828
 20
17.6499
 11
-0.760834
 21
17.7472
  0
LINE
  8
0
 10
-0.760834
 20
17.7472
 11
-0.723846
 21
17.8406
  0
LINE
  8
0
 10
-0.723846
 20
17.8406
 11
-0.675461
 21
17.9286
  0
LINE
  8
0
 10
-0.675461
 20
17.9286
 11
-0.616409
 21
18.0099
  0
LINE
  8
0
 10
-0.616409
 20
18.0099
 11
-0.547623
 21
18.0832
  0
LINE
  8
0
 10
-0.547623
 20
18.0832
 11
-0.470215
 21
18.1472
  0
LINE
  8
0
 10
-0.470215
 20
18.1472
 11
-0.385391
 21
18.201
  0
LINE
  8
0
 10
-0.385391
 20
18.201
 11
-0.294495
 21
18.2438
  0
LINE
  8
0
 10
-0.294495
 20
18.2438
 11
-0.198944
 21
18.2749
  0
LINE
  8
0
 10
-0.198944
 20
18.2749
 11
-0.100266
 21
18.2937
  0
LINE
  8
0
 10
-0.100266
 20
18.2937
 11
0
 21
18.3
  0
LINE
  8
0
 10
0
 20
18.3
 11
0.100266
 21
18.2937
  0
LINE
  8
0
 10
0.100266
 20
18.2937
 11
0.198944
 21
18.2749
  0
LINE
  8
0
 10
0.198944
 20
18.2749
 11
0.294495
 21
18.2438
  0
LINE
  8
0
 10
0.294495
 20
18.2438
 11
0.385391
 21
18.201
  0
LINE
  8
0
 10
0.385391
 20
18.201
 11
0.470215
 21
18.1472
  0
LINE
  8
0
 10
0.470215
 20
18.1472
 11
0.547623
 21
18.0832
  0
LINE
  8
0
 10
0.547623
 20
18.0832
 11
0.616409
 21
18.0099
  0
LINE
  8
0
 10
0.616409
 20
18.0099
 11
0.675461
 21
17.9286
  0
LINE
  8
0
 10
0.675461
 20
17.9286
 11
0.723846
 21
17.8406
  0
LINE
  8
0
 10
0.723846
 20
17.8406
 11
0.760834
 21
17.7472
  0
LINE
  8
0
 10
0.760834
 20
17.7472
 11
0.785828
 21
17.6499
  0
LINE
  8
0
 10
0.785828
 20
17.6499
 11
0.798416
 21
17.5502
  0
LINE
  8
0
 10
0.798416
 20
17.5502
 11
0.798416
 21
17.4498
  0
LINE
  8
0
 10
0.798416
 20
17.4498
 11
0.785828
 21
17.3501
  0
LINE
  8
0
 10
0.785828
 20
17.3501
 11
0.760834
 21
17.2528
  0
LINE
  8
0
 10
0.760834
 20
17.2528
 11
0.723846
 21
17.1594
  0
LINE
  8
0
 10
0.723846
 20
17.1594
 11
0.675461
 21
17.0713
  0
LINE
  8
0
 10
0.675461
 20
17.0713
 11
0.616409
 21
16.9901
  0
LINE
  8
0
 10
0.616409
 20
16.9901
 11
0.547623
 21
16.9168
  0
LINE
  8
0
 10
0.547623
 20
16.9168
 11
0.470215
 21
16.8528
  0
LINE
  8
0
 10
0.470215
 20
16.8528
 11
0.385391
 21
16.799
  0
LINE
  8
0
 10
0.385391
 20
16.799
 11
0.294495
 21
16.7562
  0
LINE
  8
0
 10
0.294495
 20
16.7562
 11
0.198944
 21
16.7251
  0
LINE
  8
0
 10
0.198944
 20
16.7251
 11
0.100266
 21
16.7063
  0
LINE
  8
0
 10
0.100266
 20
16.7063
 11
0
 21
16.7
  0
LINE
  8
0
 10
0
 20
16.7
 11
-0.100266
 21
16.7063
  0
LINE
  8
0
 10
-15
 20
-15
 11
-15
 21
15
  0
LINE
  8
0
 10
-15
 20
15
 11
15
 21
15
  0
LINE
  8
0
 10
15
 20
15
 11
15
 21
-15
  0
LINE
  8
0
 10
15
 20
-15
 11
-15
 21
-15
  0
LINE
  8
0
 10
-0.100266
 20
-18.2937
 11
-0.198944
 21
-18.2749
  0
LINE
  8
0
 10
-0.198944
 20
-18.2749
 11
-0.294495
 21
-18.2438
  0
LINE
  8
0
 10
-0.294495
 20
-18.2438
 11
-0.385391
 21
-18.201
  0
LINE
  8
0
 10
-0.385391
 20
-18.201
 11
-0.470215
 21
-18.1472
  0
LINE
  8
0
 10
-0.470215
 20
-18.1472
 11
-0.547623
 21
-18.0832
  0
LINE
  8
0
 10
-0.547623
 20
-18.0832
 11
-0.616409
 21
-18.0099
  0
LINE
  8
0
 10
-0.616409
 20
-18.0099
 11
-0.675461
 21
-17.9286
  0
LINE
  8
0
 10
-0.675461
 20
-17.9286
 11
-0.723846
 21
-17.8406
  0
LINE
  8
0
 10
-0.723846
 20
-17.8406
 11
-0.760834
 21
-17.7472
  0
LINE
  8
0
 10
-0.760834
 20
-17.7472
 11
-0.785828
 21
-17.6499
  0
LINE
  8
0
 10
-0.785828
 20
-17.6499
 11
-0.798416
 21
-17.5502
  0
LINE
  8
0
 10
-0.798416
 20
-17.5502
 11
-0.798416
 21
-17.4498
  0
LINE
  8
0
 10
-0.798416
 20
-17.4498
 11
-0.785828
 21
-17.3501
  0
LINE
  8
0
 10
-0.785828
 20
-17.3501
 11
-0.760834
 21
-17.2528
  0
LINE
  8
0
 10
-0.760834
 20
-17.2528
 11
-0.723846
 21
-17.1594
  0
LINE
  8
0
 10
-0.723846
 20
-17.1594
 11
-0.675461
 21
-17.0713
  0
LINE
  8
0
 10
-0.675461
 20
-17.0713
 11
-0.616409
 21
-16.9901
  0
LINE
  8
0
 10
-0.616409
 20
-16.9901
 11
-0.547623
 21
-16.9168
  0
LINE
  8
0
 10
-0.547623
 20
-16.9168
 11
-0.470215
 21
-16.8528
  0
LINE
  8
0
 10
-0.470215
 20
-16.8528
 11
-0.385391
 21
-16.799
  0
LINE
  8
0
 10
-0.385391
 20
-16.799
 11
-0.294495
 21
-16.7562
  0
LINE
  8
0
 10
-0.294495
 20
-16.7562
 11
-0.198944
 21
-16.7251
  0
LINE
  8
0
 10
-0.198944
 20
-16.7251
 11
-0.100266
 21
-16.7063
  0
LINE
  8
0
 10
-0.100266
 20
-16.7063
 11
0
 21
-16.7
  0
LINE
  8
0
 10
0
 20
-16.7
 11
0.100266
 21
-16.7063
  0
LINE
  8
0
 10
0.100266
 20
-16.7063
 11
0.198944
 21
-16.7251
  0
LINE
  8
0
 10
0.198944
 20
-16.7251
 11
0.294495
 21
-16.7562
  0
LINE
  8
0
 10
0.294495
 20
-16.7562
 11
0.385391
 21
-16.799
  0
LINE
  8
0
 10
0.385391
 20
-16.799
 11
0.470215
 21
-16.8528
  0
LINE
  8
0
 10
0.470215
 20
-16.8528
 11
0.547623
 21
-16.9168
  0
LINE
  8
0
 10
0.547623
 20
-16.9168
 11
0.616409
 21
-16.9901
  0
LINE
  8
0
 10
0.616409
 20
-16.9901
 11
0.675461
 21
-17.0713
  0
LINE
  8
0
 10
0.675461
 20
-17.0713
 11
0.723846
 21
-17.1594
  0
LINE
  8
0
 10
0.723846
 20
-17.1594
 11
0.760834
 21
-17.2528
  0
LINE
  8
0
 10
0.760834
 20
-17.2528
 11
0.785828
 21
-17.3501
  0
LINE
  8
0
 10
0.785828
 20
-17.3501
 11
0.798416
 21
-17.4498
  0
LINE
  8
0
 10
0.798416
 20
-17.4498
 11
0.798416
 21
-17.5502
  0
LINE
  8
0
 10
0.798416
 20
-17.5502
 11
0.785828
 21
-17.6499
  0
LINE
  8
0
 10
0.785828
 20
-17.6499
 11
0.760834
 21
-17.7472
  0
LINE
  8
0
 10
0.760834
 20
-17.7472
 11
0.723846
 21
-17.8406
  0
LINE
  8
0
 10
0.723846
 20
-17.8406
 11
0.675461
 21
-17.9286
  0
LINE
  8
0
 10
0.675461
 20
-17.9286
 11
0.616409
 21
-18.0099
  0
LINE
  8
0
 10
0.616409
 20
-18.0099
 11
0.547623
 21
-18.0832
  0
LINE
  8
0
 10
0.547623
 20
-18.0832
 11
0.470215
 21
-18.1472
  0
LINE
  8
0
 10
0.470215
 20
-18.1472
 11
0.385391
 21
-18.201
  0
LINE
  8
0
 10
0.385391
 20
-18.201
 11
0.294495
 21
-18.2438
  0
LINE
  8
0
 10
0.294495
 20
-18.2438
 11
0.198944
 21
-18.2749
  0
LINE
  8
0
 10
0.198944
 20
-18.2749
 11
0.100266
 21
-18.2937
  0
LINE
  8
0
 10
0.100266
 20
-18.2937
 11
0
 21
-18.3
  0
LINE
  8
0
 10
0
 20
-18.3
 11
-0.100266
 21
-18.2937
  0
LINE
  8
0
 10
268.4
 20
28
 11
230.4
 21
28
  0
LINE
  8
0
 10
230.4
 20
28
 11
230.4
 21
-28
  0
LINE
  8
0
 10
230.4
 20
-28
 11
268.4
 21
-28
  0
LINE
  8
0
 10
268.4
 20
-28
 11
268.4
 21
28
  0
LINE
  8
0
 10
235.15
 20
-22.5
 11
235.15
 21
22.5
  0
LINE
  8
0
 10
235.15
 20
22.5
 11
263.65
 21
22.5
  0
LINE
  8
0
 10
263.65
 20
22.5
 11
263.65
 21
-22.5
  0
LINE
  8
0
 10
263.65
 20
-22.5
 11
235.15
 21
-22.5
  0
ENDSEC
  0
SECTION
  2
OBJECTS
  0
DICTIONARY
  0
ENDSEC
  0
EOF
