<?xml version="1.0" standalone="no"?>
<!DOCTYPE svg PUBLIC "-//W3C//DTD SVG 1.1//EN" "http://www.w3.org/Graphics/SVG/1.1/DTD/svg11.dtd">
<svg width="298mm" height="193mm" viewBox="-24 -145 298 193" xmlns="http://www.w3.org/2000/svg" version="1.1">
<title>OpenSCAD Model</title>
<path d="
M 222,-144.5 L 178,-144.5 L 178,-49.5 L 222,-49.5 z
M 172,-144.5 L 128,-144.5 L 128,-49.5 L 172,-49.5 z
M 124,-144.5 L 76,-144.5 L 76,-49.5 L 124,-49.5 z
M 74,-144.5 L 26,-144.5 L 26,-49.5 L 74,-49.5 z
M 24,-74 L -24,-74 L -24,-26 L 24,-26 z
M -15,-35 L -15,-65 L 15,-65 L 15,-35 z
M -17.5502,-49.2016 L -17.6499,-49.2142 L -17.7472,-49.2392 L -17.8406,-49.2762 L -17.9286,-49.3245 L -18.0099,-49.3836
 L -18.0832,-49.4524 L -18.1472,-49.5298 L -18.201,-49.6146 L -18.2438,-49.7055 L -18.2749,-49.8011 L -18.2937,-49.8997
 L -18.3,-50 L -18.2937,-50.1003 L -18.2749,-50.1989 L -18.2438,-50.2945 L -18.201,-50.3854 L -18.1472,-50.4702
 L -18.0832,-50.5476 L -18.0099,-50.6164 L -17.9286,-50.6755 L -17.8406,-50.7238 L -17.7472,-50.7608 L -17.6499,-50.7858
 L -17.5502,-50.7984 L -17.4498,-50.7984 L -17.3501,-50.7858 L -17.2528,-50.7608 L -17.1594,-50.7238 L -17.0713,-50.6755
 L -16.9901,-50.6164 L -16.9168,-50.5476 L -16.8528,-50.4702 L -16.799,-50.3854 L -16.7562,-50.2945 L -16.7251,-50.1989
 L -16.7063,-50.1003 L -16.7,-50 L -16.7063,-49.8997 L -16.7251,-49.8011 L -16.7562,-49.7055 L -16.799,-49.6146
 L -16.8528,-49.5298 L -16.9168,-49.4524 L -16.9901,-49.3836 L -17.0713,-49.3245 L -17.1594,-49.2762 L -17.2528,-49.2392
 L -17.3501,-49.2142 L -17.4498,-49.2016 z
M 17.4498,-49.2016 L 17.3501,-49.2142 L 17.2528,-49.2392 L 17.1594,-49.2762 L 17.0713,-49.3245 L 16.9901,-49.3836
 L 16.9168,-49.4524 L 16.8528,-49.5298 L 16.799,-49.6146 L 16.7562,-49.7055 L 16.7251,-49.8011 L 16.7063,-49.8997
 L 16.7,-50 L 16.7063,-50.1003 L 16.7251,-50.1989 L 16.7562,-50.2945 L 16.799,-50.3854 L 16.8528,-50.4702
 L 16.9168,-50.5476 L 16.9901,-50.6164 L 17.0713,-50.6755 L 17.1594,-50.7238 L 17.2528,-50.7608 L 17.3501,-50.7858
 L 17.4498,-50.7984 L 17.5502,-50.7984 L 17.6499,-50.7858 L 17.7472,-50.7608 L 17.8406,-50.7238 L 17.9286,-50.6755
 L 18.0099,-50.6164 L 18.0832,-50.5476 L 18.1472,-50.4702 L 18.201,-50.3854 L 18.2438,-50.2945 L 18.2749,-50.1989
 L 18.2937,-50.1003 L 18.3,-50 L 18.2937,-49.8997 L 18.2749,-49.8011 L 18.2438,-49.7055 L 18.201,-49.6146
 L 18.1472,-49.5298 L 18.0832,-49.4524 L 18.0099,-49.3836 L 17.9286,-49.3245 L 17.8406,-49.2762 L 17.7472,-49.2392
 L 17.6499,-49.2142 L 17.5502,-49.2016 z
M 274,-74 L 226,-74 L 226,-26 L 274,-26 z
M 236.25,-36.25 L 236.25,-63.75 L 263.75,-63.75 L 263.75,-36.25 z
M 74,-47.5 L 26,-47.5 L 26,47.5 L 74,47.5 z
M 124,-47.5 L 76,-47.5 L 76,47.5 L 124,47.5 z
M 172,-47.5 L 128,-47.5 L 128,47.5 L 172,47.5 z
M 222,-47.5 L 178,-47.5 L 178,47.5 L 222,47.5 z
M 24,-24 L -24,-24 L -24,24 L 24,24 z
M -15,15 L -15,-15 L 15,-15 L 15,15 z
M -17.5502,0.798416 L -17.6499,0.785828 L -17.7472,0.760834 L -17.8406,0.723846 L -17.9286,0.675461 L -18.0099,0.616409
 L -18.0832,0.547623 L -18.1472,0.470215 L -18.201,0.385391 L -18.2438,0.294495 L -18.2749,0.198944 L -18.2937,0.100266
 L -18.3,-0 L -18.2937,-0.100266 L -18.2749,-0.198944 L -18.2438,-0.294495 L -18.201,-0.385391 L -18.1472,-0.470215
 L -18.0832,-0.547623 L -18.0099,-0.616409 L -17.9286,-0.675461 L -17.8406,-0.723846 L -17.7472,-0.760834 L -17.6499,-0.785828
 L -17.5502,-0.798416 L -17.4498,-0.798416 L -17.3501,-0.785828 L -17.2528,-0.760834 L -17.1594,-0.723846 L -17.0713,-0.675461
 L -16.9901,-0.616409 L -16.9168,-0.547623 L -16.8528,-0.470215 L -16.799,-0.385391 L -16.7562,-0.294495 L -16.7251,-0.198944
 L -16.7063,-0.100266 L -16.7,-0 L -16.7063,0.100266 L -16.7251,0.198944 L -16.7562,0.294495 L -16.799,0.385391
 L -16.8528,0.470215 L -16.9168,0.547623 L -16.9901,0.616409 L -17.0713,0.675461 L -17.1594,0.723846 L -17.2528,0.760834
 L -17.3501,0.785828 L -17.4498,0.798416 z
M 17.4498,0.798416 L 17.3501,0.785828 L 17.2528,0.760834 L 17.1594,0.723846 L 17.0713,0.675461 L 16.9901,0.616409
 L 16.9168,0.547623 L 16.8528,0.470215 L 16.799,0.385391 L 16.7562,0.294495 L 16.7251,0.198944 L 16.7063,0.100266
 L 16.7,-0 L 16.7063,-0.100266 L 16.7251,-0.198944 L 16.7562,-0.294495 L 16.799,-0.385391 L 16.8528,-0.470215
 L 16.9168,-0.547623 L 16.9901,-0.616409 L 17.0713,-0.675461 L 17.1594,-0.723846 L 17.2528,-0.760834 L 17.3501,-0.785828
 L 17.4498,-0.798416 L 17.5502,-0.798416 L 17.6499,-0.785828 L 17.7472,-0.760834 L 17.8406,-0.723846 L 17.9286,-0.675461
 L 18.0099,-0.616409 L 18.0832,-0.547623 L 18.1472,-0.470215 L 18.201,-0.385391 L 18.2438,-0.294495 L 18.2749,-0.198944
 L 18.2937,-0.100266 L 18.3,-0 L 18.2937,0.100266 L 18.2749,0.198944 L 18.2438,0.294495 L 18.201,0.385391
 L 18.1472,0.470215 L 18.0832,0.547623 L 18.0099,0.616409 L 17.9286,0.675461 L 17.8406,0.723846 L 17.7472,0.760834
 L 17.6499,0.785828 L 17.5502,0.798416 z
M 274,-24 L 226,-24 L 226,24 L 274,24 z
M 236.25,13.75 L 236.25,-13.75 L 263.75,-13.75 L 263.75,13.75 z
" stroke="black" fill="lightgray" stroke-width="0.5"/>
</svg>
