<?xml version="1.0" standalone="no"?>
<!DOCTYPE svg PUBLIC "-//W3C//DTD SVG 1.1//EN" "http://www.w3.org/Graphics/SVG/1.1/DTD/svg11.dtd">
<svg width="340mm" height="360mm" viewBox="-80 -270 340 360" xmlns="http://www.w3.org/2000/svg" version="1.1">
<title>OpenSCAD Model</title>
<path d="
M 186.864,-91.5942 L 197.812,-94.4049 L 208.32,-98.5656 L 218.224,-104.01 L 227.368,-110.654 L 235.607,-118.391
 L 242.812,-127.099 L 248.868,-136.642 L 253.68,-146.869 L 257.172,-157.618 L 259.29,-168.72 L 260,-180
 L 259.29,-191.28 L 257.172,-202.382 L 253.68,-213.131 L 248.868,-223.358 L 242.812,-232.901 L 235.607,-241.609
 L 227.368,-249.346 L 218.224,-255.99 L 208.32,-261.434 L 197.812,-265.595 L 186.864,-268.406 L 175.651,-269.822
 L 164.349,-269.822 L 153.136,-268.406 L 142.188,-265.595 L 131.68,-261.434 L 121.776,-255.99 L 112.632,-249.346
 L 104.393,-241.609 L 97.1885,-232.901 L 91.1324,-223.358 L 86.3201,-213.131 L 82.8275,-202.382 L 80.7097,-191.28
 L 80,-180 L 80.7097,-168.72 L 82.8275,-157.618 L 86.3201,-146.869 L 91.1324,-136.642 L 97.1885,-127.099
 L 104.393,-118.391 L 112.632,-110.654 L 121.776,-104.01 L 131.68,-98.5656 L 142.188,-94.4049 L 153.136,-91.5942
 L 164.349,-90.1776 L 175.651,-90.1776 z
M 168.564,-176.213 L 166.969,-177.314 L 166.068,-179.031 L 166.068,-180.969 L 166.969,-182.686 L 168.564,-183.787
 L 170.488,-184.02 L 172.301,-183.333 L 173.586,-181.882 L 174.05,-180 L 173.586,-178.118 L 172.301,-176.667
 L 170.488,-175.98 z
M 14.9905,-81.417 L 24.7214,-83.9155 L 34.0623,-87.6138 L 42.8661,-92.4538 L 50.9939,-98.3589 L 58.3175,-105.236
 L 64.7214,-112.977 L 70.1045,-121.46 L 74.3821,-130.55 L 77.4866,-140.105 L 79.3692,-149.973 L 80,-160
 L 79.3692,-170.027 L 77.4866,-179.895 L 74.3821,-189.45 L 70.1045,-198.54 L 64.7214,-207.023 L 58.3175,-214.764
 L 50.9939,-221.641 L 42.8661,-227.546 L 34.0623,-232.386 L 24.7214,-236.085 L 14.9905,-238.583 L 5.02324,-239.842
 L -5.02324,-239.842 L -14.9905,-238.583 L -24.7214,-236.085 L -34.0623,-232.386 L -42.8661,-227.546 L -50.9939,-221.641
 L -58.3175,-214.764 L -64.7214,-207.023 L -70.1045,-198.54 L -74.3821,-189.45 L -77.4866,-179.895 L -79.3692,-170.027
 L -80,-160 L -79.3692,-149.973 L -77.4866,-140.105 L -74.3821,-130.55 L -70.1045,-121.46 L -64.7214,-112.977
 L -58.3175,-105.236 L -50.9939,-98.3589 L -42.8661,-92.4538 L -34.0623,-87.6138 L -24.7214,-83.9155 L -14.9905,-81.417
 L -5.02324,-80.1579 L 5.02324,-80.1579 z
M -0.17894,-157.156 L -0.534027,-157.2 L -0.880692,-157.289 L -1.21347,-157.421 L -1.5271,-157.594 L -1.81665,-157.804
 L -2.07756,-158.049 L -2.30569,-158.325 L -2.49747,-158.627 L -2.64986,-158.951 L -2.76045,-159.291 L -2.82751,-159.643
 L -2.84999,-160 L -2.82751,-160.357 L -2.76045,-160.709 L -2.64986,-161.049 L -2.49747,-161.373 L -2.30569,-161.675
 L -2.07756,-161.951 L -1.81665,-162.196 L -1.5271,-162.406 L -1.21347,-162.579 L -0.880692,-162.711 L -0.534027,-162.8
 L -0.17894,-162.844 L 0.17894,-162.844 L 0.534027,-162.8 L 0.880692,-162.711 L 1.21347,-162.579 L 1.45,-162.449
 L 1.45,-157.551 L 1.21347,-157.421 L 0.880692,-157.289 L 0.534027,-157.2 L 0.17894,-157.156 z
M 186.864,88.4058 L 197.812,85.5951 L 208.32,81.4344 L 218.224,75.9895 L 227.368,69.3462 L 235.607,61.6092
 L 242.812,52.9007 L 248.868,43.3578 L 253.68,33.1312 L 257.172,22.3821 L 259.29,11.28 L 260,-0
 L 259.29,-11.28 L 257.172,-22.3821 L 253.68,-33.1312 L 248.868,-43.3578 L 242.812,-52.9007 L 235.607,-61.6092
 L 227.368,-69.3462 L 218.224,-75.9895 L 208.32,-81.4344 L 197.812,-85.5951 L 186.864,-88.4058 L 175.651,-89.8224
 L 164.349,-89.8224 L 153.136,-88.4058 L 142.188,-85.5951 L 131.68,-81.4344 L 121.776,-75.9895 L 112.632,-69.3462
 L 104.393,-61.6092 L 97.1885,-52.9007 L 91.1324,-43.3578 L 86.3201,-33.1312 L 82.8275,-22.3821 L 80.7097,-11.28
 L 80,-0 L 80.7097,11.28 L 82.8275,22.3821 L 86.3201,33.1312 L 91.1324,43.3578 L 97.1885,52.9007
 L 104.393,61.6092 L 112.632,69.3462 L 121.776,75.9895 L 131.68,81.4344 L 142.188,85.5951 L 153.136,88.4058
 L 164.349,89.8224 L 175.651,89.8224 z
M 168.564,3.7868 L 166.969,2.68564 L 166.068,0.969223 L 166.068,-0.969223 L 166.969,-2.68564 L 168.564,-3.7868
 L 170.488,-4.02046 L 172.301,-3.33308 L 173.586,-1.88213 L 174.05,-0 L 173.586,1.88213 L 172.301,3.33308
 L 170.488,4.02046 z
M 14.9905,78.583 L 24.7214,76.0845 L 34.0623,72.3862 L 42.8661,67.5462 L 50.9939,61.6411 L 58.3175,54.7638
 L 64.7214,47.0228 L 70.1045,38.5403 L 74.3821,29.45 L 77.4866,19.8952 L 79.3692,10.0267 L 80,-0
 L 79.3692,-10.0267 L 77.4866,-19.8952 L 74.3821,-29.45 L 70.1045,-38.5403 L 64.7214,-47.0228 L 58.3175,-54.7638
 L 50.9939,-61.6411 L 42.8661,-67.5462 L 34.0623,-72.3862 L 24.7214,-76.0845 L 14.9905,-78.583 L 5.02324,-79.8421
 L -5.02324,-79.8421 L -14.9905,-78.583 L -24.7214,-76.0845 L -34.0623,-72.3862 L -42.8661,-67.5462 L -50.9939,-61.6411
 L -58.3175,-54.7638 L -64.7214,-47.0228 L -70.1045,-38.5403 L -74.3821,-29.45 L -77.4866,-19.8952 L -79.3692,-10.0267
 L -80,-0 L -79.3692,10.0267 L -77.4866,19.8952 L -74.3821,29.45 L -70.1045,38.5403 L -64.7214,47.0228
 L -58.3175,54.7638 L -50.9939,61.6411 L -42.8661,67.5462 L -34.0623,72.3862 L -24.7214,76.0845 L -14.9905,78.583
 L -5.02324,79.8421 L 5.02324,79.8421 z
M -0.17894,2.84438 L -0.534027,2.79951 L -0.880692,2.71051 L -1.21347,2.57875 L -1.5271,2.40633 L -1.81665,2.19595
 L -2.07756,1.95096 L -2.30569,1.67519 L -2.49747,1.37299 L -2.64986,1.04915 L -2.76045,0.708755 L -2.82751,0.357193
 L -2.84999,-0 L -2.82751,-0.357193 L -2.76045,-0.708755 L -2.64986,-1.04915 L -2.49747,-1.37299 L -2.30569,-1.67519
 L -2.07756,-1.95096 L -1.81665,-2.19595 L -1.5271,-2.40633 L -1.21347,-2.57875 L -0.880692,-2.71051 L -0.534027,-2.79951
 L -0.17894,-2.84438 L 0.17894,-2.84438 L 0.534027,-2.79951 L 0.880692,-2.71051 L 1.21347,-2.57875 L 1.45,-2.44872
 L 1.45,2.44872 L 1.21347,2.57875 L 0.880692,2.71051 L 0.534027,2.79951 L 0.17894,2.84438 z
" stroke="black" fill="lightgray" stroke-width="0.5"/>
</svg>
