<?xml version="1.0" standalone="no"?>
<!DOCTYPE svg PUBLIC "-//W3C//DTD SVG 1.1//EN" "http://www.w3.org/Graphics/SVG/1.1/DTD/svg11.dtd">
<svg width="238mm" height="402mm" viewBox="-19 -383 238 402" xmlns="http://www.w3.org/2000/svg" version="1.1">
<title>OpenSCAD Model</title>
<path d="
M 65,-332.2 L 95,-332.2 L 95,-328.2 L 99,-328.2 L 99,-352.2 L 95,-352.2
 L 95,-359.7 L 99,-359.7 L 99,-374.7 L 95,-374.7 L 95,-382.2 L 65,-382.2
 L 65,-374.7 L 61,-374.7 L 61,-359.7 L 65,-359.7 L 65,-352.2 L 61,-352.2
 L 61,-328.2 L 65,-328.2 z
M 79.6861,-364.21 L 79.0631,-364.289 L 78.4549,-364.445 L 77.8711,-364.676 L 77.3209,-364.978 L 76.8129,-365.347
 L 76.3552,-365.777 L 75.9549,-366.261 L 75.6185,-366.791 L 75.3511,-367.359 L 75.1571,-367.957 L 75.0394,-368.573
 L 75,-369.2 L 75.0394,-369.827 L 75.1571,-370.443 L 75.3511,-371.041 L 75.6185,-371.609 L 75.9549,-372.139
 L 76.3552,-372.623 L 76.8129,-373.053 L 77.3209,-373.422 L 77.8711,-373.724 L 78.4549,-373.955 L 79.0631,-374.111
 L 79.6861,-374.19 L 80.3139,-374.19 L 80.9369,-374.111 L 81.5451,-373.955 L 82.1289,-373.724 L 82.6791,-373.422
 L 83.1871,-373.053 L 83.6448,-372.623 L 84.0451,-372.139 L 84.3815,-371.609 L 84.6489,-371.041 L 84.8429,-370.443
 L 84.9606,-369.827 L 85,-369.2 L 84.9606,-368.573 L 84.8429,-367.957 L 84.6489,-367.359 L 84.3815,-366.791
 L 84.0451,-366.261 L 83.6448,-365.777 L 83.1871,-365.347 L 82.6791,-364.978 L 82.1289,-364.676 L 81.5451,-364.445
 L 80.9369,-364.289 L 80.3139,-364.21 z
M 72.5,-348.2 L 72.5,-352.2 L 87.5,-352.2 L 87.5,-348.2 z
M -15,-332.2 L 15,-332.2 L 15,-328.2 L 19,-328.2 L 19,-352.2 L 15,-352.2
 L 15,-359.7 L 19,-359.7 L 19,-374.7 L 15,-374.7 L 15,-382.2 L -15,-382.2
 L -15,-374.7 L -19,-374.7 L -19,-359.7 L -15,-359.7 L -15,-352.2 L -19,-352.2
 L -19,-328.2 L -15,-328.2 z
M -0.31395,-364.21 L -0.936905,-364.289 L -1.54507,-364.445 L -2.12889,-364.676 L -2.67912,-364.978 L -3.18712,-365.347
 L -3.64484,-365.777 L -4.04507,-366.261 L -4.38153,-366.791 L -4.64888,-367.359 L -4.84291,-367.957 L -4.96057,-368.573
 L -5,-369.2 L -4.96057,-369.827 L -4.84291,-370.443 L -4.64888,-371.041 L -4.38153,-371.609 L -4.04507,-372.139
 L -3.64484,-372.623 L -3.18712,-373.053 L -2.67912,-373.422 L -2.12889,-373.724 L -1.54507,-373.955 L -0.936905,-374.111
 L -0.31395,-374.19 L 0.31395,-374.19 L 0.936905,-374.111 L 1.54507,-373.955 L 2.12889,-373.724 L 2.67912,-373.422
 L 3.18712,-373.053 L 3.64484,-372.623 L 4.04507,-372.139 L 4.38153,-371.609 L 4.64888,-371.041 L 4.84291,-370.443
 L 4.96057,-369.827 L 5,-369.2 L 4.96057,-368.573 L 4.84291,-367.957 L 4.64888,-367.359 L 4.38153,-366.791
 L 4.04507,-366.261 L 3.64484,-365.777 L 3.18712,-365.347 L 2.67912,-364.978 L 2.12889,-364.676 L 1.54507,-364.445
 L 0.936905,-364.289 L 0.31395,-364.21 z
M -7.5,-348.2 L -7.5,-352.2 L 7.5,-352.2 L 7.5,-348.2 z
M 145,-332.2 L 175,-332.2 L 175,-328.2 L 179,-328.2 L 179,-352.2 L 175,-352.2
 L 175,-359.7 L 179,-359.7 L 179,-374.7 L 175,-374.7 L 175,-382.2 L 145,-382.2
 L 145,-374.7 L 141,-374.7 L 141,-359.7 L 145,-359.7 L 145,-352.2 L 141,-352.2
 L 141,-328.2 L 145,-328.2 z
M 159.686,-364.21 L 159.063,-364.289 L 158.455,-364.445 L 157.871,-364.676 L 157.321,-364.978 L 156.813,-365.347
 L 156.355,-365.777 L 155.955,-366.261 L 155.618,-366.791 L 155.351,-367.359 L 155.157,-367.957 L 155.039,-368.573
 L 155,-369.2 L 155.039,-369.827 L 155.157,-370.443 L 155.351,-371.041 L 155.618,-371.609 L 155.955,-372.139
 L 156.355,-372.623 L 156.813,-373.053 L 157.321,-373.422 L 157.871,-373.724 L 158.455,-373.955 L 159.063,-374.111
 L 159.686,-374.19 L 160.314,-374.19 L 160.937,-374.111 L 161.545,-373.955 L 162.129,-373.724 L 162.679,-373.422
 L 163.187,-373.053 L 163.645,-372.623 L 164.045,-372.139 L 164.382,-371.609 L 164.649,-371.041 L 164.843,-370.443
 L 164.961,-369.827 L 165,-369.2 L 164.961,-368.573 L 164.843,-367.957 L 164.649,-367.359 L 164.382,-366.791
 L 164.045,-366.261 L 163.645,-365.777 L 163.187,-365.347 L 162.679,-364.978 L 162.129,-364.676 L 161.545,-364.445
 L 160.937,-364.289 L 160.314,-364.21 z
M 152.5,-348.2 L 152.5,-352.2 L 167.5,-352.2 L 167.5,-348.2 z
M 105,-332.2 L 135,-332.2 L 135,-328.2 L 139,-328.2 L 139,-352.2 L 135,-352.2
 L 135,-359.7 L 139,-359.7 L 139,-374.7 L 135,-374.7 L 135,-382.2 L 105,-382.2
 L 105,-374.7 L 101,-374.7 L 101,-359.7 L 105,-359.7 L 105,-352.2 L 101,-352.2
 L 101,-328.2 L 105,-328.2 z
M 119.686,-364.21 L 119.063,-364.289 L 118.455,-364.445 L 117.871,-364.676 L 117.321,-364.978 L 116.813,-365.347
 L 116.355,-365.777 L 115.955,-366.261 L 115.618,-366.791 L 115.351,-367.359 L 115.157,-367.957 L 115.039,-368.573
 L 115,-369.2 L 115.039,-369.827 L 115.157,-370.443 L 115.351,-371.041 L 115.618,-371.609 L 115.955,-372.139
 L 116.355,-372.623 L 116.813,-373.053 L 117.321,-373.422 L 117.871,-373.724 L 118.455,-373.955 L 119.063,-374.111
 L 119.686,-374.19 L 120.314,-374.19 L 120.937,-374.111 L 121.545,-373.955 L 122.129,-373.724 L 122.679,-373.422
 L 123.187,-373.053 L 123.645,-372.623 L 124.045,-372.139 L 124.382,-371.609 L 124.649,-371.041 L 124.843,-370.443
 L 124.961,-369.827 L 125,-369.2 L 124.961,-368.573 L 124.843,-367.957 L 124.649,-367.359 L 124.382,-366.791
 L 124.045,-366.261 L 123.645,-365.777 L 123.187,-365.347 L 122.679,-364.978 L 122.129,-364.676 L 121.545,-364.445
 L 120.937,-364.289 L 120.314,-364.21 z
M 112.5,-348.2 L 112.5,-352.2 L 127.5,-352.2 L 127.5,-348.2 z
M 25,-332.2 L 55,-332.2 L 55,-328.2 L 59,-328.2 L 59,-352.2 L 55,-352.2
 L 55,-359.7 L 59,-359.7 L 59,-374.7 L 55,-374.7 L 55,-382.2 L 25,-382.2
 L 25,-374.7 L 21,-374.7 L 21,-359.7 L 25,-359.7 L 25,-352.2 L 21,-352.2
 L 21,-328.2 L 25,-328.2 z
M 39.6861,-364.21 L 39.0631,-364.289 L 38.4549,-364.445 L 37.8711,-364.676 L 37.3209,-364.978 L 36.8129,-365.347
 L 36.3552,-365.777 L 35.9549,-366.261 L 35.6185,-366.791 L 35.3511,-367.359 L 35.1571,-367.957 L 35.0394,-368.573
 L 35,-369.2 L 35.0394,-369.827 L 35.1571,-370.443 L 35.3511,-371.041 L 35.6185,-371.609 L 35.9549,-372.139
 L 36.3552,-372.623 L 36.8129,-373.053 L 37.3209,-373.422 L 37.8711,-373.724 L 38.4549,-373.955 L 39.0631,-374.111
 L 39.6861,-374.19 L 40.3139,-374.19 L 40.9369,-374.111 L 41.5451,-373.955 L 42.1289,-373.724 L 42.6791,-373.422
 L 43.1871,-373.053 L 43.6448,-372.623 L 44.0451,-372.139 L 44.3815,-371.609 L 44.6489,-371.041 L 44.8429,-370.443
 L 44.9606,-369.827 L 45,-369.2 L 44.9606,-368.573 L 44.8429,-367.957 L 44.6489,-367.359 L 44.3815,-366.791
 L 44.0451,-366.261 L 43.6448,-365.777 L 43.1871,-365.347 L 42.6791,-364.978 L 42.1289,-364.676 L 41.5451,-364.445
 L 40.9369,-364.289 L 40.3139,-364.21 z
M 32.5,-348.2 L 32.5,-352.2 L 47.5,-352.2 L 47.5,-348.2 z
M 185,-332.2 L 215,-332.2 L 215,-328.2 L 219,-328.2 L 219,-352.2 L 215,-352.2
 L 215,-359.7 L 219,-359.7 L 219,-374.7 L 215,-374.7 L 215,-382.2 L 185,-382.2
 L 185,-374.7 L 181,-374.7 L 181,-359.7 L 185,-359.7 L 185,-352.2 L 181,-352.2
 L 181,-328.2 L 185,-328.2 z
M 199.686,-364.21 L 199.063,-364.289 L 198.455,-364.445 L 197.871,-364.676 L 197.321,-364.978 L 196.813,-365.347
 L 196.355,-365.777 L 195.955,-366.261 L 195.618,-366.791 L 195.351,-367.359 L 195.157,-367.957 L 195.039,-368.573
 L 195,-369.2 L 195.039,-369.827 L 195.157,-370.443 L 195.351,-371.041 L 195.618,-371.609 L 195.955,-372.139
 L 196.355,-372.623 L 196.813,-373.053 L 197.321,-373.422 L 197.871,-373.724 L 198.455,-373.955 L 199.063,-374.111
 L 199.686,-374.19 L 200.314,-374.19 L 200.937,-374.111 L 201.545,-373.955 L 202.129,-373.724 L 202.679,-373.422
 L 203.187,-373.053 L 203.645,-372.623 L 204.045,-372.139 L 204.382,-371.609 L 204.649,-371.041 L 204.843,-370.443
 L 204.961,-369.827 L 205,-369.2 L 204.961,-368.573 L 204.843,-367.957 L 204.649,-367.359 L 204.382,-366.791
 L 204.045,-366.261 L 203.645,-365.777 L 203.187,-365.347 L 202.679,-364.978 L 202.129,-364.676 L 201.545,-364.445
 L 200.937,-364.289 L 200.314,-364.21 z
M 192.5,-348.2 L 192.5,-352.2 L 207.5,-352.2 L 207.5,-348.2 z
M -15,-274.6 L 15,-274.6 L 15,-270.6 L 19,-270.6 L 19,-294.6 L 15,-294.6
 L 15,-302.1 L 19,-302.1 L 19,-317.1 L 15,-317.1 L 15,-324.6 L -15,-324.6
 L -15,-317.1 L -19,-317.1 L -19,-302.1 L -15,-302.1 L -15,-294.6 L -19,-294.6
 L -19,-270.6 L -15,-270.6 z
M -0.31395,-306.61 L -0.936905,-306.689 L -1.54507,-306.845 L -2.12889,-307.076 L -2.67912,-307.378 L -3.18712,-307.747
 L -3.64484,-308.177 L -4.04507,-308.661 L -4.38153,-309.191 L -4.64888,-309.759 L -4.84291,-310.357 L -4.96057,-310.973
 L -5,-311.6 L -4.96057,-312.227 L -4.84291,-312.843 L -4.64888,-313.441 L -4.38153,-314.009 L -4.04507,-314.539
 L -3.64484,-315.023 L -3.18712,-315.453 L -2.67912,-315.822 L -2.12889,-316.124 L -1.54507,-316.355 L -0.936905,-316.511
 L -0.31395,-316.59 L 0.31395,-316.59 L 0.936905,-316.511 L 1.54507,-316.355 L 2.12889,-316.124 L 2.67912,-315.822
 L 3.18712,-315.453 L 3.64484,-315.023 L 4.04507,-314.539 L 4.38153,-314.009 L 4.64888,-313.441 L 4.84291,-312.843
 L 4.96057,-312.227 L 5,-311.6 L 4.96057,-310.973 L 4.84291,-310.357 L 4.64888,-309.759 L 4.38153,-309.191
 L 4.04507,-308.661 L 3.64484,-308.177 L 3.18712,-307.747 L 2.67912,-307.378 L 2.12889,-307.076 L 1.54507,-306.845
 L 0.936905,-306.689 L 0.31395,-306.61 z
M -7.5,-290.6 L -7.5,-294.6 L 7.5,-294.6 L 7.5,-290.6 z
M 25,-274.6 L 55,-274.6 L 55,-270.6 L 59,-270.6 L 59,-294.6 L 55,-294.6
 L 55,-302.1 L 59,-302.1 L 59,-317.1 L 55,-317.1 L 55,-324.6 L 25,-324.6
 L 25,-317.1 L 21,-317.1 L 21,-302.1 L 25,-302.1 L 25,-294.6 L 21,-294.6
 L 21,-270.6 L 25,-270.6 z
M 39.6861,-306.61 L 39.0631,-306.689 L 38.4549,-306.845 L 37.8711,-307.076 L 37.3209,-307.378 L 36.8129,-307.747
 L 36.3552,-308.177 L 35.9549,-308.661 L 35.6185,-309.191 L 35.3511,-309.759 L 35.1571,-310.357 L 35.0394,-310.973
 L 35,-311.6 L 35.0394,-312.227 L 35.1571,-312.843 L 35.3511,-313.441 L 35.6185,-314.009 L 35.9549,-314.539
 L 36.3552,-315.023 L 36.8129,-315.453 L 37.3209,-315.822 L 37.8711,-316.124 L 38.4549,-316.355 L 39.0631,-316.511
 L 39.6861,-316.59 L 40.3139,-316.59 L 40.9369,-316.511 L 41.5451,-316.355 L 42.1289,-316.124 L 42.6791,-315.822
 L 43.1871,-315.453 L 43.6448,-315.023 L 44.0451,-314.539 L 44.3815,-314.009 L 44.6489,-313.441 L 44.8429,-312.843
 L 44.9606,-312.227 L 45,-311.6 L 44.9606,-310.973 L 44.8429,-310.357 L 44.6489,-309.759 L 44.3815,-309.191
 L 44.0451,-308.661 L 43.6448,-308.177 L 43.1871,-307.747 L 42.6791,-307.378 L 42.1289,-307.076 L 41.5451,-306.845
 L 40.9369,-306.689 L 40.3139,-306.61 z
M 32.5,-290.6 L 32.5,-294.6 L 47.5,-294.6 L 47.5,-290.6 z
M 145,-274.6 L 175,-274.6 L 175,-270.6 L 179,-270.6 L 179,-294.6 L 175,-294.6
 L 175,-302.1 L 179,-302.1 L 179,-317.1 L 175,-317.1 L 175,-324.6 L 145,-324.6
 L 145,-317.1 L 141,-317.1 L 141,-302.1 L 145,-302.1 L 145,-294.6 L 141,-294.6
 L 141,-270.6 L 145,-270.6 z
M 159.686,-306.61 L 159.063,-306.689 L 158.455,-306.845 L 157.871,-307.076 L 157.321,-307.378 L 156.813,-307.747
 L 156.355,-308.177 L 155.955,-308.661 L 155.618,-309.191 L 155.351,-309.759 L 155.157,-310.357 L 155.039,-310.973
 L 155,-311.6 L 155.039,-312.227 L 155.157,-312.843 L 155.351,-313.441 L 155.618,-314.009 L 155.955,-314.539
 L 156.355,-315.023 L 156.813,-315.453 L 157.321,-315.822 L 157.871,-316.124 L 158.455,-316.355 L 159.063,-316.511
 L 159.686,-316.59 L 160.314,-316.59 L 160.937,-316.511 L 161.545,-316.355 L 162.129,-316.124 L 162.679,-315.822
 L 163.187,-315.453 L 163.645,-315.023 L 164.045,-314.539 L 164.382,-314.009 L 164.649,-313.441 L 164.843,-312.843
 L 164.961,-312.227 L 165,-311.6 L 164.961,-310.973 L 164.843,-310.357 L 164.649,-309.759 L 164.382,-309.191
 L 164.045,-308.661 L 163.645,-308.177 L 163.187,-307.747 L 162.679,-307.378 L 162.129,-307.076 L 161.545,-306.845
 L 160.937,-306.689 L 160.314,-306.61 z
M 152.5,-290.6 L 152.5,-294.6 L 167.5,-294.6 L 167.5,-290.6 z
M 65,-274.6 L 95,-274.6 L 95,-270.6 L 99,-270.6 L 99,-294.6 L 95,-294.6
 L 95,-302.1 L 99,-302.1 L 99,-317.1 L 95,-317.1 L 95,-324.6 L 65,-324.6
 L 65,-317.1 L 61,-317.1 L 61,-302.1 L 65,-302.1 L 65,-294.6 L 61,-294.6
 L 61,-270.6 L 65,-270.6 z
M 79.6861,-306.61 L 79.0631,-306.689 L 78.4549,-306.845 L 77.8711,-307.076 L 77.3209,-307.378 L 76.8129,-307.747
 L 76.3552,-308.177 L 75.9549,-308.661 L 75.6185,-309.191 L 75.3511,-309.759 L 75.1571,-310.357 L 75.0394,-310.973
 L 75,-311.6 L 75.0394,-312.227 L 75.1571,-312.843 L 75.3511,-313.441 L 75.6185,-314.009 L 75.9549,-314.539
 L 76.3552,-315.023 L 76.8129,-315.453 L 77.3209,-315.822 L 77.8711,-316.124 L 78.4549,-316.355 L 79.0631,-316.511
 L 79.6861,-316.59 L 80.3139,-316.59 L 80.9369,-316.511 L 81.5451,-316.355 L 82.1289,-316.124 L 82.6791,-315.822
 L 83.1871,-315.453 L 83.6448,-315.023 L 84.0451,-314.539 L 84.3815,-314.009 L 84.6489,-313.441 L 84.8429,-312.843
 L 84.9606,-312.227 L 85,-311.6 L 84.9606,-310.973 L 84.8429,-310.357 L 84.6489,-309.759 L 84.3815,-309.191
 L 84.0451,-308.661 L 83.6448,-308.177 L 83.1871,-307.747 L 82.6791,-307.378 L 82.1289,-307.076 L 81.5451,-306.845
 L 80.9369,-306.689 L 80.3139,-306.61 z
M 72.5,-290.6 L 72.5,-294.6 L 87.5,-294.6 L 87.5,-290.6 z
M 185,-274.6 L 215,-274.6 L 215,-270.6 L 219,-270.6 L 219,-294.6 L 215,-294.6
 L 215,-302.1 L 219,-302.1 L 219,-317.1 L 215,-317.1 L 215,-324.6 L 185,-324.6
 L 185,-317.1 L 181,-317.1 L 181,-302.1 L 185,-302.1 L 185,-294.6 L 181,-294.6
 L 181,-270.6 L 185,-270.6 z
M 199.686,-306.61 L 199.063,-306.689 L 198.455,-306.845 L 197.871,-307.076 L 197.321,-307.378 L 196.813,-307.747
 L 196.355,-308.177 L 195.955,-308.661 L 195.618,-309.191 L 195.351,-309.759 L 195.157,-310.357 L 195.039,-310.973
 L 195,-311.6 L 195.039,-312.227 L 195.157,-312.843 L 195.351,-313.441 L 195.618,-314.009 L 195.955,-314.539
 L 196.355,-315.023 L 196.813,-315.453 L 197.321,-315.822 L 197.871,-316.124 L 198.455,-316.355 L 199.063,-316.511
 L 199.686,-316.59 L 200.314,-316.59 L 200.937,-316.511 L 201.545,-316.355 L 202.129,-316.124 L 202.679,-315.822
 L 203.187,-315.453 L 203.645,-315.023 L 204.045,-314.539 L 204.382,-314.009 L 204.649,-313.441 L 204.843,-312.843
 L 204.961,-312.227 L 205,-311.6 L 204.961,-310.973 L 204.843,-310.357 L 204.649,-309.759 L 204.382,-309.191
 L 204.045,-308.661 L 203.645,-308.177 L 203.187,-307.747 L 202.679,-307.378 L 202.129,-307.076 L 201.545,-306.845
 L 200.937,-306.689 L 200.314,-306.61 z
M 192.5,-290.6 L 192.5,-294.6 L 207.5,-294.6 L 207.5,-290.6 z
M 105,-274.6 L 135,-274.6 L 135,-270.6 L 139,-270.6 L 139,-294.6 L 135,-294.6
 L 135,-302.1 L 139,-302.1 L 139,-317.1 L 135,-317.1 L 135,-324.6 L 105,-324.6
 L 105,-317.1 L 101,-317.1 L 101,-302.1 L 105,-302.1 L 105,-294.6 L 101,-294.6
 L 101,-270.6 L 105,-270.6 z
M 119.686,-306.61 L 119.063,-306.689 L 118.455,-306.845 L 117.871,-307.076 L 117.321,-307.378 L 116.813,-307.747
 L 116.355,-308.177 L 115.955,-308.661 L 115.618,-309.191 L 115.351,-309.759 L 115.157,-310.357 L 115.039,-310.973
 L 115,-311.6 L 115.039,-312.227 L 115.157,-312.843 L 115.351,-313.441 L 115.618,-314.009 L 115.955,-314.539
 L 116.355,-315.023 L 116.813,-315.453 L 117.321,-315.822 L 117.871,-316.124 L 118.455,-316.355 L 119.063,-316.511
 L 119.686,-316.59 L 120.314,-316.59 L 120.937,-316.511 L 121.545,-316.355 L 122.129,-316.124 L 122.679,-315.822
 L 123.187,-315.453 L 123.645,-315.023 L 124.045,-314.539 L 124.382,-314.009 L 124.649,-313.441 L 124.843,-312.843
 L 124.961,-312.227 L 125,-311.6 L 124.961,-310.973 L 124.843,-310.357 L 124.649,-309.759 L 124.382,-309.191
 L 124.045,-308.661 L 123.645,-308.177 L 123.187,-307.747 L 122.679,-307.378 L 122.129,-307.076 L 121.545,-306.845
 L 120.937,-306.689 L 120.314,-306.61 z
M 112.5,-290.6 L 112.5,-294.6 L 127.5,-294.6 L 127.5,-290.6 z
M 7.5,-237 L 15,-237 L 15,-244.5 L 19,-244.5 L 19,-259.5 L 15,-259.5
 L 15,-267 L -15,-267 L -15,-259.5 L -19,-259.5 L -19,-244.5 L -15,-244.5
 L -15,-237 L -7.5,-237 L -7.5,-233 L 7.5,-233 z
M -0.31395,-249.01 L -0.936905,-249.089 L -1.54507,-249.245 L -2.12889,-249.476 L -2.67912,-249.778 L -3.18712,-250.147
 L -3.64484,-250.577 L -4.04507,-251.061 L -4.38153,-251.591 L -4.64888,-252.159 L -4.84291,-252.757 L -4.96057,-253.373
 L -5,-254 L -4.96057,-254.627 L -4.84291,-255.243 L -4.64888,-255.841 L -4.38153,-256.409 L -4.04507,-256.939
 L -3.64484,-257.423 L -3.18712,-257.853 L -2.67912,-258.222 L -2.12889,-258.524 L -1.54507,-258.755 L -0.936905,-258.911
 L -0.31395,-258.99 L 0.31395,-258.99 L 0.936905,-258.911 L 1.54507,-258.755 L 2.12889,-258.524 L 2.67912,-258.222
 L 3.18712,-257.853 L 3.64484,-257.423 L 4.04507,-256.939 L 4.38153,-256.409 L 4.64888,-255.841 L 4.84291,-255.243
 L 4.96057,-254.627 L 5,-254 L 4.96057,-253.373 L 4.84291,-252.757 L 4.64888,-252.159 L 4.38153,-251.591
 L 4.04507,-251.061 L 3.64484,-250.577 L 3.18712,-250.147 L 2.67912,-249.778 L 2.12889,-249.476 L 1.54507,-249.245
 L 0.936905,-249.089 L 0.31395,-249.01 z
M 167.5,-237 L 175,-237 L 175,-244.5 L 179,-244.5 L 179,-259.5 L 175,-259.5
 L 175,-267 L 145,-267 L 145,-259.5 L 141,-259.5 L 141,-244.5 L 145,-244.5
 L 145,-237 L 152.5,-237 L 152.5,-233 L 167.5,-233 z
M 159.686,-249.01 L 159.063,-249.089 L 158.455,-249.245 L 157.871,-249.476 L 157.321,-249.778 L 156.813,-250.147
 L 156.355,-250.577 L 155.955,-251.061 L 155.618,-251.591 L 155.351,-252.159 L 155.157,-252.757 L 155.039,-253.373
 L 155,-254 L 155.039,-254.627 L 155.157,-255.243 L 155.351,-255.841 L 155.618,-256.409 L 155.955,-256.939
 L 156.355,-257.423 L 156.813,-257.853 L 157.321,-258.222 L 157.871,-258.524 L 158.455,-258.755 L 159.063,-258.911
 L 159.686,-258.99 L 160.314,-258.99 L 160.937,-258.911 L 161.545,-258.755 L 162.129,-258.524 L 162.679,-258.222
 L 163.187,-257.853 L 163.645,-257.423 L 164.045,-256.939 L 164.382,-256.409 L 164.649,-255.841 L 164.843,-255.243
 L 164.961,-254.627 L 165,-254 L 164.961,-253.373 L 164.843,-252.757 L 164.649,-252.159 L 164.382,-251.591
 L 164.045,-251.061 L 163.645,-250.577 L 163.187,-250.147 L 162.679,-249.778 L 162.129,-249.476 L 161.545,-249.245
 L 160.937,-249.089 L 160.314,-249.01 z
M 207.5,-237 L 215,-237 L 215,-244.5 L 219,-244.5 L 219,-259.5 L 215,-259.5
 L 215,-267 L 185,-267 L 185,-259.5 L 181,-259.5 L 181,-244.5 L 185,-244.5
 L 185,-237 L 192.5,-237 L 192.5,-233 L 207.5,-233 z
M 199.686,-249.01 L 199.063,-249.089 L 198.455,-249.245 L 197.871,-249.476 L 197.321,-249.778 L 196.813,-250.147
 L 196.355,-250.577 L 195.955,-251.061 L 195.618,-251.591 L 195.351,-252.159 L 195.157,-252.757 L 195.039,-253.373
 L 195,-254 L 195.039,-254.627 L 195.157,-255.243 L 195.351,-255.841 L 195.618,-256.409 L 195.955,-256.939
 L 196.355,-257.423 L 196.813,-257.853 L 197.321,-258.222 L 197.871,-258.524 L 198.455,-258.755 L 199.063,-258.911
 L 199.686,-258.99 L 200.314,-258.99 L 200.937,-258.911 L 201.545,-258.755 L 202.129,-258.524 L 202.679,-258.222
 L 203.187,-257.853 L 203.645,-257.423 L 204.045,-256.939 L 204.382,-256.409 L 204.649,-255.841 L 204.843,-255.243
 L 204.961,-254.627 L 205,-254 L 204.961,-253.373 L 204.843,-252.757 L 204.649,-252.159 L 204.382,-251.591
 L 204.045,-251.061 L 203.645,-250.577 L 203.187,-250.147 L 202.679,-249.778 L 202.129,-249.476 L 201.545,-249.245
 L 200.937,-249.089 L 200.314,-249.01 z
M 127.5,-237 L 135,-237 L 135,-244.5 L 139,-244.5 L 139,-259.5 L 135,-259.5
 L 135,-267 L 105,-267 L 105,-259.5 L 101,-259.5 L 101,-244.5 L 105,-244.5
 L 105,-237 L 112.5,-237 L 112.5,-233 L 127.5,-233 z
M 119.686,-249.01 L 119.063,-249.089 L 118.455,-249.245 L 117.871,-249.476 L 117.321,-249.778 L 116.813,-250.147
 L 116.355,-250.577 L 115.955,-251.061 L 115.618,-251.591 L 115.351,-252.159 L 115.157,-252.757 L 115.039,-253.373
 L 115,-254 L 115.039,-254.627 L 115.157,-255.243 L 115.351,-255.841 L 115.618,-256.409 L 115.955,-256.939
 L 116.355,-257.423 L 116.813,-257.853 L 117.321,-258.222 L 117.871,-258.524 L 118.455,-258.755 L 119.063,-258.911
 L 119.686,-258.99 L 120.314,-258.99 L 120.937,-258.911 L 121.545,-258.755 L 122.129,-258.524 L 122.679,-258.222
 L 123.187,-257.853 L 123.645,-257.423 L 124.045,-256.939 L 124.382,-256.409 L 124.649,-255.841 L 124.843,-255.243
 L 124.961,-254.627 L 125,-254 L 124.961,-253.373 L 124.843,-252.757 L 124.649,-252.159 L 124.382,-251.591
 L 124.045,-251.061 L 123.645,-250.577 L 123.187,-250.147 L 122.679,-249.778 L 122.129,-249.476 L 121.545,-249.245
 L 120.937,-249.089 L 120.314,-249.01 z
M 47.5,-237 L 55,-237 L 55,-244.5 L 59,-244.5 L 59,-259.5 L 55,-259.5
 L 55,-267 L 25,-267 L 25,-259.5 L 21,-259.5 L 21,-244.5 L 25,-244.5
 L 25,-237 L 32.5,-237 L 32.5,-233 L 47.5,-233 z
M 39.6861,-249.01 L 39.0631,-249.089 L 38.4549,-249.245 L 37.8711,-249.476 L 37.3209,-249.778 L 36.8129,-250.147
 L 36.3552,-250.577 L 35.9549,-251.061 L 35.6185,-251.591 L 35.3511,-252.159 L 35.1571,-252.757 L 35.0394,-253.373
 L 35,-254 L 35.0394,-254.627 L 35.1571,-255.243 L 35.3511,-255.841 L 35.6185,-256.409 L 35.9549,-256.939
 L 36.3552,-257.423 L 36.8129,-257.853 L 37.3209,-258.222 L 37.8711,-258.524 L 38.4549,-258.755 L 39.0631,-258.911
 L 39.6861,-258.99 L 40.3139,-258.99 L 40.9369,-258.911 L 41.5451,-258.755 L 42.1289,-258.524 L 42.6791,-258.222
 L 43.1871,-257.853 L 43.6448,-257.423 L 44.0451,-256.939 L 44.3815,-256.409 L 44.6489,-255.841 L 44.8429,-255.243
 L 44.9606,-254.627 L 45,-254 L 44.9606,-253.373 L 44.8429,-252.757 L 44.6489,-252.159 L 44.3815,-251.591
 L 44.0451,-251.061 L 43.6448,-250.577 L 43.1871,-250.147 L 42.6791,-249.778 L 42.1289,-249.476 L 41.5451,-249.245
 L 40.9369,-249.089 L 40.3139,-249.01 z
M 87.5,-237 L 95,-237 L 95,-244.5 L 99,-244.5 L 99,-259.5 L 95,-259.5
 L 95,-267 L 65,-267 L 65,-259.5 L 61,-259.5 L 61,-244.5 L 65,-244.5
 L 65,-237 L 72.5,-237 L 72.5,-233 L 87.5,-233 z
M 79.6861,-249.01 L 79.0631,-249.089 L 78.4549,-249.245 L 77.8711,-249.476 L 77.3209,-249.778 L 76.8129,-250.147
 L 76.3552,-250.577 L 75.9549,-251.061 L 75.6185,-251.591 L 75.3511,-252.159 L 75.1571,-252.757 L 75.0394,-253.373
 L 75,-254 L 75.0394,-254.627 L 75.1571,-255.243 L 75.3511,-255.841 L 75.6185,-256.409 L 75.9549,-256.939
 L 76.3552,-257.423 L 76.8129,-257.853 L 77.3209,-258.222 L 77.8711,-258.524 L 78.4549,-258.755 L 79.0631,-258.911
 L 79.6861,-258.99 L 80.3139,-258.99 L 80.9369,-258.911 L 81.5451,-258.755 L 82.1289,-258.524 L 82.6791,-258.222
 L 83.1871,-257.853 L 83.6448,-257.423 L 84.0451,-256.939 L 84.3815,-256.409 L 84.6489,-255.841 L 84.8429,-255.243
 L 84.9606,-254.627 L 85,-254 L 84.9606,-253.373 L 84.8429,-252.757 L 84.6489,-252.159 L 84.3815,-251.591
 L 84.0451,-251.061 L 83.6448,-250.577 L 83.1871,-250.147 L 82.6791,-249.778 L 82.1289,-249.476 L 81.5451,-249.245
 L 80.9369,-249.089 L 80.3139,-249.01 z
M 167.5,-201 L 175,-201 L 175,-208.5 L 179,-208.5 L 179,-223.5 L 175,-223.5
 L 175,-231 L 145,-231 L 145,-223.5 L 141,-223.5 L 141,-208.5 L 145,-208.5
 L 145,-201 L 152.5,-201 L 152.5,-197 L 167.5,-197 z
M 159.686,-213.01 L 159.063,-213.089 L 158.455,-213.245 L 157.871,-213.476 L 157.321,-213.778 L 156.813,-214.147
 L 156.355,-214.577 L 155.955,-215.061 L 155.618,-215.591 L 155.351,-216.159 L 155.157,-216.757 L 155.039,-217.373
 L 155,-218 L 155.039,-218.627 L 155.157,-219.243 L 155.351,-219.841 L 155.618,-220.409 L 155.955,-220.939
 L 156.355,-221.423 L 156.813,-221.853 L 157.321,-222.222 L 157.871,-222.524 L 158.455,-222.755 L 159.063,-222.911
 L 159.686,-222.99 L 160.314,-222.99 L 160.937,-222.911 L 161.545,-222.755 L 162.129,-222.524 L 162.679,-222.222
 L 163.187,-221.853 L 163.645,-221.423 L 164.045,-220.939 L 164.382,-220.409 L 164.649,-219.841 L 164.843,-219.243
 L 164.961,-218.627 L 165,-218 L 164.961,-217.373 L 164.843,-216.757 L 164.649,-216.159 L 164.382,-215.591
 L 164.045,-215.061 L 163.645,-214.577 L 163.187,-214.147 L 162.679,-213.778 L 162.129,-213.476 L 161.545,-213.245
 L 160.937,-213.089 L 160.314,-213.01 z
M 7.5,-201 L 15,-201 L 15,-208.5 L 19,-208.5 L 19,-223.5 L 15,-223.5
 L 15,-231 L -15,-231 L -15,-223.5 L -19,-223.5 L -19,-208.5 L -15,-208.5
 L -15,-201 L -7.5,-201 L -7.5,-197 L 7.5,-197 z
M -0.31395,-213.01 L -0.936905,-213.089 L -1.54507,-213.245 L -2.12889,-213.476 L -2.67912,-213.778 L -3.18712,-214.147
 L -3.64484,-214.577 L -4.04507,-215.061 L -4.38153,-215.591 L -4.64888,-216.159 L -4.84291,-216.757 L -4.96057,-217.373
 L -5,-218 L -4.96057,-218.627 L -4.84291,-219.243 L -4.64888,-219.841 L -4.38153,-220.409 L -4.04507,-220.939
 L -3.64484,-221.423 L -3.18712,-221.853 L -2.67912,-222.222 L -2.12889,-222.524 L -1.54507,-222.755 L -0.936905,-222.911
 L -0.31395,-222.99 L 0.31395,-222.99 L 0.936905,-222.911 L 1.54507,-222.755 L 2.12889,-222.524 L 2.67912,-222.222
 L 3.18712,-221.853 L 3.64484,-221.423 L 4.04507,-220.939 L 4.38153,-220.409 L 4.64888,-219.841 L 4.84291,-219.243
 L 4.96057,-218.627 L 5,-218 L 4.96057,-217.373 L 4.84291,-216.757 L 4.64888,-216.159 L 4.38153,-215.591
 L 4.04507,-215.061 L 3.64484,-214.577 L 3.18712,-214.147 L 2.67912,-213.778 L 2.12889,-213.476 L 1.54507,-213.245
 L 0.936905,-213.089 L 0.31395,-213.01 z
M 207.5,-201 L 215,-201 L 215,-208.5 L 219,-208.5 L 219,-223.5 L 215,-223.5
 L 215,-231 L 185,-231 L 185,-223.5 L 181,-223.5 L 181,-208.5 L 185,-208.5
 L 185,-201 L 192.5,-201 L 192.5,-197 L 207.5,-197 z
M 199.686,-213.01 L 199.063,-213.089 L 198.455,-213.245 L 197.871,-213.476 L 197.321,-213.778 L 196.813,-214.147
 L 196.355,-214.577 L 195.955,-215.061 L 195.618,-215.591 L 195.351,-216.159 L 195.157,-216.757 L 195.039,-217.373
 L 195,-218 L 195.039,-218.627 L 195.157,-219.243 L 195.351,-219.841 L 195.618,-220.409 L 195.955,-220.939
 L 196.355,-221.423 L 196.813,-221.853 L 197.321,-222.222 L 197.871,-222.524 L 198.455,-222.755 L 199.063,-222.911
 L 199.686,-222.99 L 200.314,-222.99 L 200.937,-222.911 L 201.545,-222.755 L 202.129,-222.524 L 202.679,-222.222
 L 203.187,-221.853 L 203.645,-221.423 L 204.045,-220.939 L 204.382,-220.409 L 204.649,-219.841 L 204.843,-219.243
 L 204.961,-218.627 L 205,-218 L 204.961,-217.373 L 204.843,-216.757 L 204.649,-216.159 L 204.382,-215.591
 L 204.045,-215.061 L 203.645,-214.577 L 203.187,-214.147 L 202.679,-213.778 L 202.129,-213.476 L 201.545,-213.245
 L 200.937,-213.089 L 200.314,-213.01 z
M 47.5,-201 L 55,-201 L 55,-208.5 L 59,-208.5 L 59,-223.5 L 55,-223.5
 L 55,-231 L 25,-231 L 25,-223.5 L 21,-223.5 L 21,-208.5 L 25,-208.5
 L 25,-201 L 32.5,-201 L 32.5,-197 L 47.5,-197 z
M 39.6861,-213.01 L 39.0631,-213.089 L 38.4549,-213.245 L 37.8711,-213.476 L 37.3209,-213.778 L 36.8129,-214.147
 L 36.3552,-214.577 L 35.9549,-215.061 L 35.6185,-215.591 L 35.3511,-216.159 L 35.1571,-216.757 L 35.0394,-217.373
 L 35,-218 L 35.0394,-218.627 L 35.1571,-219.243 L 35.3511,-219.841 L 35.6185,-220.409 L 35.9549,-220.939
 L 36.3552,-221.423 L 36.8129,-221.853 L 37.3209,-222.222 L 37.8711,-222.524 L 38.4549,-222.755 L 39.0631,-222.911
 L 39.6861,-222.99 L 40.3139,-222.99 L 40.9369,-222.911 L 41.5451,-222.755 L 42.1289,-222.524 L 42.6791,-222.222
 L 43.1871,-221.853 L 43.6448,-221.423 L 44.0451,-220.939 L 44.3815,-220.409 L 44.6489,-219.841 L 44.8429,-219.243
 L 44.9606,-218.627 L 45,-218 L 44.9606,-217.373 L 44.8429,-216.757 L 44.6489,-216.159 L 44.3815,-215.591
 L 44.0451,-215.061 L 43.6448,-214.577 L 43.1871,-214.147 L 42.6791,-213.778 L 42.1289,-213.476 L 41.5451,-213.245
 L 40.9369,-213.089 L 40.3139,-213.01 z
M 127.5,-201 L 135,-201 L 135,-208.5 L 139,-208.5 L 139,-223.5 L 135,-223.5
 L 135,-231 L 105,-231 L 105,-223.5 L 101,-223.5 L 101,-208.5 L 105,-208.5
 L 105,-201 L 112.5,-201 L 112.5,-197 L 127.5,-197 z
M 119.686,-213.01 L 119.063,-213.089 L 118.455,-213.245 L 117.871,-213.476 L 117.321,-213.778 L 116.813,-214.147
 L 116.355,-214.577 L 115.955,-215.061 L 115.618,-215.591 L 115.351,-216.159 L 115.157,-216.757 L 115.039,-217.373
 L 115,-218 L 115.039,-218.627 L 115.157,-219.243 L 115.351,-219.841 L 115.618,-220.409 L 115.955,-220.939
 L 116.355,-221.423 L 116.813,-221.853 L 117.321,-222.222 L 117.871,-222.524 L 118.455,-222.755 L 119.063,-222.911
 L 119.686,-222.99 L 120.314,-222.99 L 120.937,-222.911 L 121.545,-222.755 L 122.129,-222.524 L 122.679,-222.222
 L 123.187,-221.853 L 123.645,-221.423 L 124.045,-220.939 L 124.382,-220.409 L 124.649,-219.841 L 124.843,-219.243
 L 124.961,-218.627 L 125,-218 L 124.961,-217.373 L 124.843,-216.757 L 124.649,-216.159 L 124.382,-215.591
 L 124.045,-215.061 L 123.645,-214.577 L 123.187,-214.147 L 122.679,-213.778 L 122.129,-213.476 L 121.545,-213.245
 L 120.937,-213.089 L 120.314,-213.01 z
M 87.5,-201 L 95,-201 L 95,-208.5 L 99,-208.5 L 99,-223.5 L 95,-223.5
 L 95,-231 L 65,-231 L 65,-223.5 L 61,-223.5 L 61,-208.5 L 65,-208.5
 L 65,-201 L 72.5,-201 L 72.5,-197 L 87.5,-197 z
M 79.6861,-213.01 L 79.0631,-213.089 L 78.4549,-213.245 L 77.8711,-213.476 L 77.3209,-213.778 L 76.8129,-214.147
 L 76.3552,-214.577 L 75.9549,-215.061 L 75.6185,-215.591 L 75.3511,-216.159 L 75.1571,-216.757 L 75.0394,-217.373
 L 75,-218 L 75.0394,-218.627 L 75.1571,-219.243 L 75.3511,-219.841 L 75.6185,-220.409 L 75.9549,-220.939
 L 76.3552,-221.423 L 76.8129,-221.853 L 77.3209,-222.222 L 77.8711,-222.524 L 78.4549,-222.755 L 79.0631,-222.911
 L 79.6861,-222.99 L 80.3139,-222.99 L 80.9369,-222.911 L 81.5451,-222.755 L 82.1289,-222.524 L 82.6791,-222.222
 L 83.1871,-221.853 L 83.6448,-221.423 L 84.0451,-220.939 L 84.3815,-220.409 L 84.6489,-219.841 L 84.8429,-219.243
 L 84.9606,-218.627 L 85,-218 L 84.9606,-217.373 L 84.8429,-216.757 L 84.6489,-216.159 L 84.3815,-215.591
 L 84.0451,-215.061 L 83.6448,-214.577 L 83.1871,-214.147 L 82.6791,-213.778 L 82.1289,-213.476 L 81.5451,-213.245
 L 80.9369,-213.089 L 80.3139,-213.01 z
M 7.5,-165 L 15,-165 L 15,-172.5 L 19,-172.5 L 19,-187.5 L 15,-187.5
 L 15,-195 L -15,-195 L -15,-187.5 L -19,-187.5 L -19,-172.5 L -15,-172.5
 L -15,-165 L -7.5,-165 L -7.5,-161 L 7.5,-161 z
M -0.31395,-177.01 L -0.936905,-177.089 L -1.54507,-177.245 L -2.12889,-177.476 L -2.67912,-177.778 L -3.18712,-178.147
 L -3.64484,-178.577 L -4.04507,-179.061 L -4.38153,-179.591 L -4.64888,-180.159 L -4.84291,-180.757 L -4.96057,-181.373
 L -5,-182 L -4.96057,-182.627 L -4.84291,-183.243 L -4.64888,-183.841 L -4.38153,-184.409 L -4.04507,-184.939
 L -3.64484,-185.423 L -3.18712,-185.853 L -2.67912,-186.222 L -2.12889,-186.524 L -1.54507,-186.755 L -0.936905,-186.911
 L -0.31395,-186.99 L 0.31395,-186.99 L 0.936905,-186.911 L 1.54507,-186.755 L 2.12889,-186.524 L 2.67912,-186.222
 L 3.18712,-185.853 L 3.64484,-185.423 L 4.04507,-184.939 L 4.38153,-184.409 L 4.64888,-183.841 L 4.84291,-183.243
 L 4.96057,-182.627 L 5,-182 L 4.96057,-181.373 L 4.84291,-180.757 L 4.64888,-180.159 L 4.38153,-179.591
 L 4.04507,-179.061 L 3.64484,-178.577 L 3.18712,-178.147 L 2.67912,-177.778 L 2.12889,-177.476 L 1.54507,-177.245
 L 0.936905,-177.089 L 0.31395,-177.01 z
M 47.5,-165 L 55,-165 L 55,-172.5 L 59,-172.5 L 59,-187.5 L 55,-187.5
 L 55,-195 L 25,-195 L 25,-187.5 L 21,-187.5 L 21,-172.5 L 25,-172.5
 L 25,-165 L 32.5,-165 L 32.5,-161 L 47.5,-161 z
M 39.6861,-177.01 L 39.0631,-177.089 L 38.4549,-177.245 L 37.8711,-177.476 L 37.3209,-177.778 L 36.8129,-178.147
 L 36.3552,-178.577 L 35.9549,-179.061 L 35.6185,-179.591 L 35.3511,-180.159 L 35.1571,-180.757 L 35.0394,-181.373
 L 35,-182 L 35.0394,-182.627 L 35.1571,-183.243 L 35.3511,-183.841 L 35.6185,-184.409 L 35.9549,-184.939
 L 36.3552,-185.423 L 36.8129,-185.853 L 37.3209,-186.222 L 37.8711,-186.524 L 38.4549,-186.755 L 39.0631,-186.911
 L 39.6861,-186.99 L 40.3139,-186.99 L 40.9369,-186.911 L 41.5451,-186.755 L 42.1289,-186.524 L 42.6791,-186.222
 L 43.1871,-185.853 L 43.6448,-185.423 L 44.0451,-184.939 L 44.3815,-184.409 L 44.6489,-183.841 L 44.8429,-183.243
 L 44.9606,-182.627 L 45,-182 L 44.9606,-181.373 L 44.8429,-180.757 L 44.6489,-180.159 L 44.3815,-179.591
 L 44.0451,-179.061 L 43.6448,-178.577 L 43.1871,-178.147 L 42.6791,-177.778 L 42.1289,-177.476 L 41.5451,-177.245
 L 40.9369,-177.089 L 40.3139,-177.01 z
M 207.5,-165 L 215,-165 L 215,-172.5 L 219,-172.5 L 219,-187.5 L 215,-187.5
 L 215,-195 L 185,-195 L 185,-187.5 L 181,-187.5 L 181,-172.5 L 185,-172.5
 L 185,-165 L 192.5,-165 L 192.5,-161 L 207.5,-161 z
M 199.686,-177.01 L 199.063,-177.089 L 198.455,-177.245 L 197.871,-177.476 L 197.321,-177.778 L 196.813,-178.147
 L 196.355,-178.577 L 195.955,-179.061 L 195.618,-179.591 L 195.351,-180.159 L 195.157,-180.757 L 195.039,-181.373
 L 195,-182 L 195.039,-182.627 L 195.157,-183.243 L 195.351,-183.841 L 195.618,-184.409 L 195.955,-184.939
 L 196.355,-185.423 L 196.813,-185.853 L 197.321,-186.222 L 197.871,-186.524 L 198.455,-186.755 L 199.063,-186.911
 L 199.686,-186.99 L 200.314,-186.99 L 200.937,-186.911 L 201.545,-186.755 L 202.129,-186.524 L 202.679,-186.222
 L 203.187,-185.853 L 203.645,-185.423 L 204.045,-184.939 L 204.382,-184.409 L 204.649,-183.841 L 204.843,-183.243
 L 204.961,-182.627 L 205,-182 L 204.961,-181.373 L 204.843,-180.757 L 204.649,-180.159 L 204.382,-179.591
 L 204.045,-179.061 L 203.645,-178.577 L 203.187,-178.147 L 202.679,-177.778 L 202.129,-177.476 L 201.545,-177.245
 L 200.937,-177.089 L 200.314,-177.01 z
M 127.5,-165 L 135,-165 L 135,-172.5 L 139,-172.5 L 139,-187.5 L 135,-187.5
 L 135,-195 L 105,-195 L 105,-187.5 L 101,-187.5 L 101,-172.5 L 105,-172.5
 L 105,-165 L 112.5,-165 L 112.5,-161 L 127.5,-161 z
M 119.686,-177.01 L 119.063,-177.089 L 118.455,-177.245 L 117.871,-177.476 L 117.321,-177.778 L 116.813,-178.147
 L 116.355,-178.577 L 115.955,-179.061 L 115.618,-179.591 L 115.351,-180.159 L 115.157,-180.757 L 115.039,-181.373
 L 115,-182 L 115.039,-182.627 L 115.157,-183.243 L 115.351,-183.841 L 115.618,-184.409 L 115.955,-184.939
 L 116.355,-185.423 L 116.813,-185.853 L 117.321,-186.222 L 117.871,-186.524 L 118.455,-186.755 L 119.063,-186.911
 L 119.686,-186.99 L 120.314,-186.99 L 120.937,-186.911 L 121.545,-186.755 L 122.129,-186.524 L 122.679,-186.222
 L 123.187,-185.853 L 123.645,-185.423 L 124.045,-184.939 L 124.382,-184.409 L 124.649,-183.841 L 124.843,-183.243
 L 124.961,-182.627 L 125,-182 L 124.961,-181.373 L 124.843,-180.757 L 124.649,-180.159 L 124.382,-179.591
 L 124.045,-179.061 L 123.645,-178.577 L 123.187,-178.147 L 122.679,-177.778 L 122.129,-177.476 L 121.545,-177.245
 L 120.937,-177.089 L 120.314,-177.01 z
M 167.5,-165 L 175,-165 L 175,-172.5 L 179,-172.5 L 179,-187.5 L 175,-187.5
 L 175,-195 L 145,-195 L 145,-187.5 L 141,-187.5 L 141,-172.5 L 145,-172.5
 L 145,-165 L 152.5,-165 L 152.5,-161 L 167.5,-161 z
M 159.686,-177.01 L 159.063,-177.089 L 158.455,-177.245 L 157.871,-177.476 L 157.321,-177.778 L 156.813,-178.147
 L 156.355,-178.577 L 155.955,-179.061 L 155.618,-179.591 L 155.351,-180.159 L 155.157,-180.757 L 155.039,-181.373
 L 155,-182 L 155.039,-182.627 L 155.157,-183.243 L 155.351,-183.841 L 155.618,-184.409 L 155.955,-184.939
 L 156.355,-185.423 L 156.813,-185.853 L 157.321,-186.222 L 157.871,-186.524 L 158.455,-186.755 L 159.063,-186.911
 L 159.686,-186.99 L 160.314,-186.99 L 160.937,-186.911 L 161.545,-186.755 L 162.129,-186.524 L 162.679,-186.222
 L 163.187,-185.853 L 163.645,-185.423 L 164.045,-184.939 L 164.382,-184.409 L 164.649,-183.841 L 164.843,-183.243
 L 164.961,-182.627 L 165,-182 L 164.961,-181.373 L 164.843,-180.757 L 164.649,-180.159 L 164.382,-179.591
 L 164.045,-179.061 L 163.645,-178.577 L 163.187,-178.147 L 162.679,-177.778 L 162.129,-177.476 L 161.545,-177.245
 L 160.937,-177.089 L 160.314,-177.01 z
M 87.5,-165 L 95,-165 L 95,-172.5 L 99,-172.5 L 99,-187.5 L 95,-187.5
 L 95,-195 L 65,-195 L 65,-187.5 L 61,-187.5 L 61,-172.5 L 65,-172.5
 L 65,-165 L 72.5,-165 L 72.5,-161 L 87.5,-161 z
M 79.6861,-177.01 L 79.0631,-177.089 L 78.4549,-177.245 L 77.8711,-177.476 L 77.3209,-177.778 L 76.8129,-178.147
 L 76.3552,-178.577 L 75.9549,-179.061 L 75.6185,-179.591 L 75.3511,-180.159 L 75.1571,-180.757 L 75.0394,-181.373
 L 75,-182 L 75.0394,-182.627 L 75.1571,-183.243 L 75.3511,-183.841 L 75.6185,-184.409 L 75.9549,-184.939
 L 76.3552,-185.423 L 76.8129,-185.853 L 77.3209,-186.222 L 77.8711,-186.524 L 78.4549,-186.755 L 79.0631,-186.911
 L 79.6861,-186.99 L 80.3139,-186.99 L 80.9369,-186.911 L 81.5451,-186.755 L 82.1289,-186.524 L 82.6791,-186.222
 L 83.1871,-185.853 L 83.6448,-185.423 L 84.0451,-184.939 L 84.3815,-184.409 L 84.6489,-183.841 L 84.8429,-183.243
 L 84.9606,-182.627 L 85,-182 L 84.9606,-181.373 L 84.8429,-180.757 L 84.6489,-180.159 L 84.3815,-179.591
 L 84.0451,-179.061 L 83.6448,-178.577 L 83.1871,-178.147 L 82.6791,-177.778 L 82.1289,-177.476 L 81.5451,-177.245
 L 80.9369,-177.089 L 80.3139,-177.01 z
M 87.5,-129 L 95,-129 L 95,-136.5 L 99,-136.5 L 99,-151.5 L 95,-151.5
 L 95,-159 L 65,-159 L 65,-151.5 L 61,-151.5 L 61,-136.5 L 65,-136.5
 L 65,-129 L 72.5,-129 L 72.5,-125 L 87.5,-125 z
M 79.6861,-141.01 L 79.0631,-141.089 L 78.4549,-141.245 L 77.8711,-141.476 L 77.3209,-141.778 L 76.8129,-142.147
 L 76.3552,-142.577 L 75.9549,-143.061 L 75.6185,-143.591 L 75.3511,-144.159 L 75.1571,-144.757 L 75.0394,-145.373
 L 75,-146 L 75.0394,-146.627 L 75.1571,-147.243 L 75.3511,-147.841 L 75.6185,-148.409 L 75.9549,-148.939
 L 76.3552,-149.423 L 76.8129,-149.853 L 77.3209,-150.222 L 77.8711,-150.524 L 78.4549,-150.755 L 79.0631,-150.911
 L 79.6861,-150.99 L 80.3139,-150.99 L 80.9369,-150.911 L 81.5451,-150.755 L 82.1289,-150.524 L 82.6791,-150.222
 L 83.1871,-149.853 L 83.6448,-149.423 L 84.0451,-148.939 L 84.3815,-148.409 L 84.6489,-147.841 L 84.8429,-147.243
 L 84.9606,-146.627 L 85,-146 L 84.9606,-145.373 L 84.8429,-144.757 L 84.6489,-144.159 L 84.3815,-143.591
 L 84.0451,-143.061 L 83.6448,-142.577 L 83.1871,-142.147 L 82.6791,-141.778 L 82.1289,-141.476 L 81.5451,-141.245
 L 80.9369,-141.089 L 80.3139,-141.01 z
M 7.5,-129 L 15,-129 L 15,-136.5 L 19,-136.5 L 19,-151.5 L 15,-151.5
 L 15,-159 L -15,-159 L -15,-151.5 L -19,-151.5 L -19,-136.5 L -15,-136.5
 L -15,-129 L -7.5,-129 L -7.5,-125 L 7.5,-125 z
M -0.31395,-141.01 L -0.936905,-141.089 L -1.54507,-141.245 L -2.12889,-141.476 L -2.67912,-141.778 L -3.18712,-142.147
 L -3.64484,-142.577 L -4.04507,-143.061 L -4.38153,-143.591 L -4.64888,-144.159 L -4.84291,-144.757 L -4.96057,-145.373
 L -5,-146 L -4.96057,-146.627 L -4.84291,-147.243 L -4.64888,-147.841 L -4.38153,-148.409 L -4.04507,-148.939
 L -3.64484,-149.423 L -3.18712,-149.853 L -2.67912,-150.222 L -2.12889,-150.524 L -1.54507,-150.755 L -0.936905,-150.911
 L -0.31395,-150.99 L 0.31395,-150.99 L 0.936905,-150.911 L 1.54507,-150.755 L 2.12889,-150.524 L 2.67912,-150.222
 L 3.18712,-149.853 L 3.64484,-149.423 L 4.04507,-148.939 L 4.38153,-148.409 L 4.64888,-147.841 L 4.84291,-147.243
 L 4.96057,-146.627 L 5,-146 L 4.96057,-145.373 L 4.84291,-144.757 L 4.64888,-144.159 L 4.38153,-143.591
 L 4.04507,-143.061 L 3.64484,-142.577 L 3.18712,-142.147 L 2.67912,-141.778 L 2.12889,-141.476 L 1.54507,-141.245
 L 0.936905,-141.089 L 0.31395,-141.01 z
M 207.5,-129 L 215,-129 L 215,-136.5 L 219,-136.5 L 219,-151.5 L 215,-151.5
 L 215,-159 L 185,-159 L 185,-151.5 L 181,-151.5 L 181,-136.5 L 185,-136.5
 L 185,-129 L 192.5,-129 L 192.5,-125 L 207.5,-125 z
M 199.686,-141.01 L 199.063,-141.089 L 198.455,-141.245 L 197.871,-141.476 L 197.321,-141.778 L 196.813,-142.147
 L 196.355,-142.577 L 195.955,-143.061 L 195.618,-143.591 L 195.351,-144.159 L 195.157,-144.757 L 195.039,-145.373
 L 195,-146 L 195.039,-146.627 L 195.157,-147.243 L 195.351,-147.841 L 195.618,-148.409 L 195.955,-148.939
 L 196.355,-149.423 L 196.813,-149.853 L 197.321,-150.222 L 197.871,-150.524 L 198.455,-150.755 L 199.063,-150.911
 L 199.686,-150.99 L 200.314,-150.99 L 200.937,-150.911 L 201.545,-150.755 L 202.129,-150.524 L 202.679,-150.222
 L 203.187,-149.853 L 203.645,-149.423 L 204.045,-148.939 L 204.382,-148.409 L 204.649,-147.841 L 204.843,-147.243
 L 204.961,-146.627 L 205,-146 L 204.961,-145.373 L 204.843,-144.757 L 204.649,-144.159 L 204.382,-143.591
 L 204.045,-143.061 L 203.645,-142.577 L 203.187,-142.147 L 202.679,-141.778 L 202.129,-141.476 L 201.545,-141.245
 L 200.937,-141.089 L 200.314,-141.01 z
M 167.5,-129 L 175,-129 L 175,-136.5 L 179,-136.5 L 179,-151.5 L 175,-151.5
 L 175,-159 L 145,-159 L 145,-151.5 L 141,-151.5 L 141,-136.5 L 145,-136.5
 L 145,-129 L 152.5,-129 L 152.5,-125 L 167.5,-125 z
M 159.686,-141.01 L 159.063,-141.089 L 158.455,-141.245 L 157.871,-141.476 L 157.321,-141.778 L 156.813,-142.147
 L 156.355,-142.577 L 155.955,-143.061 L 155.618,-143.591 L 155.351,-144.159 L 155.157,-144.757 L 155.039,-145.373
 L 155,-146 L 155.039,-146.627 L 155.157,-147.243 L 155.351,-147.841 L 155.618,-148.409 L 155.955,-148.939
 L 156.355,-149.423 L 156.813,-149.853 L 157.321,-150.222 L 157.871,-150.524 L 158.455,-150.755 L 159.063,-150.911
 L 159.686,-150.99 L 160.314,-150.99 L 160.937,-150.911 L 161.545,-150.755 L 162.129,-150.524 L 162.679,-150.222
 L 163.187,-149.853 L 163.645,-149.423 L 164.045,-148.939 L 164.382,-148.409 L 164.649,-147.841 L 164.843,-147.243
 L 164.961,-146.627 L 165,-146 L 164.961,-145.373 L 164.843,-144.757 L 164.649,-144.159 L 164.382,-143.591
 L 164.045,-143.061 L 163.645,-142.577 L 163.187,-142.147 L 162.679,-141.778 L 162.129,-141.476 L 161.545,-141.245
 L 160.937,-141.089 L 160.314,-141.01 z
M 127.5,-129 L 135,-129 L 135,-136.5 L 139,-136.5 L 139,-151.5 L 135,-151.5
 L 135,-159 L 105,-159 L 105,-151.5 L 101,-151.5 L 101,-136.5 L 105,-136.5
 L 105,-129 L 112.5,-129 L 112.5,-125 L 127.5,-125 z
M 119.686,-141.01 L 119.063,-141.089 L 118.455,-141.245 L 117.871,-141.476 L 117.321,-141.778 L 116.813,-142.147
 L 116.355,-142.577 L 115.955,-143.061 L 115.618,-143.591 L 115.351,-144.159 L 115.157,-144.757 L 115.039,-145.373
 L 115,-146 L 115.039,-146.627 L 115.157,-147.243 L 115.351,-147.841 L 115.618,-148.409 L 115.955,-148.939
 L 116.355,-149.423 L 116.813,-149.853 L 117.321,-150.222 L 117.871,-150.524 L 118.455,-150.755 L 119.063,-150.911
 L 119.686,-150.99 L 120.314,-150.99 L 120.937,-150.911 L 121.545,-150.755 L 122.129,-150.524 L 122.679,-150.222
 L 123.187,-149.853 L 123.645,-149.423 L 124.045,-148.939 L 124.382,-148.409 L 124.649,-147.841 L 124.843,-147.243
 L 124.961,-146.627 L 125,-146 L 124.961,-145.373 L 124.843,-144.757 L 124.649,-144.159 L 124.382,-143.591
 L 124.045,-143.061 L 123.645,-142.577 L 123.187,-142.147 L 122.679,-141.778 L 122.129,-141.476 L 121.545,-141.245
 L 120.937,-141.089 L 120.314,-141.01 z
M 47.5,-129 L 55,-129 L 55,-136.5 L 59,-136.5 L 59,-151.5 L 55,-151.5
 L 55,-159 L 25,-159 L 25,-151.5 L 21,-151.5 L 21,-136.5 L 25,-136.5
 L 25,-129 L 32.5,-129 L 32.5,-125 L 47.5,-125 z
M 39.6861,-141.01 L 39.0631,-141.089 L 38.4549,-141.245 L 37.8711,-141.476 L 37.3209,-141.778 L 36.8129,-142.147
 L 36.3552,-142.577 L 35.9549,-143.061 L 35.6185,-143.591 L 35.3511,-144.159 L 35.1571,-144.757 L 35.0394,-145.373
 L 35,-146 L 35.0394,-146.627 L 35.1571,-147.243 L 35.3511,-147.841 L 35.6185,-148.409 L 35.9549,-148.939
 L 36.3552,-149.423 L 36.8129,-149.853 L 37.3209,-150.222 L 37.8711,-150.524 L 38.4549,-150.755 L 39.0631,-150.911
 L 39.6861,-150.99 L 40.3139,-150.99 L 40.9369,-150.911 L 41.5451,-150.755 L 42.1289,-150.524 L 42.6791,-150.222
 L 43.1871,-149.853 L 43.6448,-149.423 L 44.0451,-148.939 L 44.3815,-148.409 L 44.6489,-147.841 L 44.8429,-147.243
 L 44.9606,-146.627 L 45,-146 L 44.9606,-145.373 L 44.8429,-144.757 L 44.6489,-144.159 L 44.3815,-143.591
 L 44.0451,-143.061 L 43.6448,-142.577 L 43.1871,-142.147 L 42.6791,-141.778 L 42.1289,-141.476 L 41.5451,-141.245
 L 40.9369,-141.089 L 40.3139,-141.01 z
M 127.5,-93 L 135,-93 L 135,-100.5 L 139,-100.5 L 139,-115.5 L 135,-115.5
 L 135,-123 L 105,-123 L 105,-115.5 L 101,-115.5 L 101,-100.5 L 105,-100.5
 L 105,-93 L 112.5,-93 L 112.5,-89 L 127.5,-89 z
M 119.686,-105.01 L 119.063,-105.089 L 118.455,-105.245 L 117.871,-105.476 L 117.321,-105.778 L 116.813,-106.147
 L 116.355,-106.577 L 115.955,-107.061 L 115.618,-107.591 L 115.351,-108.159 L 115.157,-108.757 L 115.039,-109.373
 L 115,-110 L 115.039,-110.627 L 115.157,-111.243 L 115.351,-111.841 L 115.618,-112.409 L 115.955,-112.939
 L 116.355,-113.423 L 116.813,-113.853 L 117.321,-114.222 L 117.871,-114.524 L 118.455,-114.755 L 119.063,-114.911
 L 119.686,-114.99 L 120.314,-114.99 L 120.937,-114.911 L 121.545,-114.755 L 122.129,-114.524 L 122.679,-114.222
 L 123.187,-113.853 L 123.645,-113.423 L 124.045,-112.939 L 124.382,-112.409 L 124.649,-111.841 L 124.843,-111.243
 L 124.961,-110.627 L 125,-110 L 124.961,-109.373 L 124.843,-108.757 L 124.649,-108.159 L 124.382,-107.591
 L 124.045,-107.061 L 123.645,-106.577 L 123.187,-106.147 L 122.679,-105.778 L 122.129,-105.476 L 121.545,-105.245
 L 120.937,-105.089 L 120.314,-105.01 z
M 7.5,-93 L 15,-93 L 15,-100.5 L 19,-100.5 L 19,-115.5 L 15,-115.5
 L 15,-123 L -15,-123 L -15,-115.5 L -19,-115.5 L -19,-100.5 L -15,-100.5
 L -15,-93 L -7.5,-93 L -7.5,-89 L 7.5,-89 z
M -0.31395,-105.01 L -0.936905,-105.089 L -1.54507,-105.245 L -2.12889,-105.476 L -2.67912,-105.778 L -3.18712,-106.147
 L -3.64484,-106.577 L -4.04507,-107.061 L -4.38153,-107.591 L -4.64888,-108.159 L -4.84291,-108.757 L -4.96057,-109.373
 L -5,-110 L -4.96057,-110.627 L -4.84291,-111.243 L -4.64888,-111.841 L -4.38153,-112.409 L -4.04507,-112.939
 L -3.64484,-113.423 L -3.18712,-113.853 L -2.67912,-114.222 L -2.12889,-114.524 L -1.54507,-114.755 L -0.936905,-114.911
 L -0.31395,-114.99 L 0.31395,-114.99 L 0.936905,-114.911 L 1.54507,-114.755 L 2.12889,-114.524 L 2.67912,-114.222
 L 3.18712,-113.853 L 3.64484,-113.423 L 4.04507,-112.939 L 4.38153,-112.409 L 4.64888,-111.841 L 4.84291,-111.243
 L 4.96057,-110.627 L 5,-110 L 4.96057,-109.373 L 4.84291,-108.757 L 4.64888,-108.159 L 4.38153,-107.591
 L 4.04507,-107.061 L 3.64484,-106.577 L 3.18712,-106.147 L 2.67912,-105.778 L 2.12889,-105.476 L 1.54507,-105.245
 L 0.936905,-105.089 L 0.31395,-105.01 z
M 47.5,-93 L 55,-93 L 55,-100.5 L 59,-100.5 L 59,-115.5 L 55,-115.5
 L 55,-123 L 25,-123 L 25,-115.5 L 21,-115.5 L 21,-100.5 L 25,-100.5
 L 25,-93 L 32.5,-93 L 32.5,-89 L 47.5,-89 z
M 39.6861,-105.01 L 39.0631,-105.089 L 38.4549,-105.245 L 37.8711,-105.476 L 37.3209,-105.778 L 36.8129,-106.147
 L 36.3552,-106.577 L 35.9549,-107.061 L 35.6185,-107.591 L 35.3511,-108.159 L 35.1571,-108.757 L 35.0394,-109.373
 L 35,-110 L 35.0394,-110.627 L 35.1571,-111.243 L 35.3511,-111.841 L 35.6185,-112.409 L 35.9549,-112.939
 L 36.3552,-113.423 L 36.8129,-113.853 L 37.3209,-114.222 L 37.8711,-114.524 L 38.4549,-114.755 L 39.0631,-114.911
 L 39.6861,-114.99 L 40.3139,-114.99 L 40.9369,-114.911 L 41.5451,-114.755 L 42.1289,-114.524 L 42.6791,-114.222
 L 43.1871,-113.853 L 43.6448,-113.423 L 44.0451,-112.939 L 44.3815,-112.409 L 44.6489,-111.841 L 44.8429,-111.243
 L 44.9606,-110.627 L 45,-110 L 44.9606,-109.373 L 44.8429,-108.757 L 44.6489,-108.159 L 44.3815,-107.591
 L 44.0451,-107.061 L 43.6448,-106.577 L 43.1871,-106.147 L 42.6791,-105.778 L 42.1289,-105.476 L 41.5451,-105.245
 L 40.9369,-105.089 L 40.3139,-105.01 z
M 87.5,-93 L 95,-93 L 95,-100.5 L 99,-100.5 L 99,-115.5 L 95,-115.5
 L 95,-123 L 65,-123 L 65,-115.5 L 61,-115.5 L 61,-100.5 L 65,-100.5
 L 65,-93 L 72.5,-93 L 72.5,-89 L 87.5,-89 z
M 79.6861,-105.01 L 79.0631,-105.089 L 78.4549,-105.245 L 77.8711,-105.476 L 77.3209,-105.778 L 76.8129,-106.147
 L 76.3552,-106.577 L 75.9549,-107.061 L 75.6185,-107.591 L 75.3511,-108.159 L 75.1571,-108.757 L 75.0394,-109.373
 L 75,-110 L 75.0394,-110.627 L 75.1571,-111.243 L 75.3511,-111.841 L 75.6185,-112.409 L 75.9549,-112.939
 L 76.3552,-113.423 L 76.8129,-113.853 L 77.3209,-114.222 L 77.8711,-114.524 L 78.4549,-114.755 L 79.0631,-114.911
 L 79.6861,-114.99 L 80.3139,-114.99 L 80.9369,-114.911 L 81.5451,-114.755 L 82.1289,-114.524 L 82.6791,-114.222
 L 83.1871,-113.853 L 83.6448,-113.423 L 84.0451,-112.939 L 84.3815,-112.409 L 84.6489,-111.841 L 84.8429,-111.243
 L 84.9606,-110.627 L 85,-110 L 84.9606,-109.373 L 84.8429,-108.757 L 84.6489,-108.159 L 84.3815,-107.591
 L 84.0451,-107.061 L 83.6448,-106.577 L 83.1871,-106.147 L 82.6791,-105.778 L 82.1289,-105.476 L 81.5451,-105.245
 L 80.9369,-105.089 L 80.3139,-105.01 z
M 207.5,-93 L 215,-93 L 215,-100.5 L 219,-100.5 L 219,-115.5 L 215,-115.5
 L 215,-123 L 185,-123 L 185,-115.5 L 181,-115.5 L 181,-100.5 L 185,-100.5
 L 185,-93 L 192.5,-93 L 192.5,-89 L 207.5,-89 z
M 199.686,-105.01 L 199.063,-105.089 L 198.455,-105.245 L 197.871,-105.476 L 197.321,-105.778 L 196.813,-106.147
 L 196.355,-106.577 L 195.955,-107.061 L 195.618,-107.591 L 195.351,-108.159 L 195.157,-108.757 L 195.039,-109.373
 L 195,-110 L 195.039,-110.627 L 195.157,-111.243 L 195.351,-111.841 L 195.618,-112.409 L 195.955,-112.939
 L 196.355,-113.423 L 196.813,-113.853 L 197.321,-114.222 L 197.871,-114.524 L 198.455,-114.755 L 199.063,-114.911
 L 199.686,-114.99 L 200.314,-114.99 L 200.937,-114.911 L 201.545,-114.755 L 202.129,-114.524 L 202.679,-114.222
 L 203.187,-113.853 L 203.645,-113.423 L 204.045,-112.939 L 204.382,-112.409 L 204.649,-111.841 L 204.843,-111.243
 L 204.961,-110.627 L 205,-110 L 204.961,-109.373 L 204.843,-108.757 L 204.649,-108.159 L 204.382,-107.591
 L 204.045,-107.061 L 203.645,-106.577 L 203.187,-106.147 L 202.679,-105.778 L 202.129,-105.476 L 201.545,-105.245
 L 200.937,-105.089 L 200.314,-105.01 z
M 167.5,-93 L 175,-93 L 175,-100.5 L 179,-100.5 L 179,-115.5 L 175,-115.5
 L 175,-123 L 145,-123 L 145,-115.5 L 141,-115.5 L 141,-100.5 L 145,-100.5
 L 145,-93 L 152.5,-93 L 152.5,-89 L 167.5,-89 z
M 159.686,-105.01 L 159.063,-105.089 L 158.455,-105.245 L 157.871,-105.476 L 157.321,-105.778 L 156.813,-106.147
 L 156.355,-106.577 L 155.955,-107.061 L 155.618,-107.591 L 155.351,-108.159 L 155.157,-108.757 L 155.039,-109.373
 L 155,-110 L 155.039,-110.627 L 155.157,-111.243 L 155.351,-111.841 L 155.618,-112.409 L 155.955,-112.939
 L 156.355,-113.423 L 156.813,-113.853 L 157.321,-114.222 L 157.871,-114.524 L 158.455,-114.755 L 159.063,-114.911
 L 159.686,-114.99 L 160.314,-114.99 L 160.937,-114.911 L 161.545,-114.755 L 162.129,-114.524 L 162.679,-114.222
 L 163.187,-113.853 L 163.645,-113.423 L 164.045,-112.939 L 164.382,-112.409 L 164.649,-111.841 L 164.843,-111.243
 L 164.961,-110.627 L 165,-110 L 164.961,-109.373 L 164.843,-108.757 L 164.649,-108.159 L 164.382,-107.591
 L 164.045,-107.061 L 163.645,-106.577 L 163.187,-106.147 L 162.679,-105.778 L 162.129,-105.476 L 161.545,-105.245
 L 160.937,-105.089 L 160.314,-105.01 z
M 167.5,-57 L 175,-57 L 175,-64.5 L 179,-64.5 L 179,-79.5 L 175,-79.5
 L 175,-87 L 145,-87 L 145,-79.5 L 141,-79.5 L 141,-64.5 L 145,-64.5
 L 145,-57 L 152.5,-57 L 152.5,-53 L 167.5,-53 z
M 159.686,-69.0099 L 159.063,-69.0886 L 158.455,-69.2447 L 157.871,-69.4759 L 157.321,-69.7784 L 156.813,-70.1474
 L 156.355,-70.5773 L 155.955,-71.0611 L 155.618,-71.5912 L 155.351,-72.1594 L 155.157,-72.7565 L 155.039,-73.3733
 L 155,-74 L 155.039,-74.6267 L 155.157,-75.2434 L 155.351,-75.8406 L 155.618,-76.4088 L 155.955,-76.9389
 L 156.355,-77.4227 L 156.813,-77.8526 L 157.321,-78.2216 L 157.871,-78.5241 L 158.455,-78.7553 L 159.063,-78.9114
 L 159.686,-78.9901 L 160.314,-78.9901 L 160.937,-78.9114 L 161.545,-78.7553 L 162.129,-78.5241 L 162.679,-78.2216
 L 163.187,-77.8526 L 163.645,-77.4227 L 164.045,-76.9389 L 164.382,-76.4088 L 164.649,-75.8406 L 164.843,-75.2434
 L 164.961,-74.6267 L 165,-74 L 164.961,-73.3733 L 164.843,-72.7565 L 164.649,-72.1594 L 164.382,-71.5912
 L 164.045,-71.0611 L 163.645,-70.5773 L 163.187,-70.1474 L 162.679,-69.7784 L 162.129,-69.4759 L 161.545,-69.2447
 L 160.937,-69.0886 L 160.314,-69.0099 z
M 7.5,-57 L 15,-57 L 15,-64.5 L 19,-64.5 L 19,-79.5 L 15,-79.5
 L 15,-87 L -15,-87 L -15,-79.5 L -19,-79.5 L -19,-64.5 L -15,-64.5
 L -15,-57 L -7.5,-57 L -7.5,-53 L 7.5,-53 z
M -0.31395,-69.0099 L -0.936905,-69.0886 L -1.54507,-69.2447 L -2.12889,-69.4759 L -2.67912,-69.7784 L -3.18712,-70.1474
 L -3.64484,-70.5773 L -4.04507,-71.0611 L -4.38153,-71.5912 L -4.64888,-72.1594 L -4.84291,-72.7565 L -4.96057,-73.3733
 L -5,-74 L -4.96057,-74.6267 L -4.84291,-75.2434 L -4.64888,-75.8406 L -4.38153,-76.4088 L -4.04507,-76.9389
 L -3.64484,-77.4227 L -3.18712,-77.8526 L -2.67912,-78.2216 L -2.12889,-78.5241 L -1.54507,-78.7553 L -0.936905,-78.9114
 L -0.31395,-78.9901 L 0.31395,-78.9901 L 0.936905,-78.9114 L 1.54507,-78.7553 L 2.12889,-78.5241 L 2.67912,-78.2216
 L 3.18712,-77.8526 L 3.64484,-77.4227 L 4.04507,-76.9389 L 4.38153,-76.4088 L 4.64888,-75.8406 L 4.84291,-75.2434
 L 4.96057,-74.6267 L 5,-74 L 4.96057,-73.3733 L 4.84291,-72.7565 L 4.64888,-72.1594 L 4.38153,-71.5912
 L 4.04507,-71.0611 L 3.64484,-70.5773 L 3.18712,-70.1474 L 2.67912,-69.7784 L 2.12889,-69.4759 L 1.54507,-69.2447
 L 0.936905,-69.0886 L 0.31395,-69.0099 z
M 207.5,-57 L 215,-57 L 215,-64.5 L 219,-64.5 L 219,-79.5 L 215,-79.5
 L 215,-87 L 185,-87 L 185,-79.5 L 181,-79.5 L 181,-64.5 L 185,-64.5
 L 185,-57 L 192.5,-57 L 192.5,-53 L 207.5,-53 z
M 199.686,-69.0099 L 199.063,-69.0886 L 198.455,-69.2447 L 197.871,-69.4759 L 197.321,-69.7784 L 196.813,-70.1474
 L 196.355,-70.5773 L 195.955,-71.0611 L 195.618,-71.5912 L 195.351,-72.1594 L 195.157,-72.7565 L 195.039,-73.3733
 L 195,-74 L 195.039,-74.6267 L 195.157,-75.2434 L 195.351,-75.8406 L 195.618,-76.4088 L 195.955,-76.9389
 L 196.355,-77.4227 L 196.813,-77.8526 L 197.321,-78.2216 L 197.871,-78.5241 L 198.455,-78.7553 L 199.063,-78.9114
 L 199.686,-78.9901 L 200.314,-78.9901 L 200.937,-78.9114 L 201.545,-78.7553 L 202.129,-78.5241 L 202.679,-78.2216
 L 203.187,-77.8526 L 203.645,-77.4227 L 204.045,-76.9389 L 204.382,-76.4088 L 204.649,-75.8406 L 204.843,-75.2434
 L 204.961,-74.6267 L 205,-74 L 204.961,-73.3733 L 204.843,-72.7565 L 204.649,-72.1594 L 204.382,-71.5912
 L 204.045,-71.0611 L 203.645,-70.5773 L 203.187,-70.1474 L 202.679,-69.7784 L 202.129,-69.4759 L 201.545,-69.2447
 L 200.937,-69.0886 L 200.314,-69.0099 z
M 87.5,-57 L 95,-57 L 95,-64.5 L 99,-64.5 L 99,-79.5 L 95,-79.5
 L 95,-87 L 65,-87 L 65,-79.5 L 61,-79.5 L 61,-64.5 L 65,-64.5
 L 65,-57 L 72.5,-57 L 72.5,-53 L 87.5,-53 z
M 79.6861,-69.0099 L 79.0631,-69.0886 L 78.4549,-69.2447 L 77.8711,-69.4759 L 77.3209,-69.7784 L 76.8129,-70.1474
 L 76.3552,-70.5773 L 75.9549,-71.0611 L 75.6185,-71.5912 L 75.3511,-72.1594 L 75.1571,-72.7565 L 75.0394,-73.3733
 L 75,-74 L 75.0394,-74.6267 L 75.1571,-75.2434 L 75.3511,-75.8406 L 75.6185,-76.4088 L 75.9549,-76.9389
 L 76.3552,-77.4227 L 76.8129,-77.8526 L 77.3209,-78.2216 L 77.8711,-78.5241 L 78.4549,-78.7553 L 79.0631,-78.9114
 L 79.6861,-78.9901 L 80.3139,-78.9901 L 80.9369,-78.9114 L 81.5451,-78.7553 L 82.1289,-78.5241 L 82.6791,-78.2216
 L 83.1871,-77.8526 L 83.6448,-77.4227 L 84.0451,-76.9389 L 84.3815,-76.4088 L 84.6489,-75.8406 L 84.8429,-75.2434
 L 84.9606,-74.6267 L 85,-74 L 84.9606,-73.3733 L 84.8429,-72.7565 L 84.6489,-72.1594 L 84.3815,-71.5912
 L 84.0451,-71.0611 L 83.6448,-70.5773 L 83.1871,-70.1474 L 82.6791,-69.7784 L 82.1289,-69.4759 L 81.5451,-69.2447
 L 80.9369,-69.0886 L 80.3139,-69.0099 z
M 127.5,-57 L 135,-57 L 135,-64.5 L 139,-64.5 L 139,-79.5 L 135,-79.5
 L 135,-87 L 105,-87 L 105,-79.5 L 101,-79.5 L 101,-64.5 L 105,-64.5
 L 105,-57 L 112.5,-57 L 112.5,-53 L 127.5,-53 z
M 119.686,-69.0099 L 119.063,-69.0886 L 118.455,-69.2447 L 117.871,-69.4759 L 117.321,-69.7784 L 116.813,-70.1474
 L 116.355,-70.5773 L 115.955,-71.0611 L 115.618,-71.5912 L 115.351,-72.1594 L 115.157,-72.7565 L 115.039,-73.3733
 L 115,-74 L 115.039,-74.6267 L 115.157,-75.2434 L 115.351,-75.8406 L 115.618,-76.4088 L 115.955,-76.9389
 L 116.355,-77.4227 L 116.813,-77.8526 L 117.321,-78.2216 L 117.871,-78.5241 L 118.455,-78.7553 L 119.063,-78.9114
 L 119.686,-78.9901 L 120.314,-78.9901 L 120.937,-78.9114 L 121.545,-78.7553 L 122.129,-78.5241 L 122.679,-78.2216
 L 123.187,-77.8526 L 123.645,-77.4227 L 124.045,-76.9389 L 124.382,-76.4088 L 124.649,-75.8406 L 124.843,-75.2434
 L 124.961,-74.6267 L 125,-74 L 124.961,-73.3733 L 124.843,-72.7565 L 124.649,-72.1594 L 124.382,-71.5912
 L 124.045,-71.0611 L 123.645,-70.5773 L 123.187,-70.1474 L 122.679,-69.7784 L 122.129,-69.4759 L 121.545,-69.2447
 L 120.937,-69.0886 L 120.314,-69.0099 z
M 47.5,-57 L 55,-57 L 55,-64.5 L 59,-64.5 L 59,-79.5 L 55,-79.5
 L 55,-87 L 25,-87 L 25,-79.5 L 21,-79.5 L 21,-64.5 L 25,-64.5
 L 25,-57 L 32.5,-57 L 32.5,-53 L 47.5,-53 z
M 39.6861,-69.0099 L 39.0631,-69.0886 L 38.4549,-69.2447 L 37.8711,-69.4759 L 37.3209,-69.7784 L 36.8129,-70.1474
 L 36.3552,-70.5773 L 35.9549,-71.0611 L 35.6185,-71.5912 L 35.3511,-72.1594 L 35.1571,-72.7565 L 35.0394,-73.3733
 L 35,-74 L 35.0394,-74.6267 L 35.1571,-75.2434 L 35.3511,-75.8406 L 35.6185,-76.4088 L 35.9549,-76.9389
 L 36.3552,-77.4227 L 36.8129,-77.8526 L 37.3209,-78.2216 L 37.8711,-78.5241 L 38.4549,-78.7553 L 39.0631,-78.9114
 L 39.6861,-78.9901 L 40.3139,-78.9901 L 40.9369,-78.9114 L 41.5451,-78.7553 L 42.1289,-78.5241 L 42.6791,-78.2216
 L 43.1871,-77.8526 L 43.6448,-77.4227 L 44.0451,-76.9389 L 44.3815,-76.4088 L 44.6489,-75.8406 L 44.8429,-75.2434
 L 44.9606,-74.6267 L 45,-74 L 44.9606,-73.3733 L 44.8429,-72.7565 L 44.6489,-72.1594 L 44.3815,-71.5912
 L 44.0451,-71.0611 L 43.6448,-70.5773 L 43.1871,-70.1474 L 42.6791,-69.7784 L 42.1289,-69.4759 L 41.5451,-69.2447
 L 40.9369,-69.0886 L 40.3139,-69.0099 z
M 47.5,-21 L 55,-21 L 55,-28.5 L 59,-28.5 L 59,-43.5 L 55,-43.5
 L 55,-51 L 25,-51 L 25,-43.5 L 21,-43.5 L 21,-28.5 L 25,-28.5
 L 25,-21 L 32.5,-21 L 32.5,-17 L 47.5,-17 z
M 39.6861,-33.0099 L 39.0631,-33.0886 L 38.4549,-33.2447 L 37.8711,-33.4759 L 37.3209,-33.7784 L 36.8129,-34.1474
 L 36.3552,-34.5773 L 35.9549,-35.0611 L 35.6185,-35.5912 L 35.3511,-36.1594 L 35.1571,-36.7565 L 35.0394,-37.3733
 L 35,-38 L 35.0394,-38.6267 L 35.1571,-39.2434 L 35.3511,-39.8406 L 35.6185,-40.4088 L 35.9549,-40.9389
 L 36.3552,-41.4227 L 36.8129,-41.8526 L 37.3209,-42.2216 L 37.8711,-42.5241 L 38.4549,-42.7553 L 39.0631,-42.9114
 L 39.6861,-42.9901 L 40.3139,-42.9901 L 40.9369,-42.9114 L 41.5451,-42.7553 L 42.1289,-42.5241 L 42.6791,-42.2216
 L 43.1871,-41.8526 L 43.6448,-41.4227 L 44.0451,-40.9389 L 44.3815,-40.4088 L 44.6489,-39.8406 L 44.8429,-39.2434
 L 44.9606,-38.6267 L 45,-38 L 44.9606,-37.3733 L 44.8429,-36.7565 L 44.6489,-36.1594 L 44.3815,-35.5912
 L 44.0451,-35.0611 L 43.6448,-34.5773 L 43.1871,-34.1474 L 42.6791,-33.7784 L 42.1289,-33.4759 L 41.5451,-33.2447
 L 40.9369,-33.0886 L 40.3139,-33.0099 z
M 127.5,-21 L 135,-21 L 135,-28.5 L 139,-28.5 L 139,-43.5 L 135,-43.5
 L 135,-51 L 105,-51 L 105,-43.5 L 101,-43.5 L 101,-28.5 L 105,-28.5
 L 105,-21 L 112.5,-21 L 112.5,-17 L 127.5,-17 z
M 119.686,-33.0099 L 119.063,-33.0886 L 118.455,-33.2447 L 117.871,-33.4759 L 117.321,-33.7784 L 116.813,-34.1474
 L 116.355,-34.5773 L 115.955,-35.0611 L 115.618,-35.5912 L 115.351,-36.1594 L 115.157,-36.7565 L 115.039,-37.3733
 L 115,-38 L 115.039,-38.6267 L 115.157,-39.2434 L 115.351,-39.8406 L 115.618,-40.4088 L 115.955,-40.9389
 L 116.355,-41.4227 L 116.813,-41.8526 L 117.321,-42.2216 L 117.871,-42.5241 L 118.455,-42.7553 L 119.063,-42.9114
 L 119.686,-42.9901 L 120.314,-42.9901 L 120.937,-42.9114 L 121.545,-42.7553 L 122.129,-42.5241 L 122.679,-42.2216
 L 123.187,-41.8526 L 123.645,-41.4227 L 124.045,-40.9389 L 124.382,-40.4088 L 124.649,-39.8406 L 124.843,-39.2434
 L 124.961,-38.6267 L 125,-38 L 124.961,-37.3733 L 124.843,-36.7565 L 124.649,-36.1594 L 124.382,-35.5912
 L 124.045,-35.0611 L 123.645,-34.5773 L 123.187,-34.1474 L 122.679,-33.7784 L 122.129,-33.4759 L 121.545,-33.2447
 L 120.937,-33.0886 L 120.314,-33.0099 z
M 207.5,-21 L 215,-21 L 215,-28.5 L 219,-28.5 L 219,-43.5 L 215,-43.5
 L 215,-51 L 185,-51 L 185,-43.5 L 181,-43.5 L 181,-28.5 L 185,-28.5
 L 185,-21 L 192.5,-21 L 192.5,-17 L 207.5,-17 z
M 199.686,-33.0099 L 199.063,-33.0886 L 198.455,-33.2447 L 197.871,-33.4759 L 197.321,-33.7784 L 196.813,-34.1474
 L 196.355,-34.5773 L 195.955,-35.0611 L 195.618,-35.5912 L 195.351,-36.1594 L 195.157,-36.7565 L 195.039,-37.3733
 L 195,-38 L 195.039,-38.6267 L 195.157,-39.2434 L 195.351,-39.8406 L 195.618,-40.4088 L 195.955,-40.9389
 L 196.355,-41.4227 L 196.813,-41.8526 L 197.321,-42.2216 L 197.871,-42.5241 L 198.455,-42.7553 L 199.063,-42.9114
 L 199.686,-42.9901 L 200.314,-42.9901 L 200.937,-42.9114 L 201.545,-42.7553 L 202.129,-42.5241 L 202.679,-42.2216
 L 203.187,-41.8526 L 203.645,-41.4227 L 204.045,-40.9389 L 204.382,-40.4088 L 204.649,-39.8406 L 204.843,-39.2434
 L 204.961,-38.6267 L 205,-38 L 204.961,-37.3733 L 204.843,-36.7565 L 204.649,-36.1594 L 204.382,-35.5912
 L 204.045,-35.0611 L 203.645,-34.5773 L 203.187,-34.1474 L 202.679,-33.7784 L 202.129,-33.4759 L 201.545,-33.2447
 L 200.937,-33.0886 L 200.314,-33.0099 z
M 7.5,-21 L 15,-21 L 15,-28.5 L 19,-28.5 L 19,-43.5 L 15,-43.5
 L 15,-51 L -15,-51 L -15,-43.5 L -19,-43.5 L -19,-28.5 L -15,-28.5
 L -15,-21 L -7.5,-21 L -7.5,-17 L 7.5,-17 z
M -0.31395,-33.0099 L -0.936905,-33.0886 L -1.54507,-33.2447 L -2.12889,-33.4759 L -2.67912,-33.7784 L -3.18712,-34.1474
 L -3.64484,-34.5773 L -4.04507,-35.0611 L -4.38153,-35.5912 L -4.64888,-36.1594 L -4.84291,-36.7565 L -4.96057,-37.3733
 L -5,-38 L -4.96057,-38.6267 L -4.84291,-39.2434 L -4.64888,-39.8406 L -4.38153,-40.4088 L -4.04507,-40.9389
 L -3.64484,-41.4227 L -3.18712,-41.8526 L -2.67912,-42.2216 L -2.12889,-42.5241 L -1.54507,-42.7553 L -0.936905,-42.9114
 L -0.31395,-42.9901 L 0.31395,-42.9901 L 0.936905,-42.9114 L 1.54507,-42.7553 L 2.12889,-42.5241 L 2.67912,-42.2216
 L 3.18712,-41.8526 L 3.64484,-41.4227 L 4.04507,-40.9389 L 4.38153,-40.4088 L 4.64888,-39.8406 L 4.84291,-39.2434
 L 4.96057,-38.6267 L 5,-38 L 4.96057,-37.3733 L 4.84291,-36.7565 L 4.64888,-36.1594 L 4.38153,-35.5912
 L 4.04507,-35.0611 L 3.64484,-34.5773 L 3.18712,-34.1474 L 2.67912,-33.7784 L 2.12889,-33.4759 L 1.54507,-33.2447
 L 0.936905,-33.0886 L 0.31395,-33.0099 z
M 87.5,-21 L 95,-21 L 95,-28.5 L 99,-28.5 L 99,-43.5 L 95,-43.5
 L 95,-51 L 65,-51 L 65,-43.5 L 61,-43.5 L 61,-28.5 L 65,-28.5
 L 65,-21 L 72.5,-21 L 72.5,-17 L 87.5,-17 z
M 79.6861,-33.0099 L 79.0631,-33.0886 L 78.4549,-33.2447 L 77.8711,-33.4759 L 77.3209,-33.7784 L 76.8129,-34.1474
 L 76.3552,-34.5773 L 75.9549,-35.0611 L 75.6185,-35.5912 L 75.3511,-36.1594 L 75.1571,-36.7565 L 75.0394,-37.3733
 L 75,-38 L 75.0394,-38.6267 L 75.1571,-39.2434 L 75.3511,-39.8406 L 75.6185,-40.4088 L 75.9549,-40.9389
 L 76.3552,-41.4227 L 76.8129,-41.8526 L 77.3209,-42.2216 L 77.8711,-42.5241 L 78.4549,-42.7553 L 79.0631,-42.9114
 L 79.6861,-42.9901 L 80.3139,-42.9901 L 80.9369,-42.9114 L 81.5451,-42.7553 L 82.1289,-42.5241 L 82.6791,-42.2216
 L 83.1871,-41.8526 L 83.6448,-41.4227 L 84.0451,-40.9389 L 84.3815,-40.4088 L 84.6489,-39.8406 L 84.8429,-39.2434
 L 84.9606,-38.6267 L 85,-38 L 84.9606,-37.3733 L 84.8429,-36.7565 L 84.6489,-36.1594 L 84.3815,-35.5912
 L 84.0451,-35.0611 L 83.6448,-34.5773 L 83.1871,-34.1474 L 82.6791,-33.7784 L 82.1289,-33.4759 L 81.5451,-33.2447
 L 80.9369,-33.0886 L 80.3139,-33.0099 z
M 167.5,-21 L 175,-21 L 175,-28.5 L 179,-28.5 L 179,-43.5 L 175,-43.5
 L 175,-51 L 145,-51 L 145,-43.5 L 141,-43.5 L 141,-28.5 L 145,-28.5
 L 145,-21 L 152.5,-21 L 152.5,-17 L 167.5,-17 z
M 159.686,-33.0099 L 159.063,-33.0886 L 158.455,-33.2447 L 157.871,-33.4759 L 157.321,-33.7784 L 156.813,-34.1474
 L 156.355,-34.5773 L 155.955,-35.0611 L 155.618,-35.5912 L 155.351,-36.1594 L 155.157,-36.7565 L 155.039,-37.3733
 L 155,-38 L 155.039,-38.6267 L 155.157,-39.2434 L 155.351,-39.8406 L 155.618,-40.4088 L 155.955,-40.9389
 L 156.355,-41.4227 L 156.813,-41.8526 L 157.321,-42.2216 L 157.871,-42.5241 L 158.455,-42.7553 L 159.063,-42.9114
 L 159.686,-42.9901 L 160.314,-42.9901 L 160.937,-42.9114 L 161.545,-42.7553 L 162.129,-42.5241 L 162.679,-42.2216
 L 163.187,-41.8526 L 163.645,-41.4227 L 164.045,-40.9389 L 164.382,-40.4088 L 164.649,-39.8406 L 164.843,-39.2434
 L 164.961,-38.6267 L 165,-38 L 164.961,-37.3733 L 164.843,-36.7565 L 164.649,-36.1594 L 164.382,-35.5912
 L 164.045,-35.0611 L 163.645,-34.5773 L 163.187,-34.1474 L 162.679,-33.7784 L 162.129,-33.4759 L 161.545,-33.2447
 L 160.937,-33.0886 L 160.314,-33.0099 z
M 167.5,15 L 175,15 L 175,7.5 L 179,7.5 L 179,-7.5 L 175,-7.5
 L 175,-15 L 145,-15 L 145,-7.5 L 141,-7.5 L 141,7.5 L 145,7.5
 L 145,15 L 152.5,15 L 152.5,19 L 167.5,19 z
M 159.686,2.99013 L 159.063,2.91142 L 158.455,2.75528 L 157.871,2.52412 L 157.321,2.22163 L 156.813,1.85255
 L 156.355,1.42273 L 155.955,0.938919 L 155.618,0.408768 L 155.351,-0.159363 L 155.157,-0.756546 L 155.039,-1.37332
 L 155,-2 L 155.039,-2.62666 L 155.157,-3.24344 L 155.351,-3.84062 L 155.618,-4.40877 L 155.955,-4.93892
 L 156.355,-5.42273 L 156.813,-5.85255 L 157.321,-6.22163 L 157.871,-6.52412 L 158.455,-6.75528 L 159.063,-6.91142
 L 159.686,-6.99013 L 160.314,-6.99013 L 160.937,-6.91142 L 161.545,-6.75528 L 162.129,-6.52412 L 162.679,-6.22163
 L 163.187,-5.85255 L 163.645,-5.42273 L 164.045,-4.93892 L 164.382,-4.40877 L 164.649,-3.84062 L 164.843,-3.24344
 L 164.961,-2.62666 L 165,-2 L 164.961,-1.37332 L 164.843,-0.756546 L 164.649,-0.159363 L 164.382,0.408768
 L 164.045,0.938919 L 163.645,1.42273 L 163.187,1.85255 L 162.679,2.22163 L 162.129,2.52412 L 161.545,2.75528
 L 160.937,2.91142 L 160.314,2.99013 z
M 87.5,15 L 95,15 L 95,7.5 L 99,7.5 L 99,-7.5 L 95,-7.5
 L 95,-15 L 65,-15 L 65,-7.5 L 61,-7.5 L 61,7.5 L 65,7.5
 L 65,15 L 72.5,15 L 72.5,19 L 87.5,19 z
M 79.6861,2.99013 L 79.0631,2.91142 L 78.4549,2.75528 L 77.8711,2.52412 L 77.3209,2.22163 L 76.8129,1.85255
 L 76.3552,1.42273 L 75.9549,0.938919 L 75.6185,0.408768 L 75.3511,-0.159363 L 75.1571,-0.756546 L 75.0394,-1.37332
 L 75,-2 L 75.0394,-2.62666 L 75.1571,-3.24344 L 75.3511,-3.84062 L 75.6185,-4.40877 L 75.9549,-4.93892
 L 76.3552,-5.42273 L 76.8129,-5.85255 L 77.3209,-6.22163 L 77.8711,-6.52412 L 78.4549,-6.75528 L 79.0631,-6.91142
 L 79.6861,-6.99013 L 80.3139,-6.99013 L 80.9369,-6.91142 L 81.5451,-6.75528 L 82.1289,-6.52412 L 82.6791,-6.22163
 L 83.1871,-5.85255 L 83.6448,-5.42273 L 84.0451,-4.93892 L 84.3815,-4.40877 L 84.6489,-3.84062 L 84.8429,-3.24344
 L 84.9606,-2.62666 L 85,-2 L 84.9606,-1.37332 L 84.8429,-0.756546 L 84.6489,-0.159363 L 84.3815,0.408768
 L 84.0451,0.938919 L 83.6448,1.42273 L 83.1871,1.85255 L 82.6791,2.22163 L 82.1289,2.52412 L 81.5451,2.75528
 L 80.9369,2.91142 L 80.3139,2.99013 z
M 207.5,15 L 215,15 L 215,7.5 L 219,7.5 L 219,-7.5 L 215,-7.5
 L 215,-15 L 185,-15 L 185,-7.5 L 181,-7.5 L 181,7.5 L 185,7.5
 L 185,15 L 192.5,15 L 192.5,19 L 207.5,19 z
M 199.686,2.99013 L 199.063,2.91142 L 198.455,2.75528 L 197.871,2.52412 L 197.321,2.22163 L 196.813,1.85255
 L 196.355,1.42273 L 195.955,0.938919 L 195.618,0.408768 L 195.351,-0.159363 L 195.157,-0.756546 L 195.039,-1.37332
 L 195,-2 L 195.039,-2.62666 L 195.157,-3.24344 L 195.351,-3.84062 L 195.618,-4.40877 L 195.955,-4.93892
 L 196.355,-5.42273 L 196.813,-5.85255 L 197.321,-6.22163 L 197.871,-6.52412 L 198.455,-6.75528 L 199.063,-6.91142
 L 199.686,-6.99013 L 200.314,-6.99013 L 200.937,-6.91142 L 201.545,-6.75528 L 202.129,-6.52412 L 202.679,-6.22163
 L 203.187,-5.85255 L 203.645,-5.42273 L 204.045,-4.93892 L 204.382,-4.40877 L 204.649,-3.84062 L 204.843,-3.24344
 L 204.961,-2.62666 L 205,-2 L 204.961,-1.37332 L 204.843,-0.756546 L 204.649,-0.159363 L 204.382,0.408768
 L 204.045,0.938919 L 203.645,1.42273 L 203.187,1.85255 L 202.679,2.22163 L 202.129,2.52412 L 201.545,2.75528
 L 200.937,2.91142 L 200.314,2.99013 z
M 127.5,15 L 135,15 L 135,7.5 L 139,7.5 L 139,-7.5 L 135,-7.5
 L 135,-15 L 105,-15 L 105,-7.5 L 101,-7.5 L 101,7.5 L 105,7.5
 L 105,15 L 112.5,15 L 112.5,19 L 127.5,19 z
M 119.686,2.99013 L 119.063,2.91142 L 118.455,2.75528 L 117.871,2.52412 L 117.321,2.22163 L 116.813,1.85255
 L 116.355,1.42273 L 115.955,0.938919 L 115.618,0.408768 L 115.351,-0.159363 L 115.157,-0.756546 L 115.039,-1.37332
 L 115,-2 L 115.039,-2.62666 L 115.157,-3.24344 L 115.351,-3.84062 L 115.618,-4.40877 L 115.955,-4.93892
 L 116.355,-5.42273 L 116.813,-5.85255 L 117.321,-6.22163 L 117.871,-6.52412 L 118.455,-6.75528 L 119.063,-6.91142
 L 119.686,-6.99013 L 120.314,-6.99013 L 120.937,-6.91142 L 121.545,-6.75528 L 122.129,-6.52412 L 122.679,-6.22163
 L 123.187,-5.85255 L 123.645,-5.42273 L 124.045,-4.93892 L 124.382,-4.40877 L 124.649,-3.84062 L 124.843,-3.24344
 L 124.961,-2.62666 L 125,-2 L 124.961,-1.37332 L 124.843,-0.756546 L 124.649,-0.159363 L 124.382,0.408768
 L 124.045,0.938919 L 123.645,1.42273 L 123.187,1.85255 L 122.679,2.22163 L 122.129,2.52412 L 121.545,2.75528
 L 120.937,2.91142 L 120.314,2.99013 z
M 7.5,15 L 15,15 L 15,7.5 L 19,7.5 L 19,-7.5 L 15,-7.5
 L 15,-15 L -15,-15 L -15,-7.5 L -19,-7.5 L -19,7.5 L -15,7.5
 L -15,15 L -7.5,15 L -7.5,19 L 7.5,19 z
M -0.31395,2.99013 L -0.936905,2.91142 L -1.54507,2.75528 L -2.12889,2.52412 L -2.67912,2.22163 L -3.18712,1.85255
 L -3.64484,1.42273 L -4.04507,0.938919 L -4.38153,0.408768 L -4.64888,-0.159363 L -4.84291,-0.756546 L -4.96057,-1.37332
 L -5,-2 L -4.96057,-2.62666 L -4.84291,-3.24344 L -4.64888,-3.84062 L -4.38153,-4.40877 L -4.04507,-4.93892
 L -3.64484,-5.42273 L -3.18712,-5.85255 L -2.67912,-6.22163 L -2.12889,-6.52412 L -1.54507,-6.75528 L -0.936905,-6.91142
 L -0.31395,-6.99013 L 0.31395,-6.99013 L 0.936905,-6.91142 L 1.54507,-6.75528 L 2.12889,-6.52412 L 2.67912,-6.22163
 L 3.18712,-5.85255 L 3.64484,-5.42273 L 4.04507,-4.93892 L 4.38153,-4.40877 L 4.64888,-3.84062 L 4.84291,-3.24344
 L 4.96057,-2.62666 L 5,-2 L 4.96057,-1.37332 L 4.84291,-0.756546 L 4.64888,-0.159363 L 4.38153,0.408768
 L 4.04507,0.938919 L 3.64484,1.42273 L 3.18712,1.85255 L 2.67912,2.22163 L 2.12889,2.52412 L 1.54507,2.75528
 L 0.936905,2.91142 L 0.31395,2.99013 z
M 47.5,15 L 55,15 L 55,7.5 L 59,7.5 L 59,-7.5 L 55,-7.5
 L 55,-15 L 25,-15 L 25,-7.5 L 21,-7.5 L 21,7.5 L 25,7.5
 L 25,15 L 32.5,15 L 32.5,19 L 47.5,19 z
M 39.6861,2.99013 L 39.0631,2.91142 L 38.4549,2.75528 L 37.8711,2.52412 L 37.3209,2.22163 L 36.8129,1.85255
 L 36.3552,1.42273 L 35.9549,0.938919 L 35.6185,0.408768 L 35.3511,-0.159363 L 35.1571,-0.756546 L 35.0394,-1.37332
 L 35,-2 L 35.0394,-2.62666 L 35.1571,-3.24344 L 35.3511,-3.84062 L 35.6185,-4.40877 L 35.9549,-4.93892
 L 36.3552,-5.42273 L 36.8129,-5.85255 L 37.3209,-6.22163 L 37.8711,-6.52412 L 38.4549,-6.75528 L 39.0631,-6.91142
 L 39.6861,-6.99013 L 40.3139,-6.99013 L 40.9369,-6.91142 L 41.5451,-6.75528 L 42.1289,-6.52412 L 42.6791,-6.22163
 L 43.1871,-5.85255 L 43.6448,-5.42273 L 44.0451,-4.93892 L 44.3815,-4.40877 L 44.6489,-3.84062 L 44.8429,-3.24344
 L 44.9606,-2.62666 L 45,-2 L 44.9606,-1.37332 L 44.8429,-0.756546 L 44.6489,-0.159363 L 44.3815,0.408768
 L 44.0451,0.938919 L 43.6448,1.42273 L 43.1871,1.85255 L 42.6791,2.22163 L 42.1289,2.52412 L 41.5451,2.75528
 L 40.9369,2.91142 L 40.3139,2.99013 z
" stroke="black" fill="lightgray" stroke-width="0.5"/>
</svg>
