  0
SECTION
  2
BLOCKS
  0
ENDSEC
  0
SECTION
  2
ENTITIES
  0
LINE
  8
0
 10
105
 20
152.6
 11
135
 21
152.6
  0
LINE
  8
0
 10
135
 20
152.6
 11
135
 21
144.6
  0
LINE
  8
0
 10
135
 20
144.6
 11
139
 21
144.6
  0
LINE
  8
0
 10
139
 20
144.6
 11
139
 21
168.6
  0
LINE
  8
0
 10
139
 20
168.6
 11
135
 21
168.6
  0
LINE
  8
0
 10
135
 20
168.6
 11
135
 21
176.1
  0
LINE
  8
0
 10
135
 20
176.1
 11
139
 21
176.1
  0
LINE
  8
0
 10
139
 20
176.1
 11
139
 21
191.1
  0
LINE
  8
0
 10
139
 20
191.1
 11
135
 21
191.1
  0
LINE
  8
0
 10
135
 20
191.1
 11
135
 21
198.6
  0
LINE
  8
0
 10
135
 20
198.6
 11
105
 21
198.6
  0
LINE
  8
0
 10
105
 20
198.6
 11
105
 21
191.1
  0
LINE
  8
0
 10
105
 20
191.1
 11
101
 21
191.1
  0
LINE
  8
0
 10
101
 20
191.1
 11
101
 21
176.1
  0
LINE
  8
0
 10
101
 20
176.1
 11
105
 21
176.1
  0
LINE
  8
0
 10
105
 20
176.1
 11
105
 21
168.6
  0
LINE
  8
0
 10
105
 20
168.6
 11
101
 21
168.6
  0
LINE
  8
0
 10
101
 20
168.6
 11
101
 21
144.6
  0
LINE
  8
0
 10
101
 20
144.6
 11
105
 21
144.6
  0
LINE
  8
0
 10
105
 20
144.6
 11
105
 21
152.6
  0
LINE
  8
0
 10
119.686
 20
180.61
 11
119.063
 21
180.689
  0
LINE
  8
0
 10
119.063
 20
180.689
 11
118.455
 21
180.845
  0
LINE
  8
0
 10
118.455
 20
180.845
 11
117.871
 21
181.076
  0
LINE
  8
0
 10
117.871
 20
181.076
 11
117.321
 21
181.378
  0
LINE
  8
0
 10
117.321
 20
181.378
 11
116.813
 21
181.747
  0
LINE
  8
0
 10
116.813
 20
181.747
 11
116.355
 21
182.177
  0
LINE
  8
0
 10
116.355
 20
182.177
 11
115.955
 21
182.661
  0
LINE
  8
0
 10
115.955
 20
182.661
 11
115.618
 21
183.191
  0
LINE
  8
0
 10
115.618
 20
183.191
 11
115.351
 21
183.759
  0
LINE
  8
0
 10
115.351
 20
183.759
 11
115.157
 21
184.357
  0
LINE
  8
0
 10
115.157
 20
184.357
 11
115.039
 21
184.973
  0
LINE
  8
0
 10
115.039
 20
184.973
 11
115
 21
185.6
  0
LINE
  8
0
 10
115
 20
185.6
 11
115.039
 21
186.227
  0
LINE
  8
0
 10
115.039
 20
186.227
 11
115.157
 21
186.843
  0
LINE
  8
0
 10
115.157
 20
186.843
 11
115.351
 21
187.441
  0
LINE
  8
0
 10
115.351
 20
187.441
 11
115.618
 21
188.009
  0
LINE
  8
0
 10
115.618
 20
188.009
 11
115.955
 21
188.539
  0
LINE
  8
0
 10
115.955
 20
188.539
 11
116.355
 21
189.023
  0
LINE
  8
0
 10
116.355
 20
189.023
 11
116.813
 21
189.453
  0
LINE
  8
0
 10
116.813
 20
189.453
 11
117.321
 21
189.822
  0
LINE
  8
0
 10
117.321
 20
189.822
 11
117.871
 21
190.124
  0
LINE
  8
0
 10
117.871
 20
190.124
 11
118.455
 21
190.355
  0
LINE
  8
0
 10
118.455
 20
190.355
 11
119.063
 21
190.511
  0
LINE
  8
0
 10
119.063
 20
190.511
 11
119.686
 21
190.59
  0
LINE
  8
0
 10
119.686
 20
190.59
 11
120.314
 21
190.59
  0
LINE
  8
0
 10
120.314
 20
190.59
 11
120.937
 21
190.511
  0
LINE
  8
0
 10
120.937
 20
190.511
 11
121.545
 21
190.355
  0
LINE
  8
0
 10
121.545
 20
190.355
 11
122.129
 21
190.124
  0
LINE
  8
0
 10
122.129
 20
190.124
 11
122.679
 21
189.822
  0
LINE
  8
0
 10
122.679
 20
189.822
 11
123.187
 21
189.453
  0
LINE
  8
0
 10
123.187
 20
189.453
 11
123.645
 21
189.023
  0
LINE
  8
0
 10
123.645
 20
189.023
 11
124.045
 21
188.539
  0
LINE
  8
0
 10
124.045
 20
188.539
 11
124.382
 21
188.009
  0
LINE
  8
0
 10
124.382
 20
188.009
 11
124.649
 21
187.441
  0
LINE
  8
0
 10
124.649
 20
187.441
 11
124.843
 21
186.843
  0
LINE
  8
0
 10
124.843
 20
186.843
 11
124.961
 21
186.227
  0
LINE
  8
0
 10
124.961
 20
186.227
 11
125
 21
185.6
  0
LINE
  8
0
 10
125
 20
185.6
 11
124.961
 21
184.973
  0
LINE
  8
0
 10
124.961
 20
184.973
 11
124.843
 21
184.357
  0
LINE
  8
0
 10
124.843
 20
184.357
 11
124.649
 21
183.759
  0
LINE
  8
0
 10
124.649
 20
183.759
 11
124.382
 21
183.191
  0
LINE
  8
0
 10
124.382
 20
183.191
 11
124.045
 21
182.661
  0
LINE
  8
0
 10
124.045
 20
182.661
 11
123.645
 21
182.177
  0
LINE
  8
0
 10
123.645
 20
182.177
 11
123.187
 21
181.747
  0
LINE
  8
0
 10
123.187
 20
181.747
 11
122.679
 21
181.378
  0
LINE
  8
0
 10
122.679
 20
181.378
 11
122.129
 21
181.076
  0
LINE
  8
0
 10
122.129
 20
181.076
 11
121.545
 21
180.845
  0
LINE
  8
0
 10
121.545
 20
180.845
 11
120.937
 21
180.689
  0
LINE
  8
0
 10
120.937
 20
180.689
 11
120.314
 21
180.61
  0
LINE
  8
0
 10
120.314
 20
180.61
 11
119.686
 21
180.61
  0
LINE
  8
0
 10
112.5
 20
164.6
 11
112.5
 21
168.6
  0
LINE
  8
0
 10
112.5
 20
168.6
 11
127.5
 21
168.6
  0
LINE
  8
0
 10
127.5
 20
168.6
 11
127.5
 21
164.6
  0
LINE
  8
0
 10
127.5
 20
164.6
 11
112.5
 21
164.6
  0
LINE
  8
0
 10
25
 20
152.6
 11
55
 21
152.6
  0
LINE
  8
0
 10
55
 20
152.6
 11
55
 21
144.6
  0
LINE
  8
0
 10
55
 20
144.6
 11
59
 21
144.6
  0
LINE
  8
0
 10
59
 20
144.6
 11
59
 21
168.6
  0
LINE
  8
0
 10
59
 20
168.6
 11
55
 21
168.6
  0
LINE
  8
0
 10
55
 20
168.6
 11
55
 21
176.1
  0
LINE
  8
0
 10
55
 20
176.1
 11
59
 21
176.1
  0
LINE
  8
0
 10
59
 20
176.1
 11
59
 21
191.1
  0
LINE
  8
0
 10
59
 20
191.1
 11
55
 21
191.1
  0
LINE
  8
0
 10
55
 20
191.1
 11
55
 21
198.6
  0
LINE
  8
0
 10
55
 20
198.6
 11
25
 21
198.6
  0
LINE
  8
0
 10
25
 20
198.6
 11
25
 21
191.1
  0
LINE
  8
0
 10
25
 20
191.1
 11
21
 21
191.1
  0
LINE
  8
0
 10
21
 20
191.1
 11
21
 21
176.1
  0
LINE
  8
0
 10
21
 20
176.1
 11
25
 21
176.1
  0
LINE
  8
0
 10
25
 20
176.1
 11
25
 21
168.6
  0
LINE
  8
0
 10
25
 20
168.6
 11
21
 21
168.6
  0
LINE
  8
0
 10
21
 20
168.6
 11
21
 21
144.6
  0
LINE
  8
0
 10
21
 20
144.6
 11
25
 21
144.6
  0
LINE
  8
0
 10
25
 20
144.6
 11
25
 21
152.6
  0
LINE
  8
0
 10
39.6861
 20
180.61
 11
39.0631
 21
180.689
  0
LINE
  8
0
 10
39.0631
 20
180.689
 11
38.4549
 21
180.845
  0
LINE
  8
0
 10
38.4549
 20
180.845
 11
37.8711
 21
181.076
  0
LINE
  8
0
 10
37.8711
 20
181.076
 11
37.3209
 21
181.378
  0
LINE
  8
0
 10
37.3209
 20
181.378
 11
36.8129
 21
181.747
  0
LINE
  8
0
 10
36.8129
 20
181.747
 11
36.3552
 21
182.177
  0
LINE
  8
0
 10
36.3552
 20
182.177
 11
35.9549
 21
182.661
  0
LINE
  8
0
 10
35.9549
 20
182.661
 11
35.6185
 21
183.191
  0
LINE
  8
0
 10
35.6185
 20
183.191
 11
35.3511
 21
183.759
  0
LINE
  8
0
 10
35.3511
 20
183.759
 11
35.1571
 21
184.357
  0
LINE
  8
0
 10
35.1571
 20
184.357
 11
35.0394
 21
184.973
  0
LINE
  8
0
 10
35.0394
 20
184.973
 11
35
 21
185.6
  0
LINE
  8
0
 10
35
 20
185.6
 11
35.0394
 21
186.227
  0
LINE
  8
0
 10
35.0394
 20
186.227
 11
35.1571
 21
186.843
  0
LINE
  8
0
 10
35.1571
 20
186.843
 11
35.3511
 21
187.441
  0
LINE
  8
0
 10
35.3511
 20
187.441
 11
35.6185
 21
188.009
  0
LINE
  8
0
 10
35.6185
 20
188.009
 11
35.9549
 21
188.539
  0
LINE
  8
0
 10
35.9549
 20
188.539
 11
36.3552
 21
189.023
  0
LINE
  8
0
 10
36.3552
 20
189.023
 11
36.8129
 21
189.453
  0
LINE
  8
0
 10
36.8129
 20
189.453
 11
37.3209
 21
189.822
  0
LINE
  8
0
 10
37.3209
 20
189.822
 11
37.8711
 21
190.124
  0
LINE
  8
0
 10
37.8711
 20
190.124
 11
38.4549
 21
190.355
  0
LINE
  8
0
 10
38.4549
 20
190.355
 11
39.0631
 21
190.511
  0
LINE
  8
0
 10
39.0631
 20
190.511
 11
39.6861
 21
190.59
  0
LINE
  8
0
 10
39.6861
 20
190.59
 11
40.3139
 21
190.59
  0
LINE
  8
0
 10
40.3139
 20
190.59
 11
40.9369
 21
190.511
  0
LINE
  8
0
 10
40.9369
 20
190.511
 11
41.5451
 21
190.355
  0
LINE
  8
0
 10
41.5451
 20
190.355
 11
42.1289
 21
190.124
  0
LINE
  8
0
 10
42.1289
 20
190.124
 11
42.6791
 21
189.822
  0
LINE
  8
0
 10
42.6791
 20
189.822
 11
43.1871
 21
189.453
  0
LINE
  8
0
 10
43.1871
 20
189.453
 11
43.6448
 21
189.023
  0
LINE
  8
0
 10
43.6448
 20
189.023
 11
44.0451
 21
188.539
  0
LINE
  8
0
 10
44.0451
 20
188.539
 11
44.3815
 21
188.009
  0
LINE
  8
0
 10
44.3815
 20
188.009
 11
44.6489
 21
187.441
  0
LINE
  8
0
 10
44.6489
 20
187.441
 11
44.8429
 21
186.843
  0
LINE
  8
0
 10
44.8429
 20
186.843
 11
44.9606
 21
186.227
  0
LINE
  8
0
 10
44.9606
 20
186.227
 11
45
 21
185.6
  0
LINE
  8
0
 10
45
 20
185.6
 11
44.9606
 21
184.973
  0
LINE
  8
0
 10
44.9606
 20
184.973
 11
44.8429
 21
184.357
  0
LINE
  8
0
 10
44.8429
 20
184.357
 11
44.6489
 21
183.759
  0
LINE
  8
0
 10
44.6489
 20
183.759
 11
44.3815
 21
183.191
  0
LINE
  8
0
 10
44.3815
 20
183.191
 11
44.0451
 21
182.661
  0
LINE
  8
0
 10
44.0451
 20
182.661
 11
43.6448
 21
182.177
  0
LINE
  8
0
 10
43.6448
 20
182.177
 11
43.1871
 21
181.747
  0
LINE
  8
0
 10
43.1871
 20
181.747
 11
42.6791
 21
181.378
  0
LINE
  8
0
 10
42.6791
 20
181.378
 11
42.1289
 21
181.076
  0
LINE
  8
0
 10
42.1289
 20
181.076
 11
41.5451
 21
180.845
  0
LINE
  8
0
 10
41.5451
 20
180.845
 11
40.9369
 21
180.689
  0
LINE
  8
0
 10
40.9369
 20
180.689
 11
40.3139
 21
180.61
  0
LINE
  8
0
 10
40.3139
 20
180.61
 11
39.6861
 21
180.61
  0
LINE
  8
0
 10
32.5
 20
164.6
 11
32.5
 21
168.6
  0
LINE
  8
0
 10
32.5
 20
168.6
 11
47.5
 21
168.6
  0
LINE
  8
0
 10
47.5
 20
168.6
 11
47.5
 21
164.6
  0
LINE
  8
0
 10
47.5
 20
164.6
 11
32.5
 21
164.6
  0
LINE
  8
0
 10
65
 20
152.6
 11
95
 21
152.6
  0
LINE
  8
0
 10
95
 20
152.6
 11
95
 21
144.6
  0
LINE
  8
0
 10
95
 20
144.6
 11
99
 21
144.6
  0
LINE
  8
0
 10
99
 20
144.6
 11
99
 21
168.6
  0
LINE
  8
0
 10
99
 20
168.6
 11
95
 21
168.6
  0
LINE
  8
0
 10
95
 20
168.6
 11
95
 21
176.1
  0
LINE
  8
0
 10
95
 20
176.1
 11
99
 21
176.1
  0
LINE
  8
0
 10
99
 20
176.1
 11
99
 21
191.1
  0
LINE
  8
0
 10
99
 20
191.1
 11
95
 21
191.1
  0
LINE
  8
0
 10
95
 20
191.1
 11
95
 21
198.6
  0
LINE
  8
0
 10
95
 20
198.6
 11
65
 21
198.6
  0
LINE
  8
0
 10
65
 20
198.6
 11
65
 21
191.1
  0
LINE
  8
0
 10
65
 20
191.1
 11
61
 21
191.1
  0
LINE
  8
0
 10
61
 20
191.1
 11
61
 21
176.1
  0
LINE
  8
0
 10
61
 20
176.1
 11
65
 21
176.1
  0
LINE
  8
0
 10
65
 20
176.1
 11
65
 21
168.6
  0
LINE
  8
0
 10
65
 20
168.6
 11
61
 21
168.6
  0
LINE
  8
0
 10
61
 20
168.6
 11
61
 21
144.6
  0
LINE
  8
0
 10
61
 20
144.6
 11
65
 21
144.6
  0
LINE
  8
0
 10
65
 20
144.6
 11
65
 21
152.6
  0
LINE
  8
0
 10
79.6861
 20
180.61
 11
79.0631
 21
180.689
  0
LINE
  8
0
 10
79.0631
 20
180.689
 11
78.4549
 21
180.845
  0
LINE
  8
0
 10
78.4549
 20
180.845
 11
77.8711
 21
181.076
  0
LINE
  8
0
 10
77.8711
 20
181.076
 11
77.3209
 21
181.378
  0
LINE
  8
0
 10
77.3209
 20
181.378
 11
76.8129
 21
181.747
  0
LINE
  8
0
 10
76.8129
 20
181.747
 11
76.3552
 21
182.177
  0
LINE
  8
0
 10
76.3552
 20
182.177
 11
75.9549
 21
182.661
  0
LINE
  8
0
 10
75.9549
 20
182.661
 11
75.6185
 21
183.191
  0
LINE
  8
0
 10
75.6185
 20
183.191
 11
75.3511
 21
183.759
  0
LINE
  8
0
 10
75.3511
 20
183.759
 11
75.1571
 21
184.357
  0
LINE
  8
0
 10
75.1571
 20
184.357
 11
75.0394
 21
184.973
  0
LINE
  8
0
 10
75.0394
 20
184.973
 11
75
 21
185.6
  0
LINE
  8
0
 10
75
 20
185.6
 11
75.0394
 21
186.227
  0
LINE
  8
0
 10
75.0394
 20
186.227
 11
75.1571
 21
186.843
  0
LINE
  8
0
 10
75.1571
 20
186.843
 11
75.3511
 21
187.441
  0
LINE
  8
0
 10
75.3511
 20
187.441
 11
75.6185
 21
188.009
  0
LINE
  8
0
 10
75.6185
 20
188.009
 11
75.9549
 21
188.539
  0
LINE
  8
0
 10
75.9549
 20
188.539
 11
76.3552
 21
189.023
  0
LINE
  8
0
 10
76.3552
 20
189.023
 11
76.8129
 21
189.453
  0
LINE
  8
0
 10
76.8129
 20
189.453
 11
77.3209
 21
189.822
  0
LINE
  8
0
 10
77.3209
 20
189.822
 11
77.8711
 21
190.124
  0
LINE
  8
0
 10
77.8711
 20
190.124
 11
78.4549
 21
190.355
  0
LINE
  8
0
 10
78.4549
 20
190.355
 11
79.0631
 21
190.511
  0
LINE
  8
0
 10
79.0631
 20
190.511
 11
79.6861
 21
190.59
  0
LINE
  8
0
 10
79.6861
 20
190.59
 11
80.3139
 21
190.59
  0
LINE
  8
0
 10
80.3139
 20
190.59
 11
80.9369
 21
190.511
  0
LINE
  8
0
 10
80.9369
 20
190.511
 11
81.5451
 21
190.355
  0
LINE
  8
0
 10
81.5451
 20
190.355
 11
82.1289
 21
190.124
  0
LINE
  8
0
 10
82.1289
 20
190.124
 11
82.6791
 21
189.822
  0
LINE
  8
0
 10
82.6791
 20
189.822
 11
83.1871
 21
189.453
  0
LINE
  8
0
 10
83.1871
 20
189.453
 11
83.6448
 21
189.023
  0
LINE
  8
0
 10
83.6448
 20
189.023
 11
84.0451
 21
188.539
  0
LINE
  8
0
 10
84.0451
 20
188.539
 11
84.3815
 21
188.009
  0
LINE
  8
0
 10
84.3815
 20
188.009
 11
84.6489
 21
187.441
  0
LINE
  8
0
 10
84.6489
 20
187.441
 11
84.8429
 21
186.843
  0
LINE
  8
0
 10
84.8429
 20
186.843
 11
84.9606
 21
186.227
  0
LINE
  8
0
 10
84.9606
 20
186.227
 11
85
 21
185.6
  0
LINE
  8
0
 10
85
 20
185.6
 11
84.9606
 21
184.973
  0
LINE
  8
0
 10
84.9606
 20
184.973
 11
84.8429
 21
184.357
  0
LINE
  8
0
 10
84.8429
 20
184.357
 11
84.6489
 21
183.759
  0
LINE
  8
0
 10
84.6489
 20
183.759
 11
84.3815
 21
183.191
  0
LINE
  8
0
 10
84.3815
 20
183.191
 11
84.0451
 21
182.661
  0
LINE
  8
0
 10
84.0451
 20
182.661
 11
83.6448
 21
182.177
  0
LINE
  8
0
 10
83.6448
 20
182.177
 11
83.1871
 21
181.747
  0
LINE
  8
0
 10
83.1871
 20
181.747
 11
82.6791
 21
181.378
  0
LINE
  8
0
 10
82.6791
 20
181.378
 11
82.1289
 21
181.076
  0
LINE
  8
0
 10
82.1289
 20
181.076
 11
81.5451
 21
180.845
  0
LINE
  8
0
 10
81.5451
 20
180.845
 11
80.9369
 21
180.689
  0
LINE
  8
0
 10
80.9369
 20
180.689
 11
80.3139
 21
180.61
  0
LINE
  8
0
 10
80.3139
 20
180.61
 11
79.6861
 21
180.61
  0
LINE
  8
0
 10
72.5
 20
164.6
 11
72.5
 21
168.6
  0
LINE
  8
0
 10
72.5
 20
168.6
 11
87.5
 21
168.6
  0
LINE
  8
0
 10
87.5
 20
168.6
 11
87.5
 21
164.6
  0
LINE
  8
0
 10
87.5
 20
164.6
 11
72.5
 21
164.6
  0
LINE
  8
0
 10
-15
 20
152.6
 11
15
 21
152.6
  0
LINE
  8
0
 10
15
 20
152.6
 11
15
 21
144.6
  0
LINE
  8
0
 10
15
 20
144.6
 11
19
 21
144.6
  0
LINE
  8
0
 10
19
 20
144.6
 11
19
 21
168.6
  0
LINE
  8
0
 10
19
 20
168.6
 11
15
 21
168.6
  0
LINE
  8
0
 10
15
 20
168.6
 11
15
 21
176.1
  0
LINE
  8
0
 10
15
 20
176.1
 11
19
 21
176.1
  0
LINE
  8
0
 10
19
 20
176.1
 11
19
 21
191.1
  0
LINE
  8
0
 10
19
 20
191.1
 11
15
 21
191.1
  0
LINE
  8
0
 10
15
 20
191.1
 11
15
 21
198.6
  0
LINE
  8
0
 10
15
 20
198.6
 11
-15
 21
198.6
  0
LINE
  8
0
 10
-15
 20
198.6
 11
-15
 21
191.1
  0
LINE
  8
0
 10
-15
 20
191.1
 11
-19
 21
191.1
  0
LINE
  8
0
 10
-19
 20
191.1
 11
-19
 21
176.1
  0
LINE
  8
0
 10
-19
 20
176.1
 11
-15
 21
176.1
  0
LINE
  8
0
 10
-15
 20
176.1
 11
-15
 21
168.6
  0
LINE
  8
0
 10
-15
 20
168.6
 11
-19
 21
168.6
  0
LINE
  8
0
 10
-19
 20
168.6
 11
-19
 21
144.6
  0
LINE
  8
0
 10
-19
 20
144.6
 11
-15
 21
144.6
  0
LINE
  8
0
 10
-15
 20
144.6
 11
-15
 21
152.6
  0
LINE
  8
0
 10
-0.31395
 20
180.61
 11
-0.936905
 21
180.689
  0
LINE
  8
0
 10
-0.936905
 20
180.689
 11
-1.54507
 21
180.845
  0
LINE
  8
0
 10
-1.54507
 20
180.845
 11
-2.12889
 21
181.076
  0
LINE
  8
0
 10
-2.12889
 20
181.076
 11
-2.67912
 21
181.378
  0
LINE
  8
0
 10
-2.67912
 20
181.378
 11
-3.18712
 21
181.747
  0
LINE
  8
0
 10
-3.18712
 20
181.747
 11
-3.64484
 21
182.177
  0
LINE
  8
0
 10
-3.64484
 20
182.177
 11
-4.04507
 21
182.661
  0
LINE
  8
0
 10
-4.04507
 20
182.661
 11
-4.38153
 21
183.191
  0
LINE
  8
0
 10
-4.38153
 20
183.191
 11
-4.64888
 21
183.759
  0
LINE
  8
0
 10
-4.64888
 20
183.759
 11
-4.84291
 21
184.357
  0
LINE
  8
0
 10
-4.84291
 20
184.357
 11
-4.96057
 21
184.973
  0
LINE
  8
0
 10
-4.96057
 20
184.973
 11
-5
 21
185.6
  0
LINE
  8
0
 10
-5
 20
185.6
 11
-4.96057
 21
186.227
  0
LINE
  8
0
 10
-4.96057
 20
186.227
 11
-4.84291
 21
186.843
  0
LINE
  8
0
 10
-4.84291
 20
186.843
 11
-4.64888
 21
187.441
  0
LINE
  8
0
 10
-4.64888
 20
187.441
 11
-4.38153
 21
188.009
  0
LINE
  8
0
 10
-4.38153
 20
188.009
 11
-4.04507
 21
188.539
  0
LINE
  8
0
 10
-4.04507
 20
188.539
 11
-3.64484
 21
189.023
  0
LINE
  8
0
 10
-3.64484
 20
189.023
 11
-3.18712
 21
189.453
  0
LINE
  8
0
 10
-3.18712
 20
189.453
 11
-2.67912
 21
189.822
  0
LINE
  8
0
 10
-2.67912
 20
189.822
 11
-2.12889
 21
190.124
  0
LINE
  8
0
 10
-2.12889
 20
190.124
 11
-1.54507
 21
190.355
  0
LINE
  8
0
 10
-1.54507
 20
190.355
 11
-0.936905
 21
190.511
  0
LINE
  8
0
 10
-0.936905
 20
190.511
 11
-0.31395
 21
190.59
  0
LINE
  8
0
 10
-0.31395
 20
190.59
 11
0.31395
 21
190.59
  0
LINE
  8
0
 10
0.31395
 20
190.59
 11
0.936905
 21
190.511
  0
LINE
  8
0
 10
0.936905
 20
190.511
 11
1.54507
 21
190.355
  0
LINE
  8
0
 10
1.54507
 20
190.355
 11
2.12889
 21
190.124
  0
LINE
  8
0
 10
2.12889
 20
190.124
 11
2.67912
 21
189.822
  0
LINE
  8
0
 10
2.67912
 20
189.822
 11
3.18712
 21
189.453
  0
LINE
  8
0
 10
3.18712
 20
189.453
 11
3.64484
 21
189.023
  0
LINE
  8
0
 10
3.64484
 20
189.023
 11
4.04507
 21
188.539
  0
LINE
  8
0
 10
4.04507
 20
188.539
 11
4.38153
 21
188.009
  0
LINE
  8
0
 10
4.38153
 20
188.009
 11
4.64888
 21
187.441
  0
LINE
  8
0
 10
4.64888
 20
187.441
 11
4.84291
 21
186.843
  0
LINE
  8
0
 10
4.84291
 20
186.843
 11
4.96057
 21
186.227
  0
LINE
  8
0
 10
4.96057
 20
186.227
 11
5
 21
185.6
  0
LINE
  8
0
 10
5
 20
185.6
 11
4.96057
 21
184.973
  0
LINE
  8
0
 10
4.96057
 20
184.973
 11
4.84291
 21
184.357
  0
LINE
  8
0
 10
4.84291
 20
184.357
 11
4.64888
 21
183.759
  0
LINE
  8
0
 10
4.64888
 20
183.759
 11
4.38153
 21
183.191
  0
LINE
  8
0
 10
4.38153
 20
183.191
 11
4.04507
 21
182.661
  0
LINE
  8
0
 10
4.04507
 20
182.661
 11
3.64484
 21
182.177
  0
LINE
  8
0
 10
3.64484
 20
182.177
 11
3.18712
 21
181.747
  0
LINE
  8
0
 10
3.18712
 20
181.747
 11
2.67912
 21
181.378
  0
LINE
  8
0
 10
2.67912
 20
181.378
 11
2.12889
 21
181.076
  0
LINE
  8
0
 10
2.12889
 20
181.076
 11
1.54507
 21
180.845
  0
LINE
  8
0
 10
1.54507
 20
180.845
 11
0.936905
 21
180.689
  0
LINE
  8
0
 10
0.936905
 20
180.689
 11
0.31395
 21
180.61
  0
LINE
  8
0
 10
0.31395
 20
180.61
 11
-0.31395
 21
180.61
  0
LINE
  8
0
 10
-7.5
 20
164.6
 11
-7.5
 21
168.6
  0
LINE
  8
0
 10
-7.5
 20
168.6
 11
7.5
 21
168.6
  0
LINE
  8
0
 10
7.5
 20
168.6
 11
7.5
 21
164.6
  0
LINE
  8
0
 10
7.5
 20
164.6
 11
-7.5
 21
164.6
  0
LINE
  8
0
 10
-15
 20
91.4
 11
15
 21
91.4
  0
LINE
  8
0
 10
15
 20
91.4
 11
15
 21
83.4
  0
LINE
  8
0
 10
15
 20
83.4
 11
19
 21
83.4
  0
LINE
  8
0
 10
19
 20
83.4
 11
19
 21
107.4
  0
LINE
  8
0
 10
19
 20
107.4
 11
15
 21
107.4
  0
LINE
  8
0
 10
15
 20
107.4
 11
15
 21
114.9
  0
LINE
  8
0
 10
15
 20
114.9
 11
19
 21
114.9
  0
LINE
  8
0
 10
19
 20
114.9
 11
19
 21
129.9
  0
LINE
  8
0
 10
19
 20
129.9
 11
15
 21
129.9
  0
LINE
  8
0
 10
15
 20
129.9
 11
15
 21
137.4
  0
LINE
  8
0
 10
15
 20
137.4
 11
-15
 21
137.4
  0
LINE
  8
0
 10
-15
 20
137.4
 11
-15
 21
129.9
  0
LINE
  8
0
 10
-15
 20
129.9
 11
-19
 21
129.9
  0
LINE
  8
0
 10
-19
 20
129.9
 11
-19
 21
114.9
  0
LINE
  8
0
 10
-19
 20
114.9
 11
-15
 21
114.9
  0
LINE
  8
0
 10
-15
 20
114.9
 11
-15
 21
107.4
  0
LINE
  8
0
 10
-15
 20
107.4
 11
-19
 21
107.4
  0
LINE
  8
0
 10
-19
 20
107.4
 11
-19
 21
83.4
  0
LINE
  8
0
 10
-19
 20
83.4
 11
-15
 21
83.4
  0
LINE
  8
0
 10
-15
 20
83.4
 11
-15
 21
91.4
  0
LINE
  8
0
 10
-0.31395
 20
119.41
 11
-0.936905
 21
119.489
  0
LINE
  8
0
 10
-0.936905
 20
119.489
 11
-1.54507
 21
119.645
  0
LINE
  8
0
 10
-1.54507
 20
119.645
 11
-2.12889
 21
119.876
  0
LINE
  8
0
 10
-2.12889
 20
119.876
 11
-2.67912
 21
120.178
  0
LINE
  8
0
 10
-2.67912
 20
120.178
 11
-3.18712
 21
120.547
  0
LINE
  8
0
 10
-3.18712
 20
120.547
 11
-3.64484
 21
120.977
  0
LINE
  8
0
 10
-3.64484
 20
120.977
 11
-4.04507
 21
121.461
  0
LINE
  8
0
 10
-4.04507
 20
121.461
 11
-4.38153
 21
121.991
  0
LINE
  8
0
 10
-4.38153
 20
121.991
 11
-4.64888
 21
122.559
  0
LINE
  8
0
 10
-4.64888
 20
122.559
 11
-4.84291
 21
123.157
  0
LINE
  8
0
 10
-4.84291
 20
123.157
 11
-4.96057
 21
123.773
  0
LINE
  8
0
 10
-4.96057
 20
123.773
 11
-5
 21
124.4
  0
LINE
  8
0
 10
-5
 20
124.4
 11
-4.96057
 21
125.027
  0
LINE
  8
0
 10
-4.96057
 20
125.027
 11
-4.84291
 21
125.643
  0
LINE
  8
0
 10
-4.84291
 20
125.643
 11
-4.64888
 21
126.241
  0
LINE
  8
0
 10
-4.64888
 20
126.241
 11
-4.38153
 21
126.809
  0
LINE
  8
0
 10
-4.38153
 20
126.809
 11
-4.04507
 21
127.339
  0
LINE
  8
0
 10
-4.04507
 20
127.339
 11
-3.64484
 21
127.823
  0
LINE
  8
0
 10
-3.64484
 20
127.823
 11
-3.18712
 21
128.253
  0
LINE
  8
0
 10
-3.18712
 20
128.253
 11
-2.67912
 21
128.622
  0
LINE
  8
0
 10
-2.67912
 20
128.622
 11
-2.12889
 21
128.924
  0
LINE
  8
0
 10
-2.12889
 20
128.924
 11
-1.54507
 21
129.155
  0
LINE
  8
0
 10
-1.54507
 20
129.155
 11
-0.936905
 21
129.311
  0
LINE
  8
0
 10
-0.936905
 20
129.311
 11
-0.31395
 21
129.39
  0
LINE
  8
0
 10
-0.31395
 20
129.39
 11
0.31395
 21
129.39
  0
LINE
  8
0
 10
0.31395
 20
129.39
 11
0.936905
 21
129.311
  0
LINE
  8
0
 10
0.936905
 20
129.311
 11
1.54507
 21
129.155
  0
LINE
  8
0
 10
1.54507
 20
129.155
 11
2.12889
 21
128.924
  0
LINE
  8
0
 10
2.12889
 20
128.924
 11
2.67912
 21
128.622
  0
LINE
  8
0
 10
2.67912
 20
128.622
 11
3.18712
 21
128.253
  0
LINE
  8
0
 10
3.18712
 20
128.253
 11
3.64484
 21
127.823
  0
LINE
  8
0
 10
3.64484
 20
127.823
 11
4.04507
 21
127.339
  0
LINE
  8
0
 10
4.04507
 20
127.339
 11
4.38153
 21
126.809
  0
LINE
  8
0
 10
4.38153
 20
126.809
 11
4.64888
 21
126.241
  0
LINE
  8
0
 10
4.64888
 20
126.241
 11
4.84291
 21
125.643
  0
LINE
  8
0
 10
4.84291
 20
125.643
 11
4.96057
 21
125.027
  0
LINE
  8
0
 10
4.96057
 20
125.027
 11
5
 21
124.4
  0
LINE
  8
0
 10
5
 20
124.4
 11
4.96057
 21
123.773
  0
LINE
  8
0
 10
4.96057
 20
123.773
 11
4.84291
 21
123.157
  0
LINE
  8
0
 10
4.84291
 20
123.157
 11
4.64888
 21
122.559
  0
LINE
  8
0
 10
4.64888
 20
122.559
 11
4.38153
 21
121.991
  0
LINE
  8
0
 10
4.38153
 20
121.991
 11
4.04507
 21
121.461
  0
LINE
  8
0
 10
4.04507
 20
121.461
 11
3.64484
 21
120.977
  0
LINE
  8
0
 10
3.64484
 20
120.977
 11
3.18712
 21
120.547
  0
LINE
  8
0
 10
3.18712
 20
120.547
 11
2.67912
 21
120.178
  0
LINE
  8
0
 10
2.67912
 20
120.178
 11
2.12889
 21
119.876
  0
LINE
  8
0
 10
2.12889
 20
119.876
 11
1.54507
 21
119.645
  0
LINE
  8
0
 10
1.54507
 20
119.645
 11
0.936905
 21
119.489
  0
LINE
  8
0
 10
0.936905
 20
119.489
 11
0.31395
 21
119.41
  0
LINE
  8
0
 10
0.31395
 20
119.41
 11
-0.31395
 21
119.41
  0
LINE
  8
0
 10
-7.5
 20
103.4
 11
-7.5
 21
107.4
  0
LINE
  8
0
 10
-7.5
 20
107.4
 11
7.5
 21
107.4
  0
LINE
  8
0
 10
7.5
 20
107.4
 11
7.5
 21
103.4
  0
LINE
  8
0
 10
7.5
 20
103.4
 11
-7.5
 21
103.4
  0
LINE
  8
0
 10
25
 20
91.4
 11
55
 21
91.4
  0
LINE
  8
0
 10
55
 20
91.4
 11
55
 21
83.4
  0
LINE
  8
0
 10
55
 20
83.4
 11
59
 21
83.4
  0
LINE
  8
0
 10
59
 20
83.4
 11
59
 21
107.4
  0
LINE
  8
0
 10
59
 20
107.4
 11
55
 21
107.4
  0
LINE
  8
0
 10
55
 20
107.4
 11
55
 21
114.9
  0
LINE
  8
0
 10
55
 20
114.9
 11
59
 21
114.9
  0
LINE
  8
0
 10
59
 20
114.9
 11
59
 21
129.9
  0
LINE
  8
0
 10
59
 20
129.9
 11
55
 21
129.9
  0
LINE
  8
0
 10
55
 20
129.9
 11
55
 21
137.4
  0
LINE
  8
0
 10
55
 20
137.4
 11
25
 21
137.4
  0
LINE
  8
0
 10
25
 20
137.4
 11
25
 21
129.9
  0
LINE
  8
0
 10
25
 20
129.9
 11
21
 21
129.9
  0
LINE
  8
0
 10
21
 20
129.9
 11
21
 21
114.9
  0
LINE
  8
0
 10
21
 20
114.9
 11
25
 21
114.9
  0
LINE
  8
0
 10
25
 20
114.9
 11
25
 21
107.4
  0
LINE
  8
0
 10
25
 20
107.4
 11
21
 21
107.4
  0
LINE
  8
0
 10
21
 20
107.4
 11
21
 21
83.4
  0
LINE
  8
0
 10
21
 20
83.4
 11
25
 21
83.4
  0
LINE
  8
0
 10
25
 20
83.4
 11
25
 21
91.4
  0
LINE
  8
0
 10
39.6861
 20
119.41
 11
39.0631
 21
119.489
  0
LINE
  8
0
 10
39.0631
 20
119.489
 11
38.4549
 21
119.645
  0
LINE
  8
0
 10
38.4549
 20
119.645
 11
37.8711
 21
119.876
  0
LINE
  8
0
 10
37.8711
 20
119.876
 11
37.3209
 21
120.178
  0
LINE
  8
0
 10
37.3209
 20
120.178
 11
36.8129
 21
120.547
  0
LINE
  8
0
 10
36.8129
 20
120.547
 11
36.3552
 21
120.977
  0
LINE
  8
0
 10
36.3552
 20
120.977
 11
35.9549
 21
121.461
  0
LINE
  8
0
 10
35.9549
 20
121.461
 11
35.6185
 21
121.991
  0
LINE
  8
0
 10
35.6185
 20
121.991
 11
35.3511
 21
122.559
  0
LINE
  8
0
 10
35.3511
 20
122.559
 11
35.1571
 21
123.157
  0
LINE
  8
0
 10
35.1571
 20
123.157
 11
35.0394
 21
123.773
  0
LINE
  8
0
 10
35.0394
 20
123.773
 11
35
 21
124.4
  0
LINE
  8
0
 10
35
 20
124.4
 11
35.0394
 21
125.027
  0
LINE
  8
0
 10
35.0394
 20
125.027
 11
35.1571
 21
125.643
  0
LINE
  8
0
 10
35.1571
 20
125.643
 11
35.3511
 21
126.241
  0
LINE
  8
0
 10
35.3511
 20
126.241
 11
35.6185
 21
126.809
  0
LINE
  8
0
 10
35.6185
 20
126.809
 11
35.9549
 21
127.339
  0
LINE
  8
0
 10
35.9549
 20
127.339
 11
36.3552
 21
127.823
  0
LINE
  8
0
 10
36.3552
 20
127.823
 11
36.8129
 21
128.253
  0
LINE
  8
0
 10
36.8129
 20
128.253
 11
37.3209
 21
128.622
  0
LINE
  8
0
 10
37.3209
 20
128.622
 11
37.8711
 21
128.924
  0
LINE
  8
0
 10
37.8711
 20
128.924
 11
38.4549
 21
129.155
  0
LINE
  8
0
 10
38.4549
 20
129.155
 11
39.0631
 21
129.311
  0
LINE
  8
0
 10
39.0631
 20
129.311
 11
39.6861
 21
129.39
  0
LINE
  8
0
 10
39.6861
 20
129.39
 11
40.3139
 21
129.39
  0
LINE
  8
0
 10
40.3139
 20
129.39
 11
40.9369
 21
129.311
  0
LINE
  8
0
 10
40.9369
 20
129.311
 11
41.5451
 21
129.155
  0
LINE
  8
0
 10
41.5451
 20
129.155
 11
42.1289
 21
128.924
  0
LINE
  8
0
 10
42.1289
 20
128.924
 11
42.6791
 21
128.622
  0
LINE
  8
0
 10
42.6791
 20
128.622
 11
43.1871
 21
128.253
  0
LINE
  8
0
 10
43.1871
 20
128.253
 11
43.6448
 21
127.823
  0
LINE
  8
0
 10
43.6448
 20
127.823
 11
44.0451
 21
127.339
  0
LINE
  8
0
 10
44.0451
 20
127.339
 11
44.3815
 21
126.809
  0
LINE
  8
0
 10
44.3815
 20
126.809
 11
44.6489
 21
126.241
  0
LINE
  8
0
 10
44.6489
 20
126.241
 11
44.8429
 21
125.643
  0
LINE
  8
0
 10
44.8429
 20
125.643
 11
44.9606
 21
125.027
  0
LINE
  8
0
 10
44.9606
 20
125.027
 11
45
 21
124.4
  0
LINE
  8
0
 10
45
 20
124.4
 11
44.9606
 21
123.773
  0
LINE
  8
0
 10
44.9606
 20
123.773
 11
44.8429
 21
123.157
  0
LINE
  8
0
 10
44.8429
 20
123.157
 11
44.6489
 21
122.559
  0
LINE
  8
0
 10
44.6489
 20
122.559
 11
44.3815
 21
121.991
  0
LINE
  8
0
 10
44.3815
 20
121.991
 11
44.0451
 21
121.461
  0
LINE
  8
0
 10
44.0451
 20
121.461
 11
43.6448
 21
120.977
  0
LINE
  8
0
 10
43.6448
 20
120.977
 11
43.1871
 21
120.547
  0
LINE
  8
0
 10
43.1871
 20
120.547
 11
42.6791
 21
120.178
  0
LINE
  8
0
 10
42.6791
 20
120.178
 11
42.1289
 21
119.876
  0
LINE
  8
0
 10
42.1289
 20
119.876
 11
41.5451
 21
119.645
  0
LINE
  8
0
 10
41.5451
 20
119.645
 11
40.9369
 21
119.489
  0
LINE
  8
0
 10
40.9369
 20
119.489
 11
40.3139
 21
119.41
  0
LINE
  8
0
 10
40.3139
 20
119.41
 11
39.6861
 21
119.41
  0
LINE
  8
0
 10
32.5
 20
103.4
 11
32.5
 21
107.4
  0
LINE
  8
0
 10
32.5
 20
107.4
 11
47.5
 21
107.4
  0
LINE
  8
0
 10
47.5
 20
107.4
 11
47.5
 21
103.4
  0
LINE
  8
0
 10
47.5
 20
103.4
 11
32.5
 21
103.4
  0
LINE
  8
0
 10
105
 20
91.4
 11
135
 21
91.4
  0
LINE
  8
0
 10
135
 20
91.4
 11
135
 21
83.4
  0
LINE
  8
0
 10
135
 20
83.4
 11
139
 21
83.4
  0
LINE
  8
0
 10
139
 20
83.4
 11
139
 21
107.4
  0
LINE
  8
0
 10
139
 20
107.4
 11
135
 21
107.4
  0
LINE
  8
0
 10
135
 20
107.4
 11
135
 21
114.9
  0
LINE
  8
0
 10
135
 20
114.9
 11
139
 21
114.9
  0
LINE
  8
0
 10
139
 20
114.9
 11
139
 21
129.9
  0
LINE
  8
0
 10
139
 20
129.9
 11
135
 21
129.9
  0
LINE
  8
0
 10
135
 20
129.9
 11
135
 21
137.4
  0
LINE
  8
0
 10
135
 20
137.4
 11
105
 21
137.4
  0
LINE
  8
0
 10
105
 20
137.4
 11
105
 21
129.9
  0
LINE
  8
0
 10
105
 20
129.9
 11
101
 21
129.9
  0
LINE
  8
0
 10
101
 20
129.9
 11
101
 21
114.9
  0
LINE
  8
0
 10
101
 20
114.9
 11
105
 21
114.9
  0
LINE
  8
0
 10
105
 20
114.9
 11
105
 21
107.4
  0
LINE
  8
0
 10
105
 20
107.4
 11
101
 21
107.4
  0
LINE
  8
0
 10
101
 20
107.4
 11
101
 21
83.4
  0
LINE
  8
0
 10
101
 20
83.4
 11
105
 21
83.4
  0
LINE
  8
0
 10
105
 20
83.4
 11
105
 21
91.4
  0
LINE
  8
0
 10
119.686
 20
119.41
 11
119.063
 21
119.489
  0
LINE
  8
0
 10
119.063
 20
119.489
 11
118.455
 21
119.645
  0
LINE
  8
0
 10
118.455
 20
119.645
 11
117.871
 21
119.876
  0
LINE
  8
0
 10
117.871
 20
119.876
 11
117.321
 21
120.178
  0
LINE
  8
0
 10
117.321
 20
120.178
 11
116.813
 21
120.547
  0
LINE
  8
0
 10
116.813
 20
120.547
 11
116.355
 21
120.977
  0
LINE
  8
0
 10
116.355
 20
120.977
 11
115.955
 21
121.461
  0
LINE
  8
0
 10
115.955
 20
121.461
 11
115.618
 21
121.991
  0
LINE
  8
0
 10
115.618
 20
121.991
 11
115.351
 21
122.559
  0
LINE
  8
0
 10
115.351
 20
122.559
 11
115.157
 21
123.157
  0
LINE
  8
0
 10
115.157
 20
123.157
 11
115.039
 21
123.773
  0
LINE
  8
0
 10
115.039
 20
123.773
 11
115
 21
124.4
  0
LINE
  8
0
 10
115
 20
124.4
 11
115.039
 21
125.027
  0
LINE
  8
0
 10
115.039
 20
125.027
 11
115.157
 21
125.643
  0
LINE
  8
0
 10
115.157
 20
125.643
 11
115.351
 21
126.241
  0
LINE
  8
0
 10
115.351
 20
126.241
 11
115.618
 21
126.809
  0
LINE
  8
0
 10
115.618
 20
126.809
 11
115.955
 21
127.339
  0
LINE
  8
0
 10
115.955
 20
127.339
 11
116.355
 21
127.823
  0
LINE
  8
0
 10
116.355
 20
127.823
 11
116.813
 21
128.253
  0
LINE
  8
0
 10
116.813
 20
128.253
 11
117.321
 21
128.622
  0
LINE
  8
0
 10
117.321
 20
128.622
 11
117.871
 21
128.924
  0
LINE
  8
0
 10
117.871
 20
128.924
 11
118.455
 21
129.155
  0
LINE
  8
0
 10
118.455
 20
129.155
 11
119.063
 21
129.311
  0
LINE
  8
0
 10
119.063
 20
129.311
 11
119.686
 21
129.39
  0
LINE
  8
0
 10
119.686
 20
129.39
 11
120.314
 21
129.39
  0
LINE
  8
0
 10
120.314
 20
129.39
 11
120.937
 21
129.311
  0
LINE
  8
0
 10
120.937
 20
129.311
 11
121.545
 21
129.155
  0
LINE
  8
0
 10
121.545
 20
129.155
 11
122.129
 21
128.924
  0
LINE
  8
0
 10
122.129
 20
128.924
 11
122.679
 21
128.622
  0
LINE
  8
0
 10
122.679
 20
128.622
 11
123.187
 21
128.253
  0
LINE
  8
0
 10
123.187
 20
128.253
 11
123.645
 21
127.823
  0
LINE
  8
0
 10
123.645
 20
127.823
 11
124.045
 21
127.339
  0
LINE
  8
0
 10
124.045
 20
127.339
 11
124.382
 21
126.809
  0
LINE
  8
0
 10
124.382
 20
126.809
 11
124.649
 21
126.241
  0
LINE
  8
0
 10
124.649
 20
126.241
 11
124.843
 21
125.643
  0
LINE
  8
0
 10
124.843
 20
125.643
 11
124.961
 21
125.027
  0
LINE
  8
0
 10
124.961
 20
125.027
 11
125
 21
124.4
  0
LINE
  8
0
 10
125
 20
124.4
 11
124.961
 21
123.773
  0
LINE
  8
0
 10
124.961
 20
123.773
 11
124.843
 21
123.157
  0
LINE
  8
0
 10
124.843
 20
123.157
 11
124.649
 21
122.559
  0
LINE
  8
0
 10
124.649
 20
122.559
 11
124.382
 21
121.991
  0
LINE
  8
0
 10
124.382
 20
121.991
 11
124.045
 21
121.461
  0
LINE
  8
0
 10
124.045
 20
121.461
 11
123.645
 21
120.977
  0
LINE
  8
0
 10
123.645
 20
120.977
 11
123.187
 21
120.547
  0
LINE
  8
0
 10
123.187
 20
120.547
 11
122.679
 21
120.178
  0
LINE
  8
0
 10
122.679
 20
120.178
 11
122.129
 21
119.876
  0
LINE
  8
0
 10
122.129
 20
119.876
 11
121.545
 21
119.645
  0
LINE
  8
0
 10
121.545
 20
119.645
 11
120.937
 21
119.489
  0
LINE
  8
0
 10
120.937
 20
119.489
 11
120.314
 21
119.41
  0
LINE
  8
0
 10
120.314
 20
119.41
 11
119.686
 21
119.41
  0
LINE
  8
0
 10
112.5
 20
103.4
 11
112.5
 21
107.4
  0
LINE
  8
0
 10
112.5
 20
107.4
 11
127.5
 21
107.4
  0
LINE
  8
0
 10
127.5
 20
107.4
 11
127.5
 21
103.4
  0
LINE
  8
0
 10
127.5
 20
103.4
 11
112.5
 21
103.4
  0
LINE
  8
0
 10
65
 20
91.4
 11
95
 21
91.4
  0
LINE
  8
0
 10
95
 20
91.4
 11
95
 21
83.4
  0
LINE
  8
0
 10
95
 20
83.4
 11
99
 21
83.4
  0
LINE
  8
0
 10
99
 20
83.4
 11
99
 21
107.4
  0
LINE
  8
0
 10
99
 20
107.4
 11
95
 21
107.4
  0
LINE
  8
0
 10
95
 20
107.4
 11
95
 21
114.9
  0
LINE
  8
0
 10
95
 20
114.9
 11
99
 21
114.9
  0
LINE
  8
0
 10
99
 20
114.9
 11
99
 21
129.9
  0
LINE
  8
0
 10
99
 20
129.9
 11
95
 21
129.9
  0
LINE
  8
0
 10
95
 20
129.9
 11
95
 21
137.4
  0
LINE
  8
0
 10
95
 20
137.4
 11
65
 21
137.4
  0
LINE
  8
0
 10
65
 20
137.4
 11
65
 21
129.9
  0
LINE
  8
0
 10
65
 20
129.9
 11
61
 21
129.9
  0
LINE
  8
0
 10
61
 20
129.9
 11
61
 21
114.9
  0
LINE
  8
0
 10
61
 20
114.9
 11
65
 21
114.9
  0
LINE
  8
0
 10
65
 20
114.9
 11
65
 21
107.4
  0
LINE
  8
0
 10
65
 20
107.4
 11
61
 21
107.4
  0
LINE
  8
0
 10
61
 20
107.4
 11
61
 21
83.4
  0
LINE
  8
0
 10
61
 20
83.4
 11
65
 21
83.4
  0
LINE
  8
0
 10
65
 20
83.4
 11
65
 21
91.4
  0
LINE
  8
0
 10
79.6861
 20
119.41
 11
79.0631
 21
119.489
  0
LINE
  8
0
 10
79.0631
 20
119.489
 11
78.4549
 21
119.645
  0
LINE
  8
0
 10
78.4549
 20
119.645
 11
77.8711
 21
119.876
  0
LINE
  8
0
 10
77.8711
 20
119.876
 11
77.3209
 21
120.178
  0
LINE
  8
0
 10
77.3209
 20
120.178
 11
76.8129
 21
120.547
  0
LINE
  8
0
 10
76.8129
 20
120.547
 11
76.3552
 21
120.977
  0
LINE
  8
0
 10
76.3552
 20
120.977
 11
75.9549
 21
121.461
  0
LINE
  8
0
 10
75.9549
 20
121.461
 11
75.6185
 21
121.991
  0
LINE
  8
0
 10
75.6185
 20
121.991
 11
75.3511
 21
122.559
  0
LINE
  8
0
 10
75.3511
 20
122.559
 11
75.1571
 21
123.157
  0
LINE
  8
0
 10
75.1571
 20
123.157
 11
75.0394
 21
123.773
  0
LINE
  8
0
 10
75.0394
 20
123.773
 11
75
 21
124.4
  0
LINE
  8
0
 10
75
 20
124.4
 11
75.0394
 21
125.027
  0
LINE
  8
0
 10
75.0394
 20
125.027
 11
75.1571
 21
125.643
  0
LINE
  8
0
 10
75.1571
 20
125.643
 11
75.3511
 21
126.241
  0
LINE
  8
0
 10
75.3511
 20
126.241
 11
75.6185
 21
126.809
  0
LINE
  8
0
 10
75.6185
 20
126.809
 11
75.9549
 21
127.339
  0
LINE
  8
0
 10
75.9549
 20
127.339
 11
76.3552
 21
127.823
  0
LINE
  8
0
 10
76.3552
 20
127.823
 11
76.8129
 21
128.253
  0
LINE
  8
0
 10
76.8129
 20
128.253
 11
77.3209
 21
128.622
  0
LINE
  8
0
 10
77.3209
 20
128.622
 11
77.8711
 21
128.924
  0
LINE
  8
0
 10
77.8711
 20
128.924
 11
78.4549
 21
129.155
  0
LINE
  8
0
 10
78.4549
 20
129.155
 11
79.0631
 21
129.311
  0
LINE
  8
0
 10
79.0631
 20
129.311
 11
79.6861
 21
129.39
  0
LINE
  8
0
 10
79.6861
 20
129.39
 11
80.3139
 21
129.39
  0
LINE
  8
0
 10
80.3139
 20
129.39
 11
80.9369
 21
129.311
  0
LINE
  8
0
 10
80.9369
 20
129.311
 11
81.5451
 21
129.155
  0
LINE
  8
0
 10
81.5451
 20
129.155
 11
82.1289
 21
128.924
  0
LINE
  8
0
 10
82.1289
 20
128.924
 11
82.6791
 21
128.622
  0
LINE
  8
0
 10
82.6791
 20
128.622
 11
83.1871
 21
128.253
  0
LINE
  8
0
 10
83.1871
 20
128.253
 11
83.6448
 21
127.823
  0
LINE
  8
0
 10
83.6448
 20
127.823
 11
84.0451
 21
127.339
  0
LINE
  8
0
 10
84.0451
 20
127.339
 11
84.3815
 21
126.809
  0
LINE
  8
0
 10
84.3815
 20
126.809
 11
84.6489
 21
126.241
  0
LINE
  8
0
 10
84.6489
 20
126.241
 11
84.8429
 21
125.643
  0
LINE
  8
0
 10
84.8429
 20
125.643
 11
84.9606
 21
125.027
  0
LINE
  8
0
 10
84.9606
 20
125.027
 11
85
 21
124.4
  0
LINE
  8
0
 10
85
 20
124.4
 11
84.9606
 21
123.773
  0
LINE
  8
0
 10
84.9606
 20
123.773
 11
84.8429
 21
123.157
  0
LINE
  8
0
 10
84.8429
 20
123.157
 11
84.6489
 21
122.559
  0
LINE
  8
0
 10
84.6489
 20
122.559
 11
84.3815
 21
121.991
  0
LINE
  8
0
 10
84.3815
 20
121.991
 11
84.0451
 21
121.461
  0
LINE
  8
0
 10
84.0451
 20
121.461
 11
83.6448
 21
120.977
  0
LINE
  8
0
 10
83.6448
 20
120.977
 11
83.1871
 21
120.547
  0
LINE
  8
0
 10
83.1871
 20
120.547
 11
82.6791
 21
120.178
  0
LINE
  8
0
 10
82.6791
 20
120.178
 11
82.1289
 21
119.876
  0
LINE
  8
0
 10
82.1289
 20
119.876
 11
81.5451
 21
119.645
  0
LINE
  8
0
 10
81.5451
 20
119.645
 11
80.9369
 21
119.489
  0
LINE
  8
0
 10
80.9369
 20
119.489
 11
80.3139
 21
119.41
  0
LINE
  8
0
 10
80.3139
 20
119.41
 11
79.6861
 21
119.41
  0
LINE
  8
0
 10
72.5
 20
103.4
 11
72.5
 21
107.4
  0
LINE
  8
0
 10
72.5
 20
107.4
 11
87.5
 21
107.4
  0
LINE
  8
0
 10
87.5
 20
107.4
 11
87.5
 21
103.4
  0
LINE
  8
0
 10
87.5
 20
103.4
 11
72.5
 21
103.4
  0
LINE
  8
0
 10
-15
 20
30.2
 11
15
 21
30.2
  0
LINE
  8
0
 10
15
 20
30.2
 11
15
 21
22.2
  0
LINE
  8
0
 10
15
 20
22.2
 11
19
 21
22.2
  0
LINE
  8
0
 10
19
 20
22.2
 11
19
 21
46.2
  0
LINE
  8
0
 10
19
 20
46.2
 11
15
 21
46.2
  0
LINE
  8
0
 10
15
 20
46.2
 11
15
 21
53.7
  0
LINE
  8
0
 10
15
 20
53.7
 11
19
 21
53.7
  0
LINE
  8
0
 10
19
 20
53.7
 11
19
 21
68.7
  0
LINE
  8
0
 10
19
 20
68.7
 11
15
 21
68.7
  0
LINE
  8
0
 10
15
 20
68.7
 11
15
 21
76.2
  0
LINE
  8
0
 10
15
 20
76.2
 11
-15
 21
76.2
  0
LINE
  8
0
 10
-15
 20
76.2
 11
-15
 21
68.7
  0
LINE
  8
0
 10
-15
 20
68.7
 11
-19
 21
68.7
  0
LINE
  8
0
 10
-19
 20
68.7
 11
-19
 21
53.7
  0
LINE
  8
0
 10
-19
 20
53.7
 11
-15
 21
53.7
  0
LINE
  8
0
 10
-15
 20
53.7
 11
-15
 21
46.2
  0
LINE
  8
0
 10
-15
 20
46.2
 11
-19
 21
46.2
  0
LINE
  8
0
 10
-19
 20
46.2
 11
-19
 21
22.2
  0
LINE
  8
0
 10
-19
 20
22.2
 11
-15
 21
22.2
  0
LINE
  8
0
 10
-15
 20
22.2
 11
-15
 21
30.2
  0
LINE
  8
0
 10
-0.31395
 20
58.2099
 11
-0.936905
 21
58.2886
  0
LINE
  8
0
 10
-0.936905
 20
58.2886
 11
-1.54507
 21
58.4447
  0
LINE
  8
0
 10
-1.54507
 20
58.4447
 11
-2.12889
 21
58.6759
  0
LINE
  8
0
 10
-2.12889
 20
58.6759
 11
-2.67912
 21
58.9784
  0
LINE
  8
0
 10
-2.67912
 20
58.9784
 11
-3.18712
 21
59.3474
  0
LINE
  8
0
 10
-3.18712
 20
59.3474
 11
-3.64484
 21
59.7773
  0
LINE
  8
0
 10
-3.64484
 20
59.7773
 11
-4.04507
 21
60.2611
  0
LINE
  8
0
 10
-4.04507
 20
60.2611
 11
-4.38153
 21
60.7912
  0
LINE
  8
0
 10
-4.38153
 20
60.7912
 11
-4.64888
 21
61.3594
  0
LINE
  8
0
 10
-4.64888
 20
61.3594
 11
-4.84291
 21
61.9565
  0
LINE
  8
0
 10
-4.84291
 20
61.9565
 11
-4.96057
 21
62.5733
  0
LINE
  8
0
 10
-4.96057
 20
62.5733
 11
-5
 21
63.2
  0
LINE
  8
0
 10
-5
 20
63.2
 11
-4.96057
 21
63.8267
  0
LINE
  8
0
 10
-4.96057
 20
63.8267
 11
-4.84291
 21
64.4434
  0
LINE
  8
0
 10
-4.84291
 20
64.4434
 11
-4.64888
 21
65.0406
  0
LINE
  8
0
 10
-4.64888
 20
65.0406
 11
-4.38153
 21
65.6088
  0
LINE
  8
0
 10
-4.38153
 20
65.6088
 11
-4.04507
 21
66.1389
  0
LINE
  8
0
 10
-4.04507
 20
66.1389
 11
-3.64484
 21
66.6227
  0
LINE
  8
0
 10
-3.64484
 20
66.6227
 11
-3.18712
 21
67.0526
  0
LINE
  8
0
 10
-3.18712
 20
67.0526
 11
-2.67912
 21
67.4216
  0
LINE
  8
0
 10
-2.67912
 20
67.4216
 11
-2.12889
 21
67.7241
  0
LINE
  8
0
 10
-2.12889
 20
67.7241
 11
-1.54507
 21
67.9553
  0
LINE
  8
0
 10
-1.54507
 20
67.9553
 11
-0.936905
 21
68.1114
  0
LINE
  8
0
 10
-0.936905
 20
68.1114
 11
-0.31395
 21
68.1901
  0
LINE
  8
0
 10
-0.31395
 20
68.1901
 11
0.31395
 21
68.1901
  0
LINE
  8
0
 10
0.31395
 20
68.1901
 11
0.936905
 21
68.1114
  0
LINE
  8
0
 10
0.936905
 20
68.1114
 11
1.54507
 21
67.9553
  0
LINE
  8
0
 10
1.54507
 20
67.9553
 11
2.12889
 21
67.7241
  0
LINE
  8
0
 10
2.12889
 20
67.7241
 11
2.67912
 21
67.4216
  0
LINE
  8
0
 10
2.67912
 20
67.4216
 11
3.18712
 21
67.0526
  0
LINE
  8
0
 10
3.18712
 20
67.0526
 11
3.64484
 21
66.6227
  0
LINE
  8
0
 10
3.64484
 20
66.6227
 11
4.04507
 21
66.1389
  0
LINE
  8
0
 10
4.04507
 20
66.1389
 11
4.38153
 21
65.6088
  0
LINE
  8
0
 10
4.38153
 20
65.6088
 11
4.64888
 21
65.0406
  0
LINE
  8
0
 10
4.64888
 20
65.0406
 11
4.84291
 21
64.4434
  0
LINE
  8
0
 10
4.84291
 20
64.4434
 11
4.96057
 21
63.8267
  0
LINE
  8
0
 10
4.96057
 20
63.8267
 11
5
 21
63.2
  0
LINE
  8
0
 10
5
 20
63.2
 11
4.96057
 21
62.5733
  0
LINE
  8
0
 10
4.96057
 20
62.5733
 11
4.84291
 21
61.9565
  0
LINE
  8
0
 10
4.84291
 20
61.9565
 11
4.64888
 21
61.3594
  0
LINE
  8
0
 10
4.64888
 20
61.3594
 11
4.38153
 21
60.7912
  0
LINE
  8
0
 10
4.38153
 20
60.7912
 11
4.04507
 21
60.2611
  0
LINE
  8
0
 10
4.04507
 20
60.2611
 11
3.64484
 21
59.7773
  0
LINE
  8
0
 10
3.64484
 20
59.7773
 11
3.18712
 21
59.3474
  0
LINE
  8
0
 10
3.18712
 20
59.3474
 11
2.67912
 21
58.9784
  0
LINE
  8
0
 10
2.67912
 20
58.9784
 11
2.12889
 21
58.6759
  0
LINE
  8
0
 10
2.12889
 20
58.6759
 11
1.54507
 21
58.4447
  0
LINE
  8
0
 10
1.54507
 20
58.4447
 11
0.936905
 21
58.2886
  0
LINE
  8
0
 10
0.936905
 20
58.2886
 11
0.31395
 21
58.2099
  0
LINE
  8
0
 10
0.31395
 20
58.2099
 11
-0.31395
 21
58.2099
  0
LINE
  8
0
 10
-7.5
 20
42.2
 11
-7.5
 21
46.2
  0
LINE
  8
0
 10
-7.5
 20
46.2
 11
7.5
 21
46.2
  0
LINE
  8
0
 10
7.5
 20
46.2
 11
7.5
 21
42.2
  0
LINE
  8
0
 10
7.5
 20
42.2
 11
-7.5
 21
42.2
  0
LINE
  8
0
 10
105
 20
30.2
 11
135
 21
30.2
  0
LINE
  8
0
 10
135
 20
30.2
 11
135
 21
22.2
  0
LINE
  8
0
 10
135
 20
22.2
 11
139
 21
22.2
  0
LINE
  8
0
 10
139
 20
22.2
 11
139
 21
46.2
  0
LINE
  8
0
 10
139
 20
46.2
 11
135
 21
46.2
  0
LINE
  8
0
 10
135
 20
46.2
 11
135
 21
53.7
  0
LINE
  8
0
 10
135
 20
53.7
 11
139
 21
53.7
  0
LINE
  8
0
 10
139
 20
53.7
 11
139
 21
68.7
  0
LINE
  8
0
 10
139
 20
68.7
 11
135
 21
68.7
  0
LINE
  8
0
 10
135
 20
68.7
 11
135
 21
76.2
  0
LINE
  8
0
 10
135
 20
76.2
 11
105
 21
76.2
  0
LINE
  8
0
 10
105
 20
76.2
 11
105
 21
68.7
  0
LINE
  8
0
 10
105
 20
68.7
 11
101
 21
68.7
  0
LINE
  8
0
 10
101
 20
68.7
 11
101
 21
53.7
  0
LINE
  8
0
 10
101
 20
53.7
 11
105
 21
53.7
  0
LINE
  8
0
 10
105
 20
53.7
 11
105
 21
46.2
  0
LINE
  8
0
 10
105
 20
46.2
 11
101
 21
46.2
  0
LINE
  8
0
 10
101
 20
46.2
 11
101
 21
22.2
  0
LINE
  8
0
 10
101
 20
22.2
 11
105
 21
22.2
  0
LINE
  8
0
 10
105
 20
22.2
 11
105
 21
30.2
  0
LINE
  8
0
 10
119.686
 20
58.2099
 11
119.063
 21
58.2886
  0
LINE
  8
0
 10
119.063
 20
58.2886
 11
118.455
 21
58.4447
  0
LINE
  8
0
 10
118.455
 20
58.4447
 11
117.871
 21
58.6759
  0
LINE
  8
0
 10
117.871
 20
58.6759
 11
117.321
 21
58.9784
  0
LINE
  8
0
 10
117.321
 20
58.9784
 11
116.813
 21
59.3474
  0
LINE
  8
0
 10
116.813
 20
59.3474
 11
116.355
 21
59.7773
  0
LINE
  8
0
 10
116.355
 20
59.7773
 11
115.955
 21
60.2611
  0
LINE
  8
0
 10
115.955
 20
60.2611
 11
115.618
 21
60.7912
  0
LINE
  8
0
 10
115.618
 20
60.7912
 11
115.351
 21
61.3594
  0
LINE
  8
0
 10
115.351
 20
61.3594
 11
115.157
 21
61.9565
  0
LINE
  8
0
 10
115.157
 20
61.9565
 11
115.039
 21
62.5733
  0
LINE
  8
0
 10
115.039
 20
62.5733
 11
115
 21
63.2
  0
LINE
  8
0
 10
115
 20
63.2
 11
115.039
 21
63.8267
  0
LINE
  8
0
 10
115.039
 20
63.8267
 11
115.157
 21
64.4434
  0
LINE
  8
0
 10
115.157
 20
64.4434
 11
115.351
 21
65.0406
  0
LINE
  8
0
 10
115.351
 20
65.0406
 11
115.618
 21
65.6088
  0
LINE
  8
0
 10
115.618
 20
65.6088
 11
115.955
 21
66.1389
  0
LINE
  8
0
 10
115.955
 20
66.1389
 11
116.355
 21
66.6227
  0
LINE
  8
0
 10
116.355
 20
66.6227
 11
116.813
 21
67.0526
  0
LINE
  8
0
 10
116.813
 20
67.0526
 11
117.321
 21
67.4216
  0
LINE
  8
0
 10
117.321
 20
67.4216
 11
117.871
 21
67.7241
  0
LINE
  8
0
 10
117.871
 20
67.7241
 11
118.455
 21
67.9553
  0
LINE
  8
0
 10
118.455
 20
67.9553
 11
119.063
 21
68.1114
  0
LINE
  8
0
 10
119.063
 20
68.1114
 11
119.686
 21
68.1901
  0
LINE
  8
0
 10
119.686
 20
68.1901
 11
120.314
 21
68.1901
  0
LINE
  8
0
 10
120.314
 20
68.1901
 11
120.937
 21
68.1114
  0
LINE
  8
0
 10
120.937
 20
68.1114
 11
121.545
 21
67.9553
  0
LINE
  8
0
 10
121.545
 20
67.9553
 11
122.129
 21
67.7241
  0
LINE
  8
0
 10
122.129
 20
67.7241
 11
122.679
 21
67.4216
  0
LINE
  8
0
 10
122.679
 20
67.4216
 11
123.187
 21
67.0526
  0
LINE
  8
0
 10
123.187
 20
67.0526
 11
123.645
 21
66.6227
  0
LINE
  8
0
 10
123.645
 20
66.6227
 11
124.045
 21
66.1389
  0
LINE
  8
0
 10
124.045
 20
66.1389
 11
124.382
 21
65.6088
  0
LINE
  8
0
 10
124.382
 20
65.6088
 11
124.649
 21
65.0406
  0
LINE
  8
0
 10
124.649
 20
65.0406
 11
124.843
 21
64.4434
  0
LINE
  8
0
 10
124.843
 20
64.4434
 11
124.961
 21
63.8267
  0
LINE
  8
0
 10
124.961
 20
63.8267
 11
125
 21
63.2
  0
LINE
  8
0
 10
125
 20
63.2
 11
124.961
 21
62.5733
  0
LINE
  8
0
 10
124.961
 20
62.5733
 11
124.843
 21
61.9565
  0
LINE
  8
0
 10
124.843
 20
61.9565
 11
124.649
 21
61.3594
  0
LINE
  8
0
 10
124.649
 20
61.3594
 11
124.382
 21
60.7912
  0
LINE
  8
0
 10
124.382
 20
60.7912
 11
124.045
 21
60.2611
  0
LINE
  8
0
 10
124.045
 20
60.2611
 11
123.645
 21
59.7773
  0
LINE
  8
0
 10
123.645
 20
59.7773
 11
123.187
 21
59.3474
  0
LINE
  8
0
 10
123.187
 20
59.3474
 11
122.679
 21
58.9784
  0
LINE
  8
0
 10
122.679
 20
58.9784
 11
122.129
 21
58.6759
  0
LINE
  8
0
 10
122.129
 20
58.6759
 11
121.545
 21
58.4447
  0
LINE
  8
0
 10
121.545
 20
58.4447
 11
120.937
 21
58.2886
  0
LINE
  8
0
 10
120.937
 20
58.2886
 11
120.314
 21
58.2099
  0
LINE
  8
0
 10
120.314
 20
58.2099
 11
119.686
 21
58.2099
  0
LINE
  8
0
 10
112.5
 20
42.2
 11
112.5
 21
46.2
  0
LINE
  8
0
 10
112.5
 20
46.2
 11
127.5
 21
46.2
  0
LINE
  8
0
 10
127.5
 20
46.2
 11
127.5
 21
42.2
  0
LINE
  8
0
 10
127.5
 20
42.2
 11
112.5
 21
42.2
  0
LINE
  8
0
 10
65
 20
30.2
 11
95
 21
30.2
  0
LINE
  8
0
 10
95
 20
30.2
 11
95
 21
22.2
  0
LINE
  8
0
 10
95
 20
22.2
 11
99
 21
22.2
  0
LINE
  8
0
 10
99
 20
22.2
 11
99
 21
46.2
  0
LINE
  8
0
 10
99
 20
46.2
 11
95
 21
46.2
  0
LINE
  8
0
 10
95
 20
46.2
 11
95
 21
53.7
  0
LINE
  8
0
 10
95
 20
53.7
 11
99
 21
53.7
  0
LINE
  8
0
 10
99
 20
53.7
 11
99
 21
68.7
  0
LINE
  8
0
 10
99
 20
68.7
 11
95
 21
68.7
  0
LINE
  8
0
 10
95
 20
68.7
 11
95
 21
76.2
  0
LINE
  8
0
 10
95
 20
76.2
 11
65
 21
76.2
  0
LINE
  8
0
 10
65
 20
76.2
 11
65
 21
68.7
  0
LINE
  8
0
 10
65
 20
68.7
 11
61
 21
68.7
  0
LINE
  8
0
 10
61
 20
68.7
 11
61
 21
53.7
  0
LINE
  8
0
 10
61
 20
53.7
 11
65
 21
53.7
  0
LINE
  8
0
 10
65
 20
53.7
 11
65
 21
46.2
  0
LINE
  8
0
 10
65
 20
46.2
 11
61
 21
46.2
  0
LINE
  8
0
 10
61
 20
46.2
 11
61
 21
22.2
  0
LINE
  8
0
 10
61
 20
22.2
 11
65
 21
22.2
  0
LINE
  8
0
 10
65
 20
22.2
 11
65
 21
30.2
  0
LINE
  8
0
 10
79.6861
 20
58.2099
 11
79.0631
 21
58.2886
  0
LINE
  8
0
 10
79.0631
 20
58.2886
 11
78.4549
 21
58.4447
  0
LINE
  8
0
 10
78.4549
 20
58.4447
 11
77.8711
 21
58.6759
  0
LINE
  8
0
 10
77.8711
 20
58.6759
 11
77.3209
 21
58.9784
  0
LINE
  8
0
 10
77.3209
 20
58.9784
 11
76.8129
 21
59.3474
  0
LINE
  8
0
 10
76.8129
 20
59.3474
 11
76.3552
 21
59.7773
  0
LINE
  8
0
 10
76.3552
 20
59.7773
 11
75.9549
 21
60.2611
  0
LINE
  8
0
 10
75.9549
 20
60.2611
 11
75.6185
 21
60.7912
  0
LINE
  8
0
 10
75.6185
 20
60.7912
 11
75.3511
 21
61.3594
  0
LINE
  8
0
 10
75.3511
 20
61.3594
 11
75.1571
 21
61.9565
  0
LINE
  8
0
 10
75.1571
 20
61.9565
 11
75.0394
 21
62.5733
  0
LINE
  8
0
 10
75.0394
 20
62.5733
 11
75
 21
63.2
  0
LINE
  8
0
 10
75
 20
63.2
 11
75.0394
 21
63.8267
  0
LINE
  8
0
 10
75.0394
 20
63.8267
 11
75.1571
 21
64.4434
  0
LINE
  8
0
 10
75.1571
 20
64.4434
 11
75.3511
 21
65.0406
  0
LINE
  8
0
 10
75.3511
 20
65.0406
 11
75.6185
 21
65.6088
  0
LINE
  8
0
 10
75.6185
 20
65.6088
 11
75.9549
 21
66.1389
  0
LINE
  8
0
 10
75.9549
 20
66.1389
 11
76.3552
 21
66.6227
  0
LINE
  8
0
 10
76.3552
 20
66.6227
 11
76.8129
 21
67.0526
  0
LINE
  8
0
 10
76.8129
 20
67.0526
 11
77.3209
 21
67.4216
  0
LINE
  8
0
 10
77.3209
 20
67.4216
 11
77.8711
 21
67.7241
  0
LINE
  8
0
 10
77.8711
 20
67.7241
 11
78.4549
 21
67.9553
  0
LINE
  8
0
 10
78.4549
 20
67.9553
 11
79.0631
 21
68.1114
  0
LINE
  8
0
 10
79.0631
 20
68.1114
 11
79.6861
 21
68.1901
  0
LINE
  8
0
 10
79.6861
 20
68.1901
 11
80.3139
 21
68.1901
  0
LINE
  8
0
 10
80.3139
 20
68.1901
 11
80.9369
 21
68.1114
  0
LINE
  8
0
 10
80.9369
 20
68.1114
 11
81.5451
 21
67.9553
  0
LINE
  8
0
 10
81.5451
 20
67.9553
 11
82.1289
 21
67.7241
  0
LINE
  8
0
 10
82.1289
 20
67.7241
 11
82.6791
 21
67.4216
  0
LINE
  8
0
 10
82.6791
 20
67.4216
 11
83.1871
 21
67.0526
  0
LINE
  8
0
 10
83.1871
 20
67.0526
 11
83.6448
 21
66.6227
  0
LINE
  8
0
 10
83.6448
 20
66.6227
 11
84.0451
 21
66.1389
  0
LINE
  8
0
 10
84.0451
 20
66.1389
 11
84.3815
 21
65.6088
  0
LINE
  8
0
 10
84.3815
 20
65.6088
 11
84.6489
 21
65.0406
  0
LINE
  8
0
 10
84.6489
 20
65.0406
 11
84.8429
 21
64.4434
  0
LINE
  8
0
 10
84.8429
 20
64.4434
 11
84.9606
 21
63.8267
  0
LINE
  8
0
 10
84.9606
 20
63.8267
 11
85
 21
63.2
  0
LINE
  8
0
 10
85
 20
63.2
 11
84.9606
 21
62.5733
  0
LINE
  8
0
 10
84.9606
 20
62.5733
 11
84.8429
 21
61.9565
  0
LINE
  8
0
 10
84.8429
 20
61.9565
 11
84.6489
 21
61.3594
  0
LINE
  8
0
 10
84.6489
 20
61.3594
 11
84.3815
 21
60.7912
  0
LINE
  8
0
 10
84.3815
 20
60.7912
 11
84.0451
 21
60.2611
  0
LINE
  8
0
 10
84.0451
 20
60.2611
 11
83.6448
 21
59.7773
  0
LINE
  8
0
 10
83.6448
 20
59.7773
 11
83.1871
 21
59.3474
  0
LINE
  8
0
 10
83.1871
 20
59.3474
 11
82.6791
 21
58.9784
  0
LINE
  8
0
 10
82.6791
 20
58.9784
 11
82.1289
 21
58.6759
  0
LINE
  8
0
 10
82.1289
 20
58.6759
 11
81.5451
 21
58.4447
  0
LINE
  8
0
 10
81.5451
 20
58.4447
 11
80.9369
 21
58.2886
  0
LINE
  8
0
 10
80.9369
 20
58.2886
 11
80.3139
 21
58.2099
  0
LINE
  8
0
 10
80.3139
 20
58.2099
 11
79.6861
 21
58.2099
  0
LINE
  8
0
 10
72.5
 20
42.2
 11
72.5
 21
46.2
  0
LINE
  8
0
 10
72.5
 20
46.2
 11
87.5
 21
46.2
  0
LINE
  8
0
 10
87.5
 20
46.2
 11
87.5
 21
42.2
  0
LINE
  8
0
 10
87.5
 20
42.2
 11
72.5
 21
42.2
  0
LINE
  8
0
 10
25
 20
30.2
 11
55
 21
30.2
  0
LINE
  8
0
 10
55
 20
30.2
 11
55
 21
22.2
  0
LINE
  8
0
 10
55
 20
22.2
 11
59
 21
22.2
  0
LINE
  8
0
 10
59
 20
22.2
 11
59
 21
46.2
  0
LINE
  8
0
 10
59
 20
46.2
 11
55
 21
46.2
  0
LINE
  8
0
 10
55
 20
46.2
 11
55
 21
53.7
  0
LINE
  8
0
 10
55
 20
53.7
 11
59
 21
53.7
  0
LINE
  8
0
 10
59
 20
53.7
 11
59
 21
68.7
  0
LINE
  8
0
 10
59
 20
68.7
 11
55
 21
68.7
  0
LINE
  8
0
 10
55
 20
68.7
 11
55
 21
76.2
  0
LINE
  8
0
 10
55
 20
76.2
 11
25
 21
76.2
  0
LINE
  8
0
 10
25
 20
76.2
 11
25
 21
68.7
  0
LINE
  8
0
 10
25
 20
68.7
 11
21
 21
68.7
  0
LINE
  8
0
 10
21
 20
68.7
 11
21
 21
53.7
  0
LINE
  8
0
 10
21
 20
53.7
 11
25
 21
53.7
  0
LINE
  8
0
 10
25
 20
53.7
 11
25
 21
46.2
  0
LINE
  8
0
 10
25
 20
46.2
 11
21
 21
46.2
  0
LINE
  8
0
 10
21
 20
46.2
 11
21
 21
22.2
  0
LINE
  8
0
 10
21
 20
22.2
 11
25
 21
22.2
  0
LINE
  8
0
 10
25
 20
22.2
 11
25
 21
30.2
  0
LINE
  8
0
 10
39.6861
 20
58.2099
 11
39.0631
 21
58.2886
  0
LINE
  8
0
 10
39.0631
 20
58.2886
 11
38.4549
 21
58.4447
  0
LINE
  8
0
 10
38.4549
 20
58.4447
 11
37.8711
 21
58.6759
  0
LINE
  8
0
 10
37.8711
 20
58.6759
 11
37.3209
 21
58.9784
  0
LINE
  8
0
 10
37.3209
 20
58.9784
 11
36.8129
 21
59.3474
  0
LINE
  8
0
 10
36.8129
 20
59.3474
 11
36.3552
 21
59.7773
  0
LINE
  8
0
 10
36.3552
 20
59.7773
 11
35.9549
 21
60.2611
  0
LINE
  8
0
 10
35.9549
 20
60.2611
 11
35.6185
 21
60.7912
  0
LINE
  8
0
 10
35.6185
 20
60.7912
 11
35.3511
 21
61.3594
  0
LINE
  8
0
 10
35.3511
 20
61.3594
 11
35.1571
 21
61.9565
  0
LINE
  8
0
 10
35.1571
 20
61.9565
 11
35.0394
 21
62.5733
  0
LINE
  8
0
 10
35.0394
 20
62.5733
 11
35
 21
63.2
  0
LINE
  8
0
 10
35
 20
63.2
 11
35.0394
 21
63.8267
  0
LINE
  8
0
 10
35.0394
 20
63.8267
 11
35.1571
 21
64.4434
  0
LINE
  8
0
 10
35.1571
 20
64.4434
 11
35.3511
 21
65.0406
  0
LINE
  8
0
 10
35.3511
 20
65.0406
 11
35.6185
 21
65.6088
  0
LINE
  8
0
 10
35.6185
 20
65.6088
 11
35.9549
 21
66.1389
  0
LINE
  8
0
 10
35.9549
 20
66.1389
 11
36.3552
 21
66.6227
  0
LINE
  8
0
 10
36.3552
 20
66.6227
 11
36.8129
 21
67.0526
  0
LINE
  8
0
 10
36.8129
 20
67.0526
 11
37.3209
 21
67.4216
  0
LINE
  8
0
 10
37.3209
 20
67.4216
 11
37.8711
 21
67.7241
  0
LINE
  8
0
 10
37.8711
 20
67.7241
 11
38.4549
 21
67.9553
  0
LINE
  8
0
 10
38.4549
 20
67.9553
 11
39.0631
 21
68.1114
  0
LINE
  8
0
 10
39.0631
 20
68.1114
 11
39.6861
 21
68.1901
  0
LINE
  8
0
 10
39.6861
 20
68.1901
 11
40.3139
 21
68.1901
  0
LINE
  8
0
 10
40.3139
 20
68.1901
 11
40.9369
 21
68.1114
  0
LINE
  8
0
 10
40.9369
 20
68.1114
 11
41.5451
 21
67.9553
  0
LINE
  8
0
 10
41.5451
 20
67.9553
 11
42.1289
 21
67.7241
  0
LINE
  8
0
 10
42.1289
 20
67.7241
 11
42.6791
 21
67.4216
  0
LINE
  8
0
 10
42.6791
 20
67.4216
 11
43.1871
 21
67.0526
  0
LINE
  8
0
 10
43.1871
 20
67.0526
 11
43.6448
 21
66.6227
  0
LINE
  8
0
 10
43.6448
 20
66.6227
 11
44.0451
 21
66.1389
  0
LINE
  8
0
 10
44.0451
 20
66.1389
 11
44.3815
 21
65.6088
  0
LINE
  8
0
 10
44.3815
 20
65.6088
 11
44.6489
 21
65.0406
  0
LINE
  8
0
 10
44.6489
 20
65.0406
 11
44.8429
 21
64.4434
  0
LINE
  8
0
 10
44.8429
 20
64.4434
 11
44.9606
 21
63.8267
  0
LINE
  8
0
 10
44.9606
 20
63.8267
 11
45
 21
63.2
  0
LINE
  8
0
 10
45
 20
63.2
 11
44.9606
 21
62.5733
  0
LINE
  8
0
 10
44.9606
 20
62.5733
 11
44.8429
 21
61.9565
  0
LINE
  8
0
 10
44.8429
 20
61.9565
 11
44.6489
 21
61.3594
  0
LINE
  8
0
 10
44.6489
 20
61.3594
 11
44.3815
 21
60.7912
  0
LINE
  8
0
 10
44.3815
 20
60.7912
 11
44.0451
 21
60.2611
  0
LINE
  8
0
 10
44.0451
 20
60.2611
 11
43.6448
 21
59.7773
  0
LINE
  8
0
 10
43.6448
 20
59.7773
 11
43.1871
 21
59.3474
  0
LINE
  8
0
 10
43.1871
 20
59.3474
 11
42.6791
 21
58.9784
  0
LINE
  8
0
 10
42.6791
 20
58.9784
 11
42.1289
 21
58.6759
  0
LINE
  8
0
 10
42.1289
 20
58.6759
 11
41.5451
 21
58.4447
  0
LINE
  8
0
 10
41.5451
 20
58.4447
 11
40.9369
 21
58.2886
  0
LINE
  8
0
 10
40.9369
 20
58.2886
 11
40.3139
 21
58.2099
  0
LINE
  8
0
 10
40.3139
 20
58.2099
 11
39.6861
 21
58.2099
  0
LINE
  8
0
 10
32.5
 20
42.2
 11
32.5
 21
46.2
  0
LINE
  8
0
 10
32.5
 20
46.2
 11
47.5
 21
46.2
  0
LINE
  8
0
 10
47.5
 20
46.2
 11
47.5
 21
42.2
  0
LINE
  8
0
 10
47.5
 20
42.2
 11
32.5
 21
42.2
  0
LINE
  8
0
 10
-15
 20
-31
 11
15
 21
-31
  0
LINE
  8
0
 10
15
 20
-31
 11
15
 21
-39
  0
LINE
  8
0
 10
15
 20
-39
 11
19
 21
-39
  0
LINE
  8
0
 10
19
 20
-39
 11
19
 21
-15
  0
LINE
  8
0
 10
19
 20
-15
 11
15
 21
-15
  0
LINE
  8
0
 10
15
 20
-15
 11
15
 21
-7.5
  0
LINE
  8
0
 10
15
 20
-7.5
 11
19
 21
-7.5
  0
LINE
  8
0
 10
19
 20
-7.5
 11
19
 21
7.5
  0
LINE
  8
0
 10
19
 20
7.5
 11
15
 21
7.5
  0
LINE
  8
0
 10
15
 20
7.5
 11
15
 21
15
  0
LINE
  8
0
 10
15
 20
15
 11
-15
 21
15
  0
LINE
  8
0
 10
-15
 20
15
 11
-15
 21
7.5
  0
LINE
  8
0
 10
-15
 20
7.5
 11
-19
 21
7.5
  0
LINE
  8
0
 10
-19
 20
7.5
 11
-19
 21
-7.5
  0
LINE
  8
0
 10
-19
 20
-7.5
 11
-15
 21
-7.5
  0
LINE
  8
0
 10
-15
 20
-7.5
 11
-15
 21
-15
  0
LINE
  8
0
 10
-15
 20
-15
 11
-19
 21
-15
  0
LINE
  8
0
 10
-19
 20
-15
 11
-19
 21
-39
  0
LINE
  8
0
 10
-19
 20
-39
 11
-15
 21
-39
  0
LINE
  8
0
 10
-15
 20
-39
 11
-15
 21
-31
  0
LINE
  8
0
 10
-0.31395
 20
-2.99013
 11
-0.936905
 21
-2.91142
  0
LINE
  8
0
 10
-0.936905
 20
-2.91142
 11
-1.54507
 21
-2.75528
  0
LINE
  8
0
 10
-1.54507
 20
-2.75528
 11
-2.12889
 21
-2.52412
  0
LINE
  8
0
 10
-2.12889
 20
-2.52412
 11
-2.67912
 21
-2.22163
  0
LINE
  8
0
 10
-2.67912
 20
-2.22163
 11
-3.18712
 21
-1.85255
  0
LINE
  8
0
 10
-3.18712
 20
-1.85255
 11
-3.64484
 21
-1.42273
  0
LINE
  8
0
 10
-3.64484
 20
-1.42273
 11
-4.04507
 21
-0.938919
  0
LINE
  8
0
 10
-4.04507
 20
-0.938919
 11
-4.38153
 21
-0.408768
  0
LINE
  8
0
 10
-4.38153
 20
-0.408768
 11
-4.64888
 21
0.159363
  0
LINE
  8
0
 10
-4.64888
 20
0.159363
 11
-4.84291
 21
0.756546
  0
LINE
  8
0
 10
-4.84291
 20
0.756546
 11
-4.96057
 21
1.37332
  0
LINE
  8
0
 10
-4.96057
 20
1.37332
 11
-5
 21
2
  0
LINE
  8
0
 10
-5
 20
2
 11
-4.96057
 21
2.62666
  0
LINE
  8
0
 10
-4.96057
 20
2.62666
 11
-4.84291
 21
3.24344
  0
LINE
  8
0
 10
-4.84291
 20
3.24344
 11
-4.64888
 21
3.84062
  0
LINE
  8
0
 10
-4.64888
 20
3.84062
 11
-4.38153
 21
4.40877
  0
LINE
  8
0
 10
-4.38153
 20
4.40877
 11
-4.04507
 21
4.93892
  0
LINE
  8
0
 10
-4.04507
 20
4.93892
 11
-3.64484
 21
5.42273
  0
LINE
  8
0
 10
-3.64484
 20
5.42273
 11
-3.18712
 21
5.85255
  0
LINE
  8
0
 10
-3.18712
 20
5.85255
 11
-2.67912
 21
6.22163
  0
LINE
  8
0
 10
-2.67912
 20
6.22163
 11
-2.12889
 21
6.52412
  0
LINE
  8
0
 10
-2.12889
 20
6.52412
 11
-1.54507
 21
6.75528
  0
LINE
  8
0
 10
-1.54507
 20
6.75528
 11
-0.936905
 21
6.91142
  0
LINE
  8
0
 10
-0.936905
 20
6.91142
 11
-0.31395
 21
6.99013
  0
LINE
  8
0
 10
-0.31395
 20
6.99013
 11
0.31395
 21
6.99013
  0
LINE
  8
0
 10
0.31395
 20
6.99013
 11
0.936905
 21
6.91142
  0
LINE
  8
0
 10
0.936905
 20
6.91142
 11
1.54507
 21
6.75528
  0
LINE
  8
0
 10
1.54507
 20
6.75528
 11
2.12889
 21
6.52412
  0
LINE
  8
0
 10
2.12889
 20
6.52412
 11
2.67912
 21
6.22163
  0
LINE
  8
0
 10
2.67912
 20
6.22163
 11
3.18712
 21
5.85255
  0
LINE
  8
0
 10
3.18712
 20
5.85255
 11
3.64484
 21
5.42273
  0
LINE
  8
0
 10
3.64484
 20
5.42273
 11
4.04507
 21
4.93892
  0
LINE
  8
0
 10
4.04507
 20
4.93892
 11
4.38153
 21
4.40877
  0
LINE
  8
0
 10
4.38153
 20
4.40877
 11
4.64888
 21
3.84062
  0
LINE
  8
0
 10
4.64888
 20
3.84062
 11
4.84291
 21
3.24344
  0
LINE
  8
0
 10
4.84291
 20
3.24344
 11
4.96057
 21
2.62666
  0
LINE
  8
0
 10
4.96057
 20
2.62666
 11
5
 21
2
  0
LINE
  8
0
 10
5
 20
2
 11
4.96057
 21
1.37332
  0
LINE
  8
0
 10
4.96057
 20
1.37332
 11
4.84291
 21
0.756546
  0
LINE
  8
0
 10
4.84291
 20
0.756546
 11
4.64888
 21
0.159363
  0
LINE
  8
0
 10
4.64888
 20
0.159363
 11
4.38153
 21
-0.408768
  0
LINE
  8
0
 10
4.38153
 20
-0.408768
 11
4.04507
 21
-0.938919
  0
LINE
  8
0
 10
4.04507
 20
-0.938919
 11
3.64484
 21
-1.42273
  0
LINE
  8
0
 10
3.64484
 20
-1.42273
 11
3.18712
 21
-1.85255
  0
LINE
  8
0
 10
3.18712
 20
-1.85255
 11
2.67912
 21
-2.22163
  0
LINE
  8
0
 10
2.67912
 20
-2.22163
 11
2.12889
 21
-2.52412
  0
LINE
  8
0
 10
2.12889
 20
-2.52412
 11
1.54507
 21
-2.75528
  0
LINE
  8
0
 10
1.54507
 20
-2.75528
 11
0.936905
 21
-2.91142
  0
LINE
  8
0
 10
0.936905
 20
-2.91142
 11
0.31395
 21
-2.99013
  0
LINE
  8
0
 10
0.31395
 20
-2.99013
 11
-0.31395
 21
-2.99013
  0
LINE
  8
0
 10
-7.5
 20
-19
 11
-7.5
 21
-15
  0
LINE
  8
0
 10
-7.5
 20
-15
 11
7.5
 21
-15
  0
LINE
  8
0
 10
7.5
 20
-15
 11
7.5
 21
-19
  0
LINE
  8
0
 10
7.5
 20
-19
 11
-7.5
 21
-19
  0
LINE
  8
0
 10
105
 20
-31
 11
135
 21
-31
  0
LINE
  8
0
 10
135
 20
-31
 11
135
 21
-39
  0
LINE
  8
0
 10
135
 20
-39
 11
139
 21
-39
  0
LINE
  8
0
 10
139
 20
-39
 11
139
 21
-15
  0
LINE
  8
0
 10
139
 20
-15
 11
135
 21
-15
  0
LINE
  8
0
 10
135
 20
-15
 11
135
 21
-7.5
  0
LINE
  8
0
 10
135
 20
-7.5
 11
139
 21
-7.5
  0
LINE
  8
0
 10
139
 20
-7.5
 11
139
 21
7.5
  0
LINE
  8
0
 10
139
 20
7.5
 11
135
 21
7.5
  0
LINE
  8
0
 10
135
 20
7.5
 11
135
 21
15
  0
LINE
  8
0
 10
135
 20
15
 11
105
 21
15
  0
LINE
  8
0
 10
105
 20
15
 11
105
 21
7.5
  0
LINE
  8
0
 10
105
 20
7.5
 11
101
 21
7.5
  0
LINE
  8
0
 10
101
 20
7.5
 11
101
 21
-7.5
  0
LINE
  8
0
 10
101
 20
-7.5
 11
105
 21
-7.5
  0
LINE
  8
0
 10
105
 20
-7.5
 11
105
 21
-15
  0
LINE
  8
0
 10
105
 20
-15
 11
101
 21
-15
  0
LINE
  8
0
 10
101
 20
-15
 11
101
 21
-39
  0
LINE
  8
0
 10
101
 20
-39
 11
105
 21
-39
  0
LINE
  8
0
 10
105
 20
-39
 11
105
 21
-31
  0
LINE
  8
0
 10
119.686
 20
-2.99013
 11
119.063
 21
-2.91142
  0
LINE
  8
0
 10
119.063
 20
-2.91142
 11
118.455
 21
-2.75528
  0
LINE
  8
0
 10
118.455
 20
-2.75528
 11
117.871
 21
-2.52412
  0
LINE
  8
0
 10
117.871
 20
-2.52412
 11
117.321
 21
-2.22163
  0
LINE
  8
0
 10
117.321
 20
-2.22163
 11
116.813
 21
-1.85255
  0
LINE
  8
0
 10
116.813
 20
-1.85255
 11
116.355
 21
-1.42273
  0
LINE
  8
0
 10
116.355
 20
-1.42273
 11
115.955
 21
-0.938919
  0
LINE
  8
0
 10
115.955
 20
-0.938919
 11
115.618
 21
-0.408768
  0
LINE
  8
0
 10
115.618
 20
-0.408768
 11
115.351
 21
0.159363
  0
LINE
  8
0
 10
115.351
 20
0.159363
 11
115.157
 21
0.756546
  0
LINE
  8
0
 10
115.157
 20
0.756546
 11
115.039
 21
1.37332
  0
LINE
  8
0
 10
115.039
 20
1.37332
 11
115
 21
2
  0
LINE
  8
0
 10
115
 20
2
 11
115.039
 21
2.62666
  0
LINE
  8
0
 10
115.039
 20
2.62666
 11
115.157
 21
3.24344
  0
LINE
  8
0
 10
115.157
 20
3.24344
 11
115.351
 21
3.84062
  0
LINE
  8
0
 10
115.351
 20
3.84062
 11
115.618
 21
4.40877
  0
LINE
  8
0
 10
115.618
 20
4.40877
 11
115.955
 21
4.93892
  0
LINE
  8
0
 10
115.955
 20
4.93892
 11
116.355
 21
5.42273
  0
LINE
  8
0
 10
116.355
 20
5.42273
 11
116.813
 21
5.85255
  0
LINE
  8
0
 10
116.813
 20
5.85255
 11
117.321
 21
6.22163
  0
LINE
  8
0
 10
117.321
 20
6.22163
 11
117.871
 21
6.52412
  0
LINE
  8
0
 10
117.871
 20
6.52412
 11
118.455
 21
6.75528
  0
LINE
  8
0
 10
118.455
 20
6.75528
 11
119.063
 21
6.91142
  0
LINE
  8
0
 10
119.063
 20
6.91142
 11
119.686
 21
6.99013
  0
LINE
  8
0
 10
119.686
 20
6.99013
 11
120.314
 21
6.99013
  0
LINE
  8
0
 10
120.314
 20
6.99013
 11
120.937
 21
6.91142
  0
LINE
  8
0
 10
120.937
 20
6.91142
 11
121.545
 21
6.75528
  0
LINE
  8
0
 10
121.545
 20
6.75528
 11
122.129
 21
6.52412
  0
LINE
  8
0
 10
122.129
 20
6.52412
 11
122.679
 21
6.22163
  0
LINE
  8
0
 10
122.679
 20
6.22163
 11
123.187
 21
5.85255
  0
LINE
  8
0
 10
123.187
 20
5.85255
 11
123.645
 21
5.42273
  0
LINE
  8
0
 10
123.645
 20
5.42273
 11
124.045
 21
4.93892
  0
LINE
  8
0
 10
124.045
 20
4.93892
 11
124.382
 21
4.40877
  0
LINE
  8
0
 10
124.382
 20
4.40877
 11
124.649
 21
3.84062
  0
LINE
  8
0
 10
124.649
 20
3.84062
 11
124.843
 21
3.24344
  0
LINE
  8
0
 10
124.843
 20
3.24344
 11
124.961
 21
2.62666
  0
LINE
  8
0
 10
124.961
 20
2.62666
 11
125
 21
2
  0
LINE
  8
0
 10
125
 20
2
 11
124.961
 21
1.37332
  0
LINE
  8
0
 10
124.961
 20
1.37332
 11
124.843
 21
0.756546
  0
LINE
  8
0
 10
124.843
 20
0.756546
 11
124.649
 21
0.159363
  0
LINE
  8
0
 10
124.649
 20
0.159363
 11
124.382
 21
-0.408768
  0
LINE
  8
0
 10
124.382
 20
-0.408768
 11
124.045
 21
-0.938919
  0
LINE
  8
0
 10
124.045
 20
-0.938919
 11
123.645
 21
-1.42273
  0
LINE
  8
0
 10
123.645
 20
-1.42273
 11
123.187
 21
-1.85255
  0
LINE
  8
0
 10
123.187
 20
-1.85255
 11
122.679
 21
-2.22163
  0
LINE
  8
0
 10
122.679
 20
-2.22163
 11
122.129
 21
-2.52412
  0
LINE
  8
0
 10
122.129
 20
-2.52412
 11
121.545
 21
-2.75528
  0
LINE
  8
0
 10
121.545
 20
-2.75528
 11
120.937
 21
-2.91142
  0
LINE
  8
0
 10
120.937
 20
-2.91142
 11
120.314
 21
-2.99013
  0
LINE
  8
0
 10
120.314
 20
-2.99013
 11
119.686
 21
-2.99013
  0
LINE
  8
0
 10
112.5
 20
-19
 11
112.5
 21
-15
  0
LINE
  8
0
 10
112.5
 20
-15
 11
127.5
 21
-15
  0
LINE
  8
0
 10
127.5
 20
-15
 11
127.5
 21
-19
  0
LINE
  8
0
 10
127.5
 20
-19
 11
112.5
 21
-19
  0
LINE
  8
0
 10
65
 20
-31
 11
95
 21
-31
  0
LINE
  8
0
 10
95
 20
-31
 11
95
 21
-39
  0
LINE
  8
0
 10
95
 20
-39
 11
99
 21
-39
  0
LINE
  8
0
 10
99
 20
-39
 11
99
 21
-15
  0
LINE
  8
0
 10
99
 20
-15
 11
95
 21
-15
  0
LINE
  8
0
 10
95
 20
-15
 11
95
 21
-7.5
  0
LINE
  8
0
 10
95
 20
-7.5
 11
99
 21
-7.5
  0
LINE
  8
0
 10
99
 20
-7.5
 11
99
 21
7.5
  0
LINE
  8
0
 10
99
 20
7.5
 11
95
 21
7.5
  0
LINE
  8
0
 10
95
 20
7.5
 11
95
 21
15
  0
LINE
  8
0
 10
95
 20
15
 11
65
 21
15
  0
LINE
  8
0
 10
65
 20
15
 11
65
 21
7.5
  0
LINE
  8
0
 10
65
 20
7.5
 11
61
 21
7.5
  0
LINE
  8
0
 10
61
 20
7.5
 11
61
 21
-7.5
  0
LINE
  8
0
 10
61
 20
-7.5
 11
65
 21
-7.5
  0
LINE
  8
0
 10
65
 20
-7.5
 11
65
 21
-15
  0
LINE
  8
0
 10
65
 20
-15
 11
61
 21
-15
  0
LINE
  8
0
 10
61
 20
-15
 11
61
 21
-39
  0
LINE
  8
0
 10
61
 20
-39
 11
65
 21
-39
  0
LINE
  8
0
 10
65
 20
-39
 11
65
 21
-31
  0
LINE
  8
0
 10
79.6861
 20
-2.99013
 11
79.0631
 21
-2.91142
  0
LINE
  8
0
 10
79.0631
 20
-2.91142
 11
78.4549
 21
-2.75528
  0
LINE
  8
0
 10
78.4549
 20
-2.75528
 11
77.8711
 21
-2.52412
  0
LINE
  8
0
 10
77.8711
 20
-2.52412
 11
77.3209
 21
-2.22163
  0
LINE
  8
0
 10
77.3209
 20
-2.22163
 11
76.8129
 21
-1.85255
  0
LINE
  8
0
 10
76.8129
 20
-1.85255
 11
76.3552
 21
-1.42273
  0
LINE
  8
0
 10
76.3552
 20
-1.42273
 11
75.9549
 21
-0.938919
  0
LINE
  8
0
 10
75.9549
 20
-0.938919
 11
75.6185
 21
-0.408768
  0
LINE
  8
0
 10
75.6185
 20
-0.408768
 11
75.3511
 21
0.159363
  0
LINE
  8
0
 10
75.3511
 20
0.159363
 11
75.1571
 21
0.756546
  0
LINE
  8
0
 10
75.1571
 20
0.756546
 11
75.0394
 21
1.37332
  0
LINE
  8
0
 10
75.0394
 20
1.37332
 11
75
 21
2
  0
LINE
  8
0
 10
75
 20
2
 11
75.0394
 21
2.62666
  0
LINE
  8
0
 10
75.0394
 20
2.62666
 11
75.1571
 21
3.24344
  0
LINE
  8
0
 10
75.1571
 20
3.24344
 11
75.3511
 21
3.84062
  0
LINE
  8
0
 10
75.3511
 20
3.84062
 11
75.6185
 21
4.40877
  0
LINE
  8
0
 10
75.6185
 20
4.40877
 11
75.9549
 21
4.93892
  0
LINE
  8
0
 10
75.9549
 20
4.93892
 11
76.3552
 21
5.42273
  0
LINE
  8
0
 10
76.3552
 20
5.42273
 11
76.8129
 21
5.85255
  0
LINE
  8
0
 10
76.8129
 20
5.85255
 11
77.3209
 21
6.22163
  0
LINE
  8
0
 10
77.3209
 20
6.22163
 11
77.8711
 21
6.52412
  0
LINE
  8
0
 10
77.8711
 20
6.52412
 11
78.4549
 21
6.75528
  0
LINE
  8
0
 10
78.4549
 20
6.75528
 11
79.0631
 21
6.91142
  0
LINE
  8
0
 10
79.0631
 20
6.91142
 11
79.6861
 21
6.99013
  0
LINE
  8
0
 10
79.6861
 20
6.99013
 11
80.3139
 21
6.99013
  0
LINE
  8
0
 10
80.3139
 20
6.99013
 11
80.9369
 21
6.91142
  0
LINE
  8
0
 10
80.9369
 20
6.91142
 11
81.5451
 21
6.75528
  0
LINE
  8
0
 10
81.5451
 20
6.75528
 11
82.1289
 21
6.52412
  0
LINE
  8
0
 10
82.1289
 20
6.52412
 11
82.6791
 21
6.22163
  0
LINE
  8
0
 10
82.6791
 20
6.22163
 11
83.1871
 21
5.85255
  0
LINE
  8
0
 10
83.1871
 20
5.85255
 11
83.6448
 21
5.42273
  0
LINE
  8
0
 10
83.6448
 20
5.42273
 11
84.0451
 21
4.93892
  0
LINE
  8
0
 10
84.0451
 20
4.93892
 11
84.3815
 21
4.40877
  0
LINE
  8
0
 10
84.3815
 20
4.40877
 11
84.6489
 21
3.84062
  0
LINE
  8
0
 10
84.6489
 20
3.84062
 11
84.8429
 21
3.24344
  0
LINE
  8
0
 10
84.8429
 20
3.24344
 11
84.9606
 21
2.62666
  0
LINE
  8
0
 10
84.9606
 20
2.62666
 11
85
 21
2
  0
LINE
  8
0
 10
85
 20
2
 11
84.9606
 21
1.37332
  0
LINE
  8
0
 10
84.9606
 20
1.37332
 11
84.8429
 21
0.756546
  0
LINE
  8
0
 10
84.8429
 20
0.756546
 11
84.6489
 21
0.159363
  0
LINE
  8
0
 10
84.6489
 20
0.159363
 11
84.3815
 21
-0.408768
  0
LINE
  8
0
 10
84.3815
 20
-0.408768
 11
84.0451
 21
-0.938919
  0
LINE
  8
0
 10
84.0451
 20
-0.938919
 11
83.6448
 21
-1.42273
  0
LINE
  8
0
 10
83.6448
 20
-1.42273
 11
83.1871
 21
-1.85255
  0
LINE
  8
0
 10
83.1871
 20
-1.85255
 11
82.6791
 21
-2.22163
  0
LINE
  8
0
 10
82.6791
 20
-2.22163
 11
82.1289
 21
-2.52412
  0
LINE
  8
0
 10
82.1289
 20
-2.52412
 11
81.5451
 21
-2.75528
  0
LINE
  8
0
 10
81.5451
 20
-2.75528
 11
80.9369
 21
-2.91142
  0
LINE
  8
0
 10
80.9369
 20
-2.91142
 11
80.3139
 21
-2.99013
  0
LINE
  8
0
 10
80.3139
 20
-2.99013
 11
79.6861
 21
-2.99013
  0
LINE
  8
0
 10
72.5
 20
-19
 11
72.5
 21
-15
  0
LINE
  8
0
 10
72.5
 20
-15
 11
87.5
 21
-15
  0
LINE
  8
0
 10
87.5
 20
-15
 11
87.5
 21
-19
  0
LINE
  8
0
 10
87.5
 20
-19
 11
72.5
 21
-19
  0
LINE
  8
0
 10
25
 20
-31
 11
55
 21
-31
  0
LINE
  8
0
 10
55
 20
-31
 11
55
 21
-39
  0
LINE
  8
0
 10
55
 20
-39
 11
59
 21
-39
  0
LINE
  8
0
 10
59
 20
-39
 11
59
 21
-15
  0
LINE
  8
0
 10
59
 20
-15
 11
55
 21
-15
  0
LINE
  8
0
 10
55
 20
-15
 11
55
 21
-7.5
  0
LINE
  8
0
 10
55
 20
-7.5
 11
59
 21
-7.5
  0
LINE
  8
0
 10
59
 20
-7.5
 11
59
 21
7.5
  0
LINE
  8
0
 10
59
 20
7.5
 11
55
 21
7.5
  0
LINE
  8
0
 10
55
 20
7.5
 11
55
 21
15
  0
LINE
  8
0
 10
55
 20
15
 11
25
 21
15
  0
LINE
  8
0
 10
25
 20
15
 11
25
 21
7.5
  0
LINE
  8
0
 10
25
 20
7.5
 11
21
 21
7.5
  0
LINE
  8
0
 10
21
 20
7.5
 11
21
 21
-7.5
  0
LINE
  8
0
 10
21
 20
-7.5
 11
25
 21
-7.5
  0
LINE
  8
0
 10
25
 20
-7.5
 11
25
 21
-15
  0
LINE
  8
0
 10
25
 20
-15
 11
21
 21
-15
  0
LINE
  8
0
 10
21
 20
-15
 11
21
 21
-39
  0
LINE
  8
0
 10
21
 20
-39
 11
25
 21
-39
  0
LINE
  8
0
 10
25
 20
-39
 11
25
 21
-31
  0
LINE
  8
0
 10
39.6861
 20
-2.99013
 11
39.0631
 21
-2.91142
  0
LINE
  8
0
 10
39.0631
 20
-2.91142
 11
38.4549
 21
-2.75528
  0
LINE
  8
0
 10
38.4549
 20
-2.75528
 11
37.8711
 21
-2.52412
  0
LINE
  8
0
 10
37.8711
 20
-2.52412
 11
37.3209
 21
-2.22163
  0
LINE
  8
0
 10
37.3209
 20
-2.22163
 11
36.8129
 21
-1.85255
  0
LINE
  8
0
 10
36.8129
 20
-1.85255
 11
36.3552
 21
-1.42273
  0
LINE
  8
0
 10
36.3552
 20
-1.42273
 11
35.9549
 21
-0.938919
  0
LINE
  8
0
 10
35.9549
 20
-0.938919
 11
35.6185
 21
-0.408768
  0
LINE
  8
0
 10
35.6185
 20
-0.408768
 11
35.3511
 21
0.159363
  0
LINE
  8
0
 10
35.3511
 20
0.159363
 11
35.1571
 21
0.756546
  0
LINE
  8
0
 10
35.1571
 20
0.756546
 11
35.0394
 21
1.37332
  0
LINE
  8
0
 10
35.0394
 20
1.37332
 11
35
 21
2
  0
LINE
  8
0
 10
35
 20
2
 11
35.0394
 21
2.62666
  0
LINE
  8
0
 10
35.0394
 20
2.62666
 11
35.1571
 21
3.24344
  0
LINE
  8
0
 10
35.1571
 20
3.24344
 11
35.3511
 21
3.84062
  0
LINE
  8
0
 10
35.3511
 20
3.84062
 11
35.6185
 21
4.40877
  0
LINE
  8
0
 10
35.6185
 20
4.40877
 11
35.9549
 21
4.93892
  0
LINE
  8
0
 10
35.9549
 20
4.93892
 11
36.3552
 21
5.42273
  0
LINE
  8
0
 10
36.3552
 20
5.42273
 11
36.8129
 21
5.85255
  0
LINE
  8
0
 10
36.8129
 20
5.85255
 11
37.3209
 21
6.22163
  0
LINE
  8
0
 10
37.3209
 20
6.22163
 11
37.8711
 21
6.52412
  0
LINE
  8
0
 10
37.8711
 20
6.52412
 11
38.4549
 21
6.75528
  0
LINE
  8
0
 10
38.4549
 20
6.75528
 11
39.0631
 21
6.91142
  0
LINE
  8
0
 10
39.0631
 20
6.91142
 11
39.6861
 21
6.99013
  0
LINE
  8
0
 10
39.6861
 20
6.99013
 11
40.3139
 21
6.99013
  0
LINE
  8
0
 10
40.3139
 20
6.99013
 11
40.9369
 21
6.91142
  0
LINE
  8
0
 10
40.9369
 20
6.91142
 11
41.5451
 21
6.75528
  0
LINE
  8
0
 10
41.5451
 20
6.75528
 11
42.1289
 21
6.52412
  0
LINE
  8
0
 10
42.1289
 20
6.52412
 11
42.6791
 21
6.22163
  0
LINE
  8
0
 10
42.6791
 20
6.22163
 11
43.1871
 21
5.85255
  0
LINE
  8
0
 10
43.1871
 20
5.85255
 11
43.6448
 21
5.42273
  0
LINE
  8
0
 10
43.6448
 20
5.42273
 11
44.0451
 21
4.93892
  0
LINE
  8
0
 10
44.0451
 20
4.93892
 11
44.3815
 21
4.40877
  0
LINE
  8
0
 10
44.3815
 20
4.40877
 11
44.6489
 21
3.84062
  0
LINE
  8
0
 10
44.6489
 20
3.84062
 11
44.8429
 21
3.24344
  0
LINE
  8
0
 10
44.8429
 20
3.24344
 11
44.9606
 21
2.62666
  0
LINE
  8
0
 10
44.9606
 20
2.62666
 11
45
 21
2
  0
LINE
  8
0
 10
45
 20
2
 11
44.9606
 21
1.37332
  0
LINE
  8
0
 10
44.9606
 20
1.37332
 11
44.8429
 21
0.756546
  0
LINE
  8
0
 10
44.8429
 20
0.756546
 11
44.6489
 21
0.159363
  0
LINE
  8
0
 10
44.6489
 20
0.159363
 11
44.3815
 21
-0.408768
  0
LINE
  8
0
 10
44.3815
 20
-0.408768
 11
44.0451
 21
-0.938919
  0
LINE
  8
0
 10
44.0451
 20
-0.938919
 11
43.6448
 21
-1.42273
  0
LINE
  8
0
 10
43.6448
 20
-1.42273
 11
43.1871
 21
-1.85255
  0
LINE
  8
0
 10
43.1871
 20
-1.85255
 11
42.6791
 21
-2.22163
  0
LINE
  8
0
 10
42.6791
 20
-2.22163
 11
42.1289
 21
-2.52412
  0
LINE
  8
0
 10
42.1289
 20
-2.52412
 11
41.5451
 21
-2.75528
  0
LINE
  8
0
 10
41.5451
 20
-2.75528
 11
40.9369
 21
-2.91142
  0
LINE
  8
0
 10
40.9369
 20
-2.91142
 11
40.3139
 21
-2.99013
  0
LINE
  8
0
 10
40.3139
 20
-2.99013
 11
39.6861
 21
-2.99013
  0
LINE
  8
0
 10
32.5
 20
-19
 11
32.5
 21
-15
  0
LINE
  8
0
 10
32.5
 20
-15
 11
47.5
 21
-15
  0
LINE
  8
0
 10
47.5
 20
-15
 11
47.5
 21
-19
  0
LINE
  8
0
 10
47.5
 20
-19
 11
32.5
 21
-19
  0
ENDSEC
  0
SECTION
  2
OBJECTS
  0
DICTIONARY
  0
ENDSEC
  0
EOF
